<?xml version="1.0" standalone="yes"?>

<svg version="1.1" viewBox="0.0 0.0 1058.3044619422571 793.6692913385826" fill="none" stroke="none" stroke-linecap="square" stroke-miterlimit="10" xmlns="http://www.w3.org/2000/svg" xmlns:xlink="http://www.w3.org/1999/xlink"><clipPath id="g26a87ea957_0_197.0"><path d="m0 0l1058.3044 0l0 793.6693l-1058.3044 0l0 -793.6693z" clip-rule="nonzero"></path></clipPath><g clip-path="url(#g26a87ea957_0_197.0)"><path fill="#ffffff" d="m0 0l1058.3044 0l0 793.6693l-1058.3044 0z" fill-rule="evenodd"></path><path fill="#d9d9d9" d="m514.93256 18.018185l0 0c0 -6.0709057 4.9214478 -10.992347 10.992371 -10.992347l43.968018 0l0 0c2.9154053 0 5.7113037 1.1581192 7.772766 3.2195835c2.0614624 2.0614653 3.2196045 4.8574114 3.2196045 7.7727633l0 47.842083c0 6.0709 -4.9214478 10.99234 -10.992371 10.99234l-43.968018 0c-6.070923 0 -10.992371 -4.92144 -10.992371 -10.99234z" fill-rule="evenodd"></path><path stroke="#d9d9d9" stroke-width="1.0" stroke-linejoin="round" stroke-linecap="butt" d="m514.93256 18.018185l0 0c0 -6.0709057 4.9214478 -10.992347 10.992371 -10.992347l43.968018 0l0 0c2.9154053 0 5.7113037 1.1581192 7.772766 3.2195835c2.0614624 2.0614653 3.2196045 4.8574114 3.2196045 7.7727633l0 47.842083c0 6.0709 -4.9214478 10.99234 -10.992371 10.99234l-43.968018 0c-6.070923 0 -10.992371 -4.92144 -10.992371 -10.99234z" fill-rule="evenodd"></path><path fill="#000000" d="m545.7351 43.8736l2.8125 0.890625q-0.640625 2.34375 -2.140625 3.484375q-1.5 1.140625 -3.8125 1.140625q-2.84375 0 -4.6875 -1.953125q-1.828125 -1.953125 -1.828125 -5.328125q0 -3.578125 1.84375 -5.546875q1.84375 -1.984375 4.84375 -1.984375q2.640625 0 4.28125 1.546875q0.96875 0.921875 1.453125 2.640625l-2.859375 0.6875q-0.25 -1.109375 -1.0625 -1.75q-0.796875 -0.65625 -1.953125 -0.65625q-1.59375 0 -2.59375 1.140625q-0.984375 1.140625 -0.984375 3.703125q0 2.71875 0.96875 3.875q0.984375 1.140625 2.546875 1.140625q1.15625 0 1.984375 -0.71875q0.828125 -0.734375 1.1875 -2.3125zm11.708984 5.265625l-2.75 0l0 -10.34375q-1.5 1.40625 -3.546875 2.078125l0 -2.484375q1.078125 -0.359375 2.328125 -1.328125q1.265625 -0.984375 1.734375 -2.296875l2.234375 0l0 14.375z" fill-rule="nonzero"></path><path fill="#d9d9d9" d="m675.0692 18.018147l0 0c0 -6.0709047 4.9214478 -10.992346 10.99231 -10.992346l43.96808 0l0 0c2.9153442 0 5.7113037 1.1581192 7.772766 3.2195835c2.0614624 2.0614653 3.2196045 4.8574114 3.2196045 7.7727623l0 47.842083c0 6.0709 -4.9214478 10.99234 -10.992371 10.99234l-43.96808 0c-6.070862 0 -10.99231 -4.92144 -10.99231 -10.99234z" fill-rule="evenodd"></path><path stroke="#d9d9d9" stroke-width="1.0" stroke-linejoin="round" stroke-linecap="butt" d="m675.0692 18.018147l0 0c0 -6.0709047 4.9214478 -10.992346 10.99231 -10.992346l43.96808 0l0 0c2.9153442 0 5.7113037 1.1581192 7.772766 3.2195835c2.0614624 2.0614653 3.2196045 4.8574114 3.2196045 7.7727623l0 47.842083c0 6.0709 -4.9214478 10.99234 -10.992371 10.99234l-43.96808 0c-6.070862 0 -10.99231 -4.92144 -10.99231 -10.99234z" fill-rule="evenodd"></path><path fill="#000000" d="m705.87177 43.87356l2.8125 0.890625q-0.640625 2.34375 -2.140625 3.484375q-1.5 1.140625 -3.8125 1.140625q-2.84375 0 -4.6875 -1.953125q-1.828125 -1.953125 -1.828125 -5.328125q0 -3.578125 1.84375 -5.546875q1.84375 -1.984375 4.84375 -1.984375q2.640625 0 4.28125 1.546875q0.96875 0.921875 1.453125 2.640625l-2.859375 0.6875q-0.25 -1.109375 -1.0625 -1.75q-0.796875 -0.65625 -1.953125 -0.65625q-1.59375 0 -2.59375 1.140625q-0.984375 1.140625 -0.984375 3.703125q0 2.71875 0.96875 3.875q0.984375 1.140625 2.546875 1.140625q1.15625 0 1.984375 -0.71875q0.828125 -0.734375 1.1875 -2.3125zm13.974609 -5.546875l-2.65625 0.296875q-0.09375 -0.828125 -0.5 -1.21875q-0.40625 -0.390625 -1.0625 -0.390625q-0.875 0 -1.484375 0.78125q-0.59375 0.78125 -0.75 3.25q1.03125 -1.203125 2.546875 -1.203125q1.71875 0 2.9375 1.3125q1.234375 1.296875 1.234375 3.375q0 2.203125 -1.296875 3.53125q-1.28125 1.328125 -3.296875 1.328125q-2.171875 0 -3.578125 -1.6875q-1.390625 -1.6875 -1.390625 -5.53125q0 -3.9375 1.453125 -5.671875q1.46875 -1.734375 3.78125 -1.734375q1.640625 0 2.703125 0.921875q1.078125 0.90625 1.359375 2.640625zm-6.21875 5.984375q0 1.34375 0.609375 2.078125q0.625 0.71875 1.421875 0.71875q0.75 0 1.25 -0.59375q0.515625 -0.59375 0.515625 -1.953125q0 -1.40625 -0.546875 -2.046875q-0.546875 -0.65625 -1.359375 -0.65625q-0.796875 0 -1.34375 0.625q-0.546875 0.625 -0.546875 1.828125z" fill-rule="nonzero"></path><path fill="#d9d9d9" d="m595.86865 18.01859l0 0c0 -6.0709057 4.9214478 -10.992347 10.99231 -10.992347l43.96808 0l0 0c2.9153442 0 5.7113037 1.1581192 7.772766 3.2195835c2.0614624 2.0614653 3.2196045 4.8574114 3.2196045 7.7727633l0 47.84208c0 6.0709 -4.9214478 10.992348 -10.992371 10.992348l-43.96808 0c-6.070862 0 -10.99231 -4.9214478 -10.99231 -10.992348z" fill-rule="evenodd"></path><path stroke="#d9d9d9" stroke-width="1.0" stroke-linejoin="round" stroke-linecap="butt" d="m595.86865 18.01859l0 0c0 -6.0709057 4.9214478 -10.992347 10.99231 -10.992347l43.96808 0l0 0c2.9153442 0 5.7113037 1.1581192 7.772766 3.2195835c2.0614624 2.0614653 3.2196045 4.8574114 3.2196045 7.7727633l0 47.84208c0 6.0709 -4.9214478 10.992348 -10.992371 10.992348l-43.96808 0c-6.070862 0 -10.99231 -4.9214478 -10.99231 -10.992348z" fill-rule="evenodd"></path><path fill="#000000" d="m626.6712 43.874004l2.8125 0.890625q-0.640625 2.34375 -2.140625 3.484375q-1.5 1.140625 -3.8125 1.140625q-2.84375 0 -4.6875 -1.953125q-1.828125 -1.953125 -1.828125 -5.328125q0 -3.578125 1.84375 -5.546875q1.84375 -1.984375 4.84375 -1.984375q2.640625 0 4.28125 1.546875q0.96875 0.921875 1.453125 2.640625l-2.859375 0.6875q-0.25 -1.109375 -1.0625 -1.75q-0.796875 -0.65625 -1.953125 -0.65625q-1.59375 0 -2.59375 1.140625q-0.984375 1.140625 -0.984375 3.703125q0 2.71875 0.96875 3.875q0.984375 1.140625 2.546875 1.140625q1.15625 0 1.984375 -0.71875q0.828125 -0.734375 1.1875 -2.3125zm10.068359 5.265625l0 -2.875l-5.859375 0l0 -2.40625l6.203125 -9.09375l2.3125 0l0 9.078125l1.78125 0l0 2.421875l-1.78125 0l0 2.875l-2.65625 0zm0 -5.296875l0 -4.890625l-3.296875 4.890625l3.296875 0z" fill-rule="nonzero"></path><path fill="#d9d9d9" d="m761.6781 18.018147l0 0c0 -6.0709047 4.9214478 -10.992346 10.992371 -10.992346l43.96808 0l0 0c2.9153442 0 5.7113037 1.1581192 7.772766 3.2195835c2.0614624 2.0614653 3.2195435 4.8574114 3.2195435 7.7727623l0 47.842083c0 6.0709 -4.9214478 10.99234 -10.99231 10.99234l-43.96808 0c-6.070923 0 -10.992371 -4.92144 -10.992371 -10.99234z" fill-rule="evenodd"></path><path stroke="#d9d9d9" stroke-width="1.0" stroke-linejoin="round" stroke-linecap="butt" d="m761.6781 18.018147l0 0c0 -6.0709047 4.9214478 -10.992346 10.992371 -10.992346l43.96808 0l0 0c2.9153442 0 5.7113037 1.1581192 7.772766 3.2195835c2.0614624 2.0614653 3.2195435 4.8574114 3.2195435 7.7727623l0 47.842083c0 6.0709 -4.9214478 10.99234 -10.99231 10.99234l-43.96808 0c-6.070923 0 -10.992371 -4.92144 -10.992371 -10.99234z" fill-rule="evenodd"></path><path fill="#000000" d="m792.48065 43.87356l2.8125 0.890625q-0.640625 2.34375 -2.140625 3.484375q-1.5 1.140625 -3.8125 1.140625q-2.84375 0 -4.6875 -1.953125q-1.828125 -1.953125 -1.828125 -5.328125q0 -3.578125 1.84375 -5.546875q1.84375 -1.984375 4.84375 -1.984375q2.640625 0 4.28125 1.546875q0.96875 0.921875 1.453125 2.640625l-2.859375 0.6875q-0.25 -1.109375 -1.0625 -1.75q-0.796875 -0.65625 -1.953125 -0.65625q-1.59375 0 -2.59375 1.140625q-0.984375 1.140625 -0.984375 3.703125q0 2.71875 0.96875 3.875q0.984375 1.140625 2.546875 1.140625q1.15625 0 1.984375 -0.71875q0.828125 -0.734375 1.1875 -2.3125zm4.7402344 1.953125l2.65625 -0.296875q0.09375 0.8125 0.5 1.203125q0.421875 0.390625 1.09375 0.390625q0.84375 0 1.4375 -0.78125q0.609375 -0.78125 0.765625 -3.234375q-1.03125 1.203125 -2.578125 1.203125q-1.6875 0 -2.921875 -1.296875q-1.21875 -1.3125 -1.21875 -3.40625q0 -2.171875 1.28125 -3.5q1.296875 -1.34375 3.296875 -1.34375q2.1875 0 3.578125 1.6875q1.40625 1.6875 1.40625 5.53125q0 3.9375 -1.46875 5.671875q-1.453125 1.734375 -3.78125 1.734375q-1.6875 0 -2.71875 -0.890625q-1.03125 -0.890625 -1.328125 -2.671875zm6.21875 -6.0q0 -1.328125 -0.609375 -2.046875q-0.609375 -0.734375 -1.421875 -0.734375q-0.75 0 -1.265625 0.59375q-0.5 0.59375 -0.5 1.96875q0 1.390625 0.546875 2.046875q0.546875 0.640625 1.375 0.640625q0.78125 0 1.328125 -0.625q0.546875 -0.625 0.546875 -1.84375z" fill-rule="nonzero"></path><path fill="#3c78d8" d="m517.0892 98.79002l61.637817 0l0 42.110245l-61.637817 0z" fill-rule="evenodd"></path><path stroke="#3c78d8" stroke-width="1.0" stroke-linejoin="round" stroke-linecap="butt" d="m517.0892 98.79002l61.637817 0l0 42.110245l-61.637817 0z" fill-rule="evenodd"></path><path fill="#ffffff" d="m549.703 126.19765q1.28125 0.921875 2.78125 1.453125l-1.28125 2.453125q-0.78125 -0.234375 -1.53125 -0.640625q-0.171875 -0.078125 -2.3125 -1.53125q-1.6875 0.75 -3.734375 0.75q-3.96875 0 -6.21875 -2.328125q-2.234375 -2.34375 -2.234375 -6.5625q0 -4.203125 2.25 -6.53125q2.25 -2.34375 6.109375 -2.34375q3.8125 0 6.046875 2.34375q2.25 2.328125 2.25 6.53125q0 2.234375 -0.625 3.921875q-0.46875 1.28125 -1.5 2.484375zm-2.796875 -1.953125q0.671875 -0.78125 1.0 -1.890625q0.34375 -1.125 0.34375 -2.5625q0 -2.96875 -1.3125 -4.4375q-1.3125 -1.484375 -3.4375 -1.484375q-2.125 0 -3.4375 1.484375q-1.3125 1.46875 -1.3125 4.4375q0 3.015625 1.3125 4.515625q1.3125 1.484375 3.328125 1.484375q0.75 0 1.421875 -0.25q-1.046875 -0.6875 -2.140625 -1.078125l0.96875 -1.96875q1.71875 0.578125 3.265625 1.75z" fill-rule="nonzero"></path><path fill="#ffffff" d="m559.0897 137.38515l-2.1875 0l0 -8.28125q-1.203125 1.125 -2.84375 1.671875l0 -2.0q0.859375 -0.28125 1.859375 -1.0625076q1.015625 -0.78125 1.390625 -1.828125l1.78125 0l0 11.500008z" fill-rule="nonzero"></path><path fill="#ff8b1e" d="m598.0262 98.79002l61.637817 0l0 42.110245l-61.637817 0z" fill-rule="evenodd"></path><path stroke="#ff8b1e" stroke-width="1.0" stroke-linejoin="round" stroke-linecap="butt" d="m598.0262 98.79002l61.637817 0l0 42.110245l-61.637817 0z" fill-rule="evenodd"></path><path fill="#ffffff" d="m630.64 126.19765q1.28125 0.921875 2.78125 1.453125l-1.28125 2.453125q-0.78125 -0.234375 -1.53125 -0.640625q-0.171875 -0.078125 -2.3125 -1.53125q-1.6875 0.75 -3.734375 0.75q-3.96875 0 -6.21875 -2.328125q-2.234375 -2.34375 -2.234375 -6.5625q0 -4.203125 2.25 -6.53125q2.25 -2.34375 6.109375 -2.34375q3.8125 0 6.046875 2.34375q2.25 2.328125 2.25 6.53125q0 2.234375 -0.625 3.921875q-0.46875 1.28125 -1.5 2.484375zm-2.796875 -1.953125q0.671875 -0.78125 1.0 -1.890625q0.34375 -1.125 0.34375 -2.5625q0 -2.96875 -1.3125 -4.4375q-1.3125 -1.484375 -3.4375 -1.484375q-2.125 0 -3.4375 1.484375q-1.3125 1.46875 -1.3125 4.4375q0 3.015625 1.3125 4.515625q1.3125 1.484375 3.328125 1.484375q0.75 0 1.421875 -0.25q-1.046875 -0.6875 -2.140625 -1.078125l0.96875 -1.96875q1.71875 0.578125 3.265625 1.75z" fill-rule="nonzero"></path><path fill="#ffffff" d="m641.8236 135.33827l0 2.046875l-7.6875 0q0.125 -1.15625 0.75 -2.1875q0.625 -1.046875 2.46875 -2.75q1.484375 -1.390625 1.8125 -1.875q0.453125 -0.6875 0.453125 -1.34375q0 -0.734375 -0.390625 -1.125q-0.390625 -0.40625763 -1.09375 -0.40625763q-0.6875 0 -1.09375 0.42188263q-0.40625 0.40625 -0.46875 1.375l-2.1875 -0.21875q0.203125 -1.8125076 1.234375 -2.5937576q1.03125 -0.796875 2.578125 -0.796875q1.6875 0 2.65625 0.921875q0.96875 0.90625 0.96875 2.2656326q0 0.765625 -0.28125 1.46875q-0.265625 0.703125 -0.875 1.46875q-0.390625 0.5 -1.4375 1.453125q-1.03125 0.953125 -1.3125 1.265625q-0.28125 0.3125 -0.453125 0.609375l4.359375 0z" fill-rule="nonzero"></path><path fill="#6aa84f" d="m682.6299 98.79002l61.637817 0l0 42.110245l-61.637817 0z" fill-rule="evenodd"></path><path stroke="#6aa84f" stroke-width="1.0" stroke-linejoin="round" stroke-linecap="butt" d="m682.6299 98.79002l61.637817 0l0 42.110245l-61.637817 0z" fill-rule="evenodd"></path><path fill="#ffffff" d="m715.2437 126.19765q1.28125 0.921875 2.78125 1.453125l-1.28125 2.453125q-0.78125 -0.234375 -1.53125 -0.640625q-0.171875 -0.078125 -2.3125 -1.53125q-1.6875 0.75 -3.734375 0.75q-3.96875 0 -6.21875 -2.328125q-2.234375 -2.34375 -2.234375 -6.5625q0 -4.203125 2.25 -6.53125q2.25 -2.34375 6.109375 -2.34375q3.8125 0 6.046875 2.34375q2.25 2.328125 2.25 6.53125q0 2.234375 -0.625 3.921875q-0.46875 1.28125 -1.5 2.484375zm-2.796875 -1.953125q0.671875 -0.78125 1.0 -1.890625q0.34375 -1.125 0.34375 -2.5625q0 -2.96875 -1.3125 -4.4375q-1.3125 -1.484375 -3.4375 -1.484375q-2.125 0 -3.4375 1.484375q-1.3125 1.46875 -1.3125 4.4375q0 3.015625 1.3125 4.515625q1.3125 1.484375 3.328125 1.484375q0.75 0 1.421875 -0.25q-1.046875 -0.6875 -2.140625 -1.078125l0.96875 -1.96875q1.71875 0.578125 3.265625 1.75z" fill-rule="nonzero"></path><path fill="#ffffff" d="m718.94293 134.33827l2.125 -0.25q0.09375 0.8125 0.53125 1.25q0.453125 0.421875 1.09375 0.421875q0.671875 0 1.140625 -0.515625q0.46875 -0.515625 0.46875 -1.390625q0 -0.828125 -0.453125 -1.3125q-0.4375 -0.484375 -1.078125 -0.484375q-0.421875 0 -1.015625 0.15625l0.25 -1.78125q0.890625 0.015625 1.359375 -0.390625q0.46875 -0.40625 0.46875 -1.09375q0 -0.578125 -0.34375 -0.921875q-0.34375 -0.34375763 -0.921875 -0.34375763q-0.5625 0 -0.96875 0.39063263q-0.390625 0.390625 -0.46875 1.140625l-2.03125 -0.34375q0.21875 -1.0312576 0.640625 -1.6562576q0.421875 -0.625 1.1875 -0.96875q0.765625 -0.359375 1.703125 -0.359375q1.625 0 2.59375 1.03125q0.8125 0.84375 0.8125 1.9062576q0 1.5 -1.65625 2.40625q0.984375 0.203125 1.578125 0.9375q0.59375 0.734375 0.59375 1.78125q0 1.5 -1.109375 2.578125q-1.09375 1.0625 -2.734375 1.0625q-1.5625 0 -2.59375 -0.890625q-1.015625 -0.90625 -1.171875 -2.359375z" fill-rule="nonzero"></path><path fill="#674ea7" d="m767.2335 98.79002l61.637817 0l0 42.110245l-61.637817 0z" fill-rule="evenodd"></path><path stroke="#674ea7" stroke-width="1.0" stroke-linejoin="round" stroke-linecap="butt" d="m767.2335 98.79002l61.637817 0l0 42.110245l-61.637817 0z" fill-rule="evenodd"></path><path fill="#ffffff" d="m799.84735 126.19765q1.28125 0.921875 2.78125 1.453125l-1.28125 2.453125q-0.78125 -0.234375 -1.53125 -0.640625q-0.171875 -0.078125 -2.3125 -1.53125q-1.6875 0.75 -3.734375 0.75q-3.96875 0 -6.21875 -2.328125q-2.234375 -2.34375 -2.234375 -6.5625q0 -4.203125 2.25 -6.53125q2.25 -2.34375 6.109375 -2.34375q3.8125 0 6.046875 2.34375q2.25 2.328125 2.25 6.53125q0 2.234375 -0.625 3.921875q-0.46875 1.28125 -1.5 2.484375zm-2.796875 -1.953125q0.671875 -0.78125 1.0 -1.890625q0.34375 -1.125 0.34375 -2.5625q0 -2.96875 -1.3125 -4.4375q-1.3125 -1.484375 -3.4375 -1.484375q-2.125 0 -3.4375 1.484375q-1.3125 1.46875 -1.3125 4.4375q0 3.015625 1.3125 4.515625q1.3125 1.484375 3.328125 1.484375q0.75 0 1.421875 -0.25q-1.046875 -0.6875 -2.140625 -1.078125l0.96875 -1.96875q1.71875 0.578125 3.265625 1.75z" fill-rule="nonzero"></path><path fill="#ffffff" d="m807.9216 137.38515l0 -2.3125l-4.6875 0l0 -1.921875l4.96875 -7.2656326l1.84375 0l0 7.2656326l1.421875 0l0 1.921875l-1.421875 0l0 2.3125l-2.125 0zm0 -4.234375l0 -3.921875l-2.625 3.921875l2.625 0z" fill-rule="nonzero"></path><path fill="#a64d79" d="m430.30966 4.8845143l61.637787 0l0 42.110237l-61.637787 0z" fill-rule="evenodd"></path><path stroke="#a64d79" stroke-width="1.0" stroke-linejoin="round" stroke-linecap="butt" d="m430.30966 4.8845143l61.637787 0l0 42.110237l-61.637787 0z" fill-rule="evenodd"></path><path fill="#ffffff" d="m462.9235 32.292133q1.28125 0.921875 2.78125 1.453125l-1.28125 2.453125q-0.78125 -0.234375 -1.53125 -0.640625q-0.171875 -0.078125 -2.3125 -1.53125q-1.6875 0.75 -3.734375 0.75q-3.96875 0 -6.21875 -2.328125q-2.234375 -2.343752 -2.234375 -6.562502q0 -4.203125 2.25 -6.53125q2.25 -2.34375 6.109375 -2.34375q3.8125 0 6.046875 2.34375q2.25 2.328125 2.25 6.53125q0 2.234375 -0.625 3.921875q-0.46875 1.28125 -1.5 2.484377zm-2.796875 -1.9531269q0.671875 -0.78125 1.0 -1.890625q0.34375 -1.125 0.34375 -2.5625q0 -2.96875 -1.3125 -4.4375q-1.3125 -1.484375 -3.4375 -1.484375q-2.125 0 -3.4375 1.484375q-1.3125 1.46875 -1.3125 4.4375q0 3.015625 1.3125 4.515625q1.3125 1.484375 3.328125 1.484375q0.75 0 1.421875 -0.25q-1.046875 -0.6875 -2.140625 -1.078125l0.96875 -1.96875q1.71875 0.578125 3.265625 1.75z" fill-rule="nonzero"></path><path fill="#ffffff" d="m466.7321 40.526505l2.1875 -0.21875q0.09375 0.734375 0.546875 1.171875q0.46875 0.4375 1.0625 0.4375q0.6875 0 1.15625 -0.5625q0.484375 -0.5625 0.484375 -1.6875q0 -1.046875 -0.46875 -1.578125q-0.46875 -0.53125 -1.234375 -0.53125q-0.9375 0 -1.6875 0.84375l-1.78125 -0.265625l1.125 -5.953125l5.796875 0l0 2.046875l-4.140625 0l-0.34375 1.953125q0.734375 -0.375 1.5 -0.375q1.46875 0 2.484375 1.0625q1.015625 1.0625 1.015625 2.765625q0 1.40625 -0.828125 2.515625q-1.109375 1.53125 -3.09375 1.53125q-1.59375 0 -2.59375 -0.859375q-1.0 -0.859375 -1.1875 -2.296875z" fill-rule="nonzero"></path><path fill="#000000" fill-opacity="0.0" d="m135.50131 59.139107l379.43307 -1.1968498" fill-rule="evenodd"></path><path stroke="#595959" stroke-width="3.0" stroke-linejoin="round" stroke-linecap="butt" d="m135.50131 59.139107l361.43317 -1.1400719" fill-rule="evenodd"></path><path fill="#595959" stroke="#595959" stroke-width="3.0" stroke-linecap="butt" d="m496.9501 62.95421l13.598602 -4.9981155l-13.629852 -4.9122314z" fill-rule="evenodd"></path><path fill="#000000" fill-opacity="0.0" d="m861.16534 14.963255l1.5748291 209.76378" fill-rule="evenodd"></path><path stroke="#595959" stroke-width="3.0" stroke-linejoin="round" stroke-linecap="butt" d="m861.16534 14.963255l1.4396362 191.7643" fill-rule="evenodd"></path><path fill="#595959" stroke="#595959" stroke-width="3.0" stroke-linecap="butt" d="m857.64996 206.76474l5.057251 13.576706l4.852844 -13.651108z" fill-rule="evenodd"></path><path fill="#000000" fill-opacity="0.0" d="m861.16534 92.884514l61.637817 0l0 53.921257l-61.637817 0z" fill-rule="evenodd"></path><path fill="#434343" d="m877.6497 132.60452l0 -19.031258l-6.796875 0l0 -3.875l18.203125 0l0 3.875l-6.78125 0l0 19.031258l-4.625 0zm20.84375 -23.000008q3.328125 0 5.203125 2.375q2.234375 2.8125 2.234375 9.328125q0 6.5 -2.25 9.343758q-1.859375 2.34375 -5.1875 2.34375q-3.34375 0 -5.390625 -2.5625q-2.046875 -2.5781326 -2.046875 -9.171883q0 -6.46875 2.25 -9.3125q1.859375 -2.34375 5.1875 -2.34375zm0 3.640625q-0.796875 0 -1.421875 0.515625q-0.625 0.5 -0.96875 1.8125q-0.453125 1.703125 -0.453125 5.734375q0 4.03125 0.40625 5.546875q0.40625 1.5000076 1.015625 2.0000076q0.625 0.5 1.421875 0.5q0.796875 0 1.421875 -0.5q0.625 -0.515625 0.96875 -1.8281326q0.453125 -1.6875 0.453125 -5.71875q0 -4.03125 -0.40625 -5.53125q-0.40625 -1.515625 -1.03125 -2.015625q-0.609375 -0.515625 -1.40625 -0.515625z" fill-rule="nonzero"></path></g></svg>

