<?xml version="1.0" encoding="UTF-8" standalone="no"?>
<svg
   xmlns:dc="http://purl.org/dc/elements/1.1/"
   xmlns:cc="http://creativecommons.org/ns#"
   xmlns:rdf="http://www.w3.org/1999/02/22-rdf-syntax-ns#"
   xmlns:svg="http://www.w3.org/2000/svg"
   xmlns="http://www.w3.org/2000/svg"
   xmlns:sodipodi="http://sodipodi.sourceforge.net/DTD/sodipodi-0.dtd"
   xmlns:inkscape="http://www.inkscape.org/namespaces/inkscape"
   version="1.1"
   viewBox="0 0 464.28574 687.1428"
   stroke-miterlimit="10"
   id="svg215"
   sodipodi:docname="loadClientServer.svg"
   width="464.28574"
   height="687.14282"
   style="fill:none;stroke:none;stroke-linecap:square;stroke-miterlimit:10"
   inkscape:version="0.92.2 5c3e80d, 2017-08-06">
  <metadata
     id="metadata221">
    <rdf:RDF>
      <cc:Work
         rdf:about="">
        <dc:format>image/svg+xml</dc:format>
        <dc:type
           rdf:resource="http://purl.org/dc/dcmitype/StillImage" />
        <dc:title></dc:title>
      </cc:Work>
    </rdf:RDF>
  </metadata>
  <defs
     id="defs219" />
  <sodipodi:namedview
     pagecolor="#ffffff"
     bordercolor="#666666"
     borderopacity="1"
     objecttolerance="10"
     gridtolerance="10"
     guidetolerance="10"
     inkscape:pageopacity="0"
     inkscape:pageshadow="2"
     inkscape:window-width="1280"
     inkscape:window-height="751"
     id="namedview217"
     showgrid="false"
     fit-margin-top="0"
     fit-margin-left="0"
     fit-margin-right="0"
     fit-margin-bottom="0"
     inkscape:zoom="0.7"
     inkscape:cx="284.8665"
     inkscape:cy="296.83462"
     inkscape:window-x="0"
     inkscape:window-y="1"
     inkscape:window-maximized="1"
     inkscape:current-layer="svg215" />
  <clipPath
     id="g2768474cd2_0_567.0">
    <path
       d="M 0,0 H 1058.3044 V 793.6693 H 0 Z"
       id="path2"
       inkscape:connector-curvature="0"
       style="clip-rule:nonzero" />
  </clipPath>
  <g
     clip-path="url(#g2768474cd2_0_567.0)"
     id="g213"
     transform="translate(-244.28572,-6.5264544)">
    <path
       d="M 0,0 H 1058.3044 V 793.6693 H 0 Z"
       id="path5"
       inkscape:connector-curvature="0"
       style="fill:#ffffff;fill-rule:evenodd" />
    <path
       d="M 664.90894,503.11508 517.38141,287.55603"
       id="path7"
       inkscape:connector-curvature="0"
       style="fill:#000000;fill-opacity:0;fill-rule:evenodd" />
    <path
       d="M 664.90894,503.11508 527.54755,302.41028"
       id="path9"
       inkscape:connector-curvature="0"
       style="fill-rule:evenodd;stroke:#595959;stroke-width:3;stroke-linecap:butt;stroke-linejoin:round" />
    <path
       d="m 531.6368,299.61163 -11.77838,-8.43637 3.59997,14.03363 z"
       id="path11"
       inkscape:connector-curvature="0"
       style="fill:#595959;fill-rule:evenodd;stroke:#595959;stroke-width:3;stroke-linecap:butt" />
    <path
       d="M 609.09,617.5665 517.37351,287.55075"
       id="path13"
       inkscape:connector-curvature="0"
       style="fill:#000000;fill-opacity:0;fill-rule:evenodd" />
    <path
       d="M 609.0901,617.5665 522.19331,304.89343"
       id="path15"
       inkscape:connector-curvature="0"
       style="fill-rule:evenodd;stroke:#595959;stroke-width:3;stroke-linecap:butt;stroke-linejoin:round" />
    <path
       d="m 526.9676,303.56665 -8.41974,-11.79031 -1.12878,14.44397 z"
       id="path17"
       inkscape:connector-curvature="0"
       style="fill:#595959;fill-rule:evenodd;stroke:#595959;stroke-width:3;stroke-linecap:butt" />
    <path
       d="M 380.13205,527.68726 517.39191,287.56128"
       id="path19"
       inkscape:connector-curvature="0"
       style="fill:#000000;fill-opacity:0;fill-rule:evenodd" />
    <path
       d="M 380.13205,527.68726 508.4592,303.18839"
       id="path21"
       inkscape:connector-curvature="0"
       style="fill-rule:evenodd;stroke:#595959;stroke-width:3;stroke-linecap:butt;stroke-linejoin:round" />
    <path
       d="m 512.76117,305.64746 2.45428,-14.27863 -11.05822,9.36048 z"
       id="path23"
       inkscape:connector-curvature="0"
       style="fill:#595959;fill-rule:evenodd;stroke:#595959;stroke-width:3;stroke-linecap:butt" />
    <path
       d="M 290.40762,445.22006 517.39978,287.55078"
       id="path25"
       inkscape:connector-curvature="0"
       style="fill:#000000;fill-opacity:0;fill-rule:evenodd" />
    <path
       d="M 290.40762,445.22006 502.61621,297.81946"
       id="path27"
       inkscape:connector-curvature="0"
       style="fill-rule:evenodd;stroke:#595959;stroke-width:3;stroke-linecap:butt;stroke-linejoin:round" />
    <path
       d="m 505.44305,301.88922 8.35468,-11.83649 -14.0084,3.69699 z"
       id="path29"
       inkscape:connector-curvature="0"
       style="fill:#595959;fill-rule:evenodd;stroke:#595959;stroke-width:3;stroke-linecap:butt" />
    <path
       d="m 457.6719,177.29463 v 0 c 0,1.68983 26.73602,3.05971 59.71652,3.05971 32.98053,0 59.71655,-1.36988 59.71655,-3.05971 v 107.20338 c 0,1.68985 -26.73602,3.05973 -59.71655,3.05973 -32.9805,0 -59.71652,-1.36988 -59.71652,-3.05973 z"
       id="path31"
       inkscape:connector-curvature="0"
       style="fill:#666666;fill-rule:evenodd" />
    <path
       d="m 457.6719,177.29463 v 0 c 0,-1.68983 26.73602,-3.05972 59.71652,-3.05972 32.98053,0 59.71655,1.36989 59.71655,3.05972 v 0 c 0,1.68983 -26.73602,3.05971 -59.71655,3.05971 -32.9805,0 -59.71652,-1.36988 -59.71652,-3.05971 z"
       id="path33"
       inkscape:connector-curvature="0"
       style="fill:#a3a3a3;fill-rule:evenodd" />
    <path
       d="m 577.105,177.29463 v 0 c 0,1.68983 -26.73602,3.05971 -59.71655,3.05971 -32.9805,0 -59.71652,-1.36988 -59.71652,-3.05971 v 0 c 0,-1.68983 26.73602,-3.05972 59.71652,-3.05972 32.98053,0 59.71655,1.36989 59.71655,3.05972 v 107.20338 c 0,1.68985 -26.73602,3.05973 -59.71655,3.05973 -32.9805,0 -59.71652,-1.36988 -59.71652,-3.05973 V 177.29463"
       id="path35"
       inkscape:connector-curvature="0"
       style="fill:#000000;fill-opacity:0;fill-rule:evenodd" />
    <path
       d="m 577.105,177.29463 v 0 c 0,1.68983 -26.73602,3.05971 -59.71655,3.05971 -32.9805,0 -59.71652,-1.36988 -59.71652,-3.05971 v 0 c 0,-1.68983 26.73602,-3.05972 59.71652,-3.05972 32.98053,0 59.71655,1.36989 59.71655,3.05972 v 107.20338 c 0,1.68985 -26.73602,3.05973 -59.71655,3.05973 -32.9805,0 -59.71652,-1.36988 -59.71652,-3.05973 V 177.29463"
       id="path37"
       inkscape:connector-curvature="0"
       style="fill-rule:evenodd;stroke:#666666;stroke-width:1;stroke-linecap:butt;stroke-linejoin:round" />
    <path
       d="m 473.56815,237.37244 3.375,-0.32813 q 0.29687,1.70313 1.21875,2.5 0.9375,0.79688 2.53125,0.79688 1.67187,0 2.51562,-0.70313 0.85938,-0.71875 0.85938,-1.67187 0,-0.60938 -0.35938,-1.03125 -0.35937,-0.42188 -1.25,-0.75 -0.60937,-0.20313 -2.78125,-0.75 -2.78125,-0.6875 -3.90625,-1.6875 -1.59375,-1.42188 -1.59375,-3.46875 0,-1.3125 0.75,-2.45313 0.75,-1.14062 2.14063,-1.73437 1.40625,-0.59375 3.39062,-0.59375 3.23438,0 4.85938,1.42187 1.64062,1.40625 1.71875,3.78125 l -3.46875,0.14063 q -0.21875,-1.3125 -0.95313,-1.89063 -0.73437,-0.59375 -2.20312,-0.59375 -1.5,0 -2.35938,0.625 -0.54687,0.40625 -0.54687,1.0625 0,0.60938 0.51562,1.04688 0.65625,0.54687 3.1875,1.15625 2.53125,0.59375 3.73438,1.23437 1.21875,0.64063 1.90625,1.75 0.6875,1.09375 0.6875,2.73438 0,1.46875 -0.82813,2.76562 -0.8125,1.28125 -2.3125,1.92188 -1.5,0.625 -3.75,0.625 -3.25,0 -5,-1.5 -1.75,-1.51563 -2.07812,-4.40625 z m 24.07031,1.625 3.28125,0.5625 q -0.64062,1.79687 -2.01562,2.75 -1.35938,0.9375 -3.40625,0.9375 -3.25,0 -4.79688,-2.125 -1.23437,-1.70313 -1.23437,-4.28125 0,-3.09375 1.60937,-4.84375 1.625,-1.76563 4.09375,-1.76563 2.78125,0 4.375,1.84375 1.60938,1.82813 1.54688,5.60938 h -8.25 q 0.0312,1.46875 0.79687,2.28125 0.76563,0.8125 1.89063,0.8125 0.78125,0 1.29687,-0.42188 0.53125,-0.42187 0.8125,-1.35937 z m 0.1875,-3.32813 q -0.0469,-1.42187 -0.75,-2.15625 -0.70312,-0.75 -1.70312,-0.75 -1.07813,0 -1.78125,0.78125 -0.70313,0.78125 -0.6875,2.125 z m 9.09766,7.29688 h -3.29688 v -12.45313 h 3.0625 v 1.78125 q 0.78125,-1.26562 1.40625,-1.65625 0.64063,-0.40625 1.4375,-0.40625 1.125,0 2.15625,0.625 l -1.01562,2.875 q -0.82813,-0.54687 -1.54688,-0.54687 -0.6875,0 -1.17187,0.39062 -0.48438,0.375 -0.76563,1.375 -0.26562,1 -0.26562,4.17188 z m 9.60544,0 -5.0156,-12.45313 h 3.46872 l 2.34375,6.35938 0.67188,2.125 q 0.26562,-0.8125 0.34375,-1.07813 0.15625,-0.51562 0.34375,-1.04687 l 2.375,-6.35938 h 3.39062 l -4.95312,12.45313 z m 17.14453,-3.96875 3.28125,0.5625 q -0.64063,1.79687 -2.01563,2.75 -1.35937,0.9375 -3.40625,0.9375 -3.25,0 -4.79687,-2.125 -1.23438,-1.70313 -1.23438,-4.28125 0,-3.09375 1.60938,-4.84375 1.625,-1.76563 4.09375,-1.76563 2.78125,0 4.375,1.84375 1.60937,1.82813 1.54687,5.60938 h -8.25 q 0.0312,1.46875 0.79688,2.28125 0.76562,0.8125 1.89062,0.8125 0.78125,0 1.29688,-0.42188 0.53125,-0.42187 0.8125,-1.35937 z m 0.1875,-3.32813 q -0.0469,-1.42187 -0.75,-2.15625 -0.70313,-0.75 -1.70313,-0.75 -1.07812,0 -1.78125,0.78125 -0.70312,0.78125 -0.6875,2.125 z m 14.14453,7.29688 v -1.85938 q -0.6875,0.98438 -1.79688,1.5625 -1.10937,0.57813 -2.32812,0.57813 -1.26563,0 -2.26563,-0.54688 -0.98437,-0.5625 -1.4375,-1.54687 -0.4375,-1 -0.4375,-2.76563 v -7.875 h 3.29688 v 5.71875 q 0,2.625 0.17187,3.21875 0.1875,0.59375 0.65625,0.9375 0.48438,0.34375 1.23438,0.34375 0.84375,0 1.5,-0.45312 0.67187,-0.46875 0.92187,-1.15625 0.25,-0.6875 0.25,-3.35938 v -5.25 h 3.28125 v 12.45313 z m 9.61328,0 h -3.29688 v -12.45313 h 3.0625 v 1.78125 q 0.78125,-1.26562 1.40625,-1.65625 0.64063,-0.40625 1.4375,-0.40625 1.125,0 2.15625,0.625 l -1.01562,2.875 q -0.82813,-0.54687 -1.54688,-0.54687 -0.6875,0 -1.17187,0.39062 -0.48438,0.375 -0.76563,1.375 -0.26562,1 -0.26562,4.17188 z"
       id="path39"
       inkscape:connector-curvature="0"
       style="fill:#ffffff;fill-rule:nonzero" />
    <path
       d="m 384.60184,433.34628 v 0 c 0,-6.07092 4.92145,-10.99237 10.99237,-10.99237 h 43.96805 v 0 c 2.91535,0 5.7113,1.15814 7.77277,3.2196 2.06146,2.06147 3.21957,4.85739 3.21957,7.77277 v 47.84207 c 0,6.07089 -4.92142,10.99234 -10.99234,10.99234 h -43.96805 c -6.07092,0 -10.99237,-4.92145 -10.99237,-10.99234 z"
       id="path41"
       inkscape:connector-curvature="0"
       style="fill:#a4c2f4;fill-rule:evenodd" />
    <path
       d="m 384.60184,433.34628 v 0 c 0,-6.07092 4.92145,-10.99237 10.99237,-10.99237 h 43.96805 v 0 c 2.91535,0 5.7113,1.15814 7.77277,3.2196 2.06146,2.06147 3.21957,4.85739 3.21957,7.77277 v 47.84207 c 0,6.07089 -4.92142,10.99234 -10.99234,10.99234 h -43.96805 c -6.07092,0 -10.99237,-4.92145 -10.99237,-10.99234 z"
       id="path43"
       inkscape:connector-curvature="0"
       style="fill-rule:evenodd;stroke:#595959;stroke-width:1;stroke-linecap:butt;stroke-linejoin:round" />
    <path
       d="m 416.93954,457.15482 -2.70312,0.5 q -0.14063,-0.8125 -0.625,-1.21875 -0.48438,-0.42188 -1.25,-0.42188 -1.03125,0 -1.64063,0.71875 -0.60937,0.70313 -0.60937,2.35938 0,1.84375 0.60937,2.60937 0.625,0.76563 1.67188,0.76563 0.78125,0 1.28125,-0.4375 0.5,-0.45313 0.70312,-1.53125 l 2.6875,0.45312 q -0.40625,1.85938 -1.60937,2.8125 -1.1875,0.9375 -3.1875,0.9375 -2.28125,0 -3.64063,-1.4375 -1.34375,-1.4375 -1.34375,-3.96875 0,-2.57812 1.35938,-4 1.35937,-1.4375 3.67187,-1.4375 1.89063,0 3,0.82813 1.125,0.8125 1.625,2.46875 z m 8.51367,7.3125 h -2.75 v -10.34375 q -1.5,1.40625 -3.54687,2.07812 v -2.48437 q 1.07812,-0.35938 2.32812,-1.32813 1.26563,-0.98437 1.73438,-2.29687 h 2.23437 z"
       id="path45"
       inkscape:connector-curvature="0"
       style="fill:#000000;fill-rule:nonzero" />
    <path
       d="m 338.9632,403.11023 h 61.63782 v 42.11023 H 338.9632 Z"
       id="path47"
       inkscape:connector-curvature="0"
       style="fill:#3c78d8;fill-rule:evenodd" />
    <path
       d="m 338.9632,403.11023 h 61.63782 v 42.11023 H 338.9632 Z"
       id="path49"
       inkscape:connector-curvature="0"
       style="fill-rule:evenodd;stroke:#3c78d8;stroke-width:1;stroke-linecap:butt;stroke-linejoin:round" />
    <path
       d="m 371.57703,430.51785 q 1.28125,0.92187 2.78125,1.45312 l -1.28125,2.45313 q -0.78125,-0.23438 -1.53125,-0.64063 -0.17188,-0.0781 -2.3125,-1.53125 -1.6875,0.75 -3.73438,0.75 -3.96875,0 -6.21875,-2.32812 -2.23437,-2.34375 -2.23437,-6.5625 0,-4.20313 2.25,-6.53125 2.25,-2.34375 6.10937,-2.34375 3.8125,0 6.04688,2.34375 2.25,2.32812 2.25,6.53125 0,2.23437 -0.625,3.92187 -0.46875,1.28125 -1.5,2.48438 z m -2.79688,-1.95313 q 0.67188,-0.78125 1,-1.89062 0.34375,-1.125 0.34375,-2.5625 0,-2.96875 -1.3125,-4.4375 -1.3125,-1.48438 -3.4375,-1.48438 -2.125,0 -3.4375,1.48438 -1.3125,1.46875 -1.3125,4.4375 0,3.01562 1.3125,4.51562 1.3125,1.48438 3.32813,1.48438 0.75,0 1.42187,-0.25 -1.04687,-0.6875 -2.14062,-1.07813 l 0.96875,-1.96875 q 1.71875,0.57813 3.26562,1.75 z"
       id="path51"
       inkscape:connector-curvature="0"
       style="fill:#ffffff;fill-rule:nonzero" />
    <path
       d="m 380.96375,441.70535 h -2.1875 v -8.28125 q -1.20313,1.125 -2.84375,1.67187 v -2 q 0.85937,-0.28125 1.85937,-1.0625 1.01563,-0.78125 1.39063,-1.82812 h 1.78125 z"
       id="path53"
       inkscape:connector-curvature="0"
       style="fill:#ffffff;fill-rule:nonzero" />
    <path
       d="m 338.9632,355.11023 h 61.63782 v 42.11023 H 338.9632 Z"
       id="path55"
       inkscape:connector-curvature="0"
       style="fill:#3c78d8;fill-rule:evenodd" />
    <path
       d="m 338.9632,355.11023 h 61.63782 v 42.11023 H 338.9632 Z"
       id="path57"
       inkscape:connector-curvature="0"
       style="fill-rule:evenodd;stroke:#3c78d8;stroke-width:1;stroke-linecap:butt;stroke-linejoin:round" />
    <path
       d="m 371.57703,382.51785 q 1.28125,0.92187 2.78125,1.45312 l -1.28125,2.45313 q -0.78125,-0.23438 -1.53125,-0.64063 -0.17188,-0.0781 -2.3125,-1.53125 -1.6875,0.75 -3.73438,0.75 -3.96875,0 -6.21875,-2.32812 -2.23437,-2.34375 -2.23437,-6.5625 0,-4.20313 2.25,-6.53125 2.25,-2.34375 6.10937,-2.34375 3.8125,0 6.04688,2.34375 2.25,2.32812 2.25,6.53125 0,2.23437 -0.625,3.92187 -0.46875,1.28125 -1.5,2.48438 z m -2.79688,-1.95313 q 0.67188,-0.78125 1,-1.89062 0.34375,-1.125 0.34375,-2.5625 0,-2.96875 -1.3125,-4.4375 -1.3125,-1.48438 -3.4375,-1.48438 -2.125,0 -3.4375,1.48438 -1.3125,1.46875 -1.3125,4.4375 0,3.01562 1.3125,4.51562 1.3125,1.48438 3.32813,1.48438 0.75,0 1.42187,-0.25 -1.04687,-0.6875 -2.14062,-1.07813 l 0.96875,-1.96875 q 1.71875,0.57813 3.26562,1.75 z"
       id="path59"
       inkscape:connector-curvature="0"
       style="fill:#ffffff;fill-rule:nonzero" />
    <path
       d="m 382.76062,391.65848 v 2.04687 h -7.6875 q 0.125,-1.15625 0.75,-2.1875 0.625,-1.04687 2.46875,-2.75 1.48438,-1.39062 1.8125,-1.875 0.45313,-0.6875 0.45313,-1.34375 0,-0.73437 -0.39063,-1.125 -0.39062,-0.40625 -1.09375,-0.40625 -0.6875,0 -1.09375,0.42188 -0.40625,0.40625 -0.46875,1.375 l -2.1875,-0.21875 q 0.20313,-1.8125 1.23438,-2.59375 1.03125,-0.79688 2.57812,-0.79688 1.6875,0 2.65625,0.92188 0.96875,0.90625 0.96875,2.26562 0,0.76563 -0.28125,1.46875 -0.26562,0.70313 -0.875,1.46875 -0.39062,0.5 -1.4375,1.45313 -1.03125,0.95312 -1.3125,1.26562 -0.28125,0.3125 -0.45312,0.60938 z"
       id="path61"
       inkscape:connector-curvature="0"
       style="fill:#ffffff;fill-rule:nonzero" />
    <path
       d="m 338.9632,307.11023 h 61.63782 v 42.11023 H 338.9632 Z"
       id="path63"
       inkscape:connector-curvature="0"
       style="fill:#3c78d8;fill-rule:evenodd" />
    <path
       d="m 338.9632,307.11023 h 61.63782 v 42.11023 H 338.9632 Z"
       id="path65"
       inkscape:connector-curvature="0"
       style="fill-rule:evenodd;stroke:#3c78d8;stroke-width:1;stroke-linecap:butt;stroke-linejoin:round" />
    <path
       d="m 371.57703,334.51785 q 1.28125,0.92187 2.78125,1.45312 l -1.28125,2.45313 q -0.78125,-0.23438 -1.53125,-0.64063 -0.17188,-0.0781 -2.3125,-1.53125 -1.6875,0.75 -3.73438,0.75 -3.96875,0 -6.21875,-2.32812 -2.23437,-2.34375 -2.23437,-6.5625 0,-4.20313 2.25,-6.53125 2.25,-2.34375 6.10937,-2.34375 3.8125,0 6.04688,2.34375 2.25,2.32812 2.25,6.53125 0,2.23437 -0.625,3.92187 -0.46875,1.28125 -1.5,2.48438 z m -2.79688,-1.95313 q 0.67188,-0.78125 1,-1.89062 0.34375,-1.125 0.34375,-2.5625 0,-2.96875 -1.3125,-4.4375 -1.3125,-1.48438 -3.4375,-1.48438 -2.125,0 -3.4375,1.48438 -1.3125,1.46875 -1.3125,4.4375 0,3.01562 1.3125,4.51562 1.3125,1.48438 3.32813,1.48438 0.75,0 1.42187,-0.25 -1.04687,-0.6875 -2.14062,-1.07813 l 0.96875,-1.96875 q 1.71875,0.57813 3.26562,1.75 z"
       id="path67"
       inkscape:connector-curvature="0"
       style="fill:#ffffff;fill-rule:nonzero" />
    <path
       d="m 375.27625,342.65848 2.125,-0.25 q 0.0937,0.8125 0.53125,1.25 0.45312,0.42187 1.09375,0.42187 0.67187,0 1.14062,-0.51562 0.46875,-0.51563 0.46875,-1.39063 0,-0.82812 -0.45312,-1.3125 -0.4375,-0.48437 -1.07813,-0.48437 -0.42187,0 -1.01562,0.15625 l 0.25,-1.78125 q 0.89062,0.0156 1.35937,-0.39063 0.46875,-0.40625 0.46875,-1.09375 0,-0.57812 -0.34375,-0.92187 -0.34375,-0.34375 -0.92187,-0.34375 -0.5625,0 -0.96875,0.39062 -0.39063,0.39063 -0.46875,1.14063 l -2.03125,-0.34375 q 0.21875,-1.03125 0.64062,-1.65625 0.42188,-0.625 1.1875,-0.96875 0.76563,-0.35938 1.70313,-0.35938 1.625,0 2.59375,1.03125 0.8125,0.84375 0.8125,1.90625 0,1.5 -1.65625,2.40625 0.98437,0.20313 1.57812,0.9375 0.59375,0.73438 0.59375,1.78125 0,1.5 -1.10937,2.57813 -1.09375,1.0625 -2.73438,1.0625 -1.5625,0 -2.59375,-0.89063 -1.01562,-0.90625 -1.17187,-2.35937 z"
       id="path69"
       inkscape:connector-curvature="0"
       style="fill:#ffffff;fill-rule:nonzero" />
    <path
       d="m 489.54318,538.68 v 0 c 0,-6.07086 4.92142,-10.99231 10.99234,-10.99231 h 43.96808 v 0 c 2.91534,0 5.7113,1.15808 7.77277,3.21954 2.06146,2.06147 3.21954,4.85743 3.21954,7.77277 v 47.8421 c 0,6.07092 -4.92145,10.99231 -10.99231,10.99231 h -43.96808 c -6.07092,0 -10.99234,-4.92139 -10.99234,-10.99231 z"
       id="path71"
       inkscape:connector-curvature="0"
       style="fill:#f9cb9c;fill-rule:evenodd" />
    <path
       d="m 489.54318,538.68 v 0 c 0,-6.07086 4.92142,-10.99231 10.99234,-10.99231 h 43.96808 v 0 c 2.91534,0 5.7113,1.15808 7.77277,3.21954 2.06146,2.06147 3.21954,4.85743 3.21954,7.77277 v 47.8421 c 0,6.07092 -4.92145,10.99231 -10.99231,10.99231 h -43.96808 c -6.07092,0 -10.99234,-4.92139 -10.99234,-10.99231 z"
       id="path73"
       inkscape:connector-curvature="0"
       style="fill-rule:evenodd;stroke:#595959;stroke-width:1;stroke-linecap:butt;stroke-linejoin:round" />
    <path
       d="m 521.88086,562.4885 -2.70313,0.5 q -0.14062,-0.8125 -0.625,-1.21875 -0.48437,-0.42187 -1.25,-0.42187 -1.03125,0 -1.64062,0.71875 -0.60938,0.70312 -0.60938,2.35937 0,1.84375 0.60938,2.60938 0.625,0.76562 1.67187,0.76562 0.78125,0 1.28125,-0.4375 0.5,-0.45312 0.70313,-1.53125 l 2.6875,0.45313 q -0.40625,1.85937 -1.60938,2.8125 -1.1875,0.9375 -3.1875,0.9375 -2.28125,0 -3.64062,-1.4375 -1.34375,-1.4375 -1.34375,-3.96875 0,-2.57813 1.35937,-4 1.35938,-1.4375 3.67188,-1.4375 1.89062,0 3,0.82812 1.125,0.8125 1.625,2.46875 z m 10.76367,4.76563 v 2.54687 h -9.625 q 0.15625,-1.45312 0.9375,-2.73437 0.78125,-1.29688 3.07813,-3.4375 1.85937,-1.73438 2.28125,-2.34375 0.5625,-0.84375 0.5625,-1.6875 0,-0.90625 -0.5,-1.39063 -0.48438,-0.5 -1.34375,-0.5 -0.85938,0 -1.375,0.51563 -0.5,0.51562 -0.57813,1.71875 l -2.73437,-0.28125 q 0.23437,-2.26563 1.51562,-3.25 1.29688,-0.98438 3.23438,-0.98438 2.125,0 3.32812,1.14063 1.21875,1.14062 1.21875,2.84375 0,0.96875 -0.35937,1.84375 -0.34375,0.875 -1.09375,1.82812 -0.5,0.64063 -1.79688,1.82813 -1.29687,1.1875 -1.64062,1.57812 -0.34375,0.39063 -0.5625,0.76563 z"
       id="path75"
       inkscape:connector-curvature="0"
       style="fill:#000000;fill-rule:nonzero" />
    <path
       d="m 530.71124,503.11548 h 61.63782 v 42.11023 h -61.63782 z"
       id="path77"
       inkscape:connector-curvature="0"
       style="fill:#e69138;fill-rule:evenodd" />
    <path
       d="m 530.71124,503.11548 h 61.63782 v 42.11023 h -61.63782 z"
       id="path79"
       inkscape:connector-curvature="0"
       style="fill-rule:evenodd;stroke:#e69138;stroke-width:1;stroke-linecap:butt;stroke-linejoin:round" />
    <path
       d="m 563.3251,530.52313 q 1.28125,0.92188 2.78125,1.45313 l -1.28125,2.45312 q -0.78125,-0.23437 -1.53125,-0.64062 -0.17187,-0.0781 -2.3125,-1.53125 -1.6875,0.75 -3.73437,0.75 -3.96875,0 -6.21875,-2.32813 -2.23438,-2.34375 -2.23438,-6.5625 0,-4.20312 2.25,-6.53125 2.25,-2.34375 6.10938,-2.34375 3.8125,0 6.04687,2.34375 2.25,2.32813 2.25,6.53125 0,2.23438 -0.625,3.92188 -0.46875,1.28125 -1.5,2.48437 z m -2.79687,-1.95312 q 0.67187,-0.78125 1,-1.89063 0.34375,-1.125 0.34375,-2.5625 0,-2.96875 -1.3125,-4.4375 -1.3125,-1.48437 -3.4375,-1.48437 -2.125,0 -3.4375,1.48437 -1.3125,1.46875 -1.3125,4.4375 0,3.01563 1.3125,4.51563 1.3125,1.48437 3.32812,1.48437 0.75,0 1.42188,-0.25 -1.04688,-0.6875 -2.14063,-1.07812 l 0.96875,-1.96875 q 1.71875,0.57812 3.26563,1.75 z"
       id="path81"
       inkscape:connector-curvature="0"
       style="fill:#ffffff;fill-rule:nonzero" />
    <path
       d="m 574.5399,533.0543 -2.125,0.23437 q -0.0781,-0.65625 -0.40625,-0.96875 -0.32813,-0.3125 -0.85938,-0.3125 -0.6875,0 -1.17187,0.625 -0.48438,0.625 -0.60938,2.60938 0.82813,-0.96875 2.04688,-0.96875 1.375,0 2.34375,1.04687 0.98437,1.04688 0.98437,2.70313 0,1.75 -1.03125,2.82812 -1.03125,1.0625 -2.64062,1.0625 -1.73438,0 -2.85938,-1.34375 -1.10937,-1.35937 -1.10937,-4.4375 0,-3.14062 1.15625,-4.53125 1.17187,-1.39062 3.03125,-1.39062 1.29687,0 2.15625,0.73437 0.85937,0.71875 1.09375,2.10938 z m -4.98438,4.79687 q 0,1.0625 0.48438,1.65625 0.5,0.57813 1.14062,0.57813 0.60938,0 1.01563,-0.46875 0.40625,-0.48438 0.40625,-1.57813 0,-1.10937 -0.4375,-1.625 -0.4375,-0.53125 -1.09375,-0.53125 -0.64063,0 -1.07813,0.5 -0.4375,0.5 -0.4375,1.46875 z"
       id="path83"
       inkscape:connector-curvature="0"
       style="fill:#ffffff;fill-rule:nonzero" />
    <path
       d="m 576.11383,405.2045 v 0 c 0,-6.07089 4.92145,-10.99234 10.99231,-10.99234 h 43.96808 v 0 c 2.91534,0 5.7113,1.15811 7.77277,3.21957 2.06146,2.06147 3.2196,4.85743 3.2196,7.77277 v 47.84207 c 0,6.07092 -4.92145,10.99234 -10.99237,10.99234 h -43.96808 c -6.07086,0 -10.99231,-4.92142 -10.99231,-10.99234 z"
       id="path85"
       inkscape:connector-curvature="0"
       style="fill:#b6d7a8;fill-rule:evenodd" />
    <path
       d="m 576.11383,405.2045 v 0 c 0,-6.07089 4.92145,-10.99234 10.99231,-10.99234 h 43.96808 v 0 c 2.91534,0 5.7113,1.15811 7.77277,3.21957 2.06146,2.06147 3.2196,4.85743 3.2196,7.77277 v 47.84207 c 0,6.07092 -4.92145,10.99234 -10.99237,10.99234 h -43.96808 c -6.07086,0 -10.99231,-4.92142 -10.99231,-10.99234 z"
       id="path87"
       inkscape:connector-curvature="0"
       style="fill-rule:evenodd;stroke:#595959;stroke-width:1;stroke-linecap:butt;stroke-linejoin:round" />
    <path
       d="m 608.45154,429.01303 -2.70312,0.5 q -0.14063,-0.8125 -0.625,-1.21875 -0.48438,-0.42187 -1.25,-0.42187 -1.03125,0 -1.64063,0.71875 -0.60937,0.70312 -0.60937,2.35937 0,1.84375 0.60937,2.60938 0.625,0.76562 1.67188,0.76562 0.78125,0 1.28125,-0.4375 0.5,-0.45312 0.70312,-1.53125 l 2.6875,0.45313 q -0.40625,1.85937 -1.60937,2.8125 -1.1875,0.9375 -3.1875,0.9375 -2.28125,0 -3.64063,-1.4375 -1.34375,-1.4375 -1.34375,-3.96875 0,-2.57813 1.35938,-4 1.35937,-1.4375 3.67187,-1.4375 1.89063,0 3,0.82812 1.125,0.8125 1.625,2.46875 z m 1.38867,3.51563 2.65625,-0.32813 q 0.125,1.01563 0.6875,1.5625 0.5625,0.53125 1.34375,0.53125 0.85938,0 1.4375,-0.64062 0.57813,-0.65625 0.57813,-1.75 0,-1.03125 -0.5625,-1.625 -0.54688,-0.60938 -1.35938,-0.60938 -0.51562,0 -1.25,0.20313 l 0.29688,-2.23438 q 1.10937,0.0312 1.6875,-0.48437 0.59375,-0.51563 0.59375,-1.35938 0,-0.73437 -0.4375,-1.15625 -0.42188,-0.4375 -1.125,-0.4375 -0.70313,0 -1.20313,0.5 -0.5,0.48438 -0.60937,1.42188 l -2.53125,-0.4375 q 0.26562,-1.29688 0.79687,-2.0625 0.53125,-0.78125 1.48438,-1.21875 0.95312,-0.45313 2.14062,-0.45313 2.01563,0 3.23438,1.28125 1.01562,1.0625 1.01562,2.39063 0,1.89062 -2.0625,3 1.23438,0.26562 1.96875,1.1875 0.73438,0.92187 0.73438,2.21875 0,1.89062 -1.375,3.21875 -1.375,1.32812 -3.4375,1.32812 -1.9375,0 -3.21875,-1.125 -1.28125,-1.125 -1.48438,-2.92187 z"
       id="path89"
       inkscape:connector-curvature="0"
       style="fill:#000000;fill-rule:nonzero" />
    <path
       d="m 621.9317,369.66403 h 61.63782 v 42.11026 H 621.9317 Z"
       id="path91"
       inkscape:connector-curvature="0"
       style="fill:#6aa84f;fill-rule:evenodd" />
    <path
       d="m 621.9317,369.66403 h 61.63782 v 42.11026 H 621.9317 Z"
       id="path93"
       inkscape:connector-curvature="0"
       style="fill-rule:evenodd;stroke:#6aa84f;stroke-width:1;stroke-linecap:butt;stroke-linejoin:round" />
    <path
       d="m 654.54553,397.07166 q 1.28125,0.92187 2.78125,1.45312 l -1.28125,2.45313 q -0.78125,-0.23438 -1.53125,-0.64063 -0.17188,-0.0781 -2.3125,-1.53125 -1.6875,0.75 -3.73438,0.75 -3.96875,0 -6.21875,-2.32812 -2.23437,-2.34375 -2.23437,-6.5625 0,-4.20313 2.25,-6.53125 2.25,-2.34375 6.10937,-2.34375 3.8125,0 6.04688,2.34375 2.25,2.32812 2.25,6.53125 0,2.23437 -0.625,3.92187 -0.46875,1.28125 -1.5,2.48438 z m -2.79688,-1.95313 q 0.67188,-0.78125 1,-1.89062 0.34375,-1.125 0.34375,-2.5625 0,-2.96875 -1.3125,-4.4375 -1.3125,-1.48438 -3.4375,-1.48438 -2.125,0 -3.4375,1.48438 -1.3125,1.46875 -1.3125,4.4375 0,3.01562 1.3125,4.51562 1.3125,1.48438 3.32813,1.48438 0.75,0 1.42187,-0.25 -1.04687,-0.6875 -2.14062,-1.07813 l 0.96875,-1.96875 q 1.71875,0.57813 3.26562,1.75 z"
       id="path95"
       inkscape:connector-curvature="0"
       style="fill:#ffffff;fill-rule:nonzero" />
    <path
       d="m 662.61975,408.25916 v -2.3125 h -4.6875 v -1.92188 l 4.96875,-7.26562 h 1.84375 v 7.26562 h 1.42187 v 1.92188 h -1.42187 v 2.3125 z m 0,-4.23438 v -3.92187 l -2.625,3.92187 z"
       id="path97"
       inkscape:connector-curvature="0"
       style="fill:#ffffff;fill-rule:nonzero" />
    <path
       d="m 621.9317,321.66403 h 61.63782 v 42.11026 H 621.9317 Z"
       id="path99"
       inkscape:connector-curvature="0"
       style="fill:#6aa84f;fill-rule:evenodd" />
    <path
       d="m 621.9317,321.66403 h 61.63782 v 42.11026 H 621.9317 Z"
       id="path101"
       inkscape:connector-curvature="0"
       style="fill-rule:evenodd;stroke:#6aa84f;stroke-width:1;stroke-linecap:butt;stroke-linejoin:round" />
    <path
       d="m 654.54553,349.07166 q 1.28125,0.92187 2.78125,1.45312 l -1.28125,2.45313 q -0.78125,-0.23438 -1.53125,-0.64063 -0.17188,-0.0781 -2.3125,-1.53125 -1.6875,0.75 -3.73438,0.75 -3.96875,0 -6.21875,-2.32812 -2.23437,-2.34375 -2.23437,-6.5625 0,-4.20313 2.25,-6.53125 2.25,-2.34375 6.10937,-2.34375 3.8125,0 6.04688,2.34375 2.25,2.32812 2.25,6.53125 0,2.23437 -0.625,3.92187 -0.46875,1.28125 -1.5,2.48438 z m -2.79688,-1.95313 q 0.67188,-0.78125 1,-1.89062 0.34375,-1.125 0.34375,-2.5625 0,-2.96875 -1.3125,-4.4375 -1.3125,-1.48438 -3.4375,-1.48438 -2.125,0 -3.4375,1.48438 -1.3125,1.46875 -1.3125,4.4375 0,3.01562 1.3125,4.51562 1.3125,1.48438 3.32813,1.48438 0.75,0 1.42187,-0.25 -1.04687,-0.6875 -2.14062,-1.07813 l 0.96875,-1.96875 q 1.71875,0.57813 3.26562,1.75 z"
       id="path103"
       inkscape:connector-curvature="0"
       style="fill:#ffffff;fill-rule:nonzero" />
    <path
       d="m 658.3541,357.30603 2.1875,-0.21875 q 0.0937,0.73438 0.54688,1.17188 0.46875,0.4375 1.0625,0.4375 0.6875,0 1.15625,-0.5625 0.48437,-0.5625 0.48437,-1.6875 0,-1.04688 -0.46875,-1.57813 -0.46875,-0.53125 -1.23437,-0.53125 -0.9375,0 -1.6875,0.84375 l -1.78125,-0.26562 1.125,-5.95313 h 5.79687 v 2.04688 h -4.14062 l -0.34375,1.95312 q 0.73437,-0.375 1.5,-0.375 1.46875,0 2.48437,1.0625 1.01563,1.0625 1.01563,2.76563 0,1.40625 -0.82813,2.51562 -1.10937,1.53125 -3.09375,1.53125 -1.59375,0 -2.59375,-0.85937 -1,-0.85938 -1.1875,-2.29688 z"
       id="path105"
       inkscape:connector-curvature="0"
       style="fill:#ffffff;fill-rule:nonzero" />
    <path
       d="M 417.57822,422.3539 517.38929,287.55077"
       id="path107"
       inkscape:connector-curvature="0"
       style="fill:#000000;fill-opacity:0;fill-rule:evenodd" />
    <path
       d="M 417.57825,422.3539 506.67817,302.01702"
       id="path109"
       inkscape:connector-curvature="0"
       style="fill-rule:evenodd;stroke:#595959;stroke-width:3;stroke-linecap:butt;stroke-linejoin:round" />
    <path
       d="m 510.66055,304.96567 4.11893,-13.8902 -12.08371,7.99289 z"
       id="path111"
       inkscape:connector-curvature="0"
       style="fill:#595959;fill-rule:evenodd;stroke:#595959;stroke-width:3;stroke-linecap:butt" />
    <path
       d="M 609.0902,394.21216 517.37365,287.5665"
       id="path113"
       inkscape:connector-curvature="0"
       style="fill:#000000;fill-opacity:0;fill-rule:evenodd" />
    <path
       d="M 609.0902,394.21216 529.1104,301.21372"
       id="path115"
       inkscape:connector-curvature="0"
       style="fill-rule:evenodd;stroke:#595959;stroke-width:3;stroke-linecap:butt;stroke-linejoin:round" />
    <path
       d="m 532.8674,297.98273 -12.63403,-7.0911 5.12017,13.55311 z"
       id="path117"
       inkscape:connector-curvature="0"
       style="fill:#595959;fill-rule:evenodd;stroke:#595959;stroke-width:3;stroke-linecap:butt" />
    <path
       d="m 522.51953,527.6877 -5.13385,-240.126"
       id="path119"
       inkscape:connector-curvature="0"
       style="fill:#000000;fill-opacity:0;fill-rule:evenodd" />
    <path
       d="M 522.5196,527.6877 517.77045,305.55757"
       id="path121"
       inkscape:connector-curvature="0"
       style="fill-rule:evenodd;stroke:#595959;stroke-width:3;stroke-linecap:butt;stroke-linejoin:round" />
    <path
       d="m 522.72455,305.45166 -5.24512,-13.50528 -4.66302,13.7171 z"
       id="path123"
       inkscape:connector-curvature="0"
       style="fill:#595959;fill-rule:evenodd;stroke:#595959;stroke-width:3;stroke-linecap:butt" />
    <path
       d="m 347.15567,538.6796 v 0 c 0,-6.07092 4.92142,-10.99237 10.99234,-10.99237 h 43.96805 v 0 c 2.91537,0 5.7113,1.15814 7.77277,3.2196 2.06146,2.06147 3.21957,4.85736 3.21957,7.77277 v 47.84204 c 0,6.07092 -4.92142,10.99237 -10.99234,10.99237 h -43.96805 c -6.07092,0 -10.99234,-4.92145 -10.99234,-10.99237 z"
       id="path125"
       inkscape:connector-curvature="0"
       style="fill:#cccccc;fill-rule:evenodd" />
    <path
       d="m 347.15567,538.6796 v 0 c 0,-6.07092 4.92142,-10.99237 10.99234,-10.99237 h 43.96805 v 0 c 2.91537,0 5.7113,1.15814 7.77277,3.2196 2.06146,2.06147 3.21957,4.85736 3.21957,7.77277 v 47.84204 c 0,6.07092 -4.92142,10.99237 -10.99234,10.99237 h -43.96805 c -6.07092,0 -10.99234,-4.92145 -10.99234,-10.99237 z"
       id="path127"
       inkscape:connector-curvature="0"
       style="fill-rule:evenodd;stroke:#595959;stroke-width:1;stroke-linecap:butt;stroke-linejoin:round" />
    <path
       d="m 379.49338,562.48816 -2.70313,0.5 q -0.14062,-0.8125 -0.625,-1.21875 -0.48437,-0.42188 -1.25,-0.42188 -1.03125,0 -1.64062,0.71875 -0.60938,0.70313 -0.60938,2.35938 0,1.84375 0.60938,2.60937 0.625,0.76563 1.67187,0.76563 0.78125,0 1.28125,-0.4375 0.5,-0.45313 0.70313,-1.53125 l 2.6875,0.45312 q -0.40625,1.85938 -1.60938,2.8125 -1.1875,0.9375 -3.1875,0.9375 -2.28125,0 -3.64062,-1.4375 -1.34375,-1.4375 -1.34375,-3.96875 0,-2.57812 1.35937,-4 1.35938,-1.4375 3.67188,-1.4375 1.89062,0 3,0.82813 1.125,0.8125 1.625,2.46875 z m 1.5293,3.625 2.73434,-0.28125 q 0.10938,0.9375 0.6875,1.48437 0.57813,0.53125 1.32813,0.53125 0.85937,0 1.45312,-0.6875 0.60938,-0.70312 0.60938,-2.10937 0,-1.32813 -0.59375,-1.98438 -0.59375,-0.65625 -1.54688,-0.65625 -1.17187,0 -2.10937,1.04688 l -2.23435,-0.32813 1.40622,-7.45312 h 7.26563 v 2.57812 h -5.1875 l -0.42188,2.42188 q 0.92188,-0.45313 1.875,-0.45313 1.82813,0 3.09375,1.32813 1.26563,1.32812 1.26563,3.4375 0,1.78125 -1.01563,3.15625 -1.40625,1.90625 -3.89062,1.90625 -1.96875,0 -3.21875,-1.0625 -1.24997,-1.07813 -1.49997,-2.875 z"
       id="path129"
       inkscape:connector-curvature="0"
       style="fill:#000000;fill-rule:nonzero" />
    <path
       d="m 408.53885,628.55884 v 0 c 0,-6.07086 4.92145,-10.99231 10.99237,-10.99231 h 43.96805 v 0 c 2.91535,0 5.7113,1.15808 7.77277,3.2196 2.06146,2.06147 3.21957,4.85737 3.21957,7.77271 v 47.8421 c 0,6.07092 -4.92145,10.99237 -10.99234,10.99237 h -43.96805 c -6.07092,0 -10.99237,-4.92145 -10.99237,-10.99237 z"
       id="path131"
       inkscape:connector-curvature="0"
       style="fill:#cccccc;fill-rule:evenodd" />
    <path
       d="m 408.53885,628.55884 v 0 c 0,-6.07086 4.92145,-10.99231 10.99237,-10.99231 h 43.96805 v 0 c 2.91535,0 5.7113,1.15808 7.77277,3.2196 2.06146,2.06147 3.21957,4.85737 3.21957,7.77271 v 47.8421 c 0,6.07092 -4.92145,10.99237 -10.99234,10.99237 h -43.96805 c -6.07092,0 -10.99237,-4.92145 -10.99237,-10.99237 z"
       id="path133"
       inkscape:connector-curvature="0"
       style="fill-rule:evenodd;stroke:#595959;stroke-width:1;stroke-linecap:butt;stroke-linejoin:round" />
    <path
       d="m 440.87656,652.36743 -2.70313,0.5 q -0.14062,-0.8125 -0.625,-1.21875 -0.48437,-0.42187 -1.25,-0.42187 -1.03125,0 -1.64062,0.71875 -0.60938,0.70312 -0.60938,2.35937 0,1.84375 0.60938,2.60938 0.625,0.76562 1.67187,0.76562 0.78125,0 1.28125,-0.4375 0.5,-0.45312 0.70313,-1.53125 l 2.6875,0.45313 q -0.40625,1.85937 -1.60938,2.8125 -1.1875,0.9375 -3.1875,0.9375 -2.28125,0 -3.64062,-1.4375 -1.34375,-1.4375 -1.34375,-3.96875 0,-2.57813 1.35937,-4 1.35938,-1.4375 3.67188,-1.4375 1.89062,0 3,0.82812 1.125,0.8125 1.625,2.46875 z m 10.7793,-3.5 -2.65625,0.29688 q -0.0937,-0.82813 -0.5,-1.21875 -0.40625,-0.39063 -1.0625,-0.39063 -0.875,0 -1.48438,0.78125 -0.59375,0.78125 -0.75,3.25 1.03125,-1.20312 2.54688,-1.20312 1.71875,0 2.9375,1.3125 1.23437,1.29687 1.23437,3.375 0,2.20312 -1.29687,3.53125 -1.28125,1.32812 -3.29688,1.32812 -2.17187,0 -3.57812,-1.6875 -1.39063,-1.6875 -1.39063,-5.53125 0,-3.9375 1.45313,-5.67187 1.46875,-1.73438 3.78125,-1.73438 1.64062,0 2.70312,0.92188 1.07813,0.90625 1.35938,2.64062 z m -6.21875,5.98438 q 0,1.34375 0.60937,2.07812 0.625,0.71875 1.42188,0.71875 0.75,0 1.25,-0.59375 0.51562,-0.59375 0.51562,-1.95312 0,-1.40625 -0.54687,-2.04688 -0.54688,-0.65625 -1.35938,-0.65625 -0.79687,0 -1.34375,0.625 -0.54687,0.625 -0.54687,1.82813 z"
       id="path135"
       inkscape:connector-curvature="0"
       style="fill:#000000;fill-rule:nonzero" />
    <path
       d="m 576.11365,628.55884 v 0 c 0,-6.07086 4.92145,-10.99231 10.99237,-10.99231 h 43.96808 v 0 c 2.91535,0 5.7113,1.15808 7.77277,3.2196 2.06146,2.06147 3.21954,4.85737 3.21954,7.77271 v 47.8421 c 0,6.07092 -4.92145,10.99237 -10.99231,10.99237 h -43.96808 c -6.07092,0 -10.99237,-4.92145 -10.99237,-10.99237 z"
       id="path137"
       inkscape:connector-curvature="0"
       style="fill:#cccccc;fill-rule:evenodd" />
    <path
       d="m 576.11365,628.55884 v 0 c 0,-6.07086 4.92145,-10.99231 10.99237,-10.99231 h 43.96808 v 0 c 2.91535,0 5.7113,1.15808 7.77277,3.2196 2.06146,2.06147 3.21954,4.85737 3.21954,7.77271 v 47.8421 c 0,6.07092 -4.92145,10.99237 -10.99231,10.99237 h -43.96808 c -6.07092,0 -10.99237,-4.92145 -10.99237,-10.99237 z"
       id="path139"
       inkscape:connector-curvature="0"
       style="fill-rule:evenodd;stroke:#595959;stroke-width:1;stroke-linecap:butt;stroke-linejoin:round" />
    <path
       d="m 608.45135,652.36743 -2.70312,0.5 q -0.14063,-0.8125 -0.625,-1.21875 -0.48438,-0.42187 -1.25,-0.42187 -1.03125,0 -1.64063,0.71875 -0.60937,0.70312 -0.60937,2.35937 0,1.84375 0.60937,2.60938 0.625,0.76562 1.67188,0.76562 0.78125,0 1.28125,-0.4375 0.5,-0.45312 0.70312,-1.53125 l 2.6875,0.45313 q -0.40625,1.85937 -1.60937,2.8125 -1.1875,0.9375 -3.1875,0.9375 -2.28125,0 -3.64063,-1.4375 -1.34375,-1.4375 -1.34375,-3.96875 0,-2.57813 1.35938,-4 1.35937,-1.4375 3.67187,-1.4375 1.89063,0 3,0.82812 1.125,0.8125 1.625,2.46875 z m 1.48242,-4.26562 v -2.54688 h 9.39063 v 2 q -1.15625,1.14063 -2.35938,3.28125 -1.20312,2.14063 -1.84375,4.54688 -0.625,2.40625 -0.60937,4.29687 h -2.64063 q 0.0625,-2.96875 1.21875,-6.04687 1.15625,-3.09375 3.09375,-5.53125 z"
       id="path141"
       inkscape:connector-curvature="0"
       style="fill:#000000;fill-rule:nonzero" />
    <path
       d="m 631.93256,514.1074 v 0 c 0,-6.07089 4.92145,-10.99234 10.99237,-10.99234 h 43.96802 v 0 c 2.9154,0 5.7113,1.15811 7.77277,3.21957 2.06146,2.06147 3.2196,4.85743 3.2196,7.77277 v 47.8421 c 0,6.07086 -4.92145,10.99231 -10.99237,10.99231 h -43.96802 c -6.07092,0 -10.99237,-4.92145 -10.99237,-10.99231 z"
       id="path143"
       inkscape:connector-curvature="0"
       style="fill:#cccccc;fill-rule:evenodd" />
    <path
       d="m 631.93256,514.1074 v 0 c 0,-6.07089 4.92145,-10.99234 10.99237,-10.99234 h 43.96802 v 0 c 2.9154,0 5.7113,1.15811 7.77277,3.21957 2.06146,2.06147 3.2196,4.85743 3.2196,7.77277 v 47.8421 c 0,6.07086 -4.92145,10.99231 -10.99237,10.99231 h -43.96802 c -6.07092,0 -10.99237,-4.92145 -10.99237,-10.99231 z"
       id="path145"
       inkscape:connector-curvature="0"
       style="fill-rule:evenodd;stroke:#595959;stroke-width:1;stroke-linecap:butt;stroke-linejoin:round" />
    <path
       d="m 664.27026,537.91595 -2.70313,0.5 q -0.14062,-0.8125 -0.625,-1.21875 -0.48437,-0.42188 -1.25,-0.42188 -1.03125,0 -1.64062,0.71875 -0.60938,0.70313 -0.60938,2.35938 0,1.84375 0.60938,2.60937 0.625,0.76563 1.67187,0.76563 0.78125,0 1.28125,-0.4375 0.5,-0.45313 0.70313,-1.53125 l 2.6875,0.45312 q -0.40625,1.85938 -1.60938,2.8125 -1.1875,0.9375 -3.1875,0.9375 -2.28125,0 -3.64062,-1.4375 -1.34375,-1.4375 -1.34375,-3.96875 0,-2.57812 1.35937,-4 1.35938,-1.4375 3.67188,-1.4375 1.89062,0 3,0.82813 1.125,0.8125 1.625,2.46875 z m 3.8418,-0.40625 q -1.0625,-0.45313 -1.54688,-1.23438 -0.48437,-0.79687 -0.48437,-1.73437 0,-1.59375 1.10937,-2.64063 1.125,-1.04687 3.1875,-1.04687 2.04688,0 3.17188,1.04687 1.125,1.04688 1.125,2.64063 0,1 -0.51563,1.78125 -0.51562,0.76562 -1.45312,1.1875 1.1875,0.46875 1.79687,1.39062 0.625,0.92188 0.625,2.125 0,1.96875 -1.26562,3.21875 -1.25,1.23438 -3.35938,1.23438 -1.95312,0 -3.25,-1.01563 -1.53125,-1.21875 -1.53125,-3.32812 0,-1.15625 0.57813,-2.125 0.57812,-0.98438 1.8125,-1.5 z m 0.5625,-2.76563 q 0,0.8125 0.46875,1.28125 0.46875,0.45313 1.23437,0.45313 0.78125,0 1.25,-0.45313 0.46875,-0.46875 0.46875,-1.29687 0,-0.76563 -0.46875,-1.23438 -0.45312,-0.46875 -1.21875,-0.46875 -0.79687,0 -1.26562,0.46875 -0.46875,0.46875 -0.46875,1.25 z m -0.25,6.125 q 0,1.14063 0.57812,1.78125 0.57813,0.625 1.45313,0.625 0.84375,0 1.40625,-0.60937 0.5625,-0.60938 0.5625,-1.76563 0,-1 -0.57813,-1.60937 -0.5625,-0.60938 -1.42187,-0.60938 -1.01563,0 -1.51563,0.6875 -0.48437,0.6875 -0.48437,1.5 z"
       id="path147"
       inkscape:connector-curvature="0"
       style="fill:#000000;fill-rule:nonzero" />
    <path
       d="m 257.43124,456.2124 v 0 c 0,-6.07089 4.92145,-10.99234 10.99234,-10.99234 h 43.96808 v 0 c 2.91534,0 5.7113,1.15811 7.77277,3.21957 2.06146,2.06147 3.21957,4.85743 3.21957,7.77277 v 47.8421 c 0,6.07089 -4.92145,10.99231 -10.99234,10.99231 h -43.96808 c -6.07089,0 -10.99234,-4.92141 -10.99234,-10.99231 z"
       id="path149"
       inkscape:connector-curvature="0"
       style="fill:#cccccc;fill-rule:evenodd" />
    <path
       d="m 257.43124,456.2124 v 0 c 0,-6.07089 4.92145,-10.99234 10.99234,-10.99234 h 43.96808 v 0 c 2.91534,0 5.7113,1.15811 7.77277,3.21957 2.06146,2.06147 3.21957,4.85743 3.21957,7.77277 v 47.8421 c 0,6.07089 -4.92145,10.99231 -10.99234,10.99231 h -43.96808 c -6.07089,0 -10.99234,-4.92141 -10.99234,-10.99231 z"
       id="path151"
       inkscape:connector-curvature="0"
       style="fill-rule:evenodd;stroke:#595959;stroke-width:1;stroke-linecap:butt;stroke-linejoin:round" />
    <path
       d="m 289.76895,480.02094 -2.70312,0.5 q -0.14063,-0.8125 -0.625,-1.21875 -0.48438,-0.42188 -1.25,-0.42188 -1.03125,0 -1.64063,0.71875 -0.60937,0.70313 -0.60937,2.35938 0,1.84375 0.60937,2.60937 0.625,0.76563 1.67188,0.76563 0.78125,0 1.28125,-0.4375 0.5,-0.45313 0.70312,-1.53125 l 2.6875,0.45312 q -0.40625,1.85938 -1.60937,2.8125 -1.1875,0.9375 -3.1875,0.9375 -2.28125,0 -3.64063,-1.4375 -1.34375,-1.4375 -1.34375,-3.96875 0,-2.57812 1.35938,-4 1.35937,-1.4375 3.67187,-1.4375 1.89063,0 3,0.82813 1.125,0.8125 1.625,2.46875 z m 6.87305,7.3125 v -2.875 h -5.85938 v -2.40625 l 6.20313,-9.09375 h 2.3125 v 9.07812 h 1.78125 v 2.42188 h -1.78125 v 2.875 z m 0,-5.29688 v -4.89062 l -3.29688,4.89062 z"
       id="path153"
       inkscape:connector-curvature="0"
       style="fill:#000000;fill-rule:nonzero" />
    <path
       d="M 441.51523,617.5665 517.38928,287.55075"
       id="path155"
       inkscape:connector-curvature="0"
       style="fill:#000000;fill-opacity:0;fill-rule:evenodd" />
    <path
       d="M 441.51526,617.5665 513.35608,305.09308"
       id="path157"
       inkscape:connector-curvature="0"
       style="fill-rule:evenodd;stroke:#595959;stroke-width:3;stroke-linecap:butt;stroke-linejoin:round" />
    <path
       d="m 518.1853,306.2034 -1.77869,-14.37842 -7.87973,12.15784 z"
       id="path159"
       inkscape:connector-curvature="0"
       style="fill:#595959;fill-rule:evenodd;stroke:#595959;stroke-width:3;stroke-linecap:butt" />
    <path
       d="m 547.4514,95.08137 h 61.63782 V 212.05774 H 547.4514 Z"
       id="path161"
       inkscape:connector-curvature="0"
       style="fill:#3c78d8;fill-rule:evenodd" />
    <path
       d="m 547.4514,95.08137 h 61.63782 V 212.05774 H 547.4514 Z"
       id="path163"
       inkscape:connector-curvature="0"
       style="fill-rule:evenodd;stroke:#3c78d8;stroke-width:1;stroke-linecap:butt;stroke-linejoin:round" />
    <path
       d="m 547.4514,52.97113 h 61.63776 V 95.081367 H 547.4514 Z"
       id="path165"
       inkscape:connector-curvature="0"
       style="fill:#6aa84f;fill-rule:evenodd" />
    <path
       d="m 547.4514,52.97113 h 61.63776 V 95.081367 H 547.4514 Z"
       id="path167"
       inkscape:connector-curvature="0"
       style="fill-rule:evenodd;stroke:#6aa84f;stroke-width:1;stroke-linecap:butt;stroke-linejoin:round" />
    <path
       d="m 547.4514,10.860892 h 61.63776 V 52.971129 H 547.4514 Z"
       id="path169"
       inkscape:connector-curvature="0"
       style="fill:#e69138;fill-rule:evenodd" />
    <path
       d="m 547.4514,10.860892 h 61.63776 V 52.971129 H 547.4514 Z"
       id="path171"
       inkscape:connector-curvature="0"
       style="fill-rule:evenodd;stroke:#e69138;stroke-width:1;stroke-linecap:butt;stroke-linejoin:round" />
    <path
       d="m 290.40762,515.0468 56.75592,47.55908"
       id="path173"
       inkscape:connector-curvature="0"
       style="fill:#000000;fill-opacity:0;fill-rule:evenodd" />
    <path
       d="m 290.40762,515.0468 56.75592,47.55908"
       id="path175"
       inkscape:connector-curvature="0"
       style="fill-rule:evenodd;stroke:#2a76dd;stroke-width:3;stroke-linecap:butt;stroke-linejoin:round" />
    <path
       d="M 323.384,480.13345 384.61236,457.2673"
       id="path177"
       inkscape:connector-curvature="0"
       style="fill:#000000;fill-opacity:0;fill-rule:evenodd" />
    <path
       d="M 323.384,480.13345 384.61236,457.2673"
       id="path179"
       inkscape:connector-curvature="0"
       style="fill-rule:evenodd;stroke:#2a76dd;stroke-width:3;stroke-linecap:butt;stroke-linejoin:round" />
    <path
       d="m 417.57822,492.1807 23.93701,125.38583"
       id="path181"
       inkscape:connector-curvature="0"
       style="fill:#000000;fill-opacity:0;fill-rule:evenodd" />
    <path
       d="m 417.57822,492.1807 23.93701,125.38583"
       id="path183"
       inkscape:connector-curvature="0"
       style="fill-rule:evenodd;stroke:#2a76dd;stroke-width:3;stroke-linecap:butt;stroke-linejoin:round" />
    <path
       d="M 450.5546,457.2673 576.1294,429.10983"
       id="path185"
       inkscape:connector-curvature="0"
       style="fill:#000000;fill-opacity:0;fill-rule:evenodd" />
    <path
       d="M 450.5546,457.2673 576.1294,429.10983"
       id="path187"
       inkscape:connector-curvature="0"
       style="fill-rule:evenodd;stroke:#2a76dd;stroke-width:3;stroke-linecap:butt;stroke-linejoin:round" />
    <path
       d="m 417.57822,492.1807 71.96851,70.4252"
       id="path189"
       inkscape:connector-curvature="0"
       style="fill:#000000;fill-opacity:0;fill-rule:evenodd" />
    <path
       d="m 417.57822,492.1807 71.96851,70.4252"
       id="path191"
       inkscape:connector-curvature="0"
       style="fill-rule:evenodd;stroke:#2a76dd;stroke-width:3;stroke-linecap:butt;stroke-linejoin:round" />
    <path
       d="m 380.13205,597.51404 28.40942,54.96063"
       id="path193"
       inkscape:connector-curvature="0"
       style="fill:#000000;fill-opacity:0;fill-rule:evenodd" />
    <path
       d="m 380.13205,597.51404 28.40942,54.96063"
       id="path195"
       inkscape:connector-curvature="0"
       style="fill-rule:evenodd;stroke:#2a76dd;stroke-width:3;stroke-linecap:butt;stroke-linejoin:round" />
    <path
       d="m 609.09,617.5665 55.81103,-44.62994"
       id="path197"
       inkscape:connector-curvature="0"
       style="fill:#000000;fill-opacity:0;fill-rule:evenodd" />
    <path
       d="m 609.09,617.5665 55.81103,-44.62994"
       id="path199"
       inkscape:connector-curvature="0"
       style="fill-rule:evenodd;stroke:#2a76dd;stroke-width:3;stroke-linecap:butt;stroke-linejoin:round" />
    <path
       d="M 664.90894,503.11508 609.09791,464.02847"
       id="path201"
       inkscape:connector-curvature="0"
       style="fill:#000000;fill-opacity:0;fill-rule:evenodd" />
    <path
       d="M 664.90894,503.11508 609.09791,464.02847"
       id="path203"
       inkscape:connector-curvature="0"
       style="fill-rule:evenodd;stroke:#2a76dd;stroke-width:3;stroke-linecap:butt;stroke-linejoin:round" />
    <path
       d="m 555.4959,562.6011 53.60632,54.96063"
       id="path205"
       inkscape:connector-curvature="0"
       style="fill:#000000;fill-opacity:0;fill-rule:evenodd" />
    <path
       d="m 555.4959,562.6011 53.60632,54.96063"
       id="path207"
       inkscape:connector-curvature="0"
       style="fill-rule:evenodd;stroke:#2a76dd;stroke-width:3;stroke-linecap:butt;stroke-linejoin:round" />
    <path
       d="M 474.4916,652.4799 H 576.12939"
       id="path209"
       inkscape:connector-curvature="0"
       style="fill:#000000;fill-opacity:0;fill-rule:evenodd" />
    <path
       d="M 474.4916,652.4799 H 576.12939"
       id="path211"
       inkscape:connector-curvature="0"
       style="fill-rule:evenodd;stroke:#2a76dd;stroke-width:3;stroke-linecap:butt;stroke-linejoin:round" />
  </g>
  <rect
     id="rect223"
     width="464.28574"
     height="687.14282"
     x="0"
     y="0" />
</svg>
