<?xml version="1.0" standalone="yes"?>

<svg version="1.1" viewBox="0.0 0.0 1058.3044619422571 793.6692913385826" fill="none" stroke="none" stroke-linecap="square" stroke-miterlimit="10" xmlns="http://www.w3.org/2000/svg" xmlns:xlink="http://www.w3.org/1999/xlink"><clipPath id="g27e633df33_0_56.0"><path d="m0 0l1058.3044 0l0 793.6693l-1058.3044 0l0 -793.6693z" clip-rule="nonzero"></path></clipPath><g clip-path="url(#g27e633df33_0_56.0)"><path fill="#ffffff" d="m0 0l1058.3044 0l0 793.6693l-1058.3044 0z" fill-rule="evenodd"></path><path fill="#000000" fill-opacity="0.0" d="m776.0604 107.56956l0.66137695 671.937" fill-rule="evenodd"></path><path stroke="#595959" stroke-width="1.0" stroke-linejoin="round" stroke-linecap="butt" d="m776.0604 107.56956l0.66137695 671.937" fill-rule="evenodd"></path><path fill="#666666" d="m394.2388 4.729407l0 0c0 1.5479975 33.47641 2.8028975 74.77167 2.8028975c41.295227 0 74.77164 -1.2549 74.77164 -2.8028975l0 98.20523c0 1.5479965 -33.47641 2.8028946 -74.77164 2.8028946c-41.295258 0 -74.77167 -1.2548981 -74.77167 -2.8028946z" fill-rule="evenodd"></path><path fill="#a3a3a3" d="m394.2388 4.729407l0 0c0 -1.5479977 33.47641 -2.8028977 74.77167 -2.8028977c41.295227 0 74.77164 1.2549 74.77164 2.8028977l0 0c0 1.5479975 -33.47641 2.8028975 -74.77164 2.8028975c-41.295258 0 -74.77167 -1.2549 -74.77167 -2.8028975z" fill-rule="evenodd"></path><path fill="#000000" fill-opacity="0.0" d="m543.7821 4.729407l0 0c0 1.5479975 -33.47641 2.8028975 -74.77164 2.8028975c-41.295258 0 -74.77167 -1.2549 -74.77167 -2.8028975l0 0c0 -1.5479977 33.47641 -2.8028977 74.77167 -2.8028977c41.295227 0 74.77164 1.2549 74.77164 2.8028977l0 98.20523c0 1.5479965 -33.47641 2.8028946 -74.77164 2.8028946c-41.295258 0 -74.77167 -1.2548981 -74.77167 -2.8028946l0 -98.20523" fill-rule="evenodd"></path><path stroke="#666666" stroke-width="1.0" stroke-linejoin="round" stroke-linecap="butt" d="m543.7821 4.729407l0 0c0 1.5479975 -33.47641 2.8028975 -74.77164 2.8028975c-41.295258 0 -74.77167 -1.2549 -74.77167 -2.8028975l0 0c0 -1.5479977 33.47641 -2.8028977 74.77167 -2.8028977c41.295227 0 74.77164 1.2549 74.77164 2.8028977l0 98.20523c0 1.5479965 -33.47641 2.8028946 -74.77164 2.8028946c-41.295258 0 -74.77167 -1.2548981 -74.77167 -2.8028946l0 -98.20523" fill-rule="evenodd"></path><path fill="#ffffff" d="m410.57297 61.500343l4.5 -0.4375q0.40625 2.265625 1.640625 3.328125q1.25 1.0625 3.359375 1.0625q2.234375 0 3.359375 -0.9375q1.140625 -0.953125 1.140625 -2.21875q0 -0.8125 -0.484375 -1.375q-0.46875 -0.578125 -1.65625 -1.0q-0.8125 -0.28125 -3.703125 -1.0q-3.71875 -0.921875 -5.21875 -2.265625q-2.109375 -1.890625 -2.109375 -4.609375q0 -1.75 0.984375 -3.265625q1.0 -1.53125 2.859375 -2.328125q1.875 -0.796875 4.515625 -0.796875q4.3125 0 6.484375 1.890625q2.1875 1.890625 2.296875 5.046875l-4.625 0.203125q-0.296875 -1.765625 -1.28125 -2.53125q-0.96875 -0.78125 -2.921875 -0.78125q-2.015625 0 -3.15625 0.828125q-0.734375 0.53125 -0.734375 1.421875q0 0.8125 0.6875 1.390625q0.875 0.734375 4.25 1.53125q3.375 0.796875 4.984375 1.65625q1.625 0.84375 2.53125 2.328125q0.921875 1.46875 0.921875 3.640625q0 1.96875 -1.09375 3.6875q-1.09375 1.71875 -3.09375 2.5625q-2.0 0.828125 -4.984375 0.828125q-4.34375 0 -6.671875 -2.0q-2.328125 -2.015625 -2.78125 -5.859375zm32.09375 2.171875l4.375 0.734375q-0.84375 2.40625 -2.671875 3.671875q-1.8125 1.25 -4.546875 1.25q-4.328125 0 -6.40625 -2.828125q-1.640625 -2.265625 -1.640625 -5.71875q0 -4.125 2.15625 -6.453125q2.15625 -2.34375 5.453125 -2.34375q3.703125 0 5.84375 2.453125q2.140625 2.4375 2.046875 7.484375l-11.0 0q0.046875 1.953125 1.0625 3.046875q1.015625 1.078125 2.53125 1.078125q1.03125 0 1.734375 -0.5625q0.703125 -0.5625 1.0625 -1.8125zm0.25 -4.4375q-0.046875 -1.90625 -0.984375 -2.890625q-0.9375 -1.0 -2.28125 -1.0q-1.4375 0 -2.375 1.046875q-0.9375 1.046875 -0.921875 2.84375l6.5625 0zm12.140625 9.71875l-4.390625 0l0 -16.59375l4.078125 0l0 2.359375q1.046875 -1.671875 1.875 -2.203125q0.84375 -0.53125 1.90625 -0.53125q1.5 0 2.890625 0.828125l-1.359375 3.828125q-1.109375 -0.71875 -2.0625 -0.71875q-0.921875 0 -1.5625 0.515625q-0.640625 0.5 -1.015625 1.828125q-0.359375 1.328125 -0.359375 5.5625l0 5.125zm12.8125 0l-6.6875 -16.59375l4.609375 0l3.125 8.46875l0.90625 2.828125q0.359375 -1.078125 0.453125 -1.421875q0.21875 -0.703125 0.46875 -1.40625l3.15625 -8.46875l4.515625 0l-6.59375 16.59375l-3.953125 0zm22.84375 -5.28125l4.375 0.734375q-0.84375 2.40625 -2.671875 3.671875q-1.8125 1.25 -4.546875 1.25q-4.328125 0 -6.40625 -2.828125q-1.640625 -2.265625 -1.640625 -5.71875q0 -4.125 2.15625 -6.453125q2.15625 -2.34375 5.453125 -2.34375q3.703125 0 5.84375 2.453125q2.140625 2.4375 2.046875 7.484375l-11.0 0q0.046875 1.953125 1.0625 3.046875q1.015625 1.078125 2.53125 1.078125q1.03125 0 1.734375 -0.5625q0.703125 -0.5625 1.0625 -1.8125zm0.25 -4.4375q-0.046875 -1.90625 -0.984375 -2.890625q-0.9375 -1.0 -2.28125 -1.0q-1.4375 0 -2.375 1.046875q-0.9375 1.046875 -0.921875 2.84375l6.5625 0zm18.859375 9.71875l0 -2.484375q-0.90625 1.328125 -2.390625 2.09375q-1.46875 0.765625 -3.109375 0.765625q-1.671875 0 -3.0 -0.734375q-1.328125 -0.734375 -1.921875 -2.0625q-0.59375 -1.328125 -0.59375 -3.671875l0 -10.5l4.390625 0l0 7.625q0 3.5 0.234375 4.296875q0.25 0.78125 0.890625 1.25q0.640625 0.453125 1.625 0.453125q1.125 0 2.015625 -0.609375q0.890625 -0.625 1.21875 -1.53125q0.328125 -0.921875 0.328125 -4.484375l0 -7.0l4.3905945 0l0 16.59375l-4.0780945 0zm12.8280945 0l-4.390625 0l0 -16.59375l4.078125 0l0 2.359375q1.046875 -1.671875 1.875 -2.203125q0.84375 -0.53125 1.90625 -0.53125q1.5 0 2.890625 0.828125l-1.359375 3.828125q-1.109375 -0.71875 -2.0625 -0.71875q-0.921875 0 -1.5625 0.515625q-0.640625 0.5 -1.015625 1.828125q-0.359375 1.328125 -0.359375 5.5625l0 5.125z" fill-rule="nonzero"></path><path fill="#000000" fill-opacity="0.0" d="m161.96068 105.73753l0.6614075 671.937" fill-rule="evenodd"></path><path stroke="#595959" stroke-width="1.0" stroke-linejoin="round" stroke-linecap="butt" d="m161.96068 105.73753l0.6614075 671.937" fill-rule="evenodd"></path><path fill="#3972ce" d="m136.62204 443.93176l51.338593 0l0 103.811035l-51.338593 0z" fill-rule="evenodd"></path><path stroke="#3972ce" stroke-width="1.0" stroke-linejoin="round" stroke-linecap="butt" d="m136.62204 443.93176l51.338593 0l0 103.811035l-51.338593 0z" fill-rule="evenodd"></path><path fill="#000000" fill-opacity="0.0" d="m468.67984 105.73753l0.6614075 671.937" fill-rule="evenodd"></path><path stroke="#595959" stroke-width="1.0" stroke-linejoin="round" stroke-linecap="butt" d="m468.67984 105.73753l0.6614075 671.937" fill-rule="evenodd"></path><path fill="#86ba0c" d="m443.6719 105.632545l51.338593 0l0 671.937l-51.338593 0z" fill-rule="evenodd"></path><path stroke="#86ba0c" stroke-width="1.0" stroke-linejoin="round" stroke-linecap="butt" d="m443.6719 105.632545l51.338593 0l0 671.937l-51.338593 0z" fill-rule="evenodd"></path><path fill="#3c78d8" d="m136.62206 119.52231l51.338577 0l0 42.110245l-51.338577 0z" fill-rule="evenodd"></path><path stroke="#3c78d8" stroke-width="1.0" stroke-linejoin="round" stroke-linecap="butt" d="m136.62206 119.52231l51.338577 0l0 42.110245l-51.338577 0z" fill-rule="evenodd"></path><path fill="#ffd140" d="m443.34122 185.63255l51.338562 0l0 50.960617l-51.338562 0z" fill-rule="evenodd"></path><path stroke="#ffd140" stroke-width="1.0" stroke-linejoin="round" stroke-linecap="butt" d="m443.34122 185.63255l51.338562 0l0 50.960617l-51.338562 0z" fill-rule="evenodd"></path><path fill="#000000" fill-opacity="0.0" d="m162.29134 161.63255l306.70868 24.0" fill-rule="evenodd"></path><path stroke="#595959" stroke-width="3.0" stroke-linejoin="round" stroke-linecap="butt" d="m162.29134 161.63255l288.76355 22.59578" fill-rule="evenodd"></path><path fill="#595959" stroke="#595959" stroke-width="3.0" stroke-linecap="butt" d="m450.6683 189.16843l13.959351 -3.8780212l-13.186249 -6.0021667z" fill-rule="evenodd"></path><path fill="#3c78d8" d="m136.29134 243.74278l51.338593 0l0 119.14961l-51.338593 0z" fill-rule="evenodd"></path><path stroke="#3c78d8" stroke-width="1.0" stroke-linejoin="round" stroke-linecap="butt" d="m136.29134 243.74278l51.338593 0l0 119.14961l-51.338593 0z" fill-rule="evenodd"></path><path fill="#ffd140" d="m443.34122 385.63254l51.338562 0l0 42.11023l-51.338562 0z" fill-rule="evenodd"></path><path stroke="#ffd140" stroke-width="1.0" stroke-linejoin="round" stroke-linecap="butt" d="m443.34122 385.63254l51.338562 0l0 42.11023l-51.338562 0z" fill-rule="evenodd"></path><path fill="#000000" fill-opacity="0.0" d="m161.96063 362.8924l307.0551 22.740143" fill-rule="evenodd"></path><path stroke="#595959" stroke-width="3.0" stroke-linejoin="round" stroke-linecap="butt" d="m161.96063 362.8924l289.10428 21.410706" fill-rule="evenodd"></path><path fill="#595959" stroke="#595959" stroke-width="3.0" stroke-linecap="butt" d="m450.69894 389.24478l13.943085 -3.9361572l-13.211151 -5.947174z" fill-rule="evenodd"></path><path fill="#000000" fill-opacity="0.0" d="m469.0105 427.74277l-306.70868 16.188995" fill-rule="evenodd"></path><path stroke="#595959" stroke-width="3.0" stroke-linejoin="round" stroke-linecap="butt" d="m469.0105 427.74277l-288.73367 15.240204" fill-rule="evenodd"></path><path fill="#595959" stroke="#595959" stroke-width="3.0" stroke-linecap="butt" d="m180.01562 438.03467l-13.334183 5.665924l13.856552 4.230713z" fill-rule="evenodd"></path><path fill="#000000" fill-opacity="0.0" d="m136.62206 140.57742l0 355.2756" fill-rule="evenodd"></path><path stroke="#3972ce" stroke-width="8.0" stroke-linejoin="round" stroke-linecap="butt" d="m136.62206 140.57742l0 355.2756" fill-rule="evenodd"></path><path fill="#000000" fill-opacity="0.0" d="m70.50656 253.97375l71.14961 0l0 63.212585l-71.14961 0z" fill-rule="evenodd"></path><path fill="#3972ce" d="m105.45969 297.73312q2.140625 1.53125 4.640625 2.421875l-2.140625 4.09375q-1.296875 -0.390625 -2.546875 -1.078125q-0.28125 -0.140625 -3.859375 -2.546875q-2.8125 1.234375 -6.21875 1.234375q-6.609375 0 -10.359375 -3.875q-3.734375 -3.890625 -3.734375 -10.921875q0 -7.015625 3.75 -10.90625q3.75 -3.90625 10.1875 -3.90625q6.359375 0 10.09375 3.90625q3.734375 3.890625 3.734375 10.90625q0 3.703125 -1.046875 6.515625q-0.78125 2.15625 -2.5 4.15625zm-4.640625 -3.25q1.109375 -1.3125 1.65625 -3.171875q0.5625 -1.859375 0.5625 -4.25q0 -4.96875 -2.1875 -7.421875q-2.1875 -2.453125 -5.71875 -2.453125q-3.53125 0 -5.734375 2.46875q-2.1875 2.453125 -2.1875 7.40625q0 5.015625 2.1875 7.515625q2.203125 2.484375 5.5625 2.484375q1.25 0 2.359375 -0.421875q-1.75 -1.140625 -3.578125 -1.796875l1.625 -3.296875q2.859375 0.984375 5.453125 2.9375z" fill-rule="nonzero"></path><path fill="#3972ce" d="m121.24484 316.37375l-3.703125 0l0 -13.96875q-2.03125 1.90625 -4.78125 2.8125l0 -3.359375q1.453125 -0.46875 3.140625 -1.796875q1.703125 -1.328125 2.34375 -3.09375l3.0 0l0 19.40625z" fill-rule="nonzero"></path><path fill="#06b1d2" d="m752.2913 170.8916l51.338623 0l0 42.110245l-51.338623 0z" fill-rule="evenodd"></path><path stroke="#06b1d2" stroke-width="1.0" stroke-linejoin="round" stroke-linecap="butt" d="m752.2913 170.8916l51.338623 0l0 42.110245l-51.338623 0z" fill-rule="evenodd"></path><path fill="#06b1d2" d="m752.2913 306.8916l51.338623 0l0 42.11023l-51.338623 0z" fill-rule="evenodd"></path><path stroke="#06b1d2" stroke-width="1.0" stroke-linejoin="round" stroke-linecap="butt" d="m752.2913 306.8916l51.338623 0l0 42.11023l-51.338623 0z" fill-rule="evenodd"></path><path fill="#000000" fill-opacity="0.0" d="m803.62994 191.94672l0 136.0" fill-rule="evenodd"></path><path stroke="#06b1d2" stroke-width="8.0" stroke-linejoin="round" stroke-linecap="butt" d="m803.62994 191.94672l0 136.0" fill-rule="evenodd"></path><path fill="#000000" fill-opacity="0.0" d="m804.6483 212.3412l71.1496 0l0 63.2126l-71.1496 0z" fill-rule="evenodd"></path><path fill="#06b1d2" d="m839.60144 256.1006q2.140625 1.53125 4.640625 2.421875l-2.140625 4.09375q-1.296875 -0.390625 -2.546875 -1.078125q-0.28125 -0.140625 -3.859375 -2.546875q-2.8125 1.234375 -6.21875 1.234375q-6.609375 0 -10.359375 -3.875q-3.734375 -3.890625 -3.734375 -10.921875q0 -7.015625 3.75 -10.90625q3.75 -3.90625 10.1875 -3.90625q6.359375 0 10.09375 3.90625q3.734375 3.890625 3.734375 10.90625q0 3.703125 -1.046875 6.515625q-0.78125 2.15625 -2.5 4.15625zm-4.640625 -3.25q1.109375 -1.3125 1.65625 -3.171875q0.5625 -1.859375 0.5625 -4.25q0 -4.96875 -2.1875 -7.421875q-2.1875 -2.453125 -5.71875 -2.453125q-3.53125 0 -5.734375 2.46875q-2.1875 2.453125 -2.1875 7.40625q0 5.015625 2.1875 7.515625q2.203125 2.484375 5.5625 2.484375q1.25 0 2.359375 -0.421875q-1.75 -1.140625 -3.578125 -1.796875l1.625 -3.296875q2.859375 0.984375 5.453125 2.9375z" fill-rule="nonzero"></path><path fill="#06b1d2" d="m858.41785 271.3037l0 3.4375l-12.984375 0q0.21875 -1.953125 1.265625 -3.6875q1.0625 -1.75 4.171875 -4.640625q2.5 -2.34375 3.0625 -3.171875q0.765625 -1.140625 0.765625 -2.265625q0 -1.234375 -0.671875 -1.890625q-0.65625 -0.671875 -1.828125 -0.671875q-1.15625 0 -1.84375 0.703125q-0.6875 0.6875 -0.796875 2.3125l-3.6875 -0.375q0.328125 -3.0625 2.0625 -4.390625q1.75 -1.328125 4.359375 -1.328125q2.859375 0 4.484375 1.546875q1.640625 1.53125 1.640625 3.828125q0 1.3125 -0.46875 2.5q-0.46875 1.171875 -1.484375 2.453125q-0.671875 0.859375 -2.421875 2.46875q-1.75 1.609375 -2.21875 2.140625q-0.46875 0.53125 -0.765625 1.03125l7.359375 0z" fill-rule="nonzero"></path><path fill="#ffd140" d="m443.34122 273.63254l51.338562 0l0 42.11023l-51.338562 0z" fill-rule="evenodd"></path><path stroke="#ffd140" stroke-width="1.0" stroke-linejoin="round" stroke-linecap="butt" d="m443.34122 273.63254l51.338562 0l0 42.11023l-51.338562 0z" fill-rule="evenodd"></path><path fill="#000000" fill-opacity="0.0" d="m469.0105 315.74277l308.9449 -8.850372" fill-rule="evenodd"></path><path stroke="#06b1d2" stroke-width="3.0" stroke-linejoin="round" stroke-linecap="butt" d="m469.0105 315.74277l290.95227 -8.33493" fill-rule="evenodd"></path><path fill="#06b1d2" stroke="#06b1d2" stroke-width="3.0" stroke-linecap="butt" d="m760.1047 312.361l13.466797 -5.3430176l-13.75061 -4.563324z" fill-rule="evenodd"></path><path fill="#000000" fill-opacity="0.0" d="m269.27298 183.52231l124.97635 0l0 32.220474l-124.97635 0z" fill-rule="evenodd"></path><path fill="#3c78d8" d="m284.58548 218.12231l0 -16.0625l-5.734375 0l0 -3.265625l15.359375 0l0 3.265625l-5.71875 0l0 16.0625l-3.90625 0zm11.938934 0l0 -19.328125l6.265625 0q3.546875 0 4.640625 0.296875q1.65625 0.421875 2.765625 1.890625q1.125 1.453125 1.125 3.765625q0 1.765625 -0.640625 2.984375q-0.640625 1.21875 -1.640625 1.90625q-1.0 0.6875 -2.03125 0.921875q-1.390625 0.265625 -4.046875 0.265625l-2.546875 0l0 7.296875l-3.890625 0zm3.890625 -16.0625l0 5.484375l2.140625 0q2.3125 0 3.078125 -0.296875q0.78125 -0.3125 1.21875 -0.953125q0.453125 -0.640625 0.453125 -1.5q0 -1.0625 -0.625 -1.734375q-0.609375 -0.6875 -1.5625 -0.859375q-0.703125 -0.140625 -2.8125 -0.140625l-1.890625 0zm29.43576 13.609375q1.4375 1.03125 3.125 1.640625l-1.4375 2.75q-0.875 -0.265625 -1.71875 -0.71875q-0.1875 -0.09375 -2.59375 -1.71875q-1.90625 0.828125 -4.21875 0.828125q-4.453125 0 -6.984375 -2.625q-2.515625 -2.625 -2.515625 -7.359375q0 -4.734375 2.53125 -7.359375q2.53125 -2.640625 6.875 -2.640625q4.296875 0 6.8125 2.640625q2.515625 2.625 2.515625 7.359375q0 2.5 -0.703125 4.390625q-0.515625 1.453125 -1.6875 2.8125zm-3.125 -2.203125q0.75 -0.875 1.125 -2.125q0.375 -1.265625 0.375 -2.875q0 -3.359375 -1.484375 -5.015625q-1.46875 -1.65625 -3.859375 -1.65625q-2.390625 0 -3.875 1.671875q-1.484375 1.65625 -1.484375 5.0q0 3.375 1.484375 5.0625q1.484375 1.6875 3.75 1.6875q0.84375 0 1.609375 -0.28125q-1.1875 -0.78125 -2.421875 -1.21875l1.09375 -2.21875q1.921875 0.65625 3.6875 1.96875zm16.968475 4.65625l-3.703125 0l0 -13.96875q-2.03125 1.90625 -4.78125 2.8125l0 -3.359375q1.453125 -0.46875 3.140625 -1.796875q1.703125 -1.328125 2.34375 -3.09375l3.0 0l0 19.40625zm6.1374207 0l0 -3.703125l3.703125 0l0 3.703125l-3.703125 0zm16.093475 0l-3.703125 0l0 -13.96875q-2.03125 1.90625 -4.78125 2.8125l0 -3.359375q1.453125 -0.46875 3.140625 -1.796875q1.703125 -1.328125 2.34375 -3.09375l3.0 0l0 19.40625z" fill-rule="nonzero"></path><path fill="#000000" fill-opacity="0.0" d="m261.27298 375.5223l124.97635 0l0 32.22046l-124.97635 0z" fill-rule="evenodd"></path><path fill="#3c78d8" d="m276.58548 410.1223l0 -16.0625l-5.734375 0l0 -3.265625l15.359375 0l0 3.265625l-5.71875 0l0 16.0625l-3.90625 0zm11.938934 0l0 -19.328125l6.265625 0q3.546875 0 4.640625 0.296875q1.65625 0.421875 2.765625 1.890625q1.125 1.453125 1.125 3.765625q0 1.765625 -0.640625 2.984375q-0.640625 1.21875 -1.640625 1.90625q-1.0 0.6875 -2.03125 0.921875q-1.390625 0.265625 -4.046875 0.265625l-2.546875 0l0 7.296875l-3.890625 0zm3.890625 -16.0625l0 5.484375l2.140625 0q2.3125 0 3.078125 -0.296875q0.78125 -0.3125 1.21875 -0.953125q0.453125 -0.640625 0.453125 -1.5q0 -1.0625 -0.625 -1.734375q-0.609375 -0.6875 -1.5625 -0.859375q-0.703125 -0.140625 -2.8125 -0.140625l-1.890625 0zm29.43576 13.609375q1.4375 1.03125 3.125 1.640625l-1.4375 2.75q-0.875 -0.265625 -1.71875 -0.71875q-0.1875 -0.09375 -2.59375 -1.71875q-1.90625 0.828125 -4.21875 0.828125q-4.453125 0 -6.984375 -2.625q-2.515625 -2.625 -2.515625 -7.359375q0 -4.734375 2.53125 -7.359375q2.53125 -2.640625 6.875 -2.640625q4.296875 0 6.8125 2.640625q2.515625 2.625 2.515625 7.359375q0 2.5 -0.703125 4.390625q-0.515625 1.453125 -1.6875 2.8125zm-3.125 -2.203125q0.75 -0.875 1.125 -2.125q0.375 -1.265625 0.375 -2.875q0 -3.359375 -1.484375 -5.015625q-1.46875 -1.65625 -3.859375 -1.65625q-2.390625 0 -3.875 1.671875q-1.484375 1.65625 -1.484375 5.0q0 3.375 1.484375 5.0625q1.484375 1.6875 3.75 1.6875q0.84375 0 1.609375 -0.28125q-1.1875 -0.78125 -2.421875 -1.21875l1.09375 -2.21875q1.921875 0.65625 3.6875 1.96875zm16.968475 4.65625l-3.703125 0l0 -13.96875q-2.03125 1.90625 -4.78125 2.8125l0 -3.359375q1.453125 -0.46875 3.140625 -1.796875q1.703125 -1.328125 2.34375 -3.09375l3.0 0l0 19.40625zm6.1374207 0l0 -3.703125l3.703125 0l0 3.703125l-3.703125 0zm19.124725 -3.4375l0 3.4375l-12.984375 0q0.21875 -1.953125 1.265625 -3.6875q1.0625 -1.75 4.171875 -4.640625q2.5 -2.34375 3.0625 -3.171875q0.765625 -1.140625 0.765625 -2.265625q0 -1.234375 -0.671875 -1.890625q-0.65625 -0.671875 -1.828125 -0.671875q-1.15625 0 -1.84375 0.703125q-0.6875 0.6875 -0.796875 2.3125l-3.6875 -0.375q0.328125 -3.0625 2.0625 -4.390625q1.75 -1.328125 4.359375 -1.328125q2.859375 0 4.484375 1.546875q1.640625 1.53125 1.640625 3.828125q0 1.3125 -0.46875 2.5q-0.46875 1.171875 -1.484375 2.453125q-0.671875 0.859375 -2.421875 2.46875q-1.75 1.609375 -2.21875 2.140625q-0.46875 0.53125 -0.765625 1.03125l7.359375 0z" fill-rule="nonzero"></path><path fill="#000000" fill-opacity="0.0" d="m888.0604 107.56956l0.66137695 671.937" fill-rule="evenodd"></path><path stroke="#595959" stroke-width="1.0" stroke-linejoin="round" stroke-linecap="butt" d="m888.0604 107.56956l0.66137695 671.937" fill-rule="evenodd"></path><path fill="#008f7d" d="m864.2913 122.8916l51.338623 0l0 42.110245l-51.338623 0z" fill-rule="evenodd"></path><path stroke="#008f7d" stroke-width="1.0" stroke-linejoin="round" stroke-linecap="butt" d="m864.2913 122.8916l51.338623 0l0 42.110245l-51.338623 0z" fill-rule="evenodd"></path><path fill="#008f7d" d="m864.2913 258.8916l51.338623 0l0 42.11023l-51.338623 0z" fill-rule="evenodd"></path><path stroke="#008f7d" stroke-width="1.0" stroke-linejoin="round" stroke-linecap="butt" d="m864.2913 258.8916l51.338623 0l0 42.11023l-51.338623 0z" fill-rule="evenodd"></path><path fill="#000000" fill-opacity="0.0" d="m915.62994 143.94672l0 136.0" fill-rule="evenodd"></path><path stroke="#008f7d" stroke-width="8.0" stroke-linejoin="round" stroke-linecap="butt" d="m915.62994 143.94672l0 136.0" fill-rule="evenodd"></path><path fill="#000000" fill-opacity="0.0" d="m916.6483 164.3412l71.1496 0l0 63.2126l-71.1496 0z" fill-rule="evenodd"></path><path fill="#008f7d" d="m951.60144 208.10059q2.140625 1.53125 4.640625 2.421875l-2.140625 4.09375q-1.296875 -0.390625 -2.546875 -1.078125q-0.28125 -0.140625 -3.859375 -2.546875q-2.8125 1.234375 -6.21875 1.234375q-6.609375 0 -10.359375 -3.875q-3.734375 -3.890625 -3.734375 -10.921875q0 -7.015625 3.75 -10.90625q3.75 -3.90625 10.1875 -3.90625q6.359375 0 10.09375 3.90625q3.734375 3.890625 3.734375 10.90625q0 3.703125 -1.046875 6.515625q-0.78125 2.15625 -2.5 4.15625zm-4.640625 -3.25q1.109375 -1.3125 1.65625 -3.171875q0.5625 -1.859375 0.5625 -4.25q0 -4.96875 -2.1875 -7.421875q-2.1875 -2.453125 -5.71875 -2.453125q-3.53125 0 -5.734375 2.46875q-2.1875 2.453125 -2.1875 7.40625q0 5.015625 2.1875 7.515625q2.203125 2.484375 5.5625 2.484375q1.25 0 2.359375 -0.421875q-1.75 -1.140625 -3.578125 -1.796875l1.625 -3.296875q2.859375 0.984375 5.453125 2.9375z" fill-rule="nonzero"></path><path fill="#008f7d" d="m957.7772 221.61621l3.578125 -0.4375q0.171875 1.375 0.921875 2.09375q0.765625 0.71875 1.828125 0.71875q1.140625 0 1.921875 -0.859375q0.796875 -0.875 0.796875 -2.34375q0 -1.40625 -0.75 -2.21875q-0.75 -0.8125 -1.84375 -0.8125q-0.703125 0 -1.6875 0.265625l0.40625 -3.015625q1.5 0.046875 2.28125 -0.640625q0.796875 -0.703125 0.796875 -1.84375q0 -0.984375 -0.578125 -1.5625q-0.578125 -0.578125 -1.546875 -0.578125q-0.9375 0 -1.609375 0.65625q-0.671875 0.65625 -0.828125 1.921875l-3.40625 -0.578125q0.34375 -1.75 1.0625 -2.796875q0.71875 -1.046875 2.0 -1.640625q1.296875 -0.609375 2.890625 -0.609375q2.734375 0 4.375 1.734375q1.359375 1.421875 1.359375 3.21875q0 2.546875 -2.78125 4.0625q1.65625 0.359375 2.65625 1.609375q1.0 1.234375 1.0 2.984375q0 2.546875 -1.859375 4.34375q-1.859375 1.78125 -4.625 1.78125q-2.625 0 -4.359375 -1.5q-1.71875 -1.515625 -2.0 -3.953125z" fill-rule="nonzero"></path><path fill="#ffd140" d="m443.6719 235.74278l77.25986 0l0 42.110245l-77.25986 0z" fill-rule="evenodd"></path><path stroke="#ffd140" stroke-width="1.0" stroke-linejoin="round" stroke-linecap="butt" d="m443.6719 235.74278l77.25986 0l0 42.110245l-77.25986 0z" fill-rule="evenodd"></path><path fill="#b7b7b7" d="m495.0105 208.51706l25.921265 0l0 28.062988l-25.921265 0z" fill-rule="evenodd"></path><path stroke="#cccccc" stroke-width="1.0" stroke-linejoin="round" stroke-linecap="butt" d="m495.0105 208.51706l25.921265 0l0 28.062988l-25.921265 0z" fill-rule="evenodd"></path><path fill="#000000" fill-opacity="0.0" d="m889.96063 165.00185l-395.2756 46.11023" fill-rule="evenodd"></path><path stroke="#008f7d" stroke-width="3.0" stroke-linejoin="round" stroke-linecap="butt" d="m889.96063 165.00185l-377.3968 44.024628" fill-rule="evenodd"></path><path fill="#008f7d" stroke="#008f7d" stroke-width="3.0" stroke-linecap="butt" d="m511.98965 204.10464l-12.948456 6.499283l14.096741 3.3443604z" fill-rule="evenodd"></path><path fill="#ffffff" d="m495.0105 236.35957l35.93701 0l0 42.110245l-35.93701 0z" fill-rule="evenodd"></path><path stroke="#ffffff" stroke-width="1.0" stroke-linejoin="round" stroke-linecap="butt" d="m495.0105 236.35957l35.93701 0l0 42.110245l-35.93701 0z" fill-rule="evenodd"></path><path fill="#000000" fill-opacity="0.0" d="m482.30185 235.74278l-320.34647 8.0" fill-rule="evenodd"></path><path stroke="#595959" stroke-width="3.0" stroke-linejoin="round" stroke-linecap="butt" d="m482.30185 235.74278l-302.35208 7.5506287" fill-rule="evenodd"></path><path fill="#595959" stroke="#595959" stroke-width="3.0" stroke-linecap="butt" d="m179.82607 238.33975l-13.486343 5.2935333l13.733749 4.6137695z" fill-rule="evenodd"></path><path fill="#b7b7b7" d="m492.49606 252.97113l25.921234 0l0 28.062988l-25.921234 0z" fill-rule="evenodd"></path><path stroke="#cccccc" stroke-width="1.0" stroke-linejoin="round" stroke-linecap="butt" d="m492.49606 252.97113l25.921234 0l0 28.062988l-25.921234 0z" fill-rule="evenodd"></path><path fill="#000000" fill-opacity="0.0" d="m777.96063 213.00185l-282.96063 44.40944" fill-rule="evenodd"></path><path stroke="#06b1d2" stroke-width="3.0" stroke-linejoin="round" stroke-linecap="butt" d="m777.96063 213.00185l-265.17834 41.618576" fill-rule="evenodd"></path><path fill="#06b1d2" stroke="#06b1d2" stroke-width="3.0" stroke-linecap="butt" d="m512.01404 249.72516l-12.681366 7.006134l14.217926 2.7844238z" fill-rule="evenodd"></path><path fill="#000000" fill-opacity="0.0" d="m482.30185 277.85303l407.65353 -18.960632" fill-rule="evenodd"></path><path stroke="#008f7d" stroke-width="3.0" stroke-linejoin="round" stroke-linecap="butt" d="m482.30185 277.85303l389.67294 -18.124329" fill-rule="evenodd"></path><path fill="#008f7d" stroke="#008f7d" stroke-width="3.0" stroke-linecap="butt" d="m872.205 264.67853l13.369385 -5.582367l-13.829834 -4.3173065z" fill-rule="evenodd"></path></g></svg>

