<?xml version="1.0" encoding="UTF-8" standalone="no"?>
<svg
   xmlns:dc="http://purl.org/dc/elements/1.1/"
   xmlns:cc="http://creativecommons.org/ns#"
   xmlns:rdf="http://www.w3.org/1999/02/22-rdf-syntax-ns#"
   xmlns:svg="http://www.w3.org/2000/svg"
   xmlns="http://www.w3.org/2000/svg"
   xmlns:sodipodi="http://sodipodi.sourceforge.net/DTD/sodipodi-0.dtd"
   xmlns:inkscape="http://www.inkscape.org/namespaces/inkscape"
   version="1.1"
   viewBox="0 0 805.29133 784.28343"
   stroke-miterlimit="10"
   id="svg143"
   sodipodi:docname="motivatingExampleBis_2.svg"
   width="805.29132"
   height="784.28345"
   style="fill:none;stroke:none;stroke-linecap:square;stroke-miterlimit:10"
   inkscape:version="0.92.2 5c3e80d, 2017-08-06">
  <metadata
     id="metadata149">
    <rdf:RDF>
      <cc:Work
         rdf:about="">
        <dc:format>image/svg+xml</dc:format>
        <dc:type
           rdf:resource="http://purl.org/dc/dcmitype/StillImage" />
        <dc:title />
      </cc:Work>
    </rdf:RDF>
  </metadata>
  <defs
     id="defs147" />
  <sodipodi:namedview
     pagecolor="#ffffff"
     bordercolor="#666666"
     borderopacity="1"
     objecttolerance="10"
     gridtolerance="10"
     guidetolerance="10"
     inkscape:pageopacity="0"
     inkscape:pageshadow="2"
     inkscape:window-width="1280"
     inkscape:window-height="751"
     id="namedview145"
     showgrid="false"
     fit-margin-top="0"
     fit-margin-left="0"
     fit-margin-right="0"
     fit-margin-bottom="0"
     inkscape:zoom="0.7"
     inkscape:cx="412.97899"
     inkscape:cy="390.58003"
     inkscape:window-x="0"
     inkscape:window-y="1"
     inkscape:window-maximized="1"
     inkscape:current-layer="svg143" />
  <clipPath
     id="g2768474cd2_0_736.0">
    <path
       d="M 0,0 H 1058.3044 V 793.6693 H 0 Z"
       id="path2"
       inkscape:connector-curvature="0"
       style="clip-rule:nonzero" />
  </clipPath>
  <g
     clip-path="url(#g2768474cd2_0_736.0)"
     id="g141"
     transform="translate(-116.17323,-3.1312337)">
    <path
       d="M 0,0 H 1058.3044 V 793.6693 H 0 Z"
       id="path5"
       inkscape:connector-curvature="0"
       style="fill:#ffffff;fill-rule:evenodd" />
    <path
       d="M 116.17323,3.1312337 H 921.46452 V 787.41468 H 116.17323 Z"
       id="path7"
       inkscape:connector-curvature="0"
       style="fill:#000000;fill-opacity:0;fill-rule:evenodd" />
    <path
       d="M 116.17323,3.1312337 H 921.46452 V 787.41468 H 116.17323 Z"
       id="path9"
       inkscape:connector-curvature="0"
       style="fill-rule:evenodd;stroke:#595959;stroke-width:1;stroke-linecap:butt;stroke-linejoin:round" />
    <path
       d="m 821.72705,107.56956 0.66144,671.937"
       id="path11"
       inkscape:connector-curvature="0"
       style="fill:#000000;fill-opacity:0;fill-rule:evenodd" />
    <path
       d="m 821.72705,107.56956 0.66144,671.937"
       id="path13"
       inkscape:connector-curvature="0"
       style="fill-rule:evenodd;stroke:#595959;stroke-width:1;stroke-linecap:butt;stroke-linejoin:round" />
    <path
       d="m 439.90546,4.729407 v 0 c 0,1.5479975 33.47641,2.8028975 74.77167,2.8028975 41.29523,0 74.77167,-1.2549 74.77167,-2.8028975 v 98.205233 c 0,1.54799 -33.47644,2.80289 -74.77167,2.80289 -41.29526,0 -74.77167,-1.2549 -74.77167,-2.80289 z"
       id="path15"
       inkscape:connector-curvature="0"
       style="fill:#666666;fill-rule:evenodd" />
    <path
       d="m 439.90546,4.729407 v 0 c 0,-1.5479977 33.47641,-2.8028977 74.77167,-2.8028977 41.29523,0 74.77167,1.2549 74.77167,2.8028977 v 0 c 0,1.5479975 -33.47644,2.8028975 -74.77167,2.8028975 -41.29526,0 -74.77167,-1.2549 -74.77167,-2.8028975 z"
       id="path17"
       inkscape:connector-curvature="0"
       style="fill:#a3a3a3;fill-rule:evenodd" />
    <path
       d="m 589.4488,4.729407 v 0 c 0,1.5479975 -33.47644,2.8028975 -74.77167,2.8028975 -41.29526,0 -74.77167,-1.2549 -74.77167,-2.8028975 v 0 c 0,-1.5479977 33.47641,-2.8028977 74.77167,-2.8028977 41.29523,0 74.77167,1.2549 74.77167,2.8028977 v 98.205233 c 0,1.54799 -33.47644,2.80289 -74.77167,2.80289 -41.29526,0 -74.77167,-1.2549 -74.77167,-2.80289 V 4.729407"
       id="path19"
       inkscape:connector-curvature="0"
       style="fill:#000000;fill-opacity:0;fill-rule:evenodd" />
    <path
       d="m 589.4488,4.729407 v 0 c 0,1.5479975 -33.47644,2.8028975 -74.77167,2.8028975 -41.29526,0 -74.77167,-1.2549 -74.77167,-2.8028975 v 0 c 0,-1.5479977 33.47641,-2.8028977 74.77167,-2.8028977 41.29523,0 74.77167,1.2549 74.77167,2.8028977 v 98.205233 c 0,1.54799 -33.47644,2.80289 -74.77167,2.80289 -41.29526,0 -74.77167,-1.2549 -74.77167,-2.80289 V 4.729407"
       id="path21"
       inkscape:connector-curvature="0"
       style="fill-rule:evenodd;stroke:#666666;stroke-width:1;stroke-linecap:butt;stroke-linejoin:round" />
    <path
       d="m 456.23962,61.500343 4.5,-0.4375 q 0.40625,2.265625 1.64062,3.328125 1.25,1.0625 3.35938,1.0625 2.23437,0 3.35937,-0.9375 1.14063,-0.953125 1.14063,-2.21875 0,-0.8125 -0.48438,-1.375 -0.46875,-0.578125 -1.65625,-1 -0.8125,-0.28125 -3.70312,-1 -3.71875,-0.921875 -5.21875,-2.265625 -2.10938,-1.890625 -2.10938,-4.609375 0,-1.75 0.98438,-3.265625 1,-1.53125 2.85937,-2.328125 1.875,-0.796875 4.51563,-0.796875 4.3125,0 6.48437,1.890625 2.1875,1.890625 2.29688,5.046875 l -4.625,0.203125 q -0.29688,-1.765625 -1.28125,-2.53125 -0.96875,-0.78125 -2.92188,-0.78125 -2.01562,0 -3.15625,0.828125 -0.73437,0.53125 -0.73437,1.421875 0,0.8125 0.6875,1.390625 0.875,0.734375 4.25,1.53125 3.375,0.796875 4.98437,1.65625 1.625,0.84375 2.53125,2.328125 0.92188,1.46875 0.92188,3.640625 0,1.96875 -1.09375,3.6875 -1.09375,1.71875 -3.09375,2.5625 -2,0.828125 -4.98438,0.828125 -4.34375,0 -6.67187,-2 -2.32813,-2.015625 -2.78125,-5.859375 z m 32.09375,2.171875 4.375,0.734375 q -0.84375,2.40625 -2.67188,3.671875 -1.8125,1.25 -4.54687,1.25 -4.32813,0 -6.40625,-2.828125 -1.64063,-2.265625 -1.64063,-5.71875 0,-4.125 2.15625,-6.453125 2.15625,-2.34375 5.45313,-2.34375 3.70312,0 5.84375,2.453125 2.14062,2.4375 2.04687,7.484375 h -11 q 0.0469,1.953125 1.0625,3.046875 1.01563,1.078125 2.53125,1.078125 1.03125,0 1.73438,-0.5625 0.70312,-0.5625 1.0625,-1.8125 z m 0.25,-4.4375 q -0.0469,-1.90625 -0.98438,-2.890625 -0.9375,-1 -2.28125,-1 -1.4375,0 -2.375,1.046875 -0.9375,1.046875 -0.92187,2.84375 z m 12.14062,9.71875 h -4.39062 v -16.59375 h 4.07812 v 2.359375 q 1.04688,-1.671875 1.875,-2.203125 0.84375,-0.53125 1.90625,-0.53125 1.5,0 2.89063,0.828125 l -1.35938,3.828125 q -1.10937,-0.71875 -2.0625,-0.71875 -0.92187,0 -1.5625,0.515625 -0.64062,0.5 -1.01562,1.828125 -0.35938,1.328125 -0.35938,5.5625 z m 12.81251,0 -6.6875,-16.59375 h 4.60937 l 3.125,8.46875 0.90625,2.828125 q 0.35938,-1.078125 0.45313,-1.421875 0.21875,-0.703125 0.46875,-1.40625 l 3.15625,-8.46875 h 4.51562 l -6.59375,16.59375 z m 22.84375,-5.28125 4.375,0.734375 q -0.84375,2.40625 -2.67188,3.671875 -1.8125,1.25 -4.54687,1.25 -4.32813,0 -6.40625,-2.828125 -1.64063,-2.265625 -1.64063,-5.71875 0,-4.125 2.15625,-6.453125 2.15625,-2.34375 5.45313,-2.34375 3.70312,0 5.84375,2.453125 2.14062,2.4375 2.04687,7.484375 h -11 q 0.0469,1.953125 1.0625,3.046875 1.01563,1.078125 2.53125,1.078125 1.03125,0 1.73438,-0.5625 0.70312,-0.5625 1.0625,-1.8125 z m 0.25,-4.4375 q -0.0469,-1.90625 -0.98438,-2.890625 -0.9375,-1 -2.28125,-1 -1.4375,0 -2.375,1.046875 -0.9375,1.046875 -0.92187,2.84375 z m 18.85937,9.71875 v -2.484375 q -0.90625,1.328125 -2.39062,2.09375 -1.46875,0.765625 -3.10938,0.765625 -1.67187,0 -3,-0.734375 -1.32812,-0.734375 -1.92187,-2.0625 -0.59375,-1.328125 -0.59375,-3.671875 v -10.5 h 4.39062 v 7.625 q 0,3.5 0.23438,4.296875 0.25,0.78125 0.89062,1.25 0.64063,0.453125 1.625,0.453125 1.125,0 2.01563,-0.609375 0.89062,-0.625 1.21875,-1.53125 0.32812,-0.921875 0.32812,-4.484375 v -7 h 4.39063 v 16.59375 z m 12.82813,0 h -4.39063 v -16.59375 h 4.07813 v 2.359375 q 1.04687,-1.671875 1.875,-2.203125 0.84375,-0.53125 1.90625,-0.53125 1.5,0 2.89062,0.828125 l -1.35937,3.828125 q -1.10938,-0.71875 -2.0625,-0.71875 -0.92188,0 -1.5625,0.515625 -0.64063,0.5 -1.01563,1.828125 -0.35937,1.328125 -0.35937,5.5625 z"
       id="path23"
       inkscape:connector-curvature="0"
       style="fill:#ffffff;fill-rule:nonzero" />
    <path
       d="m 207.62733,105.73753 0.66142,671.937"
       id="path25"
       inkscape:connector-curvature="0"
       style="fill:#000000;fill-opacity:0;fill-rule:evenodd" />
    <path
       d="m 207.62733,105.73753 0.66142,671.937"
       id="path27"
       inkscape:connector-curvature="0"
       style="fill-rule:evenodd;stroke:#595959;stroke-width:1;stroke-linecap:butt;stroke-linejoin:round" />
    <path
       d="M 182.28871,443.93176 H 233.6273 V 547.74279 H 182.28871 Z"
       id="path29"
       inkscape:connector-curvature="0"
       style="fill:#3972ce;fill-rule:evenodd" />
    <path
       d="M 182.28871,443.93176 H 233.6273 V 547.74279 H 182.28871 Z"
       id="path31"
       inkscape:connector-curvature="0"
       style="fill-rule:evenodd;stroke:#3972ce;stroke-width:1;stroke-linecap:butt;stroke-linejoin:round" />
    <path
       d="m 514.3465,105.73753 0.66144,671.937"
       id="path33"
       inkscape:connector-curvature="0"
       style="fill:#000000;fill-opacity:0;fill-rule:evenodd" />
    <path
       d="m 514.3465,105.73753 0.66144,671.937"
       id="path35"
       inkscape:connector-curvature="0"
       style="fill-rule:evenodd;stroke:#595959;stroke-width:1;stroke-linecap:butt;stroke-linejoin:round" />
    <path
       d="m 489.3386,105.63254 h 51.33859 V 777.56955 H 489.3386 Z"
       id="path37"
       inkscape:connector-curvature="0"
       style="fill:#86ba0c;fill-rule:evenodd" />
    <path
       d="m 489.3386,105.63254 h 51.33859 V 777.56955 H 489.3386 Z"
       id="path39"
       inkscape:connector-curvature="0"
       style="fill-rule:evenodd;stroke:#86ba0c;stroke-width:1;stroke-linecap:butt;stroke-linejoin:round" />
    <path
       d="m 182.28871,119.52231 h 51.33859 v 42.11024 h -51.33859 z"
       id="path41"
       inkscape:connector-curvature="0"
       style="fill:#3c78d8;fill-rule:evenodd" />
    <path
       d="m 182.28871,119.52231 h 51.33859 v 42.11024 h -51.33859 z"
       id="path43"
       inkscape:connector-curvature="0"
       style="fill-rule:evenodd;stroke:#3c78d8;stroke-width:1;stroke-linecap:butt;stroke-linejoin:round" />
    <path
       d="m 489.00787,185.63255 h 51.33856 v 42.11023 h -51.33856 z"
       id="path45"
       inkscape:connector-curvature="0"
       style="fill:#ffd140;fill-rule:evenodd" />
    <path
       d="m 489.00787,185.63255 h 51.33856 v 42.11023 h -51.33856 z"
       id="path47"
       inkscape:connector-curvature="0"
       style="fill-rule:evenodd;stroke:#ffd140;stroke-width:1;stroke-linecap:butt;stroke-linejoin:round" />
    <path
       d="m 207.95801,161.63255 306.70868,24"
       id="path49"
       inkscape:connector-curvature="0"
       style="fill:#000000;fill-opacity:0;fill-rule:evenodd" />
    <path
       d="m 207.95801,161.63255 288.76352,22.59578"
       id="path51"
       inkscape:connector-curvature="0"
       style="fill-rule:evenodd;stroke:#595959;stroke-width:3;stroke-linecap:butt;stroke-linejoin:round" />
    <path
       d="m 496.33496,189.16843 13.95935,-3.87802 -13.18622,-6.00217 z"
       id="path53"
       inkscape:connector-curvature="0"
       style="fill:#595959;fill-rule:evenodd;stroke:#595959;stroke-width:3;stroke-linecap:butt" />
    <path
       d="m 181.95801,243.74278 h 51.33858 v 119.14961 h -51.33858 z"
       id="path55"
       inkscape:connector-curvature="0"
       style="fill:#3c78d8;fill-rule:evenodd" />
    <path
       d="m 181.95801,243.74278 h 51.33858 v 119.14961 h -51.33858 z"
       id="path57"
       inkscape:connector-curvature="0"
       style="fill-rule:evenodd;stroke:#3c78d8;stroke-width:1;stroke-linecap:butt;stroke-linejoin:round" />
    <path
       d="m 514.6772,227.74278 -307.0551,16"
       id="path59"
       inkscape:connector-curvature="0"
       style="fill:#000000;fill-opacity:0;fill-rule:evenodd" />
    <path
       d="M 514.6772,227.74278 225.59767,242.8061"
       id="path61"
       inkscape:connector-curvature="0"
       style="fill-rule:evenodd;stroke:#595959;stroke-width:3;stroke-linecap:butt;stroke-linejoin:round" />
    <path
       d="m 225.3398,237.85762 -13.33798,5.65694 13.8537,4.24003 z"
       id="path63"
       inkscape:connector-curvature="0"
       style="fill:#595959;fill-rule:evenodd;stroke:#595959;stroke-width:3;stroke-linecap:butt" />
    <path
       d="m 489.00787,385.63254 h 51.33856 v 42.11023 h -51.33856 z"
       id="path65"
       inkscape:connector-curvature="0"
       style="fill:#ffd140;fill-rule:evenodd" />
    <path
       d="m 489.00787,385.63254 h 51.33856 v 42.11023 h -51.33856 z"
       id="path67"
       inkscape:connector-curvature="0"
       style="fill-rule:evenodd;stroke:#ffd140;stroke-width:1;stroke-linecap:butt;stroke-linejoin:round" />
    <path
       d="m 207.6273,362.8924 307.0551,22.74014"
       id="path69"
       inkscape:connector-curvature="0"
       style="fill:#000000;fill-opacity:0;fill-rule:evenodd" />
    <path
       d="m 207.6273,362.8924 289.1043,21.41071"
       id="path71"
       inkscape:connector-curvature="0"
       style="fill-rule:evenodd;stroke:#595959;stroke-width:3;stroke-linecap:butt;stroke-linejoin:round" />
    <path
       d="m 496.3656,389.24478 13.94308,-3.93616 -13.21112,-5.94717 z"
       id="path73"
       inkscape:connector-curvature="0"
       style="fill:#595959;fill-rule:evenodd;stroke:#595959;stroke-width:3;stroke-linecap:butt" />
    <path
       d="M 514.6772,427.74277 207.96852,443.93176"
       id="path75"
       inkscape:connector-curvature="0"
       style="fill:#000000;fill-opacity:0;fill-rule:evenodd" />
    <path
       d="m 514.6772,427.74277 -288.7337,15.2402"
       id="path77"
       inkscape:connector-curvature="0"
       style="fill-rule:evenodd;stroke:#595959;stroke-width:3;stroke-linecap:butt;stroke-linejoin:round" />
    <path
       d="m 225.6823,438.03467 -13.33418,5.66592 13.85655,4.23072 z"
       id="path79"
       inkscape:connector-curvature="0"
       style="fill:#595959;fill-rule:evenodd;stroke:#595959;stroke-width:3;stroke-linecap:butt" />
    <path
       d="m 182.28871,140.57742 v 355.2756"
       id="path81"
       inkscape:connector-curvature="0"
       style="fill:#000000;fill-opacity:0;fill-rule:evenodd" />
    <path
       d="m 182.28871,140.57742 v 355.2756"
       id="path83"
       inkscape:connector-curvature="0"
       style="fill-rule:evenodd;stroke:#3972ce;stroke-width:8;stroke-linecap:butt;stroke-linejoin:round" />
    <path
       d="m 116.17323,253.97375 h 71.1496 v 63.21258 h -71.1496 z"
       id="path85"
       inkscape:connector-curvature="0"
       style="fill:#000000;fill-opacity:0;fill-rule:evenodd" />
    <path
       d="m 151.12636,297.73312 q 2.14062,1.53125 4.64062,2.42187 l -2.14062,4.09375 q -1.29688,-0.39062 -2.54688,-1.07812 -0.28125,-0.14063 -3.85937,-2.54688 -2.8125,1.23438 -6.21875,1.23438 -6.60938,0 -10.35938,-3.875 -3.73438,-3.89063 -3.73438,-10.92188 0,-7.01562 3.75001,-10.90625 3.75,-3.90625 10.1875,-3.90625 6.35937,0 10.09375,3.90625 3.73437,3.89063 3.73437,10.90625 0,3.70313 -1.04687,6.51563 -0.78125,2.15625 -2.5,4.15625 z m -4.64063,-3.25 q 1.10938,-1.3125 1.65625,-3.17188 0.5625,-1.85937 0.5625,-4.25 0,-4.96875 -2.1875,-7.42187 -2.1875,-2.45313 -5.71875,-2.45313 -3.53125,0 -5.73437,2.46875 -2.1875,2.45313 -2.1875,7.40625 0,5.01563 2.1875,7.51563 2.20312,2.48437 5.5625,2.48437 1.25,0 2.35937,-0.42187 -1.75,-1.14063 -3.57812,-1.79688 l 1.625,-3.29687 q 2.85937,0.98437 5.45312,2.9375 z"
       id="path87"
       inkscape:connector-curvature="0"
       style="fill:#3972ce;fill-rule:nonzero" />
    <path
       d="m 166.91151,316.37375 h -3.70313 V 302.405 q -2.03125,1.90625 -4.78125,2.8125 v -3.35938 q 1.45313,-0.46875 3.14063,-1.79687 1.70312,-1.32813 2.34375,-3.09375 h 3 z"
       id="path89"
       inkscape:connector-curvature="0"
       style="fill:#3972ce;fill-rule:nonzero" />
    <path
       d="m 797.958,170.8916 h 51.33856 v 42.11024 H 797.958 Z"
       id="path91"
       inkscape:connector-curvature="0"
       style="fill:#06b1d2;fill-rule:evenodd" />
    <path
       d="m 797.958,170.8916 h 51.33856 v 42.11024 H 797.958 Z"
       id="path93"
       inkscape:connector-curvature="0"
       style="fill-rule:evenodd;stroke:#06b1d2;stroke-width:1;stroke-linecap:butt;stroke-linejoin:round" />
    <path
       d="m 797.958,306.8916 h 51.33856 v 42.11023 H 797.958 Z"
       id="path95"
       inkscape:connector-curvature="0"
       style="fill:#06b1d2;fill-rule:evenodd" />
    <path
       d="m 797.958,306.8916 h 51.33856 v 42.11023 H 797.958 Z"
       id="path97"
       inkscape:connector-curvature="0"
       style="fill-rule:evenodd;stroke:#06b1d2;stroke-width:1;stroke-linecap:butt;stroke-linejoin:round" />
    <path
       d="m 849.2966,191.94672 v 136"
       id="path99"
       inkscape:connector-curvature="0"
       style="fill:#000000;fill-opacity:0;fill-rule:evenodd" />
    <path
       d="m 849.2966,191.94672 v 136"
       id="path101"
       inkscape:connector-curvature="0"
       style="fill-rule:evenodd;stroke:#06b1d2;stroke-width:8;stroke-linecap:butt;stroke-linejoin:round" />
    <path
       d="m 850.31494,212.3412 h 71.1496 v 63.2126 h -71.1496 z"
       id="path103"
       inkscape:connector-curvature="0"
       style="fill:#000000;fill-opacity:0;fill-rule:evenodd" />
    <path
       d="m 885.26807,256.1006 q 2.14062,1.53125 4.64062,2.42187 l -2.14062,4.09375 q -1.29688,-0.39062 -2.54688,-1.07812 -0.28125,-0.14063 -3.85937,-2.54688 -2.8125,1.23438 -6.21875,1.23438 -6.60938,0 -10.35938,-3.875 -3.73437,-3.89063 -3.73437,-10.92188 0,-7.01562 3.75,-10.90625 3.75,-3.90625 10.1875,-3.90625 6.35937,0 10.09375,3.90625 3.73437,3.89063 3.73437,10.90625 0,3.70313 -1.04687,6.51563 -0.78125,2.15625 -2.5,4.15625 z m -4.64063,-3.25 q 1.10938,-1.3125 1.65625,-3.17188 0.5625,-1.85937 0.5625,-4.25 0,-4.96875 -2.1875,-7.42187 -2.1875,-2.45313 -5.71875,-2.45313 -3.53125,0 -5.73437,2.46875 -2.1875,2.45313 -2.1875,7.40625 0,5.01563 2.1875,7.51563 2.20312,2.48437 5.5625,2.48437 1.25,0 2.35937,-0.42187 -1.75,-1.14063 -3.57812,-1.79688 l 1.625,-3.29687 q 2.85937,0.98437 5.45312,2.9375 z"
       id="path105"
       inkscape:connector-curvature="0"
       style="fill:#06b1d2;fill-rule:nonzero" />
    <path
       d="m 904.0845,271.3037 v 3.4375 h -12.98437 q 0.21875,-1.95313 1.26562,-3.6875 1.0625,-1.75 4.17188,-4.64063 2.5,-2.34375 3.0625,-3.17187 0.76562,-1.14063 0.76562,-2.26563 0,-1.23437 -0.67187,-1.89062 -0.65625,-0.67188 -1.82813,-0.67188 -1.15625,0 -1.84375,0.70313 -0.6875,0.6875 -0.79687,2.3125 l -3.6875,-0.375 q 0.32812,-3.0625 2.0625,-4.39063 1.75,-1.32812 4.35937,-1.32812 2.85938,0 4.48438,1.54687 1.64062,1.53125 1.64062,3.82813 0,1.3125 -0.46875,2.5 -0.46875,1.17187 -1.48437,2.45312 -0.67188,0.85938 -2.42188,2.46875 -1.75,1.60938 -2.21875,2.14063 -0.46875,0.53125 -0.76562,1.03125 z"
       id="path107"
       inkscape:connector-curvature="0"
       style="fill:#06b1d2;fill-rule:nonzero" />
    <path
       d="m 489.00787,241.63255 h 51.33856 v 42.11021 h -51.33856 z"
       id="path109"
       inkscape:connector-curvature="0"
       style="fill:#ffd140;fill-rule:evenodd" />
    <path
       d="m 489.00787,241.63255 h 51.33856 v 42.11021 h -51.33856 z"
       id="path111"
       inkscape:connector-curvature="0"
       style="fill-rule:evenodd;stroke:#ffd140;stroke-width:1;stroke-linecap:butt;stroke-linejoin:round" />
    <path
       d="M 823.6273,213.00185 514.6824,241.63176"
       id="path113"
       inkscape:connector-curvature="0"
       style="fill:#000000;fill-opacity:0;fill-rule:evenodd" />
    <path
       d="M 823.6273,213.00185 532.60557,239.97083"
       id="path115"
       inkscape:connector-curvature="0"
       style="fill-rule:evenodd;stroke:#595959;stroke-width:3;stroke-linecap:butt;stroke-linejoin:round" />
    <path
       d="m 532.1484,235.03677 -13.09894,6.19031 14.01343,3.67779 z"
       id="path117"
       inkscape:connector-curvature="0"
       style="fill:#595959;fill-rule:evenodd;stroke:#595959;stroke-width:3;stroke-linecap:butt" />
    <path
       d="M 514.6772,283.74277 823.6221,306.8924"
       id="path119"
       inkscape:connector-curvature="0"
       style="fill:#000000;fill-opacity:0;fill-rule:evenodd" />
    <path
       d="M 514.6772,283.74277 805.67244,305.5474"
       id="path121"
       inkscape:connector-curvature="0"
       style="fill-rule:evenodd;stroke:#595959;stroke-width:3;stroke-linecap:butt;stroke-linejoin:round" />
    <path
       d="m 805.3021,310.48874 13.94647,-3.92407 -13.20599,-5.95862 z"
       id="path123"
       inkscape:connector-curvature="0"
       style="fill:#595959;fill-rule:evenodd;stroke:#595959;stroke-width:3;stroke-linecap:butt" />
    <path
       d="m 175.19948,776.78217 h 63.33858"
       id="path125"
       inkscape:connector-curvature="0"
       style="fill:#000000;fill-opacity:0;fill-rule:evenodd" />
    <path
       d="m 175.19948,776.78217 h 63.33858"
       id="path127"
       inkscape:connector-curvature="0"
       style="fill-rule:evenodd;stroke:#ef7c00;stroke-width:8;stroke-linecap:butt;stroke-linejoin:round" />
    <path
       d="m 314.93964,183.52231 h 124.97638 v 32.22047 H 314.93964 Z"
       id="path129"
       inkscape:connector-curvature="0"
       style="fill:#000000;fill-opacity:0;fill-rule:evenodd" />
    <path
       d="m 330.25214,218.12231 v -16.0625 h -5.73438 v -3.26563 h 15.35938 v 3.26563 h -5.71875 v 16.0625 z m 11.93893,0 v -19.32813 h 6.26563 q 3.54687,0 4.64062,0.29688 1.65625,0.42187 2.76563,1.89062 1.125,1.45313 1.125,3.76563 0,1.76562 -0.64063,2.98437 -0.64062,1.21875 -1.64062,1.90625 -1,0.6875 -2.03125,0.92188 -1.39063,0.26562 -4.04688,0.26562 h -2.54687 v 7.29688 z m 3.89063,-16.0625 v 5.48437 h 2.14062 q 2.3125,0 3.07813,-0.29687 0.78125,-0.3125 1.21875,-0.95313 0.45312,-0.64062 0.45312,-1.5 0,-1.0625 -0.625,-1.73437 -0.60937,-0.6875 -1.5625,-0.85938 -0.70312,-0.14062 -2.8125,-0.14062 z m 29.43576,13.60937 q 1.4375,1.03125 3.125,1.64063 l -1.4375,2.75 q -0.875,-0.26563 -1.71875,-0.71875 -0.1875,-0.0937 -2.59375,-1.71875 -1.90625,0.82812 -4.21875,0.82812 -4.45313,0 -6.98438,-2.625 -2.51562,-2.625 -2.51562,-7.35937 0,-4.73438 2.53125,-7.35938 2.53125,-2.64062 6.875,-2.64062 4.29687,0 6.8125,2.64062 2.51562,2.625 2.51562,7.35938 0,2.5 -0.70312,4.39062 -0.51563,1.45313 -1.6875,2.8125 z m -3.125,-2.20312 q 0.75,-0.875 1.125,-2.125 0.375,-1.26563 0.375,-2.875 0,-3.35938 -1.48438,-5.01563 -1.46875,-1.65625 -3.85937,-1.65625 -2.39063,0 -3.875,1.67188 -1.48438,1.65625 -1.48438,5 0,3.375 1.48438,5.0625 1.48437,1.6875 3.75,1.6875 0.84375,0 1.60937,-0.28125 -1.1875,-0.78125 -2.42187,-1.21875 l 1.09375,-2.21875 q 1.92187,0.65625 3.6875,1.96875 z m 16.96847,4.65625 h -3.70312 v -13.96875 q -2.03125,1.90625 -4.78125,2.8125 v -3.35938 q 1.45312,-0.46875 3.14062,-1.79687 1.70313,-1.32813 2.34375,-3.09375 h 3 z m 6.13742,0 v -3.70313 h 3.70313 v 3.70313 z m 16.09348,0 h -3.70313 v -13.96875 q -2.03125,1.90625 -4.78125,2.8125 v -3.35938 q 1.45313,-0.46875 3.14063,-1.79687 1.70312,-1.32813 2.34375,-3.09375 h 3 z"
       id="path131"
       inkscape:connector-curvature="0"
       style="fill:#3c78d8;fill-rule:nonzero" />
    <path
       d="m 306.93964,375.5223 h 124.97638 v 32.22046 H 306.93964 Z"
       id="path133"
       inkscape:connector-curvature="0"
       style="fill:#000000;fill-opacity:0;fill-rule:evenodd" />
    <path
       d="m 322.25214,410.1223 v -16.0625 h -5.73438 v -3.26563 h 15.35938 v 3.26563 h -5.71875 v 16.0625 z m 11.93893,0 v -19.32813 h 6.26563 q 3.54687,0 4.64062,0.29688 1.65625,0.42187 2.76563,1.89062 1.125,1.45313 1.125,3.76563 0,1.76562 -0.64063,2.98437 -0.64062,1.21875 -1.64062,1.90625 -1,0.6875 -2.03125,0.92188 -1.39063,0.26562 -4.04688,0.26562 h -2.54687 v 7.29688 z m 3.89063,-16.0625 v 5.48437 h 2.14062 q 2.3125,0 3.07813,-0.29687 0.78125,-0.3125 1.21875,-0.95313 0.45312,-0.64062 0.45312,-1.5 0,-1.0625 -0.625,-1.73437 -0.60937,-0.6875 -1.5625,-0.85938 -0.70312,-0.14062 -2.8125,-0.14062 z m 29.43576,13.60937 q 1.4375,1.03125 3.125,1.64063 l -1.4375,2.75 q -0.875,-0.26563 -1.71875,-0.71875 -0.1875,-0.0937 -2.59375,-1.71875 -1.90625,0.82812 -4.21875,0.82812 -4.45313,0 -6.98438,-2.625 -2.51562,-2.625 -2.51562,-7.35937 0,-4.73438 2.53125,-7.35938 2.53125,-2.64062 6.875,-2.64062 4.29687,0 6.8125,2.64062 2.51562,2.625 2.51562,7.35938 0,2.5 -0.70312,4.39062 -0.51563,1.45313 -1.6875,2.8125 z m -3.125,-2.20312 q 0.75,-0.875 1.125,-2.125 0.375,-1.26563 0.375,-2.875 0,-3.35938 -1.48438,-5.01563 -1.46875,-1.65625 -3.85937,-1.65625 -2.39063,0 -3.875,1.67188 -1.48438,1.65625 -1.48438,5 0,3.375 1.48438,5.0625 1.48437,1.6875 3.75,1.6875 0.84375,0 1.60937,-0.28125 -1.1875,-0.78125 -2.42187,-1.21875 l 1.09375,-2.21875 q 1.92187,0.65625 3.6875,1.96875 z m 16.96847,4.65625 h -3.70312 v -13.96875 q -2.03125,1.90625 -4.78125,2.8125 v -3.35938 q 1.45312,-0.46875 3.14062,-1.79687 1.70313,-1.32813 2.34375,-3.09375 h 3 z m 6.13742,0 v -3.70313 h 3.70313 v 3.70313 z m 19.12473,-3.4375 v 3.4375 H 393.6387 q 0.21875,-1.95313 1.26563,-3.6875 1.0625,-1.75 4.17187,-4.64063 2.5,-2.34375 3.0625,-3.17187 0.76563,-1.14063 0.76563,-2.26563 0,-1.23437 -0.67188,-1.89062 -0.65625,-0.67188 -1.82812,-0.67188 -1.15625,0 -1.84375,0.70313 -0.6875,0.6875 -0.79688,2.3125 l -3.6875,-0.375 q 0.32813,-3.0625 2.0625,-4.39063 1.75,-1.32812 4.35938,-1.32812 2.85937,0 4.48437,1.54687 1.64063,1.53125 1.64063,3.82813 0,1.3125 -0.46875,2.5 -0.46875,1.17187 -1.48438,2.45312 -0.67187,0.85938 -2.42187,2.46875 -1.75,1.60938 -2.21875,2.14063 -0.46875,0.53125 -0.76563,1.03125 z"
       id="path135"
       inkscape:connector-curvature="0"
       style="fill:#3c78d8;fill-rule:nonzero" />
    <path
       d="m 643.2913,241.63255 h 124.97638 v 32.22047 H 643.2913 Z"
       id="path137"
       inkscape:connector-curvature="0"
       style="fill:#000000;fill-opacity:0;fill-rule:evenodd" />
    <path
       d="m 658.6038,276.23254 v -16.0625 h -5.73438 v -3.26563 h 15.35938 v 3.26563 h -5.71875 v 16.0625 z m 11.93897,0 v -19.32813 h 6.26562 q 3.54688,0 4.64063,0.29688 1.65625,0.42187 2.76562,1.89062 1.125,1.45313 1.125,3.76563 0,1.76562 -0.64062,2.98437 -0.64063,1.21875 -1.64063,1.90625 -1,0.6875 -2.03125,0.92188 -1.39062,0.26562 -4.04687,0.26562 h -2.54688 v 7.29688 z m 3.89062,-16.0625 v 5.48437 h 2.14063 q 2.3125,0 3.07812,-0.29687 0.78125,-0.3125 1.21875,-0.95313 0.45313,-0.64062 0.45313,-1.5 0,-1.0625 -0.625,-1.73437 -0.60938,-0.6875 -1.5625,-0.85938 -0.70313,-0.14062 -2.8125,-0.14062 z m 29.43579,13.60937 q 1.4375,1.03125 3.125,1.64063 l -1.4375,2.75 q -0.875,-0.26563 -1.71875,-0.71875 -0.1875,-0.0937 -2.59375,-1.71875 -1.90625,0.82812 -4.21875,0.82812 -4.45312,0 -6.98437,-2.625 -2.51563,-2.625 -2.51563,-7.35937 0,-4.73438 2.53125,-7.35938 2.53125,-2.64062 6.875,-2.64062 4.29688,0 6.8125,2.64062 2.51563,2.625 2.51563,7.35938 0,2.5 -0.70313,4.39062 -0.51562,1.45313 -1.6875,2.8125 z m -3.125,-2.20312 q 0.75,-0.875 1.125,-2.125 0.375,-1.26563 0.375,-2.875 0,-3.35938 -1.48437,-5.01563 -1.46875,-1.65625 -3.85938,-1.65625 -2.39062,0 -3.875,1.67188 -1.48437,1.65625 -1.48437,5 0,3.375 1.48437,5.0625 1.48438,1.6875 3.75,1.6875 0.84375,0 1.60938,-0.28125 -1.1875,-0.78125 -2.42188,-1.21875 l 1.09375,-2.21875 q 1.92188,0.65625 3.6875,1.96875 z m 19.9997,1.21875 v 3.4375 H 707.7595 q 0.21875,-1.95313 1.26563,-3.6875 1.0625,-1.75 4.17187,-4.64063 2.5,-2.34375 3.0625,-3.17187 0.76563,-1.14063 0.76563,-2.26563 0,-1.23437 -0.67188,-1.89062 -0.65625,-0.67188 -1.82812,-0.67188 -1.15625,0 -1.84375,0.70313 -0.6875,0.6875 -0.79688,2.3125 l -3.6875,-0.375 q 0.32813,-3.0625 2.0625,-4.39063 1.75,-1.32812 4.35938,-1.32812 2.85937,0 4.48437,1.54687 1.64063,1.53125 1.64063,3.82813 0,1.3125 -0.46875,2.5 -0.46875,1.17187 -1.48438,2.45312 -0.67187,0.85938 -2.42187,2.46875 -1.75,1.60938 -2.21875,2.14063 -0.46875,0.53125 -0.76563,1.03125 z m 3.1062,3.4375 v -3.70313 h 3.70312 v 3.70313 z m 16.09344,0 h -3.70312 v -13.96875 q -2.03125,1.90625 -4.78125,2.8125 v -3.35938 q 1.45312,-0.46875 3.14062,-1.79687 1.70313,-1.32813 2.34375,-3.09375 h 3 z"
       id="path139"
       inkscape:connector-curvature="0"
       style="fill:#06b1d2;fill-rule:nonzero" />
  </g>
  <rect
     id="rect151"
     width="805.29132"
     height="784.28345"
     x="0"
     y="0" />
  <path
     style="fill:#ffffff"
     id="path78"
     d="M 6.5751631,6.3879053 C 6.2980383,13.517407 6.2933091,20.654235 6.2456699,27.787982 c -0.078644,9.765192 -0.023508,19.530502 0.00575,29.295742 0.1976809,7.246137 0.054185,14.471134 -0.4312104,21.700542 -0.065251,0.646504 -0.400481,5.909613 -0.9762592,6.239481 -19.1187053,10.95325 -15.1196533,16.067943 -19.9129003,8.822905 -1.467642,-4.386344 -1.288893,-9.204701 -1.132926,-13.774615 0.535814,-8.099731 1.75833,-16.172714 3.30825,-24.137984 1.709257,-7.142205 2.610154,-14.428749 3.6635189,-21.685305 0.6935338,-6.441515 1.9625243,-12.795326 2.9614181,-19.190407 0.8030772,-4.525317 1.7640568,-9.0229504 2.2491001,-13.5969774 0.8111049,-9.2945441 -2.5973482,-3.6274196 19.1544919,-11.0634081 0.554559,-0.189579 -0.01302,1.1720639 -0.0201,1.7580891 -0.0085,0.7012244 -0.0177,1.4024395 -0.02655,2.1036592 C 14.961463,0.14073648 14.349057,6.0148061 13.752879,11.866003 12.901558,20.756729 12.1936,29.662171 11.500855,38.567078 11.132912,45.906957 10.789061,53.231599 10.133475,60.551926 9.7817693,65.833437 9.3006089,71.094674 8.7403665,76.357692 8.1409817,81.769878 7.3427634,87.147834 6.8954931,92.577863 6.5133772,98.11385 6.542347,103.65529 6.0698407,109.18515 c -0.569993,5.09852 -0.8095317,10.22006 -0.9512181,15.34531 -0.4000621,6.10818 0.07496,12.14907 0.7594733,18.21264 1.4754184,9.87293 2.864791,19.74073 3.5109582,29.7054 0.6977679,13.00556 0.7816439,26.03175 1.0661329,39.05007 0.215724,3.61451 0.148958,7.20679 -0.212795,10.80294 0,0 -18.7245574,9.18295 -18.7245574,9.18295 v 0 c 0.7466636,-3.55946 1.0447782,-7.12856 0.8968934,-10.77866 0.1079194,-12.99949 -0.013248,-26.01147 -0.88376,-38.98682 -0.8621615,-9.8578 -2.209815,-19.64312 -3.894012,-29.3948 -0.833094,-6.10302 -1.589086,-12.18093 -1.156623,-18.35851 0.12829,-5.16966 0.334826,-10.34295 0.906259,-15.48551 0.590888,-5.51964 0.59334,-11.04753 0.863605,-16.58868 0.422242,-5.442323 1.154143,-10.843645 1.7844425,-16.261125 C -9.359939,80.364248 -8.864044,75.103477 -8.5069399,69.814946 -7.6829729,62.457366 -7.1049689,55.094 -6.7538591,47.696984 -6.1136512,38.815187 -5.3873427,29.94048 -4.7230483,21.060846 -4.2195355,15.319149 -3.745611,9.5464396 -3.6054178,3.7899057 -3.6173932,3.1042764 -3.6256757,2.4185727 -3.6413438,1.7330178 -3.654179,1.1714187 -4.1596935,0.35805103 -3.6909263,0.04850986 19.814167,-15.472616 15.652345,-17.212325 14.866112,-7.886179 14.274155,-3.2363221 13.363189,1.3413246 12.377178,5.9238123 11.350891,12.316858 10.047123,18.667259 9.3733561,25.112598 8.2637308,32.42672 7.3274931,39.780939 5.5856015,46.980579 3.93068,54.77854 2.7639523,62.747706 2.3389794,70.708713 2.1842991,74.798347 2.1696385,79.033667 3.227556,83.016142 -2.758147,86.451295 -8.7713909,89.838898 -14.729553,93.3216 c -0.220449,0.128858 0.561162,-0.03962 0.730448,-0.230787 1.078652,-1.218056 0.796681,-3.600377 1.170752,-5.008665 0.777478,-7.223506 0.973553,-14.451487 0.862652,-21.71634 0.02917,-9.767191 0.08447,-19.534455 0.0057,-29.301596 -0.04721,-7.021796 -0.04885,-14.046937 -0.329493,-21.064307 0,0 18.8646121,-9.6119997 18.8646121,-9.6119997 z"
     inkscape:connector-curvature="0" />
  <path
     style="fill:#ffffff"
     id="path80"
     d="m 7.9874213,190.85281 c -0.25802,7.09773 -0.2777773,14.20203 -0.2707065,21.30366 0.088462,7.30507 -0.021159,14.62553 -0.8345778,21.89124 -0.4632637,3.27138 -1.0992561,6.51206 -1.5158223,9.78991 -0.6463699,3.12679 -1.0613705,6.28713 -1.5595676,9.43907 -0.7260882,3.55863 -1.1715803,7.15353 -1.3964484,10.77566 -0.1766128,3.69253 -0.1773059,7.39006 -0.2365969,11.08554 -0.057543,5.61537 -0.061417,11.2309 -0.049695,16.84645 0.022146,5.8354 -0.00265,11.67072 -0.014511,17.50607 -0.2377795,6.74958 0.1235606,13.46957 0.5787135,20.19901 0.404049,7.15404 0.9262165,14.30247 1.2896084,21.45879 0.42659,9.98543 0.6340138,19.97883 0.812343,29.97127 0.026581,1.30657 0.053162,2.61313 0.079743,3.91969 0,0 -18.3337777,9.35717 -18.3337777,9.35717 v 0 c 0.0088,-1.32223 0.01756,-2.64445 0.02634,-3.96668 -0.01961,-9.95969 -0.09857,-19.92698 -0.769387,-29.86812 -0.557016,-7.11552 -1.216483,-14.21595 -1.473041,-21.35138 -0.485766,-6.75909 -0.897742,-13.50884 -0.715226,-20.29105 -0.01235,-5.82894 -0.03769,-11.65784 -0.02101,-17.48684 0.0058,-5.59615 -0.0088,-11.19218 -0.07099,-16.78808 -0.05436,-3.7157 -0.08375,-7.43487 0.09294,-11.14802 0.201603,-3.68884 0.507459,-7.36871 1.300638,-10.98623 0.560909,-3.07692 0.647382,-6.23307 1.515204,-9.25582 0.252462,-3.39088 1.166015,-6.67102 1.776336,-10.00699 1.185289,-7.18821 1.306247,-14.4996 1.228209,-21.77115 0.007,-7.00963 -0.0089,-14.02221 -0.270706,-21.02779 0,0 18.8319858,-9.59538 18.8319858,-9.59538 z"
     inkscape:connector-curvature="0" />
  <path
     style="fill:#ffffff"
     id="path82"
     d="m 5.1302784,357.99567 c -0.6275229,12.56106 -0.6296354,25.14264 -0.6561478,37.716 0.1282609,13.40733 -0.076728,26.8265 0.4287184,40.22698 0.3467818,9.98045 1.2459121,19.91729 2.3680621,29.83587 0.9686251,9.23581 1.4766088,18.50577 1.7761177,27.78423 0.1671937,7.8949 0.1497709,15.79265 0.1481721,23.68898 -0.089913,10.35981 -0.1614295,20.71974 -0.2335894,31.07968 -0.1526527,12.57913 0.1589766,25.16269 -0.1367605,37.73907 -0.1632836,10.6311 -1.2956627,21.20568 -1.943806,31.81059 -0.6458382,11.41965 -0.9159134,22.87969 -2.1866932,34.25234 -0.2330257,1.32366 -0.4660514,2.64732 -0.6990771,3.97097 0,0 -18.5084597,8.96907 -18.5084597,8.96907 v 0 c 0.299223,-1.30297 0.598447,-2.60594 0.897671,-3.90891 1.699836,-11.32135 1.91885,-22.80229 2.47764,-34.22246 0.477999,-10.60487 1.4829649,-21.16576 1.9709747,-31.76985 0.4326192,-12.56536 0.1821812,-25.14129 0.2111163,-37.71208 -0.066425,-10.2869 -0.1282648,-20.57378 -0.1975981,-30.86066 0.0074,-7.88557 0.02795,-15.77147 -0.097388,-23.65641 -0.1597368,-9.25391 -0.4998454,-18.51338 -1.5213229,-27.71818 -1.089607,-9.98132 -2.161897,-19.97178 -2.360422,-30.02057 -0.349826,-13.51643 0.239036,-27.04197 0.08695,-40.56193 -0.0261,-12.35034 -0.01705,-24.70996 -0.656148,-37.04735 0,0 18.8319852,-9.59538 18.8319852,-9.59538 z"
     inkscape:connector-curvature="0" />
  <path
     style="fill:#ffffff"
     id="path84"
     d="m 8.0200477,630.49443 c -0.2799633,6.64878 -0.2509299,13.30643 -0.3259701,19.95968 -0.00877,8.87677 -0.020386,17.75367 0.021384,26.63037 0.043668,7.44284 0.064548,14.88589 0.058063,22.32886 -0.015551,7.24947 0.025015,14.49924 -0.012273,21.7486 0.024838,7.09126 0.020548,14.18226 0.016095,21.27347 -0.070743,7.39735 0.6124998,14.77617 1.0138286,22.15808 0.1997007,5.89077 1.0102973,11.73442 1.5089568,17.60368 0.223036,3.0094 0.12376,1.54096 0.300558,4.40512 0,0 -18.6467106,9.6154 -18.6467106,9.6154 v 0 c -0.1016359,-2.86066 -0.039765,-1.39377 -0.1887153,-4.40054 -0.3878914,-5.92265 -1.187312,-11.81422 -1.3430765,-17.74993 -0.3281292,-7.41859 -1.0243316,-14.82388 -1.0566756,-22.25051 -0.0045,-7.09668 -0.0087,-14.19314 0.01609,-21.28987 -0.03746,-7.2452 0.0034,-14.4908 -0.01227,-21.73609 -0.0065,-7.4627 0.01455,-14.92548 0.05806,-22.38804 0.04161,-8.88396 0.03027,-17.76813 0.02138,-26.65216 -0.07465,-6.54248 -0.04267,-13.0897 -0.325971,-19.6275 0,0 18.8972383,-9.62862 18.8972383,-9.62862 z"
     inkscape:connector-curvature="0" />
  <path
     style="fill:#ffffff"
     id="path86"
     d="m 9.6044571,776.62175 c 3.6634809,-0.0254 7.2645099,0.029 10.8885829,0.568 2.827577,0.2637 5.563142,1.04239 8.181371,2.12554 2.195647,1.00453 3.81279,2.75133 5.660531,4.22796 1.852998,1.36292 3.661737,2.31605 5.929939,2.76234 2.108231,0.38547 4.338369,0.18958 6.265229,-0.80544 -18.953151,13.6596 -12.455216,12.92671 -26.456552,11.31254 -4.057884,-0.0763 -7.700248,-0.75734 -11.5693229,-1.89121 -2.6208862,-0.89561 -5.3434297,-1.32701 -8.09677976,-1.50972 -2.78302184,-0.10646 -5.56903624,-0.0946 -8.35360944,-0.0893 -2.7583119,0.0213 -5.5166479,0.0168 -8.2749079,0.0319 -0.424565,9.4e-4 -0.84913,0.002 -1.273695,0.003 0,0 17.11447058,-12.43707 17.11447058,-12.43707 v 0 c 0.42272647,7e-5 0.84545294,1.4e-4 1.26817941,2.1e-4 2.74567291,0.007 5.49144201,-0.0125 8.23719281,-0.003 2.8489572,0.002 5.7045032,-0.0396 8.5453432,0.21189 2.785453,0.36739 5.514158,1.00102 8.175817,1.90952 3.716959,1.0165 7.493889,1.30944 11.323839,1.65361 13.567424,1.60745 13.818509,-1.13002 -7.470419,13.84161 -2.318731,0.31784 -4.577523,0.50191 -6.863189,-0.2258 -2.400915,-0.74993 -4.475563,-1.9929 -6.478078,-3.50761 -1.644061,-1.38464 -3.130949,-2.94165 -5.227282,-3.67139 -2.5566218,-0.84275 -5.1316409,-1.57014 -7.8299583,-1.79604 -3.60547892,-0.42901 -7.2301154,-0.3231 -10.8550348,-0.24552 0,0 17.1583332,-12.46626 17.1583332,-12.46626 z"
     inkscape:connector-curvature="0" />
  <path
     style="fill:#ffffff"
     id="path88"
     d="m 15.318743,780.90746 c 3.373611,0.23517 6.694174,-0.4867 10.021801,-0.93578 2.810618,-0.95026 5.714502,-1.45081 8.659819,-1.7168 2.80352,-0.23273 5.624589,-0.19125 8.436185,-0.19456 2.827625,-0.006 5.655042,0.007 8.482652,0.0136 2.486136,0.58044 4.985422,1.01047 7.525983,1.25485 2.146779,0.86919 3.986677,2.09802 6.291538,2.60499 2.588257,0.42601 5.221349,0.42581 7.837095,0.44847 2.800979,0.003 5.60221,0.009 8.403049,-0.0231 2.268785,0.2462 4.307926,-0.68555 6.515772,-1.03711 2.631409,-0.33392 5.288599,-0.3592 7.937032,-0.38955 2.77696,-0.006 5.554221,-0.0278 8.331121,-0.0102 2.91346,0.0132 5.82695,0.0121 8.74043,0.0121 2.83468,-0.0125 5.66954,0.001 8.50431,0.001 2.75165,-0.30478 5.31096,0.27239 7.97699,0.79984 2.5626,0.45638 5.16927,0.54579 7.76569,0.59775 2.31953,0.0233 4.63907,0.0214 6.9587,0.0322 2.72551,0.007 5.45085,-0.007 8.17634,-0.014 2.43811,0.29658 4.65732,-0.34455 7.0074,-0.8216 2.60999,-0.17973 5.09977,-0.88853 7.65918,-1.36406 2.35647,-0.4095 4.73828,-0.54658 7.12409,-0.61841 0,0 -17.02553,12.49399 -17.02553,12.49399 v 0 c -2.32628,0.15216 -4.65137,0.38241 -6.93401,0.87465 -2.55518,0.55457 -5.12361,0.94923 -7.69776,1.39861 -2.40006,0.48918 -4.80294,0.57055 -7.2509,0.47502 -2.71981,-0.004 -5.43951,-0.0114 -8.15931,0.002 -2.3426,0.0137 -4.68563,0.0294 -7.02665,-0.0807 -2.66582,-0.14316 -5.33741,-0.31118 -7.95535,-0.8711 -2.55276,-0.49788 -5.09753,-0.59894 -7.69981,-0.49391 -2.83566,-1.2e-4 -5.671419,0.0138 -8.506966,-3.7e-4 -2.91915,-0.002 -5.838306,-0.007 -8.757455,-0.002 -2.766371,0.011 -5.533244,-0.0273 -8.29926,0.0428 -2.600013,0.0755 -5.214712,0.1699 -7.768255,0.71003 -2.234391,0.50314 -4.418754,0.91629 -6.729845,0.70399 -2.800345,-0.0169 -5.600952,0.0192 -8.401133,-0.0287 -2.743581,-0.0667 -5.518876,-0.13563 -8.184355,-0.85956 -2.095798,-0.68732 -3.927884,-1.9999 -6.114376,-2.33493 -2.447841,-0.34283 -4.861584,-0.9335 -7.327967,-1.09467 -2.824963,-0.001 -5.649752,-0.006 -8.47468,-0.003 -2.772342,0.0231 -5.550698,0.0471 -8.306415,0.3884 -2.906047,0.41218 -5.718608,1.20477 -8.6035105,1.72075 -3.4162818,0.44977 -6.8348688,0.88688 -10.2899729,0.78525 0,0 17.1583334,-12.46626 17.1583334,-12.46626 z"
     inkscape:connector-curvature="0" />
  <path
     style="fill:#ffffff"
     id="path90"
     d="m 183.08588,776.66479 c 13.41789,0.4809 26.84788,0.40977 40.27214,0.4087 9.93254,-0.0894 19.86776,-0.1208 29.79832,-0.35818 10.28292,1.3552 -9.18089,9.23894 -15.4988,13.39726 -0.10953,0.0721 -6.00416,0.0756 -6.18381,0.0799 -8.76477,-0.007 -17.53377,0.25681 -26.29329,-0.0911 -7.47122,-0.35522 -14.89769,-1.38903 -22.27936,-2.56158 -4.96761,-0.90407 -9.79137,-2.38932 -14.70804,-3.51269 -2.91206,-0.57923 -5.88394,-0.65716 -8.84217,-0.70451 -6.96692,0.0517 -22.65898,12.02166 14.67295,-9.39516 0.11054,-0.0634 -0.2789,0.14012 -0.37766,0.0596 -0.15585,-0.12711 -0.15474,-0.37127 -0.23211,-0.5569 2.38773,1.23139 5.04727,1.84397 7.61782,2.57986 8.88014,1.84826 18.0234,1.94126 27.05778,2.18246 11.04753,0.43291 22.07451,3.7e-4 33.10613,-0.54502 8.22533,-0.71342 16.43761,-1.54158 24.6783,-2.0597 4.2579,-0.28259 8.52334,-0.34923 12.78887,-0.36413 4.03711,-0.11356 8.0387,-0.79954 12.07892,-1.05997 4.00063,-0.23044 8.00903,-0.24236 12.01216,-0.39808 0.11008,-0.0275 0.42231,-0.14877 0.33025,-0.0824 -19.38435,13.96318 -11.43455,12.56649 -24.74787,12.44757 -6.36275,-0.0685 -12.72551,-0.0494 -19.08842,-0.0283 -1.02315,0.016 -3.26734,0.0473 -4.39677,0.0769 -0.53851,0.0141 -2.05024,0.41068 -1.61323,0.0957 17.62564,-12.70399 10.50651,-12.74497 18.51045,-12.524 3.33611,0.0546 6.67274,0.0717 10.00921,0.0922 4.37688,-0.007 8.75377,-10e-4 13.13065,-0.01 4.25601,-0.0254 8.51172,0.0177 12.7678,0.005 3.82704,0.0107 7.65378,-0.0282 11.48076,-0.0339 2.75741,-0.013 5.51459,-0.0363 8.27202,-0.0129 2.69784,-0.29815 5.17811,0.23682 7.77664,0.81283 2.27025,0.20009 4.39447,0.90575 6.60638,1.40353 2.47556,0.6855 5.06374,1.20261 7.48882,2.05997 2.10084,0.86479 4.23563,1.20887 6.48249,1.35031 2.23601,0.74011 4.54104,1.16563 6.88384,1.35493 2.80206,0.17464 5.61123,0.17007 8.41753,0.17484 2.83561,-0.0135 5.6714,-0.006 8.5071,-0.009 2.62175,5e-5 5.24329,-0.022 7.86505,-0.0192 2.62008,10e-6 5.24022,0.0208 7.86024,3.7e-4 2.78837,0.0307 5.57691,-0.002 8.36524,0.0109 1.47262,-0.0734 2.97275,0.0918 4.43803,-0.087 -17.60707,13.11808 -12.31011,12.58057 -24.52121,12.50649 -2.76163,-0.021 -5.52315,0.008 -8.28475,0.01 -2.34092,0.0168 -4.68168,-0.0136 -7.02262,0.0118 -2.33381,6.3e-4 -4.66754,-0.0256 -7.00129,-0.002 -2.44875,-0.007 -4.89728,-0.0289 -7.34598,10e-4 -2.63145,-0.0176 -5.26297,-0.0199 -7.89447,-0.0221 -2.93299,0.0196 -5.86586,-0.0102 -8.79885,-0.0185 -4.0327,-0.01 -8.06534,-0.0342 -12.09807,-0.0262 -4.20772,0.14387 -8.41271,-0.31654 -12.52654,-1.18702 -3.85396,-0.93143 -7.7923,-1.32171 -11.74142,-1.53525 -4.10209,-0.25654 -8.16203,-0.94802 -12.26819,-1.25885 -4.72697,-0.28924 -9.46474,-0.31903 -14.19898,-0.32755 -3.71614,0.007 -7.43217,0.0374 -11.14828,0.0535 -1.38657,-0.30529 -4.47961,0.41143 -5.71012,0.0231 -0.53237,-0.16801 -0.95498,-0.57842 -1.43248,-0.86763 0,0 17.60279,-11.72648 17.60279,-11.72648 v 0 c 2.17747,0.36038 4.4053,0.0783 6.60384,0.17022 3.67149,0.007 7.34296,0.0239 11.01427,0.0627 4.77967,0.0498 9.56482,0.0655 14.33375,0.42743 4.09783,0.36607 8.1637,1.04243 12.27809,1.20533 3.99447,0.2982 7.95061,0.87469 11.86035,1.7569 4.0734,0.64538 8.16938,1.05935 12.30077,0.87577 4.05677,0.008 8.11344,-0.0164 12.17019,-0.0262 2.94998,-0.008 5.89986,-0.0379 8.84983,-0.0185 2.65179,-0.002 5.3036,-0.005 7.95533,-0.0221 2.44768,0.0311 4.89522,0.007 7.34295,10e-4 2.33567,0.0242 4.67135,-0.003 7.00708,-0.002 2.33012,0.0261 4.66008,-0.006 6.99018,0.0118 2.75246,0.002 5.50484,0.0311 8.25732,0.01 11.5892,-0.0692 10.5756,-1.83029 -9.90619,12.50649 -1.34347,-0.2468 -2.82585,0.041 -4.19849,-0.087 -2.79827,0.0128 -5.59675,-0.0197 -8.39507,0.0108 -2.62032,-0.0209 -5.24076,5.5e-4 -7.86113,7.5e-4 -2.60685,0.004 -5.21352,-0.0163 -7.82037,-0.0107 -2.83926,0.003 -5.67878,0.0256 -8.51788,10e-4 -2.86334,-0.0219 -5.73354,-0.0354 -8.58486,-0.32828 -2.31658,-0.31851 -4.56075,-0.94536 -6.86304,-1.32333 -2.32679,-0.27843 -4.51612,-0.92749 -6.71813,-1.72219 -2.47765,-0.64566 -4.9139,-1.42736 -7.4253,-1.93404 -2.18863,-0.54883 -4.39392,-0.91755 -6.60496,-1.35922 -2.46522,-0.53638 -4.93331,-0.5657 -7.45405,-0.48103 -2.74557,0.0227 -5.49087,8.8e-4 -8.23642,-0.0129 -3.79585,-0.006 -7.59147,-0.0448 -11.3874,-0.0339 -4.26053,-0.013 -8.52071,0.0304 -12.78118,0.005 -4.36794,-0.009 -8.7359,-0.002 -13.10384,-0.01 -3.42112,0.0207 -6.84238,0.0384 -10.26315,0.0923 -7.81007,0.20043 -1.404,0.1972 15.9648,-12.52402 0.11404,-0.0835 2.79954,0.12688 3.14365,0.13314 0.79746,0.0145 1.59498,0.0257 2.39247,0.0385 6.3933,0.0199 12.78645,0.0362 19.17952,-0.0393 5.83922,-0.0584 37.10652,-1.31902 -9.59222,12.38177 -3.91921,-0.0543 -7.84193,0.0941 -11.7509,0.37207 -4.0783,0.36659 -8.13942,1.05386 -12.24391,0.99161 -4.16571,0.0212 -8.33221,0.0853 -12.49358,0.28761 -8.12862,0.43413 -16.2299,1.21773 -24.34904,1.78934 -11.01555,0.49074 -22.02794,0.73754 -33.05351,0.32587 -9.33755,-0.22215 -18.7949,-0.22204 -27.97405,-2.14199 -3.04491,-0.7892 -6.43077,-1.41788 -8.77096,-3.67317 -0.25876,-0.46534 -0.61602,-0.88826 -0.77627,-1.39601 -0.0854,-0.27064 -0.173,-0.69856 0.0678,-0.8487 11.28141,-7.03303 13.04104,-11.34244 22.17749,-10.99538 3.04058,0.0991 6.08326,0.39566 9.04223,1.1333 4.76054,1.29937 9.49687,2.70292 14.36968,3.53688 7.24185,1.22249 14.55135,2.15257 21.88913,2.51943 8.83064,0.2824 17.67736,0.11311 26.50273,-0.27907 1.10377,-0.0817 3.64278,-0.2131 4.84742,-0.48877 0.42958,-0.0983 1.584,-0.74335 1.23308,-0.47678 -14.28212,10.84897 -10.08172,13.01825 -18.1023,12.10339 -9.60158,-0.24568 -19.20858,-0.26559 -28.81232,-0.35818 -13.79944,-10e-4 -27.60358,-0.0575 -41.3972,0.4087 0,0 17.03984,-12.38017 17.03984,-12.38017 z"
     inkscape:connector-curvature="0" />
  <path
     style="fill:#ffffff"
     id="path92"
     d="m 389.60446,790.90746 c 3.22349,0.0676 6.44835,0.0565 9.67225,0.0245 2.22581,-0.50655 4.56692,-1.29636 6.43263,-2.64149 6.67909,-3.50943 4.20901,-2.22708 -16.32103,9.43403 -0.2736,0.1554 0.53153,-0.34273 0.76275,-0.55615 0.73854,-0.6817 1.04324,-1.52176 1.38519,-2.43571 1.8823,-10.71942 7.77204,-8.82967 20.89051,-16.39966 2.76392,-0.34625 5.5485,-0.31789 8.32769,-0.30989 2.63388,0.005 5.26771,0.0205 7.90157,0.0342 2.26355,0.61505 4.55136,1.07494 6.88926,1.27017 2.78866,0.18213 5.58498,0.18184 8.37831,0.18934 2.87354,-0.01 5.74711,-0.0131 8.62067,0.005 3.3503,-0.0149 6.70057,0.003 10.0509,0.007 3.68054,-0.019 7.36091,2e-5 11.04138,0.0217 5.37812,0.0395 10.75614,0.0456 16.13435,0.0396 4.08869,-0.0375 8.17944,0.0269 12.26668,-0.11176 0.21349,-0.009 0.81463,-0.14943 0.64048,-0.0256 -18.05777,12.83618 -11.78609,12.57755 -23.08645,12.46985 -3.67387,-0.2244 -7.32025,-0.86384 -11.00385,-1.15086 -4.64519,-0.28917 -9.30167,-0.33052 -13.95443,-0.34572 -4.40504,-0.002 -8.80993,10e-4 -13.21491,0.0263 -3.116,0.0209 -6.23262,0.0477 -9.34873,0.0381 -2.93901,-0.11134 -5.90791,0.31939 -8.69974,1.2451 -3.13066,1.11284 -6.50306,1.00467 -9.70439,1.74663 -2.85995,0.65521 -5.74383,0.94807 -8.55706,1.77793 -2.1098,0.74303 -4.39185,0.89389 -6.61533,0.9394 -2.8004,0.0632 -5.60283,0.0133 -8.40386,0.002 -3.25375,0.28347 -6.37529,-0.27665 -9.56579,-0.78186 -2.50646,-0.36709 -4.88057,-1.27129 -7.36167,-1.80217 -0.85418,-0.17645 -0.65692,-0.38226 -0.80597,0.28606 6.02444,-3.85014 11.94277,-7.87158 18.07333,-11.55041 0.0393,-0.0236 4.46848,1.25589 5.42147,1.52771 8.6639,2.66745 17.74423,3.39433 26.7426,3.96374 9.34148,0.48444 18.69824,0.45957 28.049,0.42008 6.8283,0.49477 13.42412,-0.81557 20.07227,-2.11571 6.04691,-1.53801 12.19991,-2.54535 18.28811,-3.88628 3.65244,-0.77001 7.3531,-1.12443 11.01879,-1.8064 3.52098,-0.6968 6.98943,-1.56247 10.55825,-2.01877 3.47578,-0.29576 6.96565,-0.3575 10.45218,-0.35817 4.54297,0.26237 9.03047,-0.19365 13.53752,-0.68932 1.86122,-0.13294 3.6644,-0.33922 5.46663,-0.80859 0,0 -16.81883,12.71959 -16.81883,12.71959 v 0 c -1.81467,0.2388 -3.6333,0.40009 -5.4561,0.56761 -4.57663,0.44315 -9.15048,0.68078 -13.75097,0.60101 -3.43714,0.0607 -6.88798,0.0962 -10.29631,0.59516 -3.52616,0.56969 -6.97865,1.47782 -10.5011,2.06657 -3.6138,0.62722 -7.27851,0.93324 -10.85771,1.76724 -6.03889,1.23472 -12.12119,2.25046 -18.11321,3.71334 -6.71356,1.3226 -13.41278,2.24437 -20.28211,1.76705 -9.29902,-0.086 -18.60056,-0.2271 -27.88949,-0.69365 -9.20769,-0.62056 -18.43326,-1.55222 -27.35843,-4.02291 -0.95531,-0.23875 -3.93795,-0.9293 -5.05002,-1.38161 -0.47961,-0.19507 -1.75023,-0.4284 -1.35382,-0.76146 30.43613,-25.57144 9.93453,-14.19037 18.31152,-11.97335 2.37809,0.62448 4.69715,1.50347 7.16167,1.74151 3.10453,0.4837 6.20419,0.65554 9.34912,0.53428 2.80924,-0.009 5.62167,-0.004 8.42643,-0.18284 2.15337,-0.22778 4.26598,-0.57125 6.33538,-1.23327 2.84631,-0.6338 5.74846,-0.99137 8.59682,-1.62318 3.24504,-0.45827 6.50001,-0.86023 9.63041,-1.88718 2.98613,-0.59893 5.98072,-0.99072 9.03609,-0.81866 3.08553,-0.011 6.17154,0.0123 9.25701,0.027 4.38209,0.0176 8.76426,0.006 13.14621,0.0434 4.7036,0.0485 9.41168,0.068 14.10422,0.43581 3.67313,0.3279 7.32845,0.98795 11.02418,0.91965 1.25112,-0.0116 2.50178,-0.006 3.75285,-0.0117 0.40703,-0.002 1.53383,-0.27414 1.22101,-0.0137 -15.21117,12.66325 -9.42962,12.80042 -16.78387,12.46966 -3.98426,-0.14906 -7.97312,-0.0671 -11.95901,-0.11177 -5.41449,-0.006 -10.82877,4.1e-4 -16.24317,0.0395 -3.70041,0.0214 -7.40072,0.0405 -11.1012,0.0222 -3.35982,0.005 -6.71958,0.0242 -10.07937,0.0157 -2.88741,0.0229 -5.77495,0.0344 -8.66233,0.008 -2.85117,-0.0255 -5.709,-0.0453 -8.5478,-0.3408 -2.26157,-0.30961 -4.47076,-0.94564 -6.74789,-1.09531 -2.61665,-0.0108 -5.23316,-0.0473 -7.84977,-0.0434 -2.64358,0.0408 -5.42118,-0.0278 -7.887,1.04881 5.72461,-3.39491 11.46392,-6.76515 17.17383,-10.18474 0.23607,-0.14138 -0.53006,0.18073 -0.74861,0.34792 -1.21204,0.92716 -1.55846,2.47265 -1.59402,3.90362 -1.29938,9.78196 -13.34555,11.67745 -21.42691,16.03294 -2.28046,0.90176 -4.48864,1.90885 -7.01785,1.76064 -3.24641,-0.0331 -6.49372,-0.0412 -9.73975,0.0245 0,0 17.15834,-12.46626 17.15834,-12.46626 z"
     inkscape:connector-curvature="0" />
  <path
     style="fill:#ffffff"
     id="path94"
     d="m 514.35838,778.0826 c 10.26533,0.32996 20.53847,0.30432 30.80786,0.28688 8.76249,-0.0133 17.52466,-0.10117 26.28651,-0.20154 3.64383,-0.0578 7.28655,-0.10928 10.93066,-0.0634 5.48417,0.0331 10.96831,0.0739 16.45252,0.10251 6.70966,0.046 13.41932,0.002 20.1287,-0.059 0.65597,-0.014 1.31205,-0.024 1.96792,-0.042 0.41365,-0.0114 0.82708,-0.0296 1.24055,-0.0462 0.30796,-0.0123 1.17316,-0.24295 0.92242,-0.0637 -17.84334,12.754 -10.50157,12.82979 -18.72389,12.51927 -4.89701,-0.0604 -9.79392,-0.12625 -14.69088,-0.19175 -10.80178,-0.12281 -21.60474,-0.11934 -32.407,-0.0768 -6.99722,0.39155 -14.11719,-0.46648 -21.08034,0.44369 -7.69803,3.49324 1.74151,-0.74447 16.16296,-9.19925 0.70186,-0.41147 -1.42773,0.17672 -0.54802,-0.98835 0.0446,-0.0591 1.54213,0.10881 1.97078,0.15158 5.53118,0.62015 11.06026,0.0875 16.58463,-0.29151 6.9475,-1.00456 13.97215,-1.28428 20.93477,-2.1167 6.07332,-0.64732 12.02896,-2.05391 18.01781,-3.21015 4.3179,-1.18963 8.61095,-2.50078 12.90382,-3.79319 3.55772,-1.17233 7.35408,-1.42571 11.07359,-1.63809 3.27099,-0.089 6.54351,-0.12596 9.81567,-0.12681 3.14031,-0.13568 4.66658,1.15816 5.7124,3.99097 0.5434,2.45276 0.89069,5.01594 0.32447,7.48655 -8.41119,12.80884 -17.18927,12.60192 -28.11099,11.62951 -4.76747,-0.44023 -9.55332,-0.58844 -14.33821,-0.66456 -0.30479,-0.26866 -6.93621,0.0666 -6.95462,0.0476 -0.3756,-0.38624 -0.55459,-0.92383 -0.83189,-1.38574 -0.0118,-0.43546 -0.15286,-0.88691 -0.0354,-1.30638 0.085,-0.30339 0.33275,-0.56743 0.60478,-0.72639 14.20303,-8.29942 14.34185,-10.99109 25.473,-11.47561 7.83747,-0.22733 15.68019,-0.24452 23.52054,-0.29268 4.48872,0.3291 9.38885,-0.92373 13.70975,0.74501 0,0 -17.59925,11.93572 -17.59925,11.93572 v 0 c -4.14601,-1.07084 -8.55959,-0.24665 -12.77591,-0.56467 -7.87321,4e-4 -15.76063,-0.0376 -23.61542,0.57411 -1.69608,0.21594 -2.98101,0.29923 -4.58725,0.75131 -0.49802,0.14017 -1.90129,0.79828 -1.45865,0.53043 5.64999,-3.41905 11.4027,-6.66541 17.10406,-9.99811 -0.24788,0.0745 -0.489,0.26997 -0.74364,0.22354 -0.29145,-0.0531 -0.49261,-0.32925 -0.73892,-0.49387 -0.25365,-0.34749 -0.62599,-0.63397 -0.76096,-1.04246 -0.005,-0.0144 0.32497,0.0369 1.2322,0.0743 1.80732,0.0746 3.61643,0.0745 5.42412,0.13735 4.80688,0.14837 9.61433,0.32518 14.40654,0.74738 1.97243,0.11907 3.99289,0.35854 5.95302,-0.0349 0.49613,-0.0996 1.88842,-0.69085 1.45691,-0.42655 -16.33884,10.00752 -23.41738,10.30519 -15.66944,9.78392 1.53387,-1.49614 0.62846,-4.1105 0.45382,-6.01573 -0.6081,-2.03227 -2.37343,-1.85387 -4.25867,-1.8055 -3.22103,-0.005 -6.44599,-0.0371 -9.66116,0.19412 -3.65191,0.29219 -7.28419,0.77888 -10.76731,1.97283 -4.28738,1.20387 -8.50625,2.6759 -12.88259,3.53106 -5.98448,1.14128 -11.95007,2.46027 -18.02916,3.0053 -6.99383,0.6729 -14.00282,1.18251 -20.97815,2.04909 -5.72509,0.39568 -11.48068,0.83333 -17.20373,0.13223 -0.79368,-0.17742 -2.02713,-0.32255 -2.68947,-0.93193 -0.91514,-0.84196 -1.73017,-2.36082 -1.234,-2.67249 6.16702,-3.87388 12.5914,-7.32836 19.01374,-10.7624 0.44283,-0.23678 0.99521,-0.13498 1.49281,-0.20247 6.8678,-0.23776 13.75189,0.23912 20.62288,0.10193 10.87271,0.0433 21.74608,0.0442 32.61832,-0.0768 5.07291,-0.0654 10.14577,-0.13117 15.21872,-0.19175 8.08259,-0.27649 1.5635,-0.2619 -15.7387,12.51927 -0.0382,0.0282 -1.71238,-0.10549 -1.86044,-0.10989 -0.6173,-0.0184 -1.23482,-0.028 -1.85222,-0.042 -6.65524,-0.062 -13.31075,-0.10474 -19.96628,-0.059 -5.57828,0.0287 -11.15649,0.0694 -16.73472,0.10252 -3.586,0.0436 -7.17053,-10e-4 -10.7562,-0.0634 -8.5769,-0.10146 -17.15414,-0.18908 -25.73171,-0.20154 -10.53274,-0.018 -21.06857,-0.0329 -31.59756,0.28687 0,0 17.06946,-12.40169 17.06946,-12.40169 z"
     inkscape:connector-curvature="0" />
  <path
     style="fill:#ffffff"
     id="path96"
     d="m 642.92981,778.0826 c 6.63814,0.18873 13.28039,0.13679 19.92036,0.11318 4.63923,-0.01 9.27804,-0.0779 13.91719,-0.10553 2.86201,-0.0217 5.72419,-0.002 8.58615,-0.0266 2.67118,-0.24156 5.20536,0.59773 7.81371,1.00838 2.5815,0.35029 5.18927,0.39369 7.7899,0.43039 2.83035,0.0386 5.66089,-0.003 8.49122,0.006 2.9228,0.004 5.84561,3.9e-4 8.76841,-10e-4 2.49439,-0.0271 4.98898,-0.0154 7.48346,-0.0108 2.63373,9.2e-4 5.26749,0.0103 7.90115,-0.003 2.93941,0.0216 5.87894,0.0168 8.8184,0.0154 3.03582,-0.0105 6.07156,0.004 9.10734,0.0115 3.56569,0.0179 7.13144,-0.002 10.69713,0.0107 3.75863,-0.0193 7.51731,0.0133 11.276,0.0121 3.99142,0.10541 7.93023,0.0408 11.88115,-0.5147 3.84485,-0.59569 7.73753,-0.73532 11.62001,-0.85941 3.19589,-0.0726 6.39329,-0.1161 9.59005,-0.1035 3.06044,0.0132 6.12088,0.008 9.18127,0.0221 1.32774,0.008 2.65655,0.002 3.98383,-0.0402 0.18484,-0.006 0.70412,-0.13636 0.55408,-0.0282 -17.642,12.71135 -10.63691,12.67095 -18.83193,12.50213 -4.30553,-0.0762 -8.61189,-0.0968 -12.91791,-0.13085 -5.46795,-0.0193 -10.93623,9.1e-4 -16.40386,0.0629 -3.24043,-0.004 -6.48061,0.0383 -9.72097,0.0476 -2.44282,0.0142 -4.88562,-0.004 -7.32837,0.004 -2.6893,-0.0497 -5.3788,0.0144 -8.06799,0.002 -2.64347,-0.0233 -5.28709,0.005 -7.93049,-0.01 -2.36676,-0.0111 -4.73334,0.0234 -7.1001,0.0195 -2.34902,-0.0116 -4.69792,10e-4 -7.04688,-0.0179 -2.6047,-0.0247 -5.20951,0.0216 -7.81411,0.008 -2.75127,-0.0119 -5.50258,-0.0127 -8.25387,-0.0137 -2.52764,0.0109 -5.0552,0.0156 -7.58289,0.0109 -2.85054,-0.69153 -5.75722,-1.03827 -8.67646,-1.26143 -3.10308,-0.18759 -6.21328,-0.1892 -9.32081,-0.19428 -2.537,0.0187 -5.07419,0.009 -7.61119,0.0345 -2.93851,-0.0134 -5.87695,-0.0331 -8.8155,-0.0343 -3.421,-0.002 -6.842,-0.021 -10.26291,0.0127 -2.46459,0.0438 -4.92915,0.002 -7.3938,0.0153 -2.56438,-0.0103 -5.12817,0.0138 -7.69247,-0.015 -2.1917,-0.0107 -1.06179,-0.004 -3.38971,-0.0212 0,0 17.02135,-12.36674 17.02135,-12.36674 v 0 c 2.37184,-0.0173 1.22252,-0.0104 3.44797,-0.0212 2.57811,-0.0281 5.15569,-0.005 7.73387,-0.015 2.4506,0.0132 4.90111,-0.0286 7.35163,0.0154 3.4093,0.0345 6.81872,0.0142 10.22811,0.0122 2.97234,-0.002 5.94458,-0.0223 8.91684,-0.0428 2.51519,0.0183 5.03067,-0.004 7.5457,0.0315 3.14795,0.0301 6.2997,0.069 9.43835,0.33541 2.87387,0.31286 5.71793,0.86698 8.59715,1.07792 2.51772,-0.005 5.03532,-2e-4 7.55299,0.0109 2.76391,-10e-4 5.52784,-0.002 8.29173,-0.0138 2.59764,-0.0138 5.19549,0.0321 7.79323,0.008 2.36544,-0.0187 4.73082,-0.007 7.09631,-0.018 2.34888,-0.004 4.69757,0.0306 7.04646,0.0195 2.65249,-0.0143 5.30519,0.0133 7.95775,-0.01 2.6873,-0.0122 5.37491,0.0518 8.06233,0.002 2.43954,0.007 4.87911,-0.0108 7.31871,0.004 3.19673,0.009 6.39326,0.0516 9.59007,0.0476 5.40988,0.0633 10.82044,0.0817 16.23065,0.063 4.42597,-0.0342 8.85225,-0.0554 13.27776,-0.13083 7.88894,-0.15518 1.79244,-0.22932 -15.58415,12.50165 -0.29001,0.21247 -2.4186,-0.0711 -2.68537,-0.0731 -0.55314,-0.004 -1.10631,5.4e-4 -1.65946,8.1e-4 -3.07198,0.01 -6.144,-0.003 -9.21603,0.006 -3.15384,0.0152 -6.30862,-0.0163 -9.46123,0.10156 -3.8507,0.15242 -7.69069,0.44579 -11.50682,0.99939 -3.99855,0.41398 -8.00256,0.30177 -12.01763,0.29883 -3.76975,-0.001 -7.5395,0.0312 -11.30919,0.0121 -3.57556,0.0124 -7.15118,-0.007 -10.72674,0.0107 -3.04629,0.007 -6.09253,0.022 -9.13885,0.0115 -2.95362,-10e-4 -5.90729,-0.006 -8.86085,0.0154 -2.63063,-0.0137 -5.26138,-0.004 -7.89208,-0.003 -2.48492,0.005 -4.96996,0.0165 -7.4548,-0.009 -2.92698,4e-4 -5.85398,2.9e-4 -8.78094,0.0124 -2.83602,0.0153 -5.67257,-0.0104 -8.50836,-0.0476 -2.67882,-0.0677 -5.3607,-0.18372 -8.0031,-0.66783 -2.5264,-0.46723 -5.02025,-0.94693 -7.60986,-0.71265 -2.83755,-0.0254 -5.67535,-0.005 -8.51295,-0.0266 -4.54233,-0.0276 -9.08428,-0.0965 -13.62669,-0.10554 -6.74387,-0.0242 -13.48973,-0.0712 -20.23191,0.11318 0,0 17.06946,-12.40169 17.06946,-12.40169 z"
     inkscape:connector-curvature="0" />
  <path
     style="fill:#ffffff"
     id="path98"
     d="m 790.55138,779.50104 c 0.27077,-6.05071 0.2551,-12.11073 0.21527,-18.16606 -0.0396,-4.77198 -0.0904,-9.54385 -0.13651,-14.31578 -0.0409,-3.33813 -0.0278,-6.67639 -7.3e-4,-10.01454 0.0634,-4.19023 -0.0717,-8.38557 0.14849,-12.57128 -0.0398,-0.41758 0.818,-5.35064 0.98958,-5.43604 19.701,-9.80619 17.43156,-15.72586 19.85414,-7.41565 0.56031,6.34965 0.4047,12.74995 0.38967,19.11977 -0.0417,8.39933 -0.0291,16.79929 0.0642,25.19826 0.04,5.3737 0.0384,10.74878 0.14013,16.12182 -0.0396,3.18433 0.23969,6.37045 -0.25515,9.52692 -0.32027,2.57879 -1.15646,5.03553 -1.76371,7.54791 0.006,0.21247 0.21032,0.54486 0.019,0.63739 -6.35116,3.07095 -12.63248,6.37952 -19.29965,8.68534 -0.62329,0.21556 -0.0916,-1.31656 -0.10003,-1.97603 -0.0137,-1.07492 0.017,-2.14998 0.0335,-3.22486 0.04,-2.60945 0.17661,-8.96713 0.22229,-11.16519 0.16947,-20.40129 0.62142,-40.76602 1.9385,-61.12719 0.76033,-9.94304 1.94371,-19.8458 2.89458,-29.77058 0.56811,-5.71954 0.58053,-11.47193 0.65324,-17.21307 0.13325,-11.79236 0.28649,-23.58413 0.31365,-35.37734 0.0261,-11.10531 -0.14128,-22.20985 -0.34084,-33.31304 -0.0813,-2.51399 -0.1058,-5.02894 -0.16705,-7.54339 0,0 18.70023,-9.52826 18.70023,-9.52826 v 0 c -0.0611,2.57102 -0.0862,5.14252 -0.16649,7.71312 -0.19578,11.21554 -0.35913,22.43248 -0.32259,33.65004 0.0403,11.6802 0.21983,23.3584 0.36457,35.03759 0.0509,5.76613 0.25456,11.56297 -0.30893,17.30911 -1.41624,10.11916 -3.35297,20.16725 -4.25934,30.3563 -0.58409,6.61849 -1.23607,13.32963 -1.56229,19.96482 -0.66719,13.57054 -0.16769,27.1519 0.13671,40.72444 0.11207,3.66359 0.19771,7.16753 0.37756,10.81242 0.0496,1.00598 0.11731,2.01102 0.18714,3.0158 0.0356,0.51213 0.56699,1.26673 0.12911,1.53469 -6.09786,3.73153 -12.67984,6.60809 -18.97432,9.99745 -0.13491,0.0726 0.3059,-0.0183 0.45884,-0.0275 0.5692,-2.51111 1.46404,-4.90788 1.81592,-7.46545 0.6662,-3.05669 0.60004,-6.11946 0.55954,-9.24574 0.10346,-5.42406 0.10847,-10.85008 0.15739,-16.27479 0.10658,-8.41548 0.14436,-16.83264 0.0599,-25.24846 -0.0736,-6.12519 -0.0348,-12.28432 -0.73228,-18.37659 -1.16636,-7.65598 -0.22055,-0.0205 18.61231,-10.49019 0.21117,-0.11739 -0.48414,-0.31672 -0.69635,-0.20121 -1.12479,0.61222 -1.08415,3.15182 -1.33667,4.09441 -0.48867,4.10937 -0.0986,8.2641 -0.19328,12.39515 0.0273,3.3384 0.0399,6.6769 -7.3e-4,10.01527 -0.0461,4.81831 -0.0968,9.63655 -0.13651,14.4549 -0.0391,5.98212 -0.0604,11.9694 0.21527,17.94669 0,0 -18.89724,9.62862 -18.89724,9.62862 z"
     inkscape:connector-curvature="0" />
  <path
     style="fill:#ffffff"
     id="path100"
     d="m 797.69424,610.92961 c 0.22548,-4.98322 0.17408,-9.97535 0.13529,-14.96227 0.0283,-5.47016 0.0337,-10.94041 0.0378,-16.41064 -0.0174,-5.90971 -0.0107,-11.81854 0.06,-17.72791 0.1057,-8.95633 0.81189,-17.89146 1.15746,-26.8406 0.36989,-10.05003 0.38365,-20.10777 0.38989,-30.1631 0.25764,-8.15236 -0.43013,-16.2727 -0.92655,-24.39944 -0.29783,-6.69341 -0.53004,-13.39209 -0.68102,-20.09063 -0.42843,-10.23291 -1.59223,-4.58692 18.71862,-12.5718 0.37994,-0.14937 -0.0143,0.81637 -0.0191,1.22458 -0.005,0.4519 -0.007,0.90382 -0.0112,1.35573 -0.43392,3.80138 -0.83916,7.6121 -1.33551,11.40714 -0.89439,4.84096 -1.25249,9.7458 -1.45263,14.65697 -0.14302,5.02141 -0.18082,10.045 -0.23676,15.06791 -0.12633,8.38874 -0.24223,16.75953 0.35533,25.13168 0.97753,8.98293 2.59381,17.88231 4.30637,26.7499 1.05601,5.62046 1.985,11.26586 3.21605,16.85234 0.10361,0.30122 0.46827,1.1806 0.31084,0.90367 -4.34244,-7.63858 10.87283,-3.6729 -18.48048,8.4267 -0.85373,0.35191 0.19536,-1.83702 0.25433,-2.75854 0.1959,-3.06117 0.26036,-6.71315 0.34169,-9.72646 0.27763,-16.05123 0.3305,-32.1053 0.36406,-48.15858 0.009,-15.43005 -0.1586,-30.85923 -0.28053,-46.28857 -0.0181,-10.96902 -0.0878,-21.93763 -0.15848,-32.90641 -0.0605,-9.05158 -0.008,-18.10331 -0.002,-27.15496 -0.093,-10.17389 0.0674,-20.34733 0.14402,-30.52073 0.10154,-10.93976 0.11047,-21.87875 -0.0458,-32.81786 0,0 18.00184,-9.1724 18.00184,-9.1724 v 0 c -0.15428,10.95469 -0.14909,21.90925 -0.0458,32.86458 0.0768,10.12448 0.23754,20.249 0.14399,30.37399 0.007,9.05227 0.0586,18.10461 -0.002,27.15682 -0.0707,11.02227 -0.14047,22.04437 -0.15695,33.06689 -0.1185,15.5206 -0.27913,31.04111 -0.25821,46.56239 0.0468,15.93496 0.13792,31.86992 0.35617,47.80355 0.0624,3.5167 0.0974,6.07547 0.19252,9.51163 0.0253,0.9158 0.7909,2.15304 0.0933,2.74688 -1.52377,1.29706 -17.37301,20.31083 -19.31933,9.97211 -0.87605,-5.69268 -1.98122,-11.34562 -2.8724,-17.03569 -1.61456,-8.9839 -2.98891,-18.01625 -4.1551,-27.06903 -0.75489,-8.34703 -0.82593,-16.70241 -0.82116,-25.08029 -0.0499,-5.03188 -0.11836,-10.06752 0.10071,-15.09668 0.21904,-4.95033 0.42747,-9.92037 1.2705,-14.81226 0.61409,-3.66098 0.69542,-7.39417 1.33688,-11.0573 -0.005,-0.44737 -0.008,-0.89476 -0.0144,-1.34211 -0.006,-0.40101 -0.36237,-0.98994 -0.0226,-1.20295 21.72891,-13.62107 18.9181,-17.05169 18.77317,-6.56107 -0.002,6.70561 0.0107,13.41305 0.42833,20.10928 0.46374,8.20091 1.07204,16.39863 0.7774,24.61944 -0.0631,10.07972 -0.14848,20.16015 -0.39165,30.23736 -0.28848,8.8795 -0.93045,17.75197 -0.91304,26.63481 0.0713,5.88899 0.077,11.77745 0.06,17.66679 0.004,5.45739 0.009,10.91479 0.0378,16.37212 -0.0381,4.94088 -0.0936,9.88739 0.1353,14.8244 0,0 -18.89724,9.62862 -18.89724,9.62862 z"
     inkscape:connector-curvature="0" />
  <path
     style="fill:#ffffff"
     id="path102"
     d="m 794.8371,356.6439 c 0.28869,-6.2906 0.26073,-12.5936 0.23023,-18.88961 10e-4,-5.64107 -0.0556,-11.28217 -0.11493,-16.92293 -0.0475,-3.17225 -0.0673,-6.34453 -0.0909,-9.51704 -0.22483,-2.22939 0.22714,-4.33246 0.87663,-6.44439 1.02332,-2.63164 1.51154,-5.37716 1.78352,-8.17314 0.22424,-2.91739 0.22333,-5.84557 0.22937,-8.76966 0.009,-3.59984 -0.0492,-7.18612 0.36528,-10.76619 0.50409,-3.38713 0.78283,-6.80095 0.94825,-10.21963 0.10626,-2.7225 0.11325,-5.44773 0.07,-8.17158 0.0141,-2.60909 0.0308,-5.21828 0.0321,-7.82757 -0.0718,-2.81664 0.11787,-5.64028 -0.11463,-8.44977 -0.66584,-4.07774 -0.95275,-8.20028 -1.36757,-12.30824 -1.23973,-8.59287 -1.73434,-17.25047 -2.11963,-25.91477 -0.31321,-6.12276 -0.32915,-12.26091 -0.71267,-18.38014 -0.0368,-0.11967 -0.15692,-0.47528 -0.11047,-0.35901 2.99447,7.49458 -3.72315,2.66696 18.60387,-9.03571 0.2633,-0.13801 -0.30308,0.51197 -0.43795,0.77689 -0.49645,0.97513 -0.49978,1.09381 -0.88376,2.15815 -0.89703,3.0777 -1.02694,6.30626 -1.14387,9.49005 -0.12426,4.25809 -0.14077,8.51902 -0.17035,12.77872 -0.0451,5.58648 -0.0257,11.17369 0.0295,16.76009 -0.10353,3.57805 0.0936,7.09853 0.65996,10.62719 0.4917,3.09322 1.51422,6.02493 2.48951,8.98351 1.12407,2.1378 2.23225,4.24602 3.08631,6.51361 1.04913,2.18159 1.6351,4.51446 2.1369,6.86903 0.35333,2.16968 0.31388,4.38073 0.3519,6.57258 -0.0205,2.70518 -0.0471,5.41043 -0.0534,8.11588 0.0429,2.9357 0.0765,5.85365 -0.33928,8.76465 -0.36186,2.89466 -0.9254,5.73846 -1.55345,8.58434 -0.90854,3.0529 -1.69718,6.09958 -2.09251,9.26323 -0.50367,6.00227 -0.48259,12.03938 -0.51524,18.0593 -0.0406,6.67991 -0.005,13.36009 0.0826,20.03947 0.20081,3.23347 0.0572,1.6823 0.41028,4.65537 0,0 -18.5679,9.71405 -18.5679,9.71405 v 0 c -0.30709,-3.13511 -0.16698,-1.49981 -0.40982,-4.9068 0.0755,-6.70578 0.0932,-13.41209 0.0595,-20.11824 -0.0101,-6.02624 -0.0525,-12.05304 0.11122,-18.07805 0.22909,-3.23287 0.74144,-6.39714 1.92062,-9.43759 0.5661,-2.82907 1.30658,-5.6109 1.59942,-8.49094 0.49737,-2.81659 0.56746,-5.60614 0.4847,-8.46839 0.002,-2.68754 -0.007,-5.37497 -0.025,-8.06233 0.0188,-2.07756 0.0205,-4.16416 -0.20095,-6.23209 -0.33918,-2.28445 -0.87061,-4.51589 -1.92434,-6.59034 -0.78366,-2.33426 -2.04765,-4.37408 -3.08543,-6.59426 -0.95291,-3.07756 -1.97515,-6.11545 -2.6124,-9.28371 -0.57062,-3.66477 -0.91425,-7.28948 -0.63714,-11.00912 0.0502,-5.59195 0.0631,-11.18473 0.005,-16.77662 -0.0376,-4.24733 -0.10188,-8.49469 -0.061,-12.74231 0.10117,-3.33022 0.2649,-6.66752 0.84183,-9.9553 0.1345,-0.53584 0.4506,-2.8974 0.99875,-3.23813 1.01329,-0.62986 17.45566,-18.26602 19.78089,-8.95462 -0.29987,6.21262 -0.12949,12.44085 0.009,18.65509 0.34669,8.56739 0.91029,17.13869 2.41887,25.59254 0.52333,4.05883 0.97698,8.12573 1.6399,12.16403 0.41219,2.86717 0.18629,5.77005 0.23135,8.66097 0.005,2.59677 0.0281,5.19337 0.048,7.78988 -0.0464,2.76806 -0.0545,5.53684 -0.135,8.3043 -0.12954,3.48195 -0.44085,6.9501 -0.90271,10.40471 -0.51775,3.49006 -0.55429,6.96212 -0.42171,10.48884 -0.002,2.97746 0.002,5.95722 -0.1643,8.93109 -0.20645,2.91736 -0.48938,5.83093 -1.50864,8.59603 -0.68399,1.90362 -1.3445,3.79024 -1.18615,5.84131 -0.0237,3.20338 -0.0436,6.40654 -0.0909,9.60966 -0.0591,5.6798 -0.11613,11.35994 -0.11493,17.04005 -0.03,6.21769 -0.0633,12.44298 0.23023,18.65498 0,0 -18.89723,9.62863 -18.89723,9.62863 z"
     inkscape:connector-curvature="0" />
  <path
     style="fill:#ffffff"
     id="path104"
     d="m 796.26567,182.35818 c 0.37271,-8.406 0.39768,-16.82443 0.44791,-25.23734 -0.15859,-9.58745 -0.0592,-19.15242 0.44467,-28.72669 0.49841,-7.97884 0.69516,-15.97054 0.79825,-23.96277 0.0699,-9.693482 0.13602,-19.386901 0.16448,-29.080629 0.0254,-9.982767 -0.0594,-19.965354 -0.0947,-29.948028 0.18573,-8.920383 -0.87611,-17.798007 -1.90473,-26.642059 -0.59193,-4.751271 -1.67289,-9.4234516 -2.32775,-14.163814 0.1957,-0.1412189 -0.47821,-2.8160271 -0.35946,-2.9123207 0.11687,-0.094774 0.0332,0.4822079 0.1695,0.4183706 19.06514,-8.9323236 18.9325,-16.2450359 18.66184,-7.9937022 -0.91719,6.68782291 -1.26309,13.4177693 -1.52724,20.1590473 -0.37758,10.34726 -0.26067,20.701085 -0.13977,31.051411 0.0807,5.535166 0.10013,11.070824 0.15786,16.606212 0.2472,11.064503 1.48584,7.745562 -18.73821,13.781711 -0.82727,0.24691 0.0704,-1.72523 0.10559,-2.587845 0.49111,-14.109289 0.58928,-28.226861 0.63716,-42.343246 -0.10538,-11.633069 -0.0341,-23.2804991 -0.63105,-34.9025927 -0.69273,-8.6897443 -2.76884,-1.5809688 18.78574,-10.8964563 0.26213,-0.11329 -0.0138,0.570971 -0.0214,0.856439 -0.0291,1.093418 -0.0523,1.847956 -0.0858,2.986048 -0.43935,10.62582872 0.35163,21.256157 1.01933,31.856411 0.96973,13.687368 1.87487,27.378862 2.76342,41.071622 0.23606,4.521983 0.11314,2.429717 0.35743,6.277453 0,0 -18.55656,9.516286 -18.55656,9.516286 v 0 c 0.0393,-3.957947 0.0358,-1.815389 -0.009,-6.427676 -0.17899,-13.812895 -0.83265,-27.618338 -1.99762,-41.384224 -0.9207,-10.435882 -2.10471,-20.8722984 -2.33732,-31.3511692 -0.0291,-0.9600782 -0.24796,-3.6506404 -0.10719,-3.7332579 21.9877,-12.9039189 19.41377,-17.1125859 18.78576,-8.2471779 -0.57777,11.837563 -0.53548,23.69763 -0.63088,35.545582 0.0474,13.900088 0.13971,27.801601 0.63687,41.694341 0.41067,9.697527 0.8473,2.721176 -18.78924,13.540677 -0.20136,0.11095 0.0558,-0.456799 0.0676,-0.686402 0.0869,-1.683868 0.005,-3.370532 0.0804,-5.054812 0.0501,-5.590702 0.0584,-11.181661 0.15455,-16.77192 0.16367,-10.408076 0.36388,-20.815666 0.37881,-31.225549 0.072,-6.576123 -0.0254,-13.196962 0.78422,-19.73307 -0.18988,-7.669867 17.17278,-19.821621 18.9256,-11.878418 0.11386,0.5159913 0.0191,1.0568975 0.0489,1.5844621 0.0261,0.4617144 0.0648,0.9226243 0.0973,1.3839365 0.47082,4.83188736 1.30861,9.6165001 1.89127,14.4350014 0.74376,8.95001 2.09041,17.879413 1.88955,26.878723 -0.0318,10.012151 -0.11016,20.024259 -0.0789,30.036478 0.0317,9.664974 0.12444,19.330049 0.0516,28.99499 -0.0644,8.008457 -0.10455,16.023357 -0.67063,24.016117 -0.67844,9.58717 -1.05864,19.17463 -0.84919,28.79034 0.0496,8.26068 0.0694,16.52747 0.44791,24.78089 0,0 -18.89723,9.62862 -18.89723,9.62862 z"
     inkscape:connector-curvature="0" />
  <path
     style="fill:#ffffff"
     id="path106"
     d="m 708.48803,-13.35673 c 10.03211,0.301985 20.07063,0.375511 30.10465,0.163533 12.46608,-0.421464 24.92937,-0.899819 37.39871,-1.217599 5.77187,-0.35049 11.58577,0.0189 17.35204,-0.417956 -5.94745,4.167155 -11.66603,8.6817229 -17.84235,12.5014665 -0.62471,0.3863535 -1.46699,-0.07935 -2.20105,-0.1056218 -1.374,-0.049174 -2.74833,-0.089791 -4.12286,-0.1207061 -6.92798,-0.155819 -13.8573,-0.1881709 -20.78664,-0.2227896 -13.07006,-0.1279445 -26.21125,0.4032127 -39.14134,2.40645861 -3.43727,0.58610586 -3.33557,0.47487287 -6.49652,1.34241125 -0.76911,0.21108634 -2.97354,1.10638654 -2.28868,0.69766264 5.69447,-3.3984533 11.82106,-6.067721 17.37036,-9.6983918 3.14566,-2.0580697 -5.43602,-1.6254664 1.73583,-1.440257 16.12819,1.6740717 32.14827,4.1801632 48.19382,6.4811357 13.30147,2.01152161 26.63034,3.88789198 40.03468,5.0636666 5.52787,0.6260982 11.05396,-0.1252755 16.57766,-0.4554376 5.93988,-0.3131561 11.88764,-0.4217762 17.83098,-0.64007332 0.37101,-0.0265877 1.42069,-0.28876917 1.11301,-0.079763 -6.04641,4.10732172 -12.06864,8.28629142 -18.44768,11.85519192 -0.57012,0.318972 -1.26855,-0.312946 -1.90276,-0.469659 -3.58911,-0.886856 -7.20316,-1.512948 -10.84134,-2.171975 C 801.84938,8.4417413 791.43731,7.9365269 781.04423,7.6008392 772.99896,7.4209243 764.95087,7.4406856 756.90413,7.464871 c -5.78799,-0.1566262 -11.5254,0.1146263 -17.26299,0.8552441 -3.50702,0.607442 -7.04526,0.6653176 -10.59254,0.6486141 -10.84729,-0.2058113 -21.69695,-0.2108896 -32.54576,-0.1950407 -7.78459,0.037155 -15.56849,0.1430829 -23.35265,0.2272608 0,0 16.91617,-12.2894978 16.91617,-12.2894978 v 0 c 7.56809,0.089289 15.13585,0.2036464 22.70444,0.2432501 11.05702,0.019559 22.11812,0.049112 33.17071,-0.3077828 3.51701,-0.1454406 7.02121,-0.4051669 10.5165,-0.8310582 5.71018,-0.5270594 11.41874,-0.6267361 17.15239,-0.4893407 7.992,0.020799 15.98571,0.041417 23.9731,0.34912 10.46433,0.4203444 20.92124,1.1784577 31.28991,2.696113 2.85266,0.4482363 5.52598,0.845084 8.35463,1.37054363 1.00269,0.18626181 2.00103,0.39555054 2.99858,0.60759114 0.71754,0.15252226 2.68365,-0.013453 2.14638,0.48602848 C 828.53601,13.699851 832.89131,13.666247 825.22902,13.36218 c -5.85326,-0.01479 -11.70803,0.177795 -17.54887,0.557287 -5.57486,0.3989 -11.15589,1.110524 -16.71806,0.112322 -13.00612,-1.704014 -25.92383,-4.031588 -38.89872,-5.9492227 -16.46443,-2.3472312 -32.94002,-4.7092538 -49.5725,-5.4838649 -0.92502,-0.1944638 -1.98582,-0.063204 -2.77505,-0.5833912 -0.79612,-0.5247338 -2.41359,-1.76048271 -1.65251,-2.33486763 10.46188,-7.89557947 16.60332,-11.02646757 27.6217,-12.32469457 12.83582,-1.393266 25.76534,-1.847909 38.6721,-1.732959 7.13781,-0.03751 14.27532,-0.0765 21.4118,-0.231922 11.66921,-0.254131 13.40209,-3.154892 -9.60357,12.2715219 -5.51377,-0.4719411 -11.09484,0.1210109 -16.61678,-0.077538 -12.35432,0.1672587 -24.70417,0.5319395 -37.0515,0.9763342 -10.36794,0.2873101 -20.74031,0.198649 -31.10812,0.50529652 0,0 17.09909,-12.42321162 17.09909,-12.42321162 z"
     inkscape:connector-curvature="0" />
  <path
     style="fill:#ffffff"
     id="path108"
     d="m 662.94055,7.6379106 c -6.88853,-0.1829238 -13.78101,-0.1733465 -20.67153,-0.1611869 -5.90785,0.032173 -11.81565,0.059571 -17.72341,0.1070793 -3.91475,-0.073538 -7.85505,0.2637198 -11.74594,-0.2268031 -10.36723,-1.6740843 5.96395,-8.1873611 15.51863,-13.3941145 0.19069,-0.1039123 4.82148,0.2711808 4.90369,0.2771875 10.57421,0.7412008 21.17505,0.9384312 31.77064,1.1033458 9.85796,0.1258583 19.71743,0.1105111 29.57568,0.027632 5.70558,-0.043602 11.4113,-0.058568 17.11694,-0.089843 3.57011,-0.041669 7.14066,-0.044296 10.711,-0.053928 2.1709,0.00507 4.34175,0.00374 6.51269,0.00529 0,0 -17.04973,12.3873599 -17.04973,12.3873599 v 0 c -2.17582,0.00155 -4.35155,2.377e-4 -6.52732,0.00559 -3.52311,-0.0089 -7.04641,-0.00992 -10.56932,-0.047991 -5.62836,-0.025703 -11.25684,-0.031023 -16.88505,-0.083219 C 668.13884,7.384623 658.39978,7.310058 648.66146,7.1687714 637.89698,6.9912996 627.13578,6.6924865 616.3735,6.4186032 c -1.00478,0.023427 -2.01252,-0.010348 -3.01433,0.070282 -0.66146,0.053238 -2.50639,0.7115267 -1.9632,0.3303337 5.58019,-3.9159832 11.72556,-6.9981766 17.21834,-11.0358526 1.26034,-0.926459 -2.61692,-1.2915125 -0.0551,-0.8302013 0.45156,0.081311 0.90783,0.1337869 1.36174,0.2006804 3.85416,0.2074661 7.71663,0.035547 11.57478,0.1149603 5.8095,0.047776 11.61905,0.074886 17.42865,0.1070793 7.03847,0.012481 14.07861,0.016976 21.11523,-0.1611869 0,0 -17.09908,12.4232124 -17.09908,12.4232124 z"
     inkscape:connector-curvature="0" />
  <path
     style="fill:#ffffff"
     id="path110"
     d="m 561.1891,-4.7960634 c 7.35145,-0.00617 14.70521,-0.5883035 22.05551,-0.8753667 6.84544,0.057576 13.63383,-0.7134217 20.42947,-1.4124872 3.45972,-0.3774156 6.93689,-0.5064383 10.41438,-0.5550633 3.56527,0.017668 7.13054,0.017302 10.69586,0.01188 3.12503,-0.00168 6.25009,-0.01897 9.37507,3.4e-4 3.17559,0.00147 6.35139,0.013735 9.52687,-0.016502 2.93165,0.011426 5.86333,0.00829 8.795,0.00717 2.77215,-0.00604 5.54619,0.050502 8.31743,-0.042843 0.0626,-0.01379 0.24019,-0.078198 0.18775,-0.041369 -5.98176,4.2007042 -11.8329,8.5986802 -17.98774,12.5414456 -0.42299,0.270966 -1.00391,-0.039497 -1.50605,-0.053793 -0.80718,-0.022982 -1.61447,-0.042268 -2.42182,-0.05804 -2.80757,-0.054847 -4.37234,-0.065456 -7.26488,-0.097666 -9.80995,-0.086301 -19.62018,-0.069103 -29.43037,-0.051514 -8.61564,0.013136 -17.23121,0.047851 -25.84686,0.061131 -5.46469,0.019819 -10.92882,0.089107 -16.39343,0.1173865 -2.6259,-0.3001359 -5.02271,0.6660288 -7.56941,1.0687531 -2.95445,0.2311811 -5.82538,0.9545042 -8.76252,1.3534253 -2.97811,0.3854586 -5.97744,0.4426163 -8.97525,0.4736727 -2.41776,0.048367 -4.83598,0.019937 -7.2539,0.024904 -2.647,-0.038766 -5.29415,-0.013369 -7.94125,-0.013121 -2.85407,0.1503957 -5.6088,-0.6504171 -8.42912,-0.9980313 -2.71094,-0.2950251 -5.43783,-0.3979417 -8.16311,-0.4255873 -2.78373,-0.038918 -5.56786,-0.029334 -8.35177,-0.026008 -2.47698,-4.27e-5 -4.95394,0.041051 -7.43087,0.023067 -2.3916,0.069415 -4.90359,-0.2076734 -7.02153,-1.3811506 -2.07963,-0.8201826 -3.20873,-2.4226107 -4.12427,-4.38870961 -0.83873,-1.91184119 -2.12406,-3.50890669 -3.36635,-5.15743349 -1.53641,-1.3835098 -2.71,-3.0343111 -3.9722,-4.6500081 -5.07774,-8.1594772 11.13832,-15.7671192 19.23411,-13.4035112 2.42593,0.464554 4.75051,1.255202 7.17504,1.758222 2.50597,0.210621 4.59184,1.659312 6.89944,2.48838 2.1614,0.655695 4.48075,1.045508 6.41397,2.270486 1.65565,1.344982 3.44683,2.647797 5.41563,3.497055 1.84241,1.06861 3.70436,2.201976 5.7093,2.9462095 2.35514,0.704992 4.82996,0.6856218 7.26511,0.7463868 4.83306,0.079246 9.66704,0.081103 14.5006,0.1077679 7.14972,0.028969 14.29959,0.028339 21.44936,0.018429 7.1963,0.4854273 14.25567,-0.6464695 21.34696,-1.6428012 5.84405,-0.812808 11.74212,-1.084542 17.63458,-1.234211 14.16554,-3.9e-4 13.18328,-3.13123 -9.08083,12.32523693 -6.01772,-0.14101754 -12.03826,-0.18501655 -18.0575,-0.2323396 -10.02072,-0.0359091 -20.04164,-0.0423072 -30.06238,-0.0100534 -7.03378,0.0196624 -14.06716,0.10358517 -21.10086,0.135579 -3.82695,0.00654 -7.65383,0.0746584 -11.48073,0.0726922 -2.95593,4.4332e-4 -5.91186,0.002785 -8.86779,0.003975 -2.79026,-0.0126374 -5.58064,0.0189843 -8.37081,0.005349 -2.57628,-0.10123834 -4.689,1.56994447 -7.1449,2.15182867 -2.17051,1.1879354 -4.57361,1.4654309 -6.73698,2.643777 5.82282,-3.3302144 11.65777,-6.6393154 17.46846,-9.9906433 0.14342,-0.082718 -0.29653,0.18476 -0.46208,0.182183 -0.0722,-0.00112 -0.49193,-0.3216232 -0.23415,-0.4857346 0.36888,-0.2348405 0.87538,0.00994 1.31098,0.048284 3.43399,0.2418284 6.88151,0.2365088 10.32237,0.2775694 9.46861,0.1331781 18.93846,0.1572912 28.40788,0.1728565 11.1829,0.030679 22.36596,-0.00241 33.54874,-0.056303 9.26919,0.3214766 18.26343,-0.2485244 27.47191,-1.1419418 13.924,-1.5551991 27.90883,-2.3383216 41.84067,-3.8351201 14.86916,-1.4693269 29.72919,-3.0542759 44.63136,-4.1582689 2.0045,-0.105054 4.00901,-0.210109 6.01352,-0.315163 0,0 -16.23363,11.9263759 -16.23363,11.9263759 v 0 c -1.98722,0.1066876 -3.97443,0.2133753 -5.96165,0.320063 -14.76163,0.98240573 -29.4867,2.43842707 -44.20408,3.9319601 -14.1489,1.5087036 -28.34358,2.5400439 -42.46708,4.2808743 -9.17677,0.9303768 -18.34675,1.2392769 -27.57241,0.9657945 -11.13656,-0.053095 -22.27343,-0.083403 -33.41009,-0.043345 -9.6455,0.025262 -19.29112,0.071329 -28.93583,0.2031254 -3.62319,0.024255 -7.30324,0.2172374 -10.88524,-0.4292133 -0.79682,-0.2564977 -1.36861,-0.3409798 -2.00288,-0.9414293 -0.39672,-0.3755711 -1.90264,-2.4236424 -0.90999,-3.0437584 6.18508,-3.86384973 12.58504,-7.3725891 18.87755,-11.0588836 2.2653,-0.840204 4.61213,-1.4669353 6.85082,-2.3888446 2.44524,-0.942888 4.82582,-1.939112 7.51643,-1.6397 2.78526,-0.01343 5.57073,0.01783 8.35608,0.0053 2.95229,0.0012 5.90457,0.0035 8.85685,0.004 3.76018,-0.0019 7.52034,0.06605 11.28058,0.07274 6.90915,0.0319 13.81797,0.116545 20.72721,0.135891 10.03063,0.03267 20.06145,0.02591 30.09206,-0.01196 6.23831,-0.05014 12.47837,-0.09236 18.71467,-0.259975 -5.45947,4.1653375 -10.83033,8.4494427 -16.3784,12.49601282 -0.18698,0.13637443 -0.46152,-0.0377296 -0.69283,-0.0448498 -0.48928,-0.0150607 -0.97887,-0.0201209 -1.46837,-0.021675 -2.13673,-0.006784 -4.2742,0.0189465 -6.41049,0.0571595 -5.81236,0.17578026 -11.62376,0.49031279 -17.38397,1.33265538 -7.12762,0.9714248 -14.25023,1.7274392 -21.46223,1.3750441 -7.17831,-0.00601 -14.35674,-9.91e-5 -21.53491,0.045975 -4.93494,0.037961 -9.87071,0.096223 -14.80561,0.029854 -2.65512,-0.098151 -5.33141,-0.2446157 -7.80038,-1.331889 -1.96452,-0.9348496 -3.88023,-1.97646638 -5.77156,-3.0504345 -1.90856,-1.0545778 -3.69391,-2.3119117 -5.49252,-3.5398853 -2.02385,-0.852825 -4.17133,-1.3071331 -6.21829,-2.0876096 -2.18424,-0.9254725 -4.31105,-1.9475742 -6.70344,-2.2320569 -2.3667,-0.5765975 -4.70806,-1.3085327 -7.14304,-1.5411967 -7.62657,0.5336259 0.072,0.103628 17.12332,-10.130081 0.1801,-0.108087 -0.4146,-0.08963 -0.6033,-0.181865 -0.23331,-0.114035 -0.39002,-0.443475 -0.64938,-0.430408 -0.16106,0.0081 0.0979,0.308148 0.16495,0.454813 0.0916,0.20037 0.2066,0.389202 0.3099,0.583802 1.23167,1.641274 2.53896,3.1799 3.97165,4.657271 1.35074,1.760102 2.64895,3.538473 3.58935,5.5622365 0.7159,1.5735824 1.71758,2.4788673 3.35365,3.0737328 2.11324,0.6377111 4.26614,0.7968779 6.4681,0.6799331 2.46133,-0.019711 4.92277,0.015263 7.38416,0.00928 2.81523,-0.00261 5.63074,-0.014511 8.44575,0.027208 2.74117,0.1120452 5.47721,0.3243748 8.19948,0.6724964 2.77283,0.3856401 5.52256,0.9261319 8.33905,0.7245893 2.65371,0.0026 5.30738,0.031839 7.96108,0.00238 2.38944,0.013823 4.77903,0.0036 7.16848,-0.014553 2.93771,-0.07536 5.87897,-0.2231119 8.78626,-0.6778014 2.93426,-0.4835818 5.85118,-1.0593117 8.79755,-1.4658235 2.54245,-0.5333863 5.03512,-0.9157228 7.65033,-0.6522708 5.3569,0.028123 10.71331,0.097873 16.0703,0.1173865 8.55955,0.01325 17.11903,0.04802 25.67858,0.061131 9.85745,0.017761 19.71494,0.034069 29.57217,-0.051514 3.37203,-0.036432 6.74415,-0.066699 10.11532,-0.1557065 9.39846,-0.2481428 -7.83302,5.6193857 -14.95564,12.4462838 -2.73158,-0.1014093 -5.46686,-0.030921 -8.19952,-0.04281 -2.93832,-0.00108 -5.87665,-0.00412 -8.81495,0.0073 -3.15999,-0.030917 -6.32032,-0.017533 -9.48043,-0.018093 -3.11948,0.016919 -6.23898,-0.00398 -9.35847,-0.014423 -3.57247,-0.013438 -7.14556,-0.035272 -10.71733,0.053998 -3.38906,0.075941 -6.77493,0.2430394 -10.15086,0.5602396 -6.71643,0.5798976 -13.43351,1.0392938 -20.17882,1.090065 -7.55134,0.3232317 -15.08809,0.8793652 -22.63839,1.1951378 0,0 17.12871,-12.4447356 17.12871,-12.4447356 z"
     inkscape:connector-curvature="0" />
  <path
     style="fill:#ffffff"
     id="path112"
     d="m 21.345168,-1.9281589 c 5.604121,0.3443469 11.180532,-0.1751503 16.762574,-0.5944229 5.665796,-0.4921786 11.367111,-0.2316319 16.942104,-1.4436516 4.284958,-1.1632 8.791091,-1.2460401 13.081147,-2.3233607 7.835769,-2.9329567 -2.750863,0.9606082 -16.63123,9.5616477 -0.249574,0.1546503 0.384216,0.4761501 0.436475,0.7650674 0.02223,0.1228969 -0.122935,0.2945254 -0.247155,0.2815925 C 50.507415,4.1956865 49.443457,3.5421221 48.322311,3.149051 41.586805,0.98958125 34.6564,-0.5210813 27.661455,-1.5431583 22.709472,-2.0470596 17.680864,-2.7297225 12.707246,-2.1979714 8.6680875,-1.8757214 4.9885158,-0.31405045 1.3235885,1.2754591 -2.0339016,2.8963313 -5.4561164,4.3769576 -8.6547485,6.3168261 -2.8396062,2.9464959 3.0574498,-0.28630252 8.7906784,-3.7941646 9.1773329,-4.0307383 7.6334002,-4.1914048 8.4760638,-4.8849232 c 0.099322,-0.081742 3.6591192,0.1204733 3.8756022,0.1278042 4.390995,0.084017 8.78351,0.067258 13.175183,0.069446 4.712818,0.00367 9.425242,-0.049584 14.138064,-0.0423 3.903736,-0.6535992 7.910475,-0.705407 11.783289,-1.5034999 4.896764,-0.8969153 9.897282,-1.0391148 14.861907,-1.1946545 5.493437,-0.1284701 10.988762,-0.1337214 16.483363,-0.1597714 3.642883,-0.02798 7.28556,-0.040598 10.928525,-0.044068 3.940079,-0.015414 7.879663,0.045618 11.819463,0.075419 7.68307,0.048796 15.36618,0.099513 23.04938,0.1181933 9.46907,0.061496 18.93815,-0.010569 28.40722,-0.010288 6.94775,-0.034604 13.89563,-0.059928 20.84334,-0.1035577 4.72712,0.011451 9.45391,-0.030587 14.1809,-0.060668 11.38243,0.1799066 10.5327,-3.6155258 -12.8161,12.4166467 -5.68015,-0.1089928 -11.36103,-0.1678304 -17.0419,-0.2251595 -10.27722,-0.1001499 -20.55523,-0.055652 -30.83254,0.00579 -6.76546,0.039227 -13.53093,0.083587 -20.29644,0.1094303 -4.45988,0.057646 -8.92016,0.024354 -13.380267,0.041041 -3.988395,0.035953 -7.976703,0.0079 -11.965028,-0.016419 C 79.760872,4.5144608 73.861415,5.208493 67.950548,5.5758694 61.447836,6.4249305 54.915284,6.9709535 48.36699,7.2927262 c -3.308185,0.1591043 -6.619021,0.2438862 -9.930211,0.3052156 0,0 16.96307,-12.3609267 16.96307,-12.3609267 v 0 c 3.233286,-0.030818 6.466927,-0.078141 9.697158,-0.2328292 6.534315,-0.3595578 13.037257,-1.016612 19.542293,-1.7207082 5.986959,-0.4109463 11.968139,-1.0215545 17.97828,-0.8636104 4.00339,-0.02401 8.00677,-0.05252 12.01023,-0.016419 4.42245,0.016718 8.84508,-0.016984 13.26728,0.041041 6.66511,0.025731 13.33016,0.070114 19.99521,0.1094303 10.272,0.062434 20.54469,0.1049598 30.81661,0.00579 5.88746,-0.057808 11.77492,-0.1175521 17.66171,-0.2251595 -16.02588,12.3619095 -10.26238,12.6452116 -21.364,12.4166466 -4.67132,-0.030257 -9.34243,-0.072461 -14.01388,-0.060669 -6.85269,-0.04379 -13.70556,-0.068933 -20.55828,-0.1035501 -9.45968,2.929e-4 -18.91936,-0.071836 -28.37903,-0.01019 -7.79167,0.018872 -15.583252,0.069891 -23.374793,0.1181067 -4.007085,0.02932 -8.013986,0.090287 -12.021327,0.068807 C 73.066595,4.7532024 69.476284,4.7269511 65.885668,4.6984098 60.426499,4.6809859 54.965658,4.6820856 49.509142,4.8759066 44.527035,5.0972198 39.540667,5.4139905 34.641127,6.4044547 30.680479,6.9079899 26.702505,7.3851618 22.714997,7.586759 18.021903,7.6008307 13.328928,7.562513 8.6358664,7.5907363 4.1738136,7.6149456 -0.28996562,7.6793763 -4.7509246,7.546673 -6.8978516,7.4195324 -9.2460332,7.6030053 -10.542793,5.519832 -10.764477,5.1637083 -11.206169,4.5379521 -10.859429,4.3018609 -4.8633215,0.21918884 1.5596021,-3.1983874 7.7691174,-6.9485116 11.072139,-8.6468743 14.409997,-10.261627 17.816084,-11.745348 c 3.768781,-1.551189 7.690933,-2.70222 11.789373,-2.897095 5.01359,-0.12491 10.020741,0.472921 14.973806,1.207049 7.109024,1.200157 14.136151,2.857501 21.070561,4.8279409 0.565522,0.179537 3.19826,0.9459247 3.881449,1.3871677 C 77.60313,-2.0070101 57.699427,5.5305169 51.339549,6.4311054 47.009181,7.108403 42.653946,7.6356342 38.374591,8.61509 32.759031,9.4516867 27.06685,9.2630785 21.418371,9.7956146 15.698098,10.227236 9.9854508,10.54269 4.246083,10.495053 c 0,0 17.099085,-12.4232119 17.099085,-12.4232119 z"
     inkscape:connector-curvature="0" />
  <path
     style="fill:#ffffff"
     id="path114"
     d="m 196.74731,-10.521111 c 5.07015,0.15092 10.14481,0.134298 15.21663,0.09167 3.52916,-0.02244 7.05766,-0.05889 10.58693,-0.06342 2.8694,-0.003 5.73879,-0.003 8.60818,-0.0031 2.77587,0.01355 5.55185,-0.01765 8.32762,-0.0039 2.78105,0.01702 5.56203,0.0013 8.34303,-0.0088 2.61791,8.98e-4 5.23587,-0.002 7.85371,0.01962 3.2837,0.211218 6.64714,-0.357529 9.88636,0.269442 0.19182,0.05336 1.57146,0.3614857 1.80818,0.6629512 4.5245,5.762015 -11.48318,9.19394486 -17.83718,12.8406845 -0.32572,0.186941 -0.74946,-0.056958 -1.12499,-0.061434 -0.45258,-0.00539 -0.90498,0.02123 -1.35747,0.031844 -3.9299,0.066191 -7.86037,0.05488 -11.79066,0.06139 -4.2688,-0.167608 -8.57535,0.2945292 -12.81903,-0.2415326 -3.64099,-0.6391693 -7.32459,-0.9078972 -11.01284,-1.0662772 -4.53894,-0.1634651 -9.08181,-0.1515094 -13.62299,-0.1588517 -4.20618,3.005e-4 -8.41226,0.023075 -12.61837,0.045434 -3.07624,0.016721 -6.15252,0.021733 -9.22879,0.024368 0,0 17.086,-12.4139552 17.086,-12.4139552 v 0 c 3.05596,0.002 6.11193,0.0059 9.16787,0.01823 4.17296,0.0163 8.3459,0.02848 12.51888,0.0326 4.59187,0.0062 9.18536,0.0087 13.77463,0.181755 3.70386,0.231304 7.38902,0.6096127 11.06341,1.1337811 4.21345,0.2411051 8.43974,0.076981 12.65808,0.1129804 3.94523,-0.00665 7.89792,0.00657 11.83476,-0.2790282 7.98848,-0.9813703 11.47901,-8.7708703 -15.21581,10.5179623 -0.36022,0.2602799 0.65445,0.6388422 0.81992,1.0512981 0.17457,0.4351261 -2.18166,-1.39804226 -1.37646,-0.2891468 -3.22254,-0.1966773 -6.4572,-0.041836 -9.68363,-0.072322 -2.63584,0.02126 -5.27181,0.018896 -7.90772,0.019618 -2.7729,-0.010242 -5.54578,-0.025805 -8.31874,-0.00882 -2.77217,0.013529 -5.54455,-0.017318 -8.31682,-0.00392 -2.86657,-8.92e-5 -5.73314,-8.55e-5 -8.59971,-0.00308 -3.47108,-0.00447 -6.94137,-0.040647 -10.41234,-0.063424 -5.15599,-0.044362 -10.3145,-0.054136 -15.46897,0.09167 0,0 17.15833,-12.4662589 17.15833,-12.4662589 z"
     inkscape:connector-curvature="0" />
  <path
     style="fill:#ffffff"
     id="path116"
     d="m 239.76053,-9.0817777 c 3.9696,0.095448 7.94114,0.057582 11.9115,0.041612 3.15309,-0.024783 6.30626,-0.030655 9.45944,-0.011833 3.28024,0.00781 6.5605,-0.00298 9.84075,-0.00851 2.84646,-0.013131 5.6927,-0.00795 8.53918,-0.00477 2.92374,-0.2469407 5.72869,0.5917739 8.59867,0.9868165 2.81163,0.3422939 5.64629,0.3984227 8.47501,0.4388636 10.75826,0.2080696 9.39771,-3.4604474 -13.0845,12.4820615 -4.10403,-0.1619805 -8.21276,-0.1359194 -12.31913,-0.1211555 -2.82727,0.059209 -5.66095,-0.023457 -8.48655,0.1113182 17.27074,-13.0923511 11.29866,-12.5809578 22.52633,-12.4610439 3.94381,0.036771 7.8888,0.070154 11.83234,-0.00378 8.52511,-0.2749012 6.30244,-2.7355857 -16.07245,12.4684416 -0.43525,0.2957622 -1.0523,-0.019086 -1.57848,-0.026443 -2.55172,-0.02075 -5.10367,-0.025287 -7.65545,-0.045129 -3.76901,-0.00473 -7.53784,-0.031062 -11.30686,-0.023475 -3.63273,0.00958 -7.2654,0.010952 -10.89817,0.018137 -3.72838,-0.011474 -7.45676,-0.0051 -11.18514,-0.018638 -2.13243,0.018956 -4.2274,0.1558516 -6.32719,-0.2387352 0,0 17.25804,-12.2073502 17.25804,-12.2073502 v 0 c 2.0172,0.1172238 4.03778,0.070859 6.05791,0.1030283 3.74549,-0.013466 7.49097,-0.00722 11.23645,-0.018638 3.61612,0.00719 7.23215,0.00853 10.84824,0.018137 3.79057,0.00767 7.58094,-0.018892 11.37149,-0.023475 2.59319,-0.019742 5.18654,-0.024429 7.77967,-0.045129 0.55045,-0.00741 2.08522,-0.3651668 1.65128,-0.026442 -17.34585,13.5395792 -9.90119,12.8354376 -18.25023,12.4684409 -3.93999,-0.077889 -7.88161,-0.036988 -11.82191,-0.00381 -10.35399,0.1073252 -11.13778,2.2688739 11.77621,-12.4611515 2.72179,0.1495434 5.45474,0.042004 8.17854,0.1130225 4.21504,0.017284 8.4317,0.037634 12.64496,-0.1073637 -16.03581,12.0012162 -10.59704,12.8198637 -21.2846,12.4288123 -2.88588,-0.0711 -5.77306,-0.2244086 -8.63048,-0.6593612 -2.79733,-0.4440942 -5.56498,-0.961911 -8.41731,-0.7342074 -2.8421,0.00316 -5.68396,0.00842 -8.52604,-0.00477 -3.27243,-0.00554 -6.54488,-0.016345 -9.81732,-0.00851 -3.14232,0.018454 -6.28463,0.013463 -9.42686,-0.011833 -4.00856,-0.016304 -8.0182,-0.052333 -12.02605,0.041612 0,0 17.12871,-12.4447356 17.12871,-12.4447356 z"
     inkscape:connector-curvature="0" />
  <path
     style="fill:#ffffff"
     id="path118"
     d="m 282.4616,-9.0925393 c 2.78204,-0.7159669 5.78057,-0.5181126 8.46974,-1.5507447 2.3865,-0.883559 4.9325,-1.06291 7.44984,-1.199989 2.74803,-0.120924 5.49834,-0.100515 8.24809,-0.09451 2.84609,0.02039 5.69233,-0.0073 8.53833,0.0082 11.07623,0.271503 10.46966,-3.727823 -12.85264,12.46020565 -2.487,-0.0253698 -4.97419,-0.0379506 -7.46139,-0.041913 -2.85946,-0.003114 -5.71871,0.007941 -8.57813,0.001361 -2.4426,0.0439359 -4.8394,-0.36576646 -7.02543,0.88141745 5.81762,-3.2844707 11.63523,-6.5689413 17.45284,-9.8534119 -0.3843,0.8480733 -1.16161,-0.1866791 -1.01596,-0.5586529 0.11585,-0.2958592 0.62528,-0.1441506 0.94298,-0.1392002 2.15815,-0.030626 4.28188,-0.8778401 6.31995,-1.5860691 2.43855,-1.451623 5.19663,-1.955113 7.95453,-2.391295 2.50281,-0.275915 5.02709,-0.232842 7.54117,-0.228794 2.97062,-0.09032 4.86313,0.793597 5.28016,3.8474861 -13.26003,9.89005519 -13.74451,11.2703964 -24.36713,11.4882744 -0.30556,0.1113656 -0.64278,0.1587428 -0.91668,0.3340967 -0.2584,0.1654356 -0.90752,0.8113498 -0.63941,0.6621404 29.62135,-16.4854186 21.15544,-12.4753751 14.60485,-8.1426518 -7.28011,5.77150849 -15.28247,11.8571255 -24.65194,12.7812016 -2.46298,0.167221 -4.94155,0.091932 -7.4102,0.079737 -2.49669,-0.2503813 -4.68891,-1.3482685 -7.0267,-2.118774 -1.5664,-0.7440143 -0.80734,-0.301398 -2.2692,-1.3413906 0,0 17.8052,-11.4504101 17.8052,-11.4504101 v 0 c 1.26763,0.6976014 0.59681,0.3828486 2.01907,0.9300449 2.12009,0.8031534 4.26036,1.5661894 6.56534,1.5623698 2.42591,-0.00985 4.87013,0.028871 7.26945,-0.3848684 1.0856,-0.2379739 2.14771,-0.4746991 3.1594,-0.9555224 0.34862,-0.1656847 1.344,-0.7597418 1.01108,-0.5644179 -17.73626,10.4060416 -22.52131,13.6616151 -16.12998,9.3522139 0.76635,-0.7303089 1.72906,-1.5467965 2.64098,-2.08352046 7.68204,-4.52136414 12.8919,-10.80149914 21.05762,-11.17909614 9.18415,-0.539865 16.13744,-7.435418 -12.25511,9.59471232 0.2282,0.15750281 0.44719,0.3292711 0.6846,0.47250844 0.0531,0.0320286 0.22624,0.0895242 0.17948,0.0488121 -0.95246,-0.82925476 -2.59918,-0.38436441 -3.70899,-0.49541494 -2.45288,0.0322202 -4.92181,0.0590433 -7.33816,0.53338688 -2.70697,0.55310374 -5.21349,1.5874312 -7.76664,2.6171936 -2.28834,0.7092412 -4.67835,1.3180569 -7.06378,0.7524844 -1.09439,-0.3815995 -4.16826,-2.69502911 -2.2841,-3.79848542 6.29848,-3.68870008 12.69711,-7.20367358 19.04567,-10.80551038 2.45142,-0.452916 4.93707,-0.260934 7.42045,-0.273866 2.85814,-0.0065 5.7161,0.0044 8.57427,0.0015 2.52546,-0.0039 5.05091,-0.01654 7.57617,-0.04199 -18.03032,13.7397264 -10.01964,12.46165375 -21.44158,12.45356416 -2.84087,0.008959 -5.68187,-0.0311742 -8.52284,-0.0130049 -2.72421,0.013349 -5.45307,0.0245899 -8.17008,0.24286021 -2.4709,0.26262385 -4.87829,0.76117403 -7.24638,1.52363923 -2.92577,0.4724612 -5.87527,0.8923195 -8.82714,1.130359 0,0 17.15833,-12.4662589 17.15833,-12.4662589 z"
     inkscape:connector-curvature="0" />
  <path
     style="fill:#ffffff"
     id="path122"
     d="m 301.97995,20.929612 c 0.35146,-3.206402 0.90707,-6.380359 1.19137,-9.595685 0.24885,-2.9534605 0.23396,-5.9176197 0.27594,-8.8781813 0,0 18.83166,-9.5808046 18.83166,-9.5808046 v 0 c 0.006,3.0158645 -0.0786,6.0338095 -0.25375,9.0446152 -0.23487,3.1478171 -0.62163,6.2687049 -1.14798,9.3814317 0,0 -18.89724,9.628624 -18.89724,9.628624 z"
     inkscape:connector-curvature="0" />
</svg>
