<?xml version="1.0" encoding="UTF-8" standalone="no"?>
<svg
   xmlns:dc="http://purl.org/dc/elements/1.1/"
   xmlns:cc="http://creativecommons.org/ns#"
   xmlns:rdf="http://www.w3.org/1999/02/22-rdf-syntax-ns#"
   xmlns:svg="http://www.w3.org/2000/svg"
   xmlns="http://www.w3.org/2000/svg"
   xmlns:sodipodi="http://sodipodi.sourceforge.net/DTD/sodipodi-0.dtd"
   xmlns:inkscape="http://www.inkscape.org/namespaces/inkscape"
   version="1.1"
   viewBox="0 0 805.29133 784.28343"
   stroke-miterlimit="10"
   id="svg135"
   sodipodi:docname="motivatingExampleBis_1.svg"
   width="805.29132"
   height="784.28345"
   style="fill:none;stroke:none;stroke-linecap:square;stroke-miterlimit:10"
   inkscape:version="0.92.2 5c3e80d, 2017-08-06">
  <metadata
     id="metadata141">
    <rdf:RDF>
      <cc:Work
         rdf:about="">
        <dc:format>image/svg+xml</dc:format>
        <dc:type
           rdf:resource="http://purl.org/dc/dcmitype/StillImage" />
        <dc:title />
      </cc:Work>
    </rdf:RDF>
  </metadata>
  <defs
     id="defs139" />
  <sodipodi:namedview
     pagecolor="#ffffff"
     bordercolor="#666666"
     borderopacity="1"
     objecttolerance="10"
     gridtolerance="10"
     guidetolerance="10"
     inkscape:pageopacity="0"
     inkscape:pageshadow="2"
     inkscape:window-width="1280"
     inkscape:window-height="751"
     id="namedview137"
     showgrid="false"
     fit-margin-top="0"
     fit-margin-left="0"
     fit-margin-right="0"
     fit-margin-bottom="0"
     inkscape:zoom="0.7"
     inkscape:cx="412.97899"
     inkscape:cy="390.58003"
     inkscape:window-x="0"
     inkscape:window-y="1"
     inkscape:window-maximized="1"
     inkscape:current-layer="svg135" />
  <clipPath
     id="g2768474cd2_0_688.0">
    <path
       d="M 0,0 H 1058.3044 V 793.6693 H 0 Z"
       id="path2"
       inkscape:connector-curvature="0"
       style="clip-rule:nonzero" />
  </clipPath>
  <g
     clip-path="url(#g2768474cd2_0_688.0)"
     id="g133"
     transform="translate(-116.17323,-3.1312337)">
    <path
       d="M 0,0 H 1058.3044 V 793.6693 H 0 Z"
       id="path5"
       inkscape:connector-curvature="0"
       style="fill:#ffffff;fill-rule:evenodd" />
    <path
       d="M 116.17323,3.1312337 H 921.46452 V 787.41468 H 116.17323 Z"
       id="path7"
       inkscape:connector-curvature="0"
       style="fill:#000000;fill-opacity:0;fill-rule:evenodd" />
    <path
       d="M 116.17323,3.1312337 H 921.46452 V 787.41468 H 116.17323 Z"
       id="path9"
       inkscape:connector-curvature="0"
       style="fill-rule:evenodd;stroke:#595959;stroke-width:1;stroke-linecap:butt;stroke-linejoin:round" />
    <path
       d="m 439.90546,4.729407 v 0 c 0,1.5479975 33.47641,2.8028975 74.77167,2.8028975 41.29523,0 74.77167,-1.2549 74.77167,-2.8028975 v 98.205233 c 0,1.54799 -33.47644,2.80289 -74.77167,2.80289 -41.29526,0 -74.77167,-1.2549 -74.77167,-2.80289 z"
       id="path11"
       inkscape:connector-curvature="0"
       style="fill:#666666;fill-rule:evenodd" />
    <path
       d="m 439.90546,4.729407 v 0 c 0,-1.5479977 33.47641,-2.8028977 74.77167,-2.8028977 41.29523,0 74.77167,1.2549 74.77167,2.8028977 v 0 c 0,1.5479975 -33.47644,2.8028975 -74.77167,2.8028975 -41.29526,0 -74.77167,-1.2549 -74.77167,-2.8028975 z"
       id="path13"
       inkscape:connector-curvature="0"
       style="fill:#a3a3a3;fill-rule:evenodd" />
    <path
       d="m 589.4488,4.729407 v 0 c 0,1.5479975 -33.47644,2.8028975 -74.77167,2.8028975 -41.29526,0 -74.77167,-1.2549 -74.77167,-2.8028975 v 0 c 0,-1.5479977 33.47641,-2.8028977 74.77167,-2.8028977 41.29523,0 74.77167,1.2549 74.77167,2.8028977 v 98.205233 c 0,1.54799 -33.47644,2.80289 -74.77167,2.80289 -41.29526,0 -74.77167,-1.2549 -74.77167,-2.80289 V 4.729407"
       id="path15"
       inkscape:connector-curvature="0"
       style="fill:#000000;fill-opacity:0;fill-rule:evenodd" />
    <path
       d="m 589.4488,4.729407 v 0 c 0,1.5479975 -33.47644,2.8028975 -74.77167,2.8028975 -41.29526,0 -74.77167,-1.2549 -74.77167,-2.8028975 v 0 c 0,-1.5479977 33.47641,-2.8028977 74.77167,-2.8028977 41.29523,0 74.77167,1.2549 74.77167,2.8028977 v 98.205233 c 0,1.54799 -33.47644,2.80289 -74.77167,2.80289 -41.29526,0 -74.77167,-1.2549 -74.77167,-2.80289 V 4.729407"
       id="path17"
       inkscape:connector-curvature="0"
       style="fill-rule:evenodd;stroke:#666666;stroke-width:1;stroke-linecap:butt;stroke-linejoin:round" />
    <path
       d="m 456.23962,61.500343 4.5,-0.4375 q 0.40625,2.265625 1.64062,3.328125 1.25,1.0625 3.35938,1.0625 2.23437,0 3.35937,-0.9375 1.14063,-0.953125 1.14063,-2.21875 0,-0.8125 -0.48438,-1.375 -0.46875,-0.578125 -1.65625,-1 -0.8125,-0.28125 -3.70312,-1 -3.71875,-0.921875 -5.21875,-2.265625 -2.10938,-1.890625 -2.10938,-4.609375 0,-1.75 0.98438,-3.265625 1,-1.53125 2.85937,-2.328125 1.875,-0.796875 4.51563,-0.796875 4.3125,0 6.48437,1.890625 2.1875,1.890625 2.29688,5.046875 l -4.625,0.203125 q -0.29688,-1.765625 -1.28125,-2.53125 -0.96875,-0.78125 -2.92188,-0.78125 -2.01562,0 -3.15625,0.828125 -0.73437,0.53125 -0.73437,1.421875 0,0.8125 0.6875,1.390625 0.875,0.734375 4.25,1.53125 3.375,0.796875 4.98437,1.65625 1.625,0.84375 2.53125,2.328125 0.92188,1.46875 0.92188,3.640625 0,1.96875 -1.09375,3.6875 -1.09375,1.71875 -3.09375,2.5625 -2,0.828125 -4.98438,0.828125 -4.34375,0 -6.67187,-2 -2.32813,-2.015625 -2.78125,-5.859375 z m 32.09375,2.171875 4.375,0.734375 q -0.84375,2.40625 -2.67188,3.671875 -1.8125,1.25 -4.54687,1.25 -4.32813,0 -6.40625,-2.828125 -1.64063,-2.265625 -1.64063,-5.71875 0,-4.125 2.15625,-6.453125 2.15625,-2.34375 5.45313,-2.34375 3.70312,0 5.84375,2.453125 2.14062,2.4375 2.04687,7.484375 h -11 q 0.0469,1.953125 1.0625,3.046875 1.01563,1.078125 2.53125,1.078125 1.03125,0 1.73438,-0.5625 0.70312,-0.5625 1.0625,-1.8125 z m 0.25,-4.4375 q -0.0469,-1.90625 -0.98438,-2.890625 -0.9375,-1 -2.28125,-1 -1.4375,0 -2.375,1.046875 -0.9375,1.046875 -0.92187,2.84375 z m 12.14062,9.71875 h -4.39062 v -16.59375 h 4.07812 v 2.359375 q 1.04688,-1.671875 1.875,-2.203125 0.84375,-0.53125 1.90625,-0.53125 1.5,0 2.89063,0.828125 l -1.35938,3.828125 q -1.10937,-0.71875 -2.0625,-0.71875 -0.92187,0 -1.5625,0.515625 -0.64062,0.5 -1.01562,1.828125 -0.35938,1.328125 -0.35938,5.5625 z m 12.81251,0 -6.6875,-16.59375 h 4.60937 l 3.125,8.46875 0.90625,2.828125 q 0.35938,-1.078125 0.45313,-1.421875 0.21875,-0.703125 0.46875,-1.40625 l 3.15625,-8.46875 h 4.51562 l -6.59375,16.59375 z m 22.84375,-5.28125 4.375,0.734375 q -0.84375,2.40625 -2.67188,3.671875 -1.8125,1.25 -4.54687,1.25 -4.32813,0 -6.40625,-2.828125 -1.64063,-2.265625 -1.64063,-5.71875 0,-4.125 2.15625,-6.453125 2.15625,-2.34375 5.45313,-2.34375 3.70312,0 5.84375,2.453125 2.14062,2.4375 2.04687,7.484375 h -11 q 0.0469,1.953125 1.0625,3.046875 1.01563,1.078125 2.53125,1.078125 1.03125,0 1.73438,-0.5625 0.70312,-0.5625 1.0625,-1.8125 z m 0.25,-4.4375 q -0.0469,-1.90625 -0.98438,-2.890625 -0.9375,-1 -2.28125,-1 -1.4375,0 -2.375,1.046875 -0.9375,1.046875 -0.92187,2.84375 z m 18.85937,9.71875 v -2.484375 q -0.90625,1.328125 -2.39062,2.09375 -1.46875,0.765625 -3.10938,0.765625 -1.67187,0 -3,-0.734375 -1.32812,-0.734375 -1.92187,-2.0625 -0.59375,-1.328125 -0.59375,-3.671875 v -10.5 h 4.39062 v 7.625 q 0,3.5 0.23438,4.296875 0.25,0.78125 0.89062,1.25 0.64063,0.453125 1.625,0.453125 1.125,0 2.01563,-0.609375 0.89062,-0.625 1.21875,-1.53125 0.32812,-0.921875 0.32812,-4.484375 v -7 h 4.39063 v 16.59375 z m 12.82813,0 h -4.39063 v -16.59375 h 4.07813 v 2.359375 q 1.04687,-1.671875 1.875,-2.203125 0.84375,-0.53125 1.90625,-0.53125 1.5,0 2.89062,0.828125 l -1.35937,3.828125 q -1.10938,-0.71875 -2.0625,-0.71875 -0.92188,0 -1.5625,0.515625 -0.64063,0.5 -1.01563,1.828125 -0.35937,1.328125 -0.35937,5.5625 z"
       id="path19"
       inkscape:connector-curvature="0"
       style="fill:#ffffff;fill-rule:nonzero" />
    <path
       d="m 207.62733,105.73753 0.66142,671.937"
       id="path21"
       inkscape:connector-curvature="0"
       style="fill:#000000;fill-opacity:0;fill-rule:evenodd" />
    <path
       d="m 207.62733,105.73753 0.66142,671.937"
       id="path23"
       inkscape:connector-curvature="0"
       style="fill-rule:evenodd;stroke:#595959;stroke-width:1;stroke-linecap:butt;stroke-linejoin:round" />
    <path
       d="M 182.28871,443.93176 H 233.6273 V 547.74279 H 182.28871 Z"
       id="path25"
       inkscape:connector-curvature="0"
       style="fill:#3972ce;fill-rule:evenodd" />
    <path
       d="M 182.28871,443.93176 H 233.6273 V 547.74279 H 182.28871 Z"
       id="path27"
       inkscape:connector-curvature="0"
       style="fill-rule:evenodd;stroke:#3972ce;stroke-width:1;stroke-linecap:butt;stroke-linejoin:round" />
    <path
       d="m 522.3465,105.73753 0.66144,671.937"
       id="path29"
       inkscape:connector-curvature="0"
       style="fill:#000000;fill-opacity:0;fill-rule:evenodd" />
    <path
       d="m 522.3465,105.73753 0.66144,671.937"
       id="path31"
       inkscape:connector-curvature="0"
       style="fill-rule:evenodd;stroke:#595959;stroke-width:1;stroke-linecap:butt;stroke-linejoin:round" />
    <path
       d="m 489.3386,105.63254 h 51.33859 V 777.56955 H 489.3386 Z"
       id="path33"
       inkscape:connector-curvature="0"
       style="fill:#86ba0c;fill-rule:evenodd" />
    <path
       d="m 489.3386,105.63254 h 51.33859 V 777.56955 H 489.3386 Z"
       id="path35"
       inkscape:connector-curvature="0"
       style="fill-rule:evenodd;stroke:#86ba0c;stroke-width:1;stroke-linecap:butt;stroke-linejoin:round" />
    <path
       d="m 182.28871,119.52231 h 51.33859 v 42.11024 h -51.33859 z"
       id="path37"
       inkscape:connector-curvature="0"
       style="fill:#3c78d8;fill-rule:evenodd" />
    <path
       d="m 182.28871,119.52231 h 51.33859 v 42.11024 h -51.33859 z"
       id="path39"
       inkscape:connector-curvature="0"
       style="fill-rule:evenodd;stroke:#3c78d8;stroke-width:1;stroke-linecap:butt;stroke-linejoin:round" />
    <path
       d="m 489.00787,185.63255 h 51.33856 v 42.11023 h -51.33856 z"
       id="path41"
       inkscape:connector-curvature="0"
       style="fill:#ffd140;fill-rule:evenodd" />
    <path
       d="m 489.00787,185.63255 h 51.33856 v 42.11023 h -51.33856 z"
       id="path43"
       inkscape:connector-curvature="0"
       style="fill-rule:evenodd;stroke:#ffd140;stroke-width:1;stroke-linecap:butt;stroke-linejoin:round" />
    <path
       d="m 207.95801,161.63255 306.70868,24"
       id="path45"
       inkscape:connector-curvature="0"
       style="fill:#000000;fill-opacity:0;fill-rule:evenodd" />
    <path
       d="m 207.95801,161.63255 288.76352,22.59578"
       id="path47"
       inkscape:connector-curvature="0"
       style="fill-rule:evenodd;stroke:#595959;stroke-width:3;stroke-linecap:butt;stroke-linejoin:round" />
    <path
       d="m 496.33496,189.16843 13.95935,-3.87802 -13.18622,-6.00217 z"
       id="path49"
       inkscape:connector-curvature="0"
       style="fill:#595959;fill-rule:evenodd;stroke:#595959;stroke-width:3;stroke-linecap:butt" />
    <path
       d="m 181.95801,243.74278 h 51.33858 v 119.14961 h -51.33858 z"
       id="path51"
       inkscape:connector-curvature="0"
       style="fill:#3c78d8;fill-rule:evenodd" />
    <path
       d="m 181.95801,243.74278 h 51.33858 v 119.14961 h -51.33858 z"
       id="path53"
       inkscape:connector-curvature="0"
       style="fill-rule:evenodd;stroke:#3c78d8;stroke-width:1;stroke-linecap:butt;stroke-linejoin:round" />
    <path
       d="m 514.6772,227.74278 -307.0551,16"
       id="path55"
       inkscape:connector-curvature="0"
       style="fill:#000000;fill-opacity:0;fill-rule:evenodd" />
    <path
       d="M 514.6772,227.74278 225.59767,242.8061"
       id="path57"
       inkscape:connector-curvature="0"
       style="fill-rule:evenodd;stroke:#595959;stroke-width:3;stroke-linecap:butt;stroke-linejoin:round" />
    <path
       d="m 225.3398,237.85762 -13.33798,5.65694 13.8537,4.24003 z"
       id="path59"
       inkscape:connector-curvature="0"
       style="fill:#595959;fill-rule:evenodd;stroke:#595959;stroke-width:3;stroke-linecap:butt" />
    <path
       d="m 314.93964,183.52231 h 124.97638 v 32.22047 H 314.93964 Z"
       id="path61"
       inkscape:connector-curvature="0"
       style="fill:#000000;fill-opacity:0;fill-rule:evenodd" />
    <path
       d="m 330.25214,218.12231 v -16.0625 h -5.73438 v -3.26563 h 15.35938 v 3.26563 h -5.71875 v 16.0625 z m 11.93893,0 v -19.32813 h 6.26563 q 3.54687,0 4.64062,0.29688 1.65625,0.42187 2.76563,1.89062 1.125,1.45313 1.125,3.76563 0,1.76562 -0.64063,2.98437 -0.64062,1.21875 -1.64062,1.90625 -1,0.6875 -2.03125,0.92188 -1.39063,0.26562 -4.04688,0.26562 h -2.54687 v 7.29688 z m 3.89063,-16.0625 v 5.48437 h 2.14062 q 2.3125,0 3.07813,-0.29687 0.78125,-0.3125 1.21875,-0.95313 0.45312,-0.64062 0.45312,-1.5 0,-1.0625 -0.625,-1.73437 -0.60937,-0.6875 -1.5625,-0.85938 -0.70312,-0.14062 -2.8125,-0.14062 z m 29.43576,13.60937 q 1.4375,1.03125 3.125,1.64063 l -1.4375,2.75 q -0.875,-0.26563 -1.71875,-0.71875 -0.1875,-0.0937 -2.59375,-1.71875 -1.90625,0.82812 -4.21875,0.82812 -4.45313,0 -6.98438,-2.625 -2.51562,-2.625 -2.51562,-7.35937 0,-4.73438 2.53125,-7.35938 2.53125,-2.64062 6.875,-2.64062 4.29687,0 6.8125,2.64062 2.51562,2.625 2.51562,7.35938 0,2.5 -0.70312,4.39062 -0.51563,1.45313 -1.6875,2.8125 z m -3.125,-2.20312 q 0.75,-0.875 1.125,-2.125 0.375,-1.26563 0.375,-2.875 0,-3.35938 -1.48438,-5.01563 -1.46875,-1.65625 -3.85937,-1.65625 -2.39063,0 -3.875,1.67188 -1.48438,1.65625 -1.48438,5 0,3.375 1.48438,5.0625 1.48437,1.6875 3.75,1.6875 0.84375,0 1.60937,-0.28125 -1.1875,-0.78125 -2.42187,-1.21875 l 1.09375,-2.21875 q 1.92187,0.65625 3.6875,1.96875 z m 16.96847,4.65625 h -3.70312 v -13.96875 q -2.03125,1.90625 -4.78125,2.8125 v -3.35938 q 1.45312,-0.46875 3.14062,-1.79687 1.70313,-1.32813 2.34375,-3.09375 h 3 z m 6.13742,0 v -3.70313 h 3.70313 v 3.70313 z m 16.09348,0 h -3.70313 v -13.96875 q -2.03125,1.90625 -4.78125,2.8125 v -3.35938 q 1.45313,-0.46875 3.14063,-1.79687 1.70312,-1.32813 2.34375,-3.09375 h 3 z"
       id="path63"
       inkscape:connector-curvature="0"
       style="fill:#3c78d8;fill-rule:nonzero" />
    <path
       d="m 489.00787,385.63254 h 51.33856 v 42.11023 h -51.33856 z"
       id="path65"
       inkscape:connector-curvature="0"
       style="fill:#ffd140;fill-rule:evenodd" />
    <path
       d="m 489.00787,385.63254 h 51.33856 v 42.11023 h -51.33856 z"
       id="path67"
       inkscape:connector-curvature="0"
       style="fill-rule:evenodd;stroke:#ffd140;stroke-width:1;stroke-linecap:butt;stroke-linejoin:round" />
    <path
       d="m 207.6273,362.8924 307.0551,22.74014"
       id="path69"
       inkscape:connector-curvature="0"
       style="fill:#000000;fill-opacity:0;fill-rule:evenodd" />
    <path
       d="m 207.6273,362.8924 289.1043,21.41071"
       id="path71"
       inkscape:connector-curvature="0"
       style="fill-rule:evenodd;stroke:#595959;stroke-width:3;stroke-linecap:butt;stroke-linejoin:round" />
    <path
       d="m 496.3656,389.24478 13.94308,-3.93616 -13.21112,-5.94717 z"
       id="path73"
       inkscape:connector-curvature="0"
       style="fill:#595959;fill-rule:evenodd;stroke:#595959;stroke-width:3;stroke-linecap:butt" />
    <path
       d="m 306.93964,375.5223 h 124.97638 v 32.22046 H 306.93964 Z"
       id="path75"
       inkscape:connector-curvature="0"
       style="fill:#000000;fill-opacity:0;fill-rule:evenodd" />
    <path
       d="m 322.25214,410.1223 v -16.0625 h -5.73438 v -3.26563 h 15.35938 v 3.26563 h -5.71875 v 16.0625 z m 11.93893,0 v -19.32813 h 6.26563 q 3.54687,0 4.64062,0.29688 1.65625,0.42187 2.76563,1.89062 1.125,1.45313 1.125,3.76563 0,1.76562 -0.64063,2.98437 -0.64062,1.21875 -1.64062,1.90625 -1,0.6875 -2.03125,0.92188 -1.39063,0.26562 -4.04688,0.26562 h -2.54687 v 7.29688 z m 3.89063,-16.0625 v 5.48437 h 2.14062 q 2.3125,0 3.07813,-0.29687 0.78125,-0.3125 1.21875,-0.95313 0.45312,-0.64062 0.45312,-1.5 0,-1.0625 -0.625,-1.73437 -0.60937,-0.6875 -1.5625,-0.85938 -0.70312,-0.14062 -2.8125,-0.14062 z m 29.43576,13.60937 q 1.4375,1.03125 3.125,1.64063 l -1.4375,2.75 q -0.875,-0.26563 -1.71875,-0.71875 -0.1875,-0.0937 -2.59375,-1.71875 -1.90625,0.82812 -4.21875,0.82812 -4.45313,0 -6.98438,-2.625 -2.51562,-2.625 -2.51562,-7.35937 0,-4.73438 2.53125,-7.35938 2.53125,-2.64062 6.875,-2.64062 4.29687,0 6.8125,2.64062 2.51562,2.625 2.51562,7.35938 0,2.5 -0.70312,4.39062 -0.51563,1.45313 -1.6875,2.8125 z m -3.125,-2.20312 q 0.75,-0.875 1.125,-2.125 0.375,-1.26563 0.375,-2.875 0,-3.35938 -1.48438,-5.01563 -1.46875,-1.65625 -3.85937,-1.65625 -2.39063,0 -3.875,1.67188 -1.48438,1.65625 -1.48438,5 0,3.375 1.48438,5.0625 1.48437,1.6875 3.75,1.6875 0.84375,0 1.60937,-0.28125 -1.1875,-0.78125 -2.42187,-1.21875 l 1.09375,-2.21875 q 1.92187,0.65625 3.6875,1.96875 z m 16.96847,4.65625 h -3.70312 v -13.96875 q -2.03125,1.90625 -4.78125,2.8125 v -3.35938 q 1.45312,-0.46875 3.14062,-1.79687 1.70313,-1.32813 2.34375,-3.09375 h 3 z m 6.13742,0 v -3.70313 h 3.70313 v 3.70313 z m 19.12473,-3.4375 v 3.4375 H 393.6387 q 0.21875,-1.95313 1.26563,-3.6875 1.0625,-1.75 4.17187,-4.64063 2.5,-2.34375 3.0625,-3.17187 0.76563,-1.14063 0.76563,-2.26563 0,-1.23437 -0.67188,-1.89062 -0.65625,-0.67188 -1.82812,-0.67188 -1.15625,0 -1.84375,0.70313 -0.6875,0.6875 -0.79688,2.3125 l -3.6875,-0.375 q 0.32813,-3.0625 2.0625,-4.39063 1.75,-1.32812 4.35938,-1.32812 2.85937,0 4.48437,1.54687 1.64063,1.53125 1.64063,3.82813 0,1.3125 -0.46875,2.5 -0.46875,1.17187 -1.48438,2.45312 -0.67187,0.85938 -2.42187,2.46875 -1.75,1.60938 -2.21875,2.14063 -0.46875,0.53125 -0.76563,1.03125 z"
       id="path77"
       inkscape:connector-curvature="0"
       style="fill:#3c78d8;fill-rule:nonzero" />
    <path
       d="M 514.6772,427.74277 207.96852,443.93176"
       id="path79"
       inkscape:connector-curvature="0"
       style="fill:#000000;fill-opacity:0;fill-rule:evenodd" />
    <path
       d="m 514.6772,427.74277 -288.7337,15.2402"
       id="path81"
       inkscape:connector-curvature="0"
       style="fill-rule:evenodd;stroke:#595959;stroke-width:3;stroke-linecap:butt;stroke-linejoin:round" />
    <path
       d="m 225.6823,438.03467 -13.33418,5.66592 13.85655,4.23072 z"
       id="path83"
       inkscape:connector-curvature="0"
       style="fill:#595959;fill-rule:evenodd;stroke:#595959;stroke-width:3;stroke-linecap:butt" />
    <path
       d="m 182.28871,140.57742 v 355.2756"
       id="path85"
       inkscape:connector-curvature="0"
       style="fill:#000000;fill-opacity:0;fill-rule:evenodd" />
    <path
       d="m 182.28871,140.57742 v 355.2756"
       id="path87"
       inkscape:connector-curvature="0"
       style="fill-rule:evenodd;stroke:#3972ce;stroke-width:8;stroke-linecap:butt;stroke-linejoin:round" />
    <path
       d="m 116.17323,253.97375 h 71.1496 v 63.21258 h -71.1496 z"
       id="path89"
       inkscape:connector-curvature="0"
       style="fill:#000000;fill-opacity:0;fill-rule:evenodd" />
    <path
       d="m 151.12636,297.73312 q 2.14062,1.53125 4.64062,2.42187 l -2.14062,4.09375 q -1.29688,-0.39062 -2.54688,-1.07812 -0.28125,-0.14063 -3.85937,-2.54688 -2.8125,1.23438 -6.21875,1.23438 -6.60938,0 -10.35938,-3.875 -3.73438,-3.89063 -3.73438,-10.92188 0,-7.01562 3.75001,-10.90625 3.75,-3.90625 10.1875,-3.90625 6.35937,0 10.09375,3.90625 3.73437,3.89063 3.73437,10.90625 0,3.70313 -1.04687,6.51563 -0.78125,2.15625 -2.5,4.15625 z m -4.64063,-3.25 q 1.10938,-1.3125 1.65625,-3.17188 0.5625,-1.85937 0.5625,-4.25 0,-4.96875 -2.1875,-7.42187 -2.1875,-2.45313 -5.71875,-2.45313 -3.53125,0 -5.73437,2.46875 -2.1875,2.45313 -2.1875,7.40625 0,5.01563 2.1875,7.51563 2.20312,2.48437 5.5625,2.48437 1.25,0 2.35937,-0.42187 -1.75,-1.14063 -3.57812,-1.79688 l 1.625,-3.29687 q 2.85937,0.98437 5.45312,2.9375 z"
       id="path91"
       inkscape:connector-curvature="0"
       style="fill:#3972ce;fill-rule:nonzero" />
    <path
       d="m 166.91151,316.37375 h -3.70313 V 302.405 q -2.03125,1.90625 -4.78125,2.8125 v -3.35938 q 1.45313,-0.46875 3.14063,-1.79687 1.70312,-1.32813 2.34375,-3.09375 h 3 z"
       id="path93"
       inkscape:connector-curvature="0"
       style="fill:#3972ce;fill-rule:nonzero" />
    <path
       d="m 181.95801,586.8916 h 51.33858 v 42.11023 h -51.33858 z"
       id="path95"
       inkscape:connector-curvature="0"
       style="fill:#06b1d2;fill-rule:evenodd" />
    <path
       d="m 181.95801,586.8916 h 51.33858 v 42.11023 h -51.33858 z"
       id="path97"
       inkscape:connector-curvature="0"
       style="fill-rule:evenodd;stroke:#06b1d2;stroke-width:1;stroke-linecap:butt;stroke-linejoin:round" />
    <path
       d="m 181.95801,722.8916 h 51.33858 v 42.11023 h -51.33858 z"
       id="path99"
       inkscape:connector-curvature="0"
       style="fill:#06b1d2;fill-rule:evenodd" />
    <path
       d="m 181.95801,722.8916 h 51.33858 v 42.11023 h -51.33858 z"
       id="path101"
       inkscape:connector-curvature="0"
       style="fill-rule:evenodd;stroke:#06b1d2;stroke-width:1;stroke-linecap:butt;stroke-linejoin:round" />
    <path
       d="m 181.95801,607.9467 v 136"
       id="path103"
       inkscape:connector-curvature="0"
       style="fill:#000000;fill-opacity:0;fill-rule:evenodd" />
    <path
       d="m 181.95801,607.9467 v 136"
       id="path105"
       inkscape:connector-curvature="0"
       style="fill-rule:evenodd;stroke:#06b1d2;stroke-width:8;stroke-linecap:butt;stroke-linejoin:round" />
    <path
       d="m 116.17323,613.97375 h 71.1496 v 63.21258 h -71.1496 z"
       id="path107"
       inkscape:connector-curvature="0"
       style="fill:#000000;fill-opacity:0;fill-rule:evenodd" />
    <path
       d="m 151.12636,657.73315 q 2.14062,1.53125 4.64062,2.42188 l -2.14062,4.09375 q -1.29688,-0.39063 -2.54688,-1.07813 -0.28125,-0.14062 -3.85937,-2.54687 -2.8125,1.23437 -6.21875,1.23437 -6.60938,0 -10.35938,-3.875 -3.73438,-3.89062 -3.73438,-10.92187 0,-7.01563 3.75001,-10.90625 3.75,-3.90625 10.1875,-3.90625 6.35937,0 10.09375,3.90625 3.73437,3.89062 3.73437,10.90625 0,3.70312 -1.04687,6.51562 -0.78125,2.15625 -2.5,4.15625 z m -4.64063,-3.25 q 1.10938,-1.3125 1.65625,-3.17187 0.5625,-1.85938 0.5625,-4.25 0,-4.96875 -2.1875,-7.42188 -2.1875,-2.45312 -5.71875,-2.45312 -3.53125,0 -5.73437,2.46875 -2.1875,2.45312 -2.1875,7.40625 0,5.01562 2.1875,7.51562 2.20312,2.48438 5.5625,2.48438 1.25,0 2.35937,-0.42188 -1.75,-1.14062 -3.57812,-1.79687 l 1.625,-3.29688 q 2.85937,0.98438 5.45312,2.9375 z"
       id="path109"
       inkscape:connector-curvature="0"
       style="fill:#06b1d2;fill-rule:nonzero" />
    <path
       d="m 169.94276,672.9363 v 3.4375 h -12.98438 q 0.21875,-1.95313 1.26563,-3.6875 1.0625,-1.75 4.17187,-4.64063 2.5,-2.34375 3.0625,-3.17187 0.76563,-1.14063 0.76563,-2.26563 0,-1.23437 -0.67188,-1.89062 -0.65625,-0.67188 -1.82812,-0.67188 -1.15625,0 -1.84375,0.70313 -0.6875,0.6875 -0.79688,2.3125 l -3.6875,-0.375 q 0.32813,-3.0625 2.0625,-4.39063 1.75,-1.32812 4.35938,-1.32812 2.85937,0 4.48437,1.54687 1.64063,1.53125 1.64063,3.82813 0,1.3125 -0.46875,2.5 -0.46875,1.17187 -1.48438,2.45312 -0.67187,0.85938 -2.42187,2.46875 -1.75,1.60938 -2.21875,2.14063 -0.46875,0.53125 -0.76563,1.03125 z"
       id="path111"
       inkscape:connector-curvature="0"
       style="fill:#06b1d2;fill-rule:nonzero" />
    <path
       d="m 489.00787,657.63257 h 51.33856 v 42.11023 h -51.33856 z"
       id="path113"
       inkscape:connector-curvature="0"
       style="fill:#ffd140;fill-rule:evenodd" />
    <path
       d="m 489.00787,657.63257 h 51.33856 v 42.11023 h -51.33856 z"
       id="path115"
       inkscape:connector-curvature="0"
       style="fill-rule:evenodd;stroke:#ffd140;stroke-width:1;stroke-linecap:butt;stroke-linejoin:round" />
    <path
       d="m 207.6273,629.00183 307.0551,28.62994"
       id="path117"
       inkscape:connector-curvature="0"
       style="fill:#000000;fill-opacity:0;fill-rule:evenodd" />
    <path
       d="m 207.6273,629.00183 289.13287,26.95886"
       id="path119"
       inkscape:connector-curvature="0"
       style="fill-rule:evenodd;stroke:#595959;stroke-width:3;stroke-linecap:butt;stroke-linejoin:round" />
    <path
       d="m 496.3001,660.8945 14.01553,-3.66986 -13.09546,-6.19769 z"
       id="path121"
       inkscape:connector-curvature="0"
       style="fill:#595959;fill-rule:evenodd;stroke:#595959;stroke-width:3;stroke-linecap:butt" />
    <path
       d="M 514.6772,699.7428 207.6221,722.8924"
       id="path123"
       inkscape:connector-curvature="0"
       style="fill:#000000;fill-opacity:0;fill-rule:evenodd" />
    <path
       d="M 514.6772,699.7428 225.57112,721.53919"
       id="path125"
       inkscape:connector-curvature="0"
       style="fill-rule:evenodd;stroke:#595959;stroke-width:3;stroke-linecap:butt;stroke-linejoin:round" />
    <path
       d="m 225.19858,716.598 -13.20323,5.96466 13.94829,3.91766 z"
       id="path127"
       inkscape:connector-curvature="0"
       style="fill:#595959;fill-rule:evenodd;stroke:#595959;stroke-width:3;stroke-linecap:butt" />
    <path
       d="M 306.93964,655.52234 H 431.91602 V 687.7428 H 306.93964 Z"
       id="path129"
       inkscape:connector-curvature="0"
       style="fill:#000000;fill-opacity:0;fill-rule:evenodd" />
    <path
       d="m 322.25214,690.1223 v -16.0625 h -5.73438 v -3.26563 h 15.35938 v 3.26563 h -5.71875 v 16.0625 z m 11.93893,0 v -19.32813 h 6.26563 q 3.54687,0 4.64062,0.29688 1.65625,0.42187 2.76563,1.89062 1.125,1.45313 1.125,3.76563 0,1.76562 -0.64063,2.98437 -0.64062,1.21875 -1.64062,1.90625 -1,0.6875 -2.03125,0.92188 -1.39063,0.26562 -4.04688,0.26562 h -2.54687 v 7.29688 z m 3.89063,-16.0625 v 5.48437 h 2.14062 q 2.3125,0 3.07813,-0.29687 0.78125,-0.3125 1.21875,-0.95313 0.45312,-0.64062 0.45312,-1.5 0,-1.0625 -0.625,-1.73437 -0.60937,-0.6875 -1.5625,-0.85938 -0.70312,-0.14062 -2.8125,-0.14062 z m 29.43576,13.60937 q 1.4375,1.03125 3.125,1.64063 l -1.4375,2.75 q -0.875,-0.26563 -1.71875,-0.71875 -0.1875,-0.0937 -2.59375,-1.71875 -1.90625,0.82812 -4.21875,0.82812 -4.45313,0 -6.98438,-2.625 -2.51562,-2.625 -2.51562,-7.35937 0,-4.73438 2.53125,-7.35938 2.53125,-2.64062 6.875,-2.64062 4.29687,0 6.8125,2.64062 2.51562,2.625 2.51562,7.35938 0,2.5 -0.70312,4.39062 -0.51563,1.45313 -1.6875,2.8125 z m -3.125,-2.20312 q 0.75,-0.875 1.125,-2.125 0.375,-1.26563 0.375,-2.875 0,-3.35938 -1.48438,-5.01563 -1.46875,-1.65625 -3.85937,-1.65625 -2.39063,0 -3.875,1.67188 -1.48438,1.65625 -1.48438,5 0,3.375 1.48438,5.0625 1.48437,1.6875 3.75,1.6875 0.84375,0 1.60937,-0.28125 -1.1875,-0.78125 -2.42187,-1.21875 l 1.09375,-2.21875 q 1.92187,0.65625 3.6875,1.96875 z m 19.99972,1.21875 v 3.4375 h -12.98437 q 0.21875,-1.95313 1.26562,-3.6875 1.0625,-1.75 4.17188,-4.64063 2.5,-2.34375 3.0625,-3.17187 0.76562,-1.14063 0.76562,-2.26563 0,-1.23437 -0.67187,-1.89062 -0.65625,-0.67188 -1.82813,-0.67188 -1.15625,0 -1.84375,0.70313 -0.6875,0.6875 -0.79687,2.3125 l -3.6875,-0.375 q 0.32812,-3.0625 2.0625,-4.39063 1.75,-1.32812 4.35937,-1.32812 2.85938,0 4.48438,1.54687 1.64062,1.53125 1.64062,3.82813 0,1.3125 -0.46875,2.5 -0.46875,1.17187 -1.48437,2.45312 -0.67188,0.85938 -2.42188,2.46875 -1.75,1.60938 -2.21875,2.14063 -0.46875,0.53125 -0.76562,1.03125 z m 3.10617,3.4375 v -3.70313 h 3.70313 v 3.70313 z m 16.09348,0 h -3.70313 v -13.96875 q -2.03125,1.90625 -4.78125,2.8125 v -3.35938 q 1.45313,-0.46875 3.14063,-1.79687 1.70312,-1.32813 2.34375,-3.09375 h 3 z"
       id="path131"
       inkscape:connector-curvature="0"
       style="fill:#06b1d2;fill-rule:nonzero" />
  </g>
  <rect
     id="rect143"
     width="805.29132"
     height="784.28345"
     x="0"
     y="0" />
  <path
     style="fill:#ffffff"
     id="path74"
     d="m -6.5751631,122.17899 c 0.3564628,-7.4926 0.2924911,-14.99761 0.2933983,-22.49645 C -6.300249,94.157326 -6.4224612,88.633475 -6.5261404,83.109535 -6.3383532,79.34816 -6.6653882,75.63323 -7.0817951,71.901955 -7.3918871,67.770928 -8.1831702,63.705313 -8.6629038,59.595266 -9.1819714,54.268985 -9.2041124,48.9112 -9.2650928,43.564811 c -0.04988,-5.839708 -0.026492,-11.679498 0.019225,-17.519106 0.00775,-5.830428 -0.00967,-11.661159 -0.068339,-17.4913491 -0.041721,-4.1819238 -0.045914,-8.3643386 -0.032216,-12.5464504 -0.031332,-4.5361167 0.046413,-9.0716495 0.036774,-13.6078145 0,0 18.6193312,-9.487031 18.6193312,-9.487031 v 0 c -0.00956,4.523652 0.068239,9.046663 0.03693,13.570268 0.01378,4.1935174 0.00934,8.3873464 -0.033848,12.58066344 C 9.2517102,4.9205752 9.229067,10.777674 9.2278702,16.634523 c 0.037566,5.818638 0.034729,11.637222 0.056661,17.45592 0.042877,5.26219 0.092375,10.533826 0.6088881,15.775517 0.4838187,4.109428 1.3461747,8.160227 1.6087997,12.294807 0.457165,3.789985 0.964369,7.556198 0.738207,11.386725 -0.103262,5.606964 -0.225054,11.213838 -0.244375,16.822036 8.95e-4,7.399083 -0.06839,14.804932 0.293398,22.197462 0,0 -18.8646119,9.612 -18.8646121,9.612 z"
     inkscape:connector-curvature="0" />
  <path
     style="fill:#ffffff"
     id="path76"
     d="m 8.0200477,110.49443 c -0.2008317,4.95852 -0.1534992,9.92173 -0.1793252,14.88289 -0.010678,5.59225 -8.666e-4,11.18474 0.034383,16.77691 -0.042441,3.79744 0.228722,7.60392 -0.026813,11.39543 -0.3431581,3.28813 -1.2644387,6.4717 -2.0904786,9.66206 -0.9878348,3.87825 -1.7515887,7.81531 -2.50815,11.74558 -0.6399202,3.36046 -0.8527136,6.77279 -0.9498764,10.18501 -0.034588,2.62836 -0.057319,5.25671 -0.031413,7.88524 -0.00349,2.86838 -0.1755435,5.73467 0.326044,8.56968 0.3975061,2.51231 0.8587593,5.01871 1.0041066,7.56053 0.1041628,2.54469 -0.00183,5.07016 0.4375484,7.58648 0.6365801,2.45427 0.7522733,4.99075 1.0876062,7.49203 0.5051583,2.59418 1.0363223,5.17824 1.25756,7.81503 0.2190424,3.00519 0.1506749,6.0194 0.1542729,9.02991 -0.019893,4.07336 -0.055678,8.14649 -0.041113,12.21992 0.00683,2.81299 0.1104429,5.6232 0.071646,8.4362 0.032629,2.19638 0.024269,4.39263 0.01176,6.58915 0.00426,2.46995 -0.020596,4.94001 -0.00877,7.40982 0.040463,2.4369 -0.00228,4.87414 -0.01793,7.3112 -2.253e-4,2.92877 -0.025736,5.85791 0.014175,8.78649 0.017518,2.51867 0.00295,5.03743 -0.00316,7.55613 0.3212271,2.32115 0.8094945,4.61247 1.1311284,6.93712 0.2743725,3.45438 0.2381556,6.92739 0.2335675,10.39055 -0.022404,5.0672 0.6182105,10.10987 0.9365637,15.16404 0.2968821,6.38741 0.3238935,12.78335 0.371737,19.17634 -0.036489,8.11118 -0.078962,16.2223 -0.1227079,24.33344 -0.032401,4.41332 0.00221,8.82646 0.048944,13.23947 0,0 -18.3185963,9.33322 -18.3185963,9.33322 v 0 c 0.048617,-4.43103 0.085851,-8.86218 0.056678,-13.29356 -0.037804,-8.0625 -0.060975,-16.12514 -0.139298,-24.18739 -0.016358,-6.34366 -0.046617,-12.69104 -0.4013218,-19.0267 -0.3160354,-5.07397 -0.9874062,-10.12362 -1.1308902,-15.2015 -0.03263,-3.3622 -0.02277,-6.73067 -0.296128,-10.08426 -0.245936,-2.42453 -0.737298,-4.79403 -1.208212,-7.18206 -0.0061,-2.51762 -0.02067,-5.03531 -0.0032,-7.55291 0.03943,-2.93341 0.01477,-5.86735 0.01418,-8.80094 -0.01571,-2.43097 -0.05843,-4.8621 -0.01794,-7.29291 0.01174,-2.46682 -0.01297,-4.93388 -0.0089,-7.40082 -0.01266,-2.20063 -0.02086,-4.40098 0.01188,-6.60146 -0.03914,-2.83884 0.0688,-5.67487 0.07778,-8.51367 0.01985,-4.0606 -0.0053,-8.12106 -0.02421,-12.18161 -0.0051,-2.94623 -0.03428,-5.8939 -0.170057,-8.83726 -0.192222,-2.58178 -0.562214,-5.13803 -1.137212,-7.66458 -0.498965,-2.46137 -0.454626,-5.002 -1.096824,-7.44593 -0.52054,-2.59594 -0.579251,-5.17104 -0.580842,-7.81825 -0.142496,-2.46448 -0.385473,-4.92543 -0.85745,-7.35118 -0.534794,-2.95269 -0.553274,-5.89281 -0.511316,-8.89042 0.01392,-2.65684 -0.04028,-5.3152 0.04877,-7.97095 0.112168,-3.52117 0.267283,-7.04963 0.899927,-10.52359 0.721513,-3.97465 1.562458,-7.92773 2.418288,-11.87239 0.830289,-3.09175 1.603576,-6.20219 2.166242,-9.35004 0.582317,-3.71742 0.09316,-7.53635 0.31495,-11.28477 0.0351,-5.60385 0.04512,-11.20802 0.03438,-16.81195 -0.02564,-4.90023 0.02374,-9.80266 -0.179326,-14.70015 0,0 18.8972383,-9.62862 18.8972383,-9.62862 z"
     inkscape:connector-curvature="0" />
  <path
     style="fill:#ffffff"
     id="path78"
     d="m 9.4323059,389.24505 c -0.279691,7.2201 -0.3140082,14.44755 -0.3168471,21.67221 -0.0073,9.10714 -0.030048,18.21425 0.016868,27.32133 0.2028438,7.83529 -0.171541,15.66176 -0.9339014,23.45835 -0.8929001,7.21833 -1.3897171,14.46978 -1.643173,21.73586 0.023959,5.61068 -0.2027749,11.19389 -0.7101457,16.7798 -0.2838593,4.4284 -0.7608416,8.82322 -1.3469769,13.22011 -0.4747088,5.0693 -1.1725388,10.11279 -1.691066,15.17747 -0.4732439,5.04142 -0.5815339,10.10809 -0.6205353,15.16863 -0.00601,3.69345 0.03522,7.38674 0.058379,11.08008 -0.00212,3.24569 -0.00398,6.4914 0.00548,9.73716 -0.1171733,3.03213 0.1024615,6.04793 0.8130973,9.00087 0.033724,0.0209 0.067447,0.0418 0.1011709,0.0627 -6.2227372,3.02224 -12.183781,6.65663 -18.6682117,9.06672 -0.702663,0.26116 0.21604,-1.48456 0.278147,-2.23161 0.10871,-1.30761 0.1741,-2.61866 0.234057,-3.92941 0.160129,-3.50064 0.310547,-9.56231 0.401312,-12.80649 0.338231,-17.50752 -0.420643,-35.01423 -0.906297,-52.51287 -0.31946,-11.95026 -0.576627,-23.90189 -0.756902,-35.85502 -0.24958,-7.01295 -0.186485,-13.99248 0.641939,-20.96255 0.959663,-6.0883 2.373038,-12.08843 3.551515,-18.13407 1.068694,-5.95941 1.19548,-12.01974 1.933584,-18.02157 0.6087418,-5.68661 1.9724962,-11.23131 3.5080909,-16.72482 0.8827943,-2.83738 1.2360218,-5.78266 1.4218258,-8.73551 0.3679918,-10.0201 -2.2589204,-5.31741 18.9426973,-12.37445 0.7027,-0.2339 -0.06991,1.47956 -0.104865,2.21934 -0.434768,12.65425 -0.570353,25.31513 -0.67459,37.97563 -0.146365,19.76191 -0.119306,39.52424 -0.04088,59.28634 0.03452,16.197 0.07271,32.39435 0.285913,48.59016 0.07891,5.54214 0.189619,11.08421 0.340868,16.62487 0,0 -18.5342941,9.44369 -18.5342941,9.44369 v 0 c 0.1502246,-5.65649 0.2614915,-11.3143 0.3408263,-16.9722 0.2115718,-16.29289 0.2516693,-32.58726 0.2855125,-48.88131 0.077844,-19.74847 0.1052774,-39.49716 -0.039755,-59.24544 -0.101296,-12.43862 -0.2398741,-24.87712 -0.6444039,-37.31016 -0.030791,-0.70903 -0.6776649,-1.72571 -0.092373,-2.12709 21.2778702,-14.59165 18.9428502,-17.05742 18.8420362,-6.73874 -0.131794,3.12384 -0.514888,6.24348 -1.340871,9.26589 -1.77588,5.4084 -3.3156665,10.89487 -3.9901314,16.56644 -0.7833344,6.00881 -0.6504939,12.07557 -1.6745627,18.05516 -1.2109613,6.03067 -2.6918913,12.00323 -3.7557438,18.06493 -0.8792324,6.92141 -1.0535851,13.86537 -0.9749043,20.83951 -0.09002,12.06052 -0.1370929,24.12215 0.038418,36.18222 0.2678073,17.49109 0.871329,34.974 1.110993,52.46476 0.086489,4.16811 0.1619781,8.33644 0.2544288,12.50442 0.028258,1.27393 0.060158,2.5478 0.097457,3.8215 0.022462,0.76703 0.7110324,1.86138 0.081823,2.30063 -5.9669057,4.16544 -12.5164215,7.43698 -18.9370156,10.86202 -0.19853,0.10591 -0.165524,-0.41847 -0.248286,-0.62771 -0.543466,-3.11784 -1.075708,-6.25632 -0.909512,-9.43305 0.0071,-3.24395 0.002,-6.48778 -0.011,-9.73164 0.01209,-3.72903 0.0376,-7.45801 0.09317,-11.18668 0.07312,-5.12054 0.14175,-10.24513 0.574647,-15.35119 0.488035,-5.07143 1.235925,-10.11264 1.603865,-15.19437 0.516477,-4.39569 1.161784,-8.76062 1.389229,-13.18705 0.630571,-5.57775 0.959108,-11.1456 0.977384,-16.76216 0.278753,-7.3143 0.703627,-14.62477 1.648984,-21.88807 0.8152579,-7.74562 1.2596682,-15.5328 1.1288865,-23.32373 0.0467,-9.11281 0.02434,-18.22565 0.016868,-27.33852 -0.0028,-7.11699 -0.032721,-14.23708 -0.3168471,-21.34933 0,0 18.8646118,-9.612 18.8646118,-9.612 z"
     inkscape:connector-curvature="0" />
  <path
     style="fill:#ffffff"
     id="path80"
     d="m 6.5914763,570.49443 c -0.1780191,4.16509 -0.1021087,8.33575 -0.099573,12.50326 0.027901,3.1381 0.060328,6.27624 0.06704,9.41457 0.026687,2.90963 -0.021796,5.81812 -0.029203,8.72771 6.5e-4,3.14829 0.011662,6.29656 0.017349,9.44485 0.033662,2.76825 -0.014552,5.53654 0.018483,8.3048 0.047415,2.414 0.00167,4.82756 -0.01051,7.24165 -0.00106,2.4374 0.1026321,4.87625 -0.076816,7.30862 -0.7730236,2.46291 -1.7796201,4.79469 -2.2823278,7.35185 -0.5277922,2.47211 -0.4673634,4.68978 0.3712624,7.05079 1.0754361,2.70887 1.532143,5.57181 1.7999374,8.45588 0.2731571,2.35228 0.2219091,4.71784 0.2113616,7.08042 0.0021,2.84276 -0.023819,5.68569 -0.027234,8.52864 0.036966,2.52231 0.020277,5.04501 0.013551,7.56747 -0.00804,3.34435 -0.046414,6.68843 -0.070674,10.03271 0.011922,4.54953 -0.027715,9.09864 -0.058626,13.64798 -0.07428,6.32585 -0.05263,12.65222 -0.054247,18.97841 0.00284,6.22908 0.02612,12.45815 0.011896,18.68717 -0.027731,5.33303 0.037856,10.66561 0.098561,15.99814 0.038687,3.20805 0.052729,6.41631 0.059383,9.62457 0.02224,2.63 0.00157,5.26004 0.01691,7.88988 -0.0474,2.60482 0.6176418,5.15053 0.9631699,7.72101 0,0 -18.7061188,9.83221 -18.7061188,9.83221 v 0 c -0.320405,-2.66007 -1.040628,-5.27491 -1.107335,-7.94852 0.01528,-2.63559 -0.0052,-5.27137 0.01691,-7.90711 0.0067,-3.22843 0.02087,-6.45686 0.05938,-9.68509 0.06039,-5.36601 0.126071,-10.73207 0.09856,-16.09857 -0.01427,-6.23307 0.0091,-12.46618 0.0119,-18.69929 -0.0016,-6.30777 0.02027,-12.61571 -0.05425,-18.92313 -0.031,-4.5294 -0.07066,-9.05857 -0.05874,-13.58816 -0.02433,-3.32035 -0.063,-6.64049 -0.07071,-9.96091 -0.0063,-2.52918 -0.02222,-5.05865 0.02072,-7.5876 0.0035,-2.83792 -0.01013,-5.67598 0.004,-8.51371 -0.01081,-2.31078 -0.03314,-4.6226 -0.121146,-6.93176 -0.192928,-2.70524 -0.523426,-5.40678 -1.543544,-7.94493 -1.080897,-2.84523 -1.462069,-4.98785 -0.866013,-8.029 0.35217,-2.49853 0.746755,-5.2019 2.250945,-7.29433 0.561279,-2.28648 0.08447,-4.71468 0.264947,-7.05212 -0.01223,-2.41053 -0.05796,-4.8205 -0.01051,-7.23094 0.03271,-2.77454 -0.01495,-5.54911 0.01848,-8.32364 0.0057,-3.15418 0.01669,-6.30835 0.01735,-9.46253 -0.0074,-2.89967 -0.056,-5.79823 -0.0292,-8.69795 0.0067,-3.1611 0.03924,-6.32201 0.06704,-9.48289 0.0025,-4.13365 0.08013,-8.27067 -0.09957,-12.40179 0,0 18.8972379,-9.62862 18.8972379,-9.62862 z"
     inkscape:connector-curvature="0" />
  <path
     style="fill:#ffffff"
     id="path82"
     d="m 6.8478386,779.79317 c 5.1868454,0.82389 10.3154974,1.96801 15.4835304,2.90363 3.810699,0.55734 7.506165,1.66001 11.315792,2.23665 2.587789,0.31323 5.199913,0.28707 7.801912,0.31369 2.760248,0.0145 5.520357,-0.017 8.280394,-0.0415 2.495723,-0.0282 4.99133,0.0128 7.487061,0.0241 11.312756,0.21219 10.681974,-3.66669 -12.546707,12.44253 -3.860827,-0.0776 -7.722535,-0.0885 -11.583903,-0.11957 -5.56309,0.11465 -11.091157,0.0422 -16.577129,-0.94492 -3.444588,-0.952 -7.2520323,-0.72601 -10.471486,-2.37425 -6.29246181,-7.15876 17.075891,-12.77569 17.815867,-13.18557 0.313649,-0.17374 3.207371,-0.0798 3.722721,-0.10068 2.921176,-0.0625 5.843523,-0.0222 8.76521,-0.0178 3.02017,0.004 6.040343,0.004 9.060514,0.004 2.78883,8.1e-4 5.577449,-0.008 8.366236,-5.8e-4 3.486695,0.24783 6.898938,-0.32343 10.350201,-0.70226 3.621829,-0.4668 7.276451,-0.60182 10.923984,-0.68919 3.096195,-0.0507 6.193197,-0.0635 9.28954,-0.0237 3.331821,-0.0109 6.663575,-8.8e-4 9.995371,0.004 3.71731,0.007 7.434603,0.004 11.151883,0.0232 4.14094,-0.579 8.2904,-1.01017 12.46682,-1.2106 4.11288,-0.19427 8.23105,-0.21468 12.34762,-0.24294 3.07291,-0.0255 6.14564,-0.0199 9.21859,-0.016 3.18062,-0.003 6.36117,0.008 9.54172,0.0267 2.25711,0.0377 4.51457,0.0296 6.77187,0.0258 0,0 -16.94439,12.31078 -16.94439,12.31078 v 0 c -2.28089,-0.004 -4.56194,-0.0116 -6.84265,0.0253 -3.20225,0.0178 -6.4045,0.0279 -9.60679,0.0182 -3.0501,-0.003 -6.09995,-0.0102 -9.15001,-0.019 -4.07139,0.01 -8.14451,0.0479 -12.2101,0.28681 -4.198499,0.30452 -8.365609,0.91308 -12.568763,1.12881 -3.73786,0.0185 -7.475727,0.0166 -11.213613,0.0205 -3.32865,0.002 -6.657239,0.006 -9.985885,-0.0114 -3.092935,0.0355 -6.186556,0.008 -9.278954,0.0892 -3.588713,0.11236 -7.173041,0.32369 -10.736723,0.77977 -3.526343,0.42821 -7.051286,0.73566 -10.609071,0.59172 -2.78721,0.007 -5.574237,-0.002 -8.361486,-0.005 -3.012291,-0.005 -6.024569,-0.0143 -9.036856,-0.0212 -2.917818,-8.7e-4 -5.838018,-0.008 -8.75221,0.15872 -0.7892058,0.0579 -1.7312312,0.10154 -2.5075552,0.26304 -0.3422467,0.0712 -1.3003364,0.48766 -1.0044351,0.30153 17.8391443,-11.22126 21.4867373,-5.78451 16.7247703,-11.53876 3.11521,1.22582 6.632308,1.24591 9.848553,2.10211 5.429591,0.76498 10.884355,0.80132 16.36105,0.69069 3.971114,-0.0313 7.94254,-0.0432 11.913145,-0.11975 -17.630246,13.44985 -10.150531,12.53472 -21.704572,12.44321 -2.521922,0.0125 -5.043636,0.0536 -7.565597,0.0392 -2.742288,-0.0104 -5.484534,-0.0179 -8.226932,-0.0255 -2.687987,-0.0169 -5.390781,-0.0684 -8.038458,-0.58503 -3.703509,-0.77001 -7.3458538,-1.82036 -11.084139,-2.42468 -5.22398171,-1.0429 -10.4476866,-2.12143 -15.755322,-2.65467 0,0 17.3593816,-12.17946 17.3593816,-12.17946 z"
     inkscape:connector-curvature="0" />
  <path
     style="fill:#ffffff"
     id="path84"
     d="m 153.89017,779.47889 c 4.26811,0.1175 8.53898,0.0871 12.80825,0.0681 3.71528,-0.004 7.43085,-2.6e-4 11.14595,-0.041 3.24137,6.7e-4 6.48269,0.009 9.724,0.0266 4.89928,0.1901 9.76204,-0.51702 14.64076,-0.87077 5.81443,-0.32083 11.63778,-0.42003 17.45946,-0.50329 4.99889,-0.0964 9.96416,-0.80078 14.95754,-1.11487 5.05128,-0.28545 10.11071,-0.30985 15.16832,-0.32436 5.22412,-0.0271 10.44847,-0.0152 15.67256,0.0138 5.7817,0.0297 11.56338,-0.002 17.34509,-0.006 4.66797,-0.0402 9.33596,-0.0217 14.00396,-0.0233 4.15931,0.004 8.31861,-0.0318 12.4779,-0.0253 3.84774,0.006 7.69529,0.008 11.54297,-0.0135 3.20938,-0.0232 6.41867,0.0122 9.62802,-0.016 2.58768,-0.0244 5.17516,-0.0114 7.76288,-0.005 2.93582,-0.0163 5.87153,0.0129 8.80735,0.0211 0,0 -17.03877,12.37939 -17.03877,12.37939 v 0 c -2.95516,0.008 -5.91022,0.0372 -8.86538,0.0211 -2.5829,0.006 -5.16556,0.0193 -7.74842,-0.005 -3.19464,-0.0288 -6.38924,0.008 -9.58391,-0.016 -3.83527,-0.0216 -7.67039,-0.0189 -11.50572,-0.0135 -4.13617,0.007 -8.27234,-0.0287 -12.40853,-0.0251 -4.64631,-0.002 -9.29262,0.0172 -13.9389,-0.0243 -5.77209,-0.005 -11.54412,-0.0395 -17.31623,-0.0166 -5.23601,0.0225 -10.4721,0.0171 -15.70814,0.0292 -5.03836,0.0463 -10.08015,0.10821 -15.10924,0.44337 -5.00298,0.37449 -9.99232,1.06134 -15.01723,1.00889 -5.7865,0.0432 -11.57773,0.13827 -17.34891,0.59493 -4.95568,0.41226 -9.90484,1.00467 -14.88797,0.85026 -3.26569,0.0177 -6.53138,0.0259 -9.79712,0.0266 -3.67748,-0.0416 -7.35547,-0.0363 -11.03314,-0.041 -4.3318,-0.0195 -8.665,-0.0467 -12.99573,0.0681 0,0 17.15833,-12.46626 17.15833,-12.46626 z"
     inkscape:connector-curvature="0" />
  <path
     style="fill:#ffffff"
     id="path86"
     d="m 348.17589,778.05032 c 3.3979,0.0719 6.79793,0.0582 10.19648,0.0368 2.96491,0.0143 5.92965,-0.0167 8.89456,-0.0184 2.672,-0.012 5.34395,0.005 8.016,0.008 0.48409,2.1e-4 0.9682,0.005 1.45227,6.4e-4 0.38106,-0.003 0.7621,-0.0107 1.14302,-0.0214 0.2933,-0.008 1.11852,-0.22865 0.87818,-0.0603 -18.21421,12.7549 -10.73726,12.68492 -19.19346,12.51185 -3.635,0.318 -7.33435,0.67425 -10.95575,1.24888 -4.36138,0.49949 -8.63991,1.39757 -12.94889,2.20266 -3.14757,0.50711 -6.15823,1.58098 -9.33531,1.95604 -2.54386,0.33294 -5.1155,0.31107 -7.67585,0.31656 -2.62757,0.16065 -4.28139,-1.93539 -4.55334,-4.35289 2.06172,-8.99317 14.22453,-12.19311 22.78271,-12.38681 2.87924,0.15482 5.71951,0.8357 8.60928,1.13326 2.99661,0.25425 6.00502,0.30987 9.01089,0.30045 2.59303,0.64593 5.23214,1.05277 7.89389,1.26275 2.84236,0.18538 5.69273,0.18227 8.53983,0.18878 2.6441,0.004 5.28793,-0.0248 7.93203,-0.0251 2.51674,0.0158 5.03341,-0.0186 7.55005,0.003 2.62389,0.003 5.24781,-0.005 7.87175,-10e-4 1.80411,-0.15528 3.66899,0.21349 5.4672,0.006 0.78973,-0.0913 1.54092,-0.39191 2.31173,-0.58645 2.38186,-0.40852 4.69724,-1.02548 7.0411,-1.60742 1.90714,-1.34428 3.89537,-1.74386 6.16095,-1.92677 2.54381,-0.79854 5.17113,-1.14926 7.80508,-1.48245 2.33538,-0.14888 4.67469,-0.14232 7.01349,-0.13673 2.6003,0.006 5.20063,0.0219 7.80089,0.0125 2.86771,0.0155 5.73543,0.018 8.60322,0.0206 2.45161,-0.0283 4.90333,-0.0127 7.35493,-0.0235 1.515,0.004 3.02983,-0.009 4.54476,0.004 0,0 -17.1281,12.44431 -17.1281,12.44431 v 0 c -1.51822,0.0122 -3.03633,-4.1e-4 -4.55461,0.004 -2.43006,-0.0108 -4.86024,0.005 -7.2903,-0.0238 -2.88423,0.002 -5.76833,0.003 -8.65252,0.0118 -2.59746,-0.0172 -5.19516,-0.0161 -7.79268,-0.002 -2.29701,0.028 -4.60432,0.0508 -6.8832,0.36989 -2.61622,0.3539 -5.16295,1.01558 -7.75831,1.48336 -2.11479,0.44939 -3.94064,1.55851 -6.03111,2.08651 -2.35915,0.57305 -4.72223,1.11218 -7.11228,1.54523 -2.6508,0.39751 -5.33725,0.17275 -8.00955,0.23262 -2.62257,0.003 -5.24511,-0.004 -7.86764,-10e-4 -2.52221,0.0223 -5.04448,-0.01 -7.56677,0.0117 -2.63093,0.006 -5.26166,-0.009 -7.89255,-0.021 -2.89441,-0.0246 -5.79788,-0.0271 -8.67951,-0.32948 -2.61805,-0.30608 -5.19343,-0.91898 -7.8219,-1.0984 -3.0262,-0.103 -6.05692,-0.16904 -9.06777,-0.51932 -2.80217,-0.35869 -5.60792,-1.03834 -8.44352,-0.78945 -0.72671,0.076 -1.58764,0.12873 -2.29904,0.33985 -0.28943,0.0859 -1.09219,0.51001 -0.83351,0.35435 30.89309,-18.58983 23.22092,-12.47492 16.60748,-10.03509 -1.60803,0.24467 1.76032,1.59136 2.43129,1.08781 2.49965,-0.0471 5.00512,-0.12729 7.47473,-0.55394 3.07829,-0.6193 6.10468,-1.47292 9.21314,-1.94084 4.28782,-0.81704 8.59283,-1.47081 12.9172,-2.06667 3.7671,-0.4947 7.54622,-1.12159 11.34941,-1.16339 8.08719,-0.15669 1.68345,-0.26958 -15.2487,12.51185 -0.008,0.006 -1.69514,-0.0809 -1.79622,-0.0817 -0.48467,-0.004 -0.96936,4.3e-4 -1.45405,6.5e-4 -2.67924,0.003 -5.35838,0.0198 -8.03757,0.008 -2.94806,-0.002 -5.89594,-0.0328 -8.84399,-0.0184 -3.43236,-0.022 -6.86612,-0.0335 -10.29788,0.0368 0,0 17.15834,-12.46626 17.15834,-12.46626 z"
     inkscape:connector-curvature="0" />
  <path
     style="fill:#ffffff"
     id="path88"
     d="m 381.03303,782.33603 c 3.54953,-0.077 7.04273,0.62669 10.56208,1.01131 3.6687,0.80456 7.33785,1.5521 10.91884,2.69632 0,0 -17.33819,11.84522 -17.33819,11.84522 v 0 c -3.53509,-0.97524 -7.12106,-1.7716 -10.73784,-2.37687 -3.50846,-0.43202 -7.01618,-0.9507 -10.56322,-0.70972 0,0 17.15833,-12.46626 17.15833,-12.46626 z"
     inkscape:connector-curvature="0" />
  <path
     style="fill:#ffffff"
     id="path90"
     d="m 453.89017,775.19317 c 5.47008,0.16793 10.94467,0.14326 16.41671,0.11538 4.10745,-0.0218 8.21477,-0.0781 12.32232,-0.0687 4.44229,-0.003 8.88412,0.057 13.32642,0.0537 5.8305,-0.1839 11.61855,0.59881 17.42802,0.97302 12.51525,1.34455 25.10554,1.66539 37.67823,2.01336 21.90049,0.29592 43.78876,0.36087 65.65863,1.65135 11.78617,0.79062 6.15421,0.40455 16.89618,1.15401 0,0 -16.12365,11.51073 -16.12365,11.51073 v 0 c -10.37245,-1.01222 -4.91785,-0.51091 -16.36562,-1.48406 -21.94273,-1.45551 -43.90462,-1.41942 -65.88793,-1.38075 -12.89015,-0.12043 -25.77958,-0.40431 -38.63541,-1.42421 -5.84219,-0.31486 -11.67164,-0.93945 -17.5304,-0.748 -4.49157,-0.003 -8.98269,0.0569 -13.47425,0.0537 -4.04453,0.009 -8.08883,-0.0462 -12.13326,-0.0687 -5.57797,-0.0288 -11.15815,-0.0475 -16.73432,0.11538 0,0 17.15833,-12.46626 17.15833,-12.46626 z"
     inkscape:connector-curvature="0" />
  <path
     style="fill:#ffffff"
     id="path92"
     d="m 640.07267,778.0826 c 7.15879,0.20663 14.32196,0.1489 21.48285,0.1498 7.14051,0.003 14.28116,-0.0106 21.42153,-0.0567 5.46489,-0.0392 10.92986,-0.0177 16.39483,-0.0134 6.36675,-0.007 12.73339,0.0346 19.10007,0.0579 7.17304,0.006 14.34608,-0.0199 21.51911,-0.015 3.28301,-0.0122 6.56631,0.009 9.84923,-0.0269 0.52465,-0.006 3.38297,0.13327 4.13823,-0.1872 -6.1655,4.1699 -12.08734,8.72499 -18.49652,12.5097 -0.72962,0.43085 -1.69344,-0.0659 -2.54051,-0.087 -1.20816,-0.0301 -2.4166,-0.048 -3.625,-0.0665 -5.21865,-0.0799 -10.43797,-0.10155 -15.65703,-0.14037 -14.21597,0.005 -28.37073,1.25012 -42.47977,2.87622 -11.3835,1.74605 -22.81475,3.09681 -34.30023,3.93162 -5.35422,0.43629 -10.72513,0.55754 -16.09384,0.64603 -3.30028,0.19559 -4.78716,-0.70473 -7.20513,-2.67251 -1.75539,-1.65289 -3.61318,-2.66639 -4.30709,-5.0649 6.26172,-3.86496 12.36215,-8.00432 18.78514,-11.59488 0.55798,-0.31191 1.27837,0.025 1.91761,0.0217 0.91585,-0.005 1.83157,-0.0661 2.7472,-0.0457 4.40928,0.0985 8.80955,0.68655 13.19429,1.11221 11.18287,1.6846 22.32001,3.64799 33.50066,5.34608 8.06957,1.24109 16.21646,1.73741 24.36921,1.94492 6.16722,0.14834 12.30489,0.84292 18.46724,1.16696 6.45188,0.2874 12.91089,0.27746 19.36744,0.3048 6.29736,0.003 12.5947,0.0229 18.89206,0.0222 5.66985,0.0174 11.3087,0.10053 16.94479,-0.55178 1.57167,-0.54196 7.81382,-0.30414 8.8085,-1.18227 -13.9628,10.09525 -11.52671,14.20168 -20.12641,11.53866 -2.75775,-0.85398 -5.44797,-1.75946 -8.14355,-2.79864 -7.35044,-2.69581 -14.62716,-5.59592 -22.03762,-8.124 -4.43692,-1.72718 -9.05367,-2.90293 -13.58272,-4.35668 -0.32363,-0.14031 -0.67456,-0.22959 -0.97089,-0.42093 -6.19706,-4.00131 11.40068,-9.58479 18.01183,-12.85692 0.47358,-0.23439 1.02871,0.2466 1.55047,0.33012 0.70041,0.11212 1.40832,0.17081 2.11248,0.25622 8.16579,0.84113 16.32855,1.75981 24.4509,2.95946 7.04145,1.47355 14.11263,2.72588 21.2797,3.37013 4.2708,0.33197 8.55641,0.35538 12.83742,0.34548 3.0849,-0.0163 6.16938,-0.0516 9.25429,-0.0545 1.26252,-0.0174 2.52516,-0.0185 3.78776,-0.0203 0,0 -17.12146,12.44291 -17.12146,12.44291 v 0 c -1.24869,0.002 -2.49739,0.004 -3.74605,-0.006 -3.06528,0.0143 -6.13053,0.0153 -9.19583,-0.007 -4.26665,-0.0489 -8.53607,-0.15043 -12.77957,-0.64111 -7.07828,-0.82961 -14.04227,-2.2836 -21.0319,-3.65039 -8.2307,-1.18232 -16.50098,-2.08275 -24.80424,-2.56649 -9.6836,-0.55747 -6.86252,4.3654 14.02424,-10.30687 0.88487,-0.62159 -2.52062,-2.05235 -0.194,-1.00692 4.40744,1.59488 8.95852,2.77553 13.28849,4.5895 7.33776,2.71555 14.5753,5.70346 22.01241,8.14777 15.24081,5.0592 15.96305,-0.23047 -5.86207,15.79624 -2.06187,-0.61241 -6.38327,0.87378 -8.61726,0.67737 -5.62672,0.45061 -11.26556,0.27658 -16.9057,0.27247 -6.31928,0.006 -12.63858,0.0427 -18.95785,0.012 -6.45749,-0.0339 -12.91572,-0.14985 -19.36787,-0.42259 -6.1627,-0.30392 -12.2993,-1.01063 -18.47054,-1.12589 -8.07976,-0.37294 -16.14572,-1.05811 -24.12579,-2.41965 -11.14987,-1.80195 -22.27291,-3.81289 -33.48601,-5.18793 -4.45974,-0.35236 -8.92534,-0.82276 -13.40536,-0.58191 -8.56702,0.46055 -16.81991,8.18093 12.49819,-10.06882 -1.99229,-1.0605 2.94663,2.95878 3.09012,3.12423 1.87572,1.46046 3.92947,1.71207 6.29539,1.55926 5.17411,0.038 10.34787,-0.10118 15.51428,-0.38714 11.33419,-0.74535 22.60093,-2.10452 33.84601,-3.69846 14.21692,-1.5067 28.47203,-2.65133 42.776,-2.81977 5.34787,-0.039 10.69595,-0.0618 16.04343,-0.14036 12.03445,-0.1769 10.30529,-2.27174 -9.35153,12.35615 -4.17501,-0.46471 -9.00754,-0.065 -13.398,-0.21414 -7.15925,0.005 -14.3185,-0.0207 -21.47776,-0.015 -6.41979,0.0232 -12.83954,0.0649 -19.25939,0.0579 -5.45263,0.004 -10.90526,0.0259 -16.35779,-0.0135 -7.08832,-0.0466 -14.17692,-0.0596 -21.26537,-0.0567 -7.29839,9.2e-4 -14.59877,-0.0525 -21.89521,0.1498 0,0 17.06946,-12.40169 17.06946,-12.40169 z"
     inkscape:connector-curvature="0" />
  <path
     style="fill:#ffffff"
     id="path94"
     d="m 800.55138,785.21533 c 0.12077,-4.37487 0.0635,-8.73695 0.48361,-13.09672 0.53964,-4.49866 0.81815,-9.01791 0.9524,-13.54491 0.0533,-3.67221 0.0591,-7.34502 0.0941,-11.01758 -0.0227,-4.50042 -0.50408,-9.00751 -1.10283,-13.46621 -0.8262,-5.02096 -1.25134,-10.09009 -1.54021,-15.16606 -0.0698,-1.93113 -0.068,-3.91843 -0.58041,-5.80102 -0.0493,-0.18125 -0.31832,-0.68054 -0.24215,-0.50883 0.24789,0.55882 0.20552,1.93337 0.75738,1.67033 6.18949,-2.95026 11.8037,-6.98054 17.70555,-10.47081 -0.71783,4.76329 -0.64251,9.63254 -0.6994,14.44225 -0.0619,6.99543 -0.069,13.99156 -0.002,20.98698 0.0386,4.78535 0.0949,9.57027 0.12008,14.3557 0.0199,3.57636 0.02,7.15259 0.03,10.72905 0.0213,3.33943 0.01,6.6788 -0.0169,10.01815 -0.0911,3.56255 0.0451,7.12491 0.0448,10.68691 -1.4e-4,0.4678 -2.7e-4,0.9356 -4.1e-4,1.4034 0,0 -18.82509,9.59186 -18.82509,9.59186 v 0 c -1.3e-4,-0.46766 -2.7e-4,-0.93532 -4.1e-4,-1.40298 -3.6e-4,-3.57723 0.13539,-7.15479 0.0448,-10.73255 -0.0267,-3.33364 -0.038,-6.6673 -0.0168,-10.00102 0.01,-3.58635 0.0103,-7.17248 0.0291,-10.75874 0.0236,-4.82397 0.0761,-9.6475 0.10888,-14.47144 0.0589,-7.00065 0.0368,-14.00159 0.008,-21.00235 -0.0138,-4.86253 -0.0639,-9.72513 0.0582,-14.58698 16.39464,-11.07001 19.64627,-18.86614 20.06838,-3.73442 0.19819,5.02115 0.56627,10.03885 1.43947,14.99402 0.6967,4.52095 1.15136,9.12489 1.32551,13.69 0.0331,3.69997 0.0367,7.39973 -0.11101,11.09772 -0.14533,4.57065 -0.32167,9.14752 -0.90639,13.68743 -0.45671,4.25628 -0.60505,8.49998 -0.32992,12.78019 0,0 -18.89724,9.62863 -18.89724,9.62863 z"
     inkscape:connector-curvature="0" />
  <path
     style="fill:#ffffff"
     id="path96"
     d="m 799.12281,716.6439 c 0.32215,-6.73186 0.30049,-13.47549 0.24849,-20.21317 0.0425,-5.39554 -0.12371,-10.78958 -0.16344,-16.18423 -0.0492,-3.72749 -0.015,-7.45482 0.0348,-11.18207 0.1845,-4.76365 -0.0946,-9.49289 -0.58957,-14.22708 -0.55109,-3.93284 -0.58593,-7.90751 -0.93834,-11.85546 -0.75835,-5.10157 -0.95151,-10.24549 -1.07443,-15.3939 -0.0416,-6.26531 -0.78399,-12.49663 -1.22071,-18.74115 -0.3195,-6.25972 -0.3532,-12.53024 -0.36247,-18.7968 0.0341,-7.24819 0.007,-14.49635 0.0295,-21.74456 0.45464,-8.66961 0.97639,-17.33215 1.28797,-26.00923 0.36884,-11.0544 0.35351,-22.11491 0.25728,-33.17332 -0.0266,-5.14963 -0.216,-10.29598 -0.32717,-15.44381 -0.15886,-1.4898 -0.0501,-0.74187 -0.32952,-2.24331 0,0 18.66876,-9.97791 18.66876,-9.97791 v 0 c 0.35781,1.70415 0.19321,0.82939 0.48869,2.62522 -0.0995,5.26088 -0.28159,10.52025 -0.32399,15.78233 -0.13428,11.07948 -0.19066,22.15896 -0.2733,33.23887 -0.15387,8.62035 -0.55649,17.22769 -1.06265,25.83412 0.0149,7.23245 -0.0294,14.46493 0.0405,21.69719 0.0474,6.21405 0.0604,12.43164 0.40354,18.63842 0.35731,6.28396 1.03341,12.5494 1.1744,18.84229 0.18624,5.0589 0.44677,10.11859 1.23236,15.12689 0.5071,3.94832 0.37584,7.95244 0.8723,11.90806 0.47484,4.79842 0.92452,9.57508 0.7043,14.40669 0.0504,3.71541 0.0838,7.4309 0.0348,11.14657 -0.0398,5.45017 -0.20491,10.89974 -0.16345,16.35078 -0.0509,6.65316 -0.08,13.31291 0.2485,19.95994 0,0 -18.89724,9.62863 -18.89724,9.62863 z"
     inkscape:connector-curvature="0" />
  <path
     style="fill:#ffffff"
     id="path98"
     d="m 794.88603,484.67774 c 0.37089,-8.22168 0.29133,-16.45561 0.27952,-24.6833 0.11943,-6.8043 -0.60401,-13.5796 -1.19103,-20.34813 -0.21741,-4.78101 -0.82428,-9.52838 -1.2224,-14.29552 -0.49923,-5.46109 -0.53268,-10.94654 -0.56843,-16.42535 -0.0375,-5.33134 -0.0563,-10.66277 -0.0872,-15.99414 -0.0108,-0.65271 -0.0193,-1.30547 -0.0325,-1.95815 -0.0104,-0.51317 -0.0144,-1.02662 -0.0381,-1.53935 -0.0121,-0.26337 -0.0331,-0.52675 -0.0692,-0.78791 -0.008,-0.0562 -0.11262,-0.13344 -0.0618,-0.15851 19.33138,-9.53138 19.33561,-16.22354 18.98841,-8.22132 -0.10698,4.57415 -0.1773,9.14977 -0.21376,13.72512 -0.10494,8.28098 -0.11379,16.56263 -0.10823,24.84411 0.11355,7.17733 0.18156,14.33536 -0.28762,21.49988 -0.56327,6.84104 -0.82813,13.69844 -0.92311,20.56041 -0.0628,4.58971 0.003,9.17947 -0.002,13.76918 -0.0356,3.49584 0.039,6.99115 0.0567,10.48688 0.15776,2.86172 -0.32658,5.8059 0.13225,8.64515 0.74174,-7.11115 0.0897,-0.24893 -18.65994,8.86746 -0.23709,0.11528 0.54015,-0.14819 0.70887,-0.35076 0.31511,-0.37833 0.4744,-0.8641 0.67683,-1.31295 0.23575,-0.52269 0.42812,-1.06392 0.63616,-1.59825 0.23198,-0.59582 0.45591,-1.19475 0.68386,-1.79212 2.11301,-4.67788 2.41627,-9.73289 2.76613,-14.77713 0.86833,-18.56456 0.93338,-37.15616 0.92345,-55.73734 -0.0337,-14.7389 -0.33167,-29.47527 -0.6784,-44.20958 0.10229,-4.56738 -0.31206,-9.07236 -0.82922,-13.59534 -0.6832,-5.94869 -1.32539,-11.88464 -1.62503,-17.86756 -0.32882,-8.9326 -1.02656,-17.84462 -1.41876,-26.77493 -0.35659,-9.34641 -0.35183,-18.7016 -0.39169,-28.05331 0.30608,-8.93567 0.80812,-17.8616 1.06472,-26.79942 0,0 18.39394,-9.28984 18.39394,-9.28984 v 0 c -0.37951,8.94087 -0.96165,17.87194 -1.27144,26.81566 0.0152,9.32245 0.0693,18.64637 0.3911,27.96419 0.35525,8.90224 1.03972,17.77961 1.54596,26.67213 0.3897,5.88655 1.05876,11.72666 1.91428,17.56096 0.64324,4.72623 0.85996,9.27936 0.47469,14.06803 -0.32672,14.95763 -0.60356,29.91718 -0.63258,44.87882 -0.009,18.37489 0.21426,36.7464 0.46585,55.1191 -0.042,5.14816 0.0727,10.36431 -2.01857,15.1825 -0.62174,1.56469 -1.30457,3.21162 -1.71035,4.85024 -0.10774,0.43507 0.20179,1.11353 -0.19006,1.33113 -19.24385,10.68676 -15.96393,15.87744 -19.95389,8.81196 -0.5554,-2.95228 0.0144,-6.03043 -0.21373,-9.02011 0.0127,-3.51307 0.0781,-7.02583 0.0407,-10.53894 -0.002,-4.64111 0.0842,-9.28267 0.20334,-13.92206 0.20521,-6.89566 0.39007,-13.79719 0.93568,-20.67613 0.51979,-7.14606 0.51821,-14.29728 0.52595,-21.46109 0.006,-8.24474 -0.003,-16.48965 -0.1081,-24.73388 -0.0362,-4.50203 -0.10534,-9.00441 -0.21535,-13.50514 -0.37853,-8.10637 -0.32424,-0.95831 18.98579,-11.11512 0.0656,-0.0345 -0.0546,0.13934 -0.0639,0.21282 -0.0361,0.28485 -0.0586,0.57158 -0.072,0.85841 -0.0245,0.52614 -0.03,1.053 -0.0415,1.57959 -0.0145,0.66423 -0.0242,1.32855 -0.0363,1.99282 -0.0395,5.3461 -0.073,10.69263 -0.0451,16.03882 0.0614,5.42226 0.15192,10.84837 0.54687,16.25851 0.4138,4.77244 1.20993,9.50293 1.28015,14.29944 0.37632,6.88582 1.01562,13.77066 0.87948,20.67215 -0.0117,8.13265 -0.0965,16.27209 0.27951,24.39846 0,0 -18.79936,9.57875 -18.79936,9.57875 z"
     inkscape:connector-curvature="0" />
  <path
     style="fill:#ffffff"
     id="path100"
     d="m 797.69424,275.21533 c 0.35437,-7.4073 0.30617,-14.8271 0.33958,-22.24083 0.084,-9.14581 -0.0127,-18.29152 -0.0477,-27.4372 -0.0322,-7.37386 -0.0314,-14.74772 -0.0649,-22.12161 0.40935,-8.19802 -1.07389,-16.19816 -2.64336,-24.194 -2.61535,-12.27722 -5.39173,-24.51867 -8.01445,-36.79439 -3.17811,-13.55598 -5.40104,-27.27017 -6.63734,-41.13223 -0.95167,-13.094968 -1.03103,-26.228142 -1.00795,-39.350431 -0.0615,-14.24306 0.21009,-28.478179 0.57997,-42.715131 0.32712,-5.921841 0.12902,-3.12756 0.56692,-8.384739 0,0 18.48154,-9.1594768 18.48154,-9.1594768 v 0 c -0.74138,5.3091822 -0.38397,2.4884423 -1.0443,8.4657088 -0.82359,14.23181 -1.08355,28.467963 -0.79474,42.723195 0.0968,13.065718 0.0736,26.146644 0.9573,39.189202 1.1521,13.797162 3.18915,27.460872 6.49183,40.922152 2.68122,12.23304 5.49377,24.43597 8.3376,36.63216 1.81995,8.03465 3.54661,16.1011 3.17015,24.40072 -0.0334,7.39593 -0.0327,14.79183 -0.0649,22.18773 -0.0349,9.16186 -0.13155,18.32377 -0.0477,27.48576 0.033,7.2983 -0.02,14.60325 0.33958,21.89478 0,0 -18.89724,9.62863 -18.89724,9.62863 z"
     inkscape:connector-curvature="0" />
  <path
     style="fill:#ffffff"
     id="path102"
     d="m 813.73433,-12.362717 c -0.1635,4.0414733 -0.094,8.0869515 -0.10301,12.13043093 0.008,3.57955697 0.0359,7.15902347 0.051,10.73855207 -0.26324,3.23548 -0.86708,6.422867 -1.16109,9.658453 -0.27622,3.775925 -0.28529,7.563159 -0.28772,11.346922 0.0564,3.152036 0.0139,6.304758 -0.0192,9.456835 -0.0371,5.062253 0.60903,10.10128 0.92856,15.150417 0.12125,5.120256 0.78604,10.196088 1.26207,15.289461 0.46332,4.522792 0.56974,9.068678 0.62213,13.611363 0.004,5.463347 -0.0485,10.926516 -0.0222,16.389943 -0.24211,5.01534 0.38268,9.98467 0.85015,14.96439 0.36788,3.74511 0.55915,7.50299 0.65526,11.26383 0.0559,3.06325 0.0563,6.12746 0.0345,9.191 -0.006,2.8691 0.0185,5.73796 0.0215,8.60712 -10e-4,1.74583 -2.8e-4,0.86991 -0.003,2.62776 0,0 -18.84073,9.59942 -18.84073,9.59942 v 0 c -0.002,-1.75627 -10e-4,-0.88093 -0.002,-2.62602 0.005,-2.87925 0.0349,-5.75816 0.0353,-8.63735 -0.0159,-3.05146 0.003,-6.10303 -0.0188,-9.15459 -0.0373,-3.73689 -0.12746,-7.47513 -0.44138,-11.20071 -0.44965,-5.05144 -1.11314,-10.09292 -0.85611,-15.17718 0.0335,-5.43899 0.006,-10.877938 -0.0643,-16.316565 -0.0541,-4.500385 -0.12991,-9.003329 -0.49307,-13.491756 -0.45481,-5.121453 -1.20844,-10.215441 -1.24097,-15.366355 -0.31706,-5.068254 -0.98393,-10.111375 -1.15042,-15.182386 -0.0386,-3.149383 -0.0953,-6.299845 -0.0223,-9.449105 0.0347,-3.828595 0.0674,-7.659336 0.24198,-11.48443 0.17827,-3.194335 0.55115,-6.35567 1.17825,-9.494866 0.0151,-3.596846 0.0432,-7.193631 0.051,-10.7905051 -0.009,-4.0084686 0.0619,-8.0190674 -0.10301,-12.0254551 0,0 18.89723,-9.6286238 18.89723,-9.6286238 z"
     inkscape:connector-curvature="0" />
  <path
     style="fill:#ffffff"
     id="path104"
     d="m 793.49009,160.03364 c 0.86488,-18.21069 0.88303,-36.45182 1.06007,-54.67896 0.1638,-23.226231 -1.43263,-46.41149 -3.83896,-69.49813 -0.9345,-8.377473 -2.05938,-16.731147 -2.7688,-25.131549 -0.68703,-12.1781232 -1.56399,-5.3320428 18.63677,-14.7257758 -0.46842,11.3499805 -0.62319,22.7129478 -0.8379,34.0702288 -0.38122,33.936767 -1.19781,67.863656 -1.95221,101.793286 -0.44416,23.73459 -0.25364,12.13364 -0.57857,34.80272 0,0 -15.92638,8.06825 -15.92638,8.06825 v 0 c 0.73499,-22.86181 0.36584,-11.17115 1.1056,-35.07204 0.89836,-33.60848 1.08927,-67.21383 0.14779,-100.825982 -0.21814,-11.060409 -0.36134,-22.129096 -0.88736,-33.1797034 22.78954,-12.6006105 18.50984,-16.8030316 18.9091,-4.5454746 0.22036,8.5852896 0.94722,17.148558 1.49945,25.716169 1.64327,23.322008 2.97206,46.675528 3.10543,70.062762 0.17528,17.866869 0.18192,35.749189 1.06008,53.598699 0,0 -18.73411,9.5455 -18.73411,9.5455 z"
     inkscape:connector-curvature="0" />
  <path
     style="fill:#ffffff"
     id="path106"
     d="m 735.95376,7.6486722 c -4.22315,-0.1147032 -8.44953,-0.078055 -12.67366,-0.039045 1.5397,-0.7805242 -2.66489,0.4751434 -2.09548,0.069909 6.0042,-4.2730623 11.94592,-8.66142075 18.24655,-12.4839293 0.62776,-0.380855 1.4674,0.058268 2.20138,0.078434 2.88418,0.079241 4.89541,0.097415 7.86161,0.1408079 11.02427,0.1421939 22.03561,0.7858627 33.05685,1.1079003 7.25969,0.03018 14.48109,0.1823635 21.70335,0.919702 3.19226,0.1991045 6.22501,1.2901682 9.3754,1.76980082 10.48401,1.27577306 11.56873,-4.37005222 -12.86464,12.79159408 -20.10526,-1.098419 -40.22478,1.216152 -60.23487,2.903308 0,0 14.48753,-10.7189657 14.48753,-10.7189657 v 0 C 775.9767,2.3119829 796.92482,0.07474033 817.96913,-0.56562492 804.335,9.6394111 806.64182,13.20313 796.28092,11.34272 793.26024,10.698804 790.29322,9.7617048 787.19155,9.5560529 780.18009,8.727891 773.14243,8.5834893 766.08824,8.400365 755.04494,7.989357 744.00068,7.2899691 732.94604,7.4377608 c -3.17886,0.044703 -5.1654,0.062039 -8.24922,0.1408079 -0.80593,0.020585 -3.01491,0.6195293 -2.41729,0.078434 14.28115,-12.9303498 9.67122,-12.6642913 18.0218,-12.4140205 4.25999,0.040367 8.52204,0.072887 12.78114,-0.039045 0,0 -17.12871,12.4447356 -17.12871,12.444735 z"
     inkscape:connector-curvature="0" />
  <path
     style="fill:#ffffff"
     id="path108"
     d="m 502.4616,-6.2353964 c 3.19001,0.061999 6.38155,0.038519 9.57224,0.03686 1.47981,-0.1552355 3.02744,0.1898635 4.50242,-0.016542 0.87414,-0.122325 0.96613,-0.2874636 1.57493,-0.7419929 -5.98688,3.3984626 -11.97376,6.79692516 -17.96065,10.1953877 -0.25626,-0.100873 0.8636,1.111336 0.44595,1.2982705 -0.0485,0.021683 -3.51092,-0.8362373 -3.90192,-0.9109445 -2.52116,-0.2837803 -5.06237,-0.2794018 -7.59593,-0.2954165 -2.84747,-0.00781 -5.69468,0.013418 -8.54212,0.011338 -3.04234,-0.1054428 -4.21033,-1.7150778 -6.5132,-3.16971836 -2.19503,-1.00730356 -3.5673,-1.51378974 -4.37252,-3.86453654 17.8319,-11.637653 12.63934,-11.180506 24.03232,-11.120801 2.54055,-0.01054 5.0811,0.01046 7.62164,0.01981 2.60473,-0.256077 5.01658,0.228124 7.52348,0.832814 2.62222,0.462482 5.2911,0.52921 7.94653,0.58842 2.70703,-0.09559 5.29552,0.0046 7.93263,0.58689 2.23867,0.653173 4.6298,0.427862 6.83811,1.111924 2.14727,0.47676 4.14641,1.323412 6.25891,1.9133266 2.30564,1.300918 4.96207,1.4265501 7.41457,2.2277573 0.25934,0.2036496 0.63563,0.313534 0.77803,0.6109488 5.09452,10.6409712 -19.17737,12.8919174 -27.34177,13.5968451 -6.933,0.5454052 -13.88952,0.6941563 -20.83995,0.8468974 -10.26312,0.1529827 -11.93477,3.4406748 14.28499,-12.2874951 0.60585,-0.3634232 1.41266,0.030305 2.11903,0.04296 0.96572,0.0173 1.93148,0.031269 2.89722,0.046904 7.01665,0.017797 14.00536,-0.1906744 20.97606,0.7047801 6.24826,0.9592949 12.5342,1.5948238 18.84551,1.9217594 4.60989,0.2022587 9.22528,0.1871481 13.83848,0.2005205 5.70221,0.010219 11.40439,0.030542 17.10657,0.053588 8.32178,0.135718 16.57122,-1.2045601 24.8477,-1.9096497 9.74032,-0.6478518 19.50366,-0.7709449 29.26188,-0.8384552 9.79947,0.1938736 19.5703,-0.1789655 29.34888,-0.7572892 6.9948,-0.4348653 14.00111,-0.6432428 21.00699,-0.7925877 4.66819,-0.079187 9.33703,-0.072515 14.00568,-0.081731 4.13894,0.00917 8.27785,0.00679 12.41677,-0.00872 3.64311,-0.019833 7.28677,-0.00457 10.93002,0.014497 4.39667,-0.00262 8.79333,0.017763 13.18998,0.01149 4.32157,0.00595 8.64311,-0.00273 12.96464,-0.022518 2.85725,-0.2706335 5.5899,0.3078699 8.33547,1.0107567 7.27335,3.3781133 1.88654,0.6830589 -17.95456,12.7342212 -0.57085,0.3467249 -1.33575,-0.011409 -2.00363,-0.015269 -0.93882,-0.00543 -1.87766,-0.00602 -2.81647,-0.012587 -3.67639,-0.025719 -4.72598,-0.046149 -8.65266,-0.097294 C 719.72752,7.4189066 706.6805,7.3222882 693.64843,6.4722209 684.96673,5.7457695 676.4122,4.3748677 667.9279,2.4489196 660.71082,0.96191957 653.39236,0.08016142 646.05114,-0.49756572 637.82197,-1.0263499 629.57207,-1.0983207 621.32871,-1.087565 c -6.28241,-0.05033 -12.53741,-0.083244 -18.7927,0.52742503 -4.07212,0.71588867 -8.09672,1.86570967 -11.92128,3.43978777 -2.96448,0.9602598 -5.97856,1.8605277 -8.8524,3.0667991 -2.58105,1.280312 -5.63305,0.8190014 -8.28331,1.7570323 5.8998,-4.158032 11.61778,-8.58683251 17.6994,-12.4740959 0.40415,-0.2583281 10.45316,0.2872518 11.52929,0.3107485 7.87802,0.1720111 11.0221,0.1926554 19.28761,0.3007575 23.72751,0.035975 47.44962,0.2787913 71.16119,1.1727578 5.90933,0.2252011 11.81667,0.4973522 17.72487,0.7495742 0,0 -16.63884,11.9337245 -16.63884,11.9337245 v 0 C 688.61247,9.2410676 682.98202,8.7895839 677.34827,8.3810718 653.77834,6.9486459 630.17164,6.6353223 606.56164,7.0541512 c -8.85457,0.1120239 -17.70711,0.2483511 -26.56059,0.4222499 -1.35328,0.026581 -2.70637,0.076154 -4.0599,0.075721 -0.74015,-2.368e-4 -2.77569,0.4101185 -2.21908,-0.07773 5.2551,-4.6058577 11.15088,-8.42482013 16.72633,-12.6372302 2.7332,-0.1390911 5.40051,-0.9177195 7.93565,-1.9094242 2.94633,-0.9954592 5.86602,-2.0641083 8.82413,-3.0243167 3.93667,-1.292156 7.90888,-2.521214 12.06713,-2.842513 6.25209,-0.44708 12.51314,-0.349729 18.77789,-0.282134 8.23567,0.124114 16.47716,0.219285 24.69695,0.794215 7.44797,0.608859 14.90774,1.447044 22.20703,3.0861579 8.24221,1.9481936 16.59358,3.2919634 25.02796,4.1099966 13.07019,0.8999822 26.16457,0.9609471 39.26066,0.7017654 3.96202,-0.076748 7.96753,-0.040909 11.92209,-0.3597653 0.6781,-0.054675 2.54645,-0.6853525 2.02585,-0.247417 -14.90083,12.5348671 -9.65444,13.8294152 -16.47381,12.0218091 -2.58244,-0.6513163 -5.18572,-0.8344185 -7.84953,-0.7102654 -4.30088,-0.019938 -8.60177,-0.02841 -12.9027,-0.022471 -4.40726,-0.00628 -8.81452,0.014267 -13.22178,0.011562 -3.65576,0.018749 -7.31198,0.034306 -10.96758,0.011789 -4.12378,-0.018952 -8.24756,-0.026842 -12.37137,-0.024314 -4.6247,-0.013121 -9.24964,-0.013239 -13.87419,0.028448 -6.89769,0.072615 -13.79289,0.2709692 -20.68103,0.6513613 -9.76315,0.4775154 -19.52295,0.6868361 -29.29896,0.6067513 -9.76066,0.106937 -19.53292,0.2215821 -29.26545,1.0415024 -8.36385,0.7644069 -16.70977,2.0383017 -25.12816,1.8922247 -5.76752,0.03087 -11.53502,0.06843 -17.3026,0.08237 -4.62156,-0.0035 -9.24573,-0.04275 -13.85925,-0.345127 -6.2693,-0.4762202 -12.50331,-1.2544752 -18.72896,-2.1291461 -6.9688,-0.6771273 -13.95831,-0.4772733 -20.95285,-0.4323526 -1.01096,0.017302 -2.02195,0.032953 -3.03287,0.051906 -0.74827,0.014028 -2.79429,0.5550213 -2.2447,0.047036 14.15387,-13.0824606 9.81468,-12.5178666 19.60942,-12.3802579 6.89356,-0.06679 13.79472,-0.2308853 20.65736,-0.9374029 2.85493,-0.3439127 3.48519,-0.3753073 6.20624,-0.8620631 0.74107,-0.1325663 2.84414,-0.8595667 2.21355,-0.4483306 -22.52519,14.6897282 -20.94884,4.8160561 -15.65232,11.5182016 0.0624,0.078989 -0.18662,-0.075623 -0.27992,-0.1134339 -2.54314,-0.5938055 -5.03596,-1.2605937 -7.46241,-2.2466485 -2.04174,-0.669982 -4.09078,-1.29699604 -6.18775,-1.77676585 -2.2667,-0.29081826 -4.53285,-0.55580234 -6.76405,-1.07279836 -2.55143,-0.40471369 -5.13483,-0.20926441 -7.70893,-0.33928339 -2.76509,-0.1117553 -5.54398,-0.2628651 -8.25099,-0.8811546 -2.37995,-0.5262509 -4.7686,-0.544629 -7.20147,-0.4771355 -2.53513,-0.00297 -5.07028,-0.00961 -7.60541,-0.00116 -9.79802,0.2313885 -13.62661,5.3539429 12.50624,-10.1760613 -2.06839,-2.370619 2.02235,1.339648 2.79417,1.301875 1.81896,1.3166901 3.33308,2.3442653 5.72865,2.1706124 2.85111,-0.011747 5.70216,-0.012804 8.55325,0.012602 2.65066,0.039143 5.32681,0.034705 7.93052,0.5989641 2.46835,0.6269664 5.18061,1.0732227 5.8952,3.9267151 -18.16177,10.3792686 -12.94887,10.8923532 -25.04232,10.730715 -3.22453,-0.00168 -6.44982,-0.024481 -9.67371,0.03686 0,0 17.15833,-12.4662588 17.15833,-12.4662588 z"
     inkscape:connector-curvature="0" />
  <path
     style="fill:#ffffff"
     id="path110"
     d="m 26.903384,-6.2246348 c 8.592357,0.3071004 17.194157,0.2817632 25.790488,0.2026519 1.315206,-0.010767 2.630422,-0.020285 3.945616,-0.0323 2.808652,-0.025658 5.621645,-0.022727 8.429275,-0.1147376 0.397356,-0.013022 1.515011,-0.2918143 1.191133,-0.06124 C 60.19113,-1.9097898 53.87955,2.0590445 47.689376,6.2036969 35.886112,5.7875471 24.126153,4.6938348 12.364624,3.6664241 1.844878,2.578101 -8.7742583,2.0880173 -19.25131,0.61795279 c -0.877667,-0.38584794 -5.455051,-0.44259978 -6.072064,-1.50343458 -0.364068,-0.62594371 -1.394519,-1.61654791 -0.794468,-2.02187461 6.055773,-4.0905981 12.845951,-6.9715917 19.2689262,-10.4573876 8.4607288,0.736885 16.8609938,2.347093 25.2632968,3.6126043 16.086412,2.6938926 32.252003,4.6966964 48.519093,5.8542623 12.067191,0.7461317 24.161164,0.8338527 36.247236,0.8489111 4.64427,0.014524 9.28819,-0.044497 13.93195,-0.1032469 0,0 -16.64723,12.0996804 -16.64723,12.0996804 v 0 C 95.905855,8.9054079 91.346253,8.8628893 86.786469,8.85067 74.774115,8.7553084 62.75423,8.6068124 50.772458,7.6527713 34.519024,6.2743929 18.378134,4.0323623 2.2424101,1.6639858 -6.3769391,0.59423239 -15.173255,-1.1206441 -23.870212,-0.6496136 c 5.860443,-3.410717 12.09927,-6.2415612 17.5813302,-10.2321514 0.5591044,-0.406992 -0.8584427,-1.090853 -1.2015442,-1.691288 -0.050491,-0.08836 0.1438975,0.117846 1.1193921,0.385242 1.576566,0.432157 2.3552842,0.537322 4.0764409,0.865952 10.2012292,1.6215933 20.532879,2.4348779 30.803344,3.4730068 12.053369,1.0583407 24.153211,2.0754841 36.264178,1.6406212 -5.219076,4.1446525 -10.3045,8.463415 -15.657228,12.4339574 -0.274248,0.2034316 -0.681313,-0.048948 -1.022554,-0.06124 -0.670773,-0.024162 -1.341933,-0.036955 -2.013048,-0.048107 -3.31869,-0.055143 -6.638207,-0.061401 -9.957083,-0.098931 -8.782445,-0.082925 -17.569482,-0.091642 -26.3483412,0.2026519 0,0 17.1287092,-12.4447356 17.1287092,-12.4447351 z"
     inkscape:connector-curvature="0" />
  <path
     style="fill:#ffffff"
     id="path114"
     d="m 251.03303,-4.806825 c 4.4561,0.1245927 8.91526,0.092314 13.37267,0.080515 3.19683,-0.054149 6.39393,-0.051022 9.59111,-0.053555 2.81577,-0.013881 5.63175,6.484e-4 8.44762,8.065e-4 3.23712,0.013263 6.47422,0.014469 9.71138,0.0091 2.94921,-0.018868 5.89866,-0.00657 8.84798,-0.0079 2.79661,0.1506862 5.6646,-0.3392308 8.40888,0.2754764 2.46661,0.9313118 4.90851,1.7588209 7.5239,2.1895591 1.86486,0.263834 3.74842,0.3222244 5.62818,0.3760548 0,0 -17.13981,12.3409342 -17.13981,12.3409342 v 0 c -1.94701,-0.11063 -3.89772,-0.240881 -5.81301,-0.6325231 -2.54429,-0.5691166 -4.95176,-1.5517448 -7.49988,-2.0748781 -2.72662,-0.129606 -5.45815,-0.035566 -8.18687,-0.066287 -2.94207,-0.00133 -5.88428,0.010981 -8.82623,-0.0079 -3.24551,-0.00541 -6.49095,-0.00409 -9.73642,0.0091 -2.81661,1.58e-4 -5.63333,0.014651 -8.44983,8.064e-4 -3.14805,-0.0025 -6.29602,0.00136 -9.44369,-0.053555 -4.53133,-0.012082 -9.0642,-0.041379 -13.59431,0.080515 0,0 17.15833,-12.4662588 17.15833,-12.4662588 z"
     inkscape:connector-curvature="0" />
  <path
     style="fill:#ffffff"
     id="path118"
     d="m 315.21343,-0.83190906 c 2.79772,-0.83436484 5.44084,-2.07980604 7.96276,-3.54681894 6.71667,-4.0544953 1.35508,-0.8087303 -16.30087,9.3710292 0,0 19.80499,-7.6288382 19.80499,-7.6288382 v 0 C 307.38446,8.5161856 314.1749,4.9135386 306.69235,8.8649415 c -2.70795,1.2885285 -5.4385,2.5515075 -8.42662,3.0492415 0,0 16.9477,-12.74609206 16.9477,-12.74609206 z"
     inkscape:connector-curvature="0" />
  <path
     style="fill:#ffffff"
     id="path120"
     d="M 154.52519,3.3629579 C 146.01187,3.0715426 137.48982,3.0951654 128.97262,3.145424 c -3.24184,0.00452 -6.55112,-0.00543 -9.74833,0.6397352 -0.42591,0.085946 -1.61665,0.612497 -1.24416,0.3887997 18.20793,-10.9346831 18.60744,-3.52017204 17.87935,-11.3747712 7.20678,2.0061039 14.48747,3.7638808 21.77371,5.4730073 9.15085,1.73900049 18.14631,4.5069452 27.36971,5.8560567 0.30149,0.06633 1.15639,0.020604 0.90446,0.1989895 -5.92285,4.1937565 -11.846,8.4303508 -18.15561,12.0159458 -0.60803,0.345527 -1.34768,-0.374702 -2.02531,-0.547629 -3.96887,-1.01283 -7.95397,-1.967606 -11.93741,-2.920778 C 140.71518,10.30698 127.70006,7.4485689 114.61847,4.920717 106.60952,3.242196 98.605025,1.5118489 90.454541,0.69546793 c -2.937762,0.0393961 -6.179587,-0.84062747 -9.037423,0.0650343 -0.209142,0.13807104 -0.842436,0.54295747 -0.627427,0.41421317 5.974933,-3.5777018 11.932551,-7.184271 17.9078,-10.7614454 0.133023,-0.079636 0.268426,-0.2562388 0.415867,-0.2082988 0.865142,0.2812982 1.635032,0.8009601 2.475752,1.1484993 1.4512,0.5999007 2.91079,1.1837447 4.39646,1.6923433 2.19386,0.7510388 4.42455,1.3898389 6.63682,2.0847584 18.82339,5.37892262 38.09535,8.8279696 57.43287,11.7183224 11.28773,1.7939782 22.62493,3.2932564 34.03602,3.9926554 4.27202,0.235341 8.55086,0.200873 12.82688,0.152482 2.06044,-0.498756 4.2754,-0.976202 6.15633,-2.0076388 0.48152,-0.26405 1.84305,-1.1926378 1.36444,-0.9233517 -5.57461,3.1364855 -11.10459,6.3516395 -16.65689,9.5274595 2.80184,-1.664978 4.78592,-4.200331 6.97269,-6.541706 8.87627,-7.9620525 19.75878,-13.7450985 31.19973,-16.9983762 3.93709,-0.8757305 7.89214,-1.5576037 11.8203,-2.482151 0.19627,-0.1522049 0.79484,-0.5953043 0.5888,-0.4566146 -6.09963,4.1057989 -11.96387,8.57942679 -18.27094,12.3588484 -0.61959,0.371279 -1.44236,-0.081605 -2.16396,-0.1135228 -1.06686,-0.047189 -2.1339,-0.091746 -3.20132,-0.123795 -3.21082,-0.096405 -6.06767,-0.1264769 -9.30546,-0.1761604 -12.61966,-0.1342853 -25.24013,-0.092629 -37.85984,0.00413 -7.51729,0.065701 -15.03449,0.1402578 -22.55167,0.2180464 -3.50938,0.032383 -7.01914,0.041087 -10.52846,0.080267 -2.71104,0.00405 -5.422,-0.02519 -8.13308,-0.00377 -2.76434,0.1572846 -5.63,-0.3879265 -8.3329,0.291211 -0.33879,0.1057394 -0.67757,0.2114787 -1.01635,0.3172181 0,0 16.87045,-12.833552 16.87045,-12.833552 v 0 c 0.36435,-0.051516 0.72869,-0.1030313 1.09303,-0.1545469 2.82944,-0.1077935 5.66339,0.00135 8.49449,-0.050503 2.71435,0.021994 5.42861,-0.00811 8.14293,-0.0033 3.43579,0.039923 6.87207,0.048199 10.30793,0.078988 7.33203,0.073177 14.66415,0.1365841 21.99639,0.1830632 12.65025,0.06635 25.30047,0.047647 37.95051,-0.0556 4.35129,-0.026198 8.73888,-0.1651931 13.08864,0.049642 0.84471,0.04172 3.12996,-0.3734942 2.52764,0.2202077 -12.92238,12.7374485 -9.15382,12.2553169 -16.4979,12.9493838 -3.8465,0.8104358 -7.74889,1.3617614 -11.52984,2.456588 -2.11155,0.679948 -2.94352,0.8974629 -5.00185,1.7660652 -0.74895,0.3160509 -2.90594,1.4506441 -2.2111,1.0287342 28.26375,-17.1618639 17.75746,-10.8398457 11.90561,-6.6419053 -2.23288,2.3294295 -4.03579,5.085252 -6.75383,6.8902498 C 219.97702,14.230477 209.9621,22.848129 199.85796,23.39756 195.65604,23.37732 191.45377,23.253377 187.26752,22.865352 176.14906,21.804456 165.13526,19.911095 154.12956,18.041566 134.69875,14.786382 115.30703,11.220659 96.20234,6.3643742 92.669461,5.4132948 84.566449,3.6910859 81.260003,1.5232776 72.810591,-4.0164178 90.566448,-11.629465 98.365219,-11.957803 c 3.056341,-0.05663 6.104351,0.177958 9.133631,0.584519 7.93841,1.153163 15.70578,3.1343278 23.53333,4.8581336 13.13552,2.7317871 26.27717,5.4288788 39.48495,7.7928288 4.12403,0.8702917 8.2419,1.8576361 12.40533,2.528639 0.74294,0.1197374 2.80947,-0.1971137 2.23849,0.293064 -15.24966,13.0914046 -10.52308,14.9979536 -17.33193,11.9969446 -8.8853,-2.284703 -17.79206,-4.469697 -26.77747,-6.332442 -7.68694,-1.6813835 -15.51051,-3.0836769 -23.02309,-5.3978591 -0.49783,-0.5881743 -2.10387,-1.294216 -1.49347,-1.764523 14.93422,-11.5066571 15.25224,-11.688311 28.96752,-11.4657457 8.71695,0.052287 17.43796,0.063277 26.15139,-0.2175339 0,0 -17.12871,12.4447356 -17.12871,12.4447356 z"
     inkscape:connector-curvature="0" />
</svg>
