<?xml version="1.0" standalone="yes"?>

<svg version="1.1" viewBox="0.0 0.0 1058.3044619422571 793.6692913385826" fill="none" stroke="none" stroke-linecap="square" stroke-miterlimit="10" xmlns="http://www.w3.org/2000/svg" xmlns:xlink="http://www.w3.org/1999/xlink"><clipPath id="g2768474cd2_0_736.0"><path d="m0 0l1058.3044 0l0 793.6693l-1058.3044 0l0 -793.6693z" clip-rule="nonzero"></path></clipPath><g clip-path="url(#g2768474cd2_0_736.0)"><path fill="#ffffff" d="m0 0l1058.3044 0l0 793.6693l-1058.3044 0z" fill-rule="evenodd"></path><path fill="#000000" fill-opacity="0.0" d="m821.72705 107.56956l0.661438 671.937" fill-rule="evenodd"></path><path stroke="#595959" stroke-width="1.0" stroke-linejoin="round" stroke-linecap="butt" d="m821.72705 107.56956l0.661438 671.937" fill-rule="evenodd"></path><path fill="#666666" d="m439.90546 4.729407l0 0c0 1.5479975 33.47641 2.8028975 74.77167 2.8028975c41.295227 0 74.77167 -1.2549 74.77167 -2.8028975l0 98.20523c0 1.5479965 -33.47644 2.8028946 -74.77167 2.8028946c-41.295258 0 -74.77167 -1.2548981 -74.77167 -2.8028946z" fill-rule="evenodd"></path><path fill="#a3a3a3" d="m439.90546 4.729407l0 0c0 -1.5479977 33.47641 -2.8028977 74.77167 -2.8028977c41.295227 0 74.77167 1.2549 74.77167 2.8028977l0 0c0 1.5479975 -33.47644 2.8028975 -74.77167 2.8028975c-41.295258 0 -74.77167 -1.2549 -74.77167 -2.8028975z" fill-rule="evenodd"></path><path fill="#000000" fill-opacity="0.0" d="m589.4488 4.729407l0 0c0 1.5479975 -33.47644 2.8028975 -74.77167 2.8028975c-41.295258 0 -74.77167 -1.2549 -74.77167 -2.8028975l0 0c0 -1.5479977 33.47641 -2.8028977 74.77167 -2.8028977c41.295227 0 74.77167 1.2549 74.77167 2.8028977l0 98.20523c0 1.5479965 -33.47644 2.8028946 -74.77167 2.8028946c-41.295258 0 -74.77167 -1.2548981 -74.77167 -2.8028946l0 -98.20523" fill-rule="evenodd"></path><path stroke="#666666" stroke-width="1.0" stroke-linejoin="round" stroke-linecap="butt" d="m589.4488 4.729407l0 0c0 1.5479975 -33.47644 2.8028975 -74.77167 2.8028975c-41.295258 0 -74.77167 -1.2549 -74.77167 -2.8028975l0 0c0 -1.5479977 33.47641 -2.8028977 74.77167 -2.8028977c41.295227 0 74.77167 1.2549 74.77167 2.8028977l0 98.20523c0 1.5479965 -33.47644 2.8028946 -74.77167 2.8028946c-41.295258 0 -74.77167 -1.2548981 -74.77167 -2.8028946l0 -98.20523" fill-rule="evenodd"></path><path fill="#ffffff" d="m456.23962 61.500343l4.5 -0.4375q0.40625 2.265625 1.640625 3.328125q1.25 1.0625 3.359375 1.0625q2.234375 0 3.359375 -0.9375q1.140625 -0.953125 1.140625 -2.21875q0 -0.8125 -0.484375 -1.375q-0.46875 -0.578125 -1.65625 -1.0q-0.8125 -0.28125 -3.703125 -1.0q-3.71875 -0.921875 -5.21875 -2.265625q-2.109375 -1.890625 -2.109375 -4.609375q0 -1.75 0.984375 -3.265625q1.0 -1.53125 2.859375 -2.328125q1.875 -0.796875 4.515625 -0.796875q4.3125 0 6.484375 1.890625q2.1875 1.890625 2.296875 5.046875l-4.625 0.203125q-0.296875 -1.765625 -1.28125 -2.53125q-0.96875 -0.78125 -2.921875 -0.78125q-2.015625 0 -3.15625 0.828125q-0.734375 0.53125 -0.734375 1.421875q0 0.8125 0.6875 1.390625q0.875 0.734375 4.25 1.53125q3.375 0.796875 4.984375 1.65625q1.625 0.84375 2.53125 2.328125q0.921875 1.46875 0.921875 3.640625q0 1.96875 -1.09375 3.6875q-1.09375 1.71875 -3.09375 2.5625q-2.0 0.828125 -4.984375 0.828125q-4.34375 0 -6.671875 -2.0q-2.328125 -2.015625 -2.78125 -5.859375zm32.09375 2.171875l4.375 0.734375q-0.84375 2.40625 -2.671875 3.671875q-1.8125 1.25 -4.546875 1.25q-4.328125 0 -6.40625 -2.828125q-1.640625 -2.265625 -1.640625 -5.71875q0 -4.125 2.15625 -6.453125q2.15625 -2.34375 5.453125 -2.34375q3.703125 0 5.84375 2.453125q2.140625 2.4375 2.046875 7.484375l-11.0 0q0.046875 1.953125 1.0625 3.046875q1.015625 1.078125 2.53125 1.078125q1.03125 0 1.734375 -0.5625q0.703125 -0.5625 1.0625 -1.8125zm0.25 -4.4375q-0.046875 -1.90625 -0.984375 -2.890625q-0.9375 -1.0 -2.28125 -1.0q-1.4375 0 -2.375 1.046875q-0.9375 1.046875 -0.921875 2.84375l6.5625 0zm12.140625 9.71875l-4.390625 0l0 -16.59375l4.078125 0l0 2.359375q1.046875 -1.671875 1.875 -2.203125q0.84375 -0.53125 1.90625 -0.53125q1.5 0 2.890625 0.828125l-1.359375 3.828125q-1.109375 -0.71875 -2.0625 -0.71875q-0.921875 0 -1.5625 0.515625q-0.640625 0.5 -1.015625 1.828125q-0.359375 1.328125 -0.359375 5.5625l0 5.125zm12.8125 0l-6.6875 -16.59375l4.609375 0l3.125 8.46875l0.90625 2.828125q0.359375 -1.078125 0.453125 -1.421875q0.21875 -0.703125 0.46875 -1.40625l3.15625 -8.46875l4.515625 0l-6.59375 16.59375l-3.953125 0zm22.84375 -5.28125l4.375 0.734375q-0.84375 2.40625 -2.671875 3.671875q-1.8125 1.25 -4.546875 1.25q-4.328125 0 -6.40625 -2.828125q-1.640625 -2.265625 -1.640625 -5.71875q0 -4.125 2.15625 -6.453125q2.15625 -2.34375 5.453125 -2.34375q3.703125 0 5.84375 2.453125q2.140625 2.4375 2.046875 7.484375l-11.0 0q0.046875 1.953125 1.0625 3.046875q1.015625 1.078125 2.53125 1.078125q1.03125 0 1.734375 -0.5625q0.703125 -0.5625 1.0625 -1.8125zm0.25 -4.4375q-0.046875 -1.90625 -0.984375 -2.890625q-0.9375 -1.0 -2.28125 -1.0q-1.4375 0 -2.375 1.046875q-0.9375 1.046875 -0.921875 2.84375l6.5625 0zm18.859375 9.71875l0 -2.484375q-0.90625 1.328125 -2.390625 2.09375q-1.46875 0.765625 -3.109375 0.765625q-1.671875 0 -3.0 -0.734375q-1.328125 -0.734375 -1.921875 -2.0625q-0.59375 -1.328125 -0.59375 -3.671875l0 -10.5l4.390625 0l0 7.625q0 3.5 0.234375 4.296875q0.25 0.78125 0.890625 1.25q0.640625 0.453125 1.625 0.453125q1.125 0 2.015625 -0.609375q0.890625 -0.625 1.21875 -1.53125q0.328125 -0.921875 0.328125 -4.484375l0 -7.0l4.390625 0l0 16.59375l-4.078125 0zm12.828125 0l-4.390625 0l0 -16.59375l4.078125 0l0 2.359375q1.046875 -1.671875 1.875 -2.203125q0.84375 -0.53125 1.90625 -0.53125q1.5 0 2.890625 0.828125l-1.359375 3.828125q-1.109375 -0.71875 -2.0625 -0.71875q-0.921875 0 -1.5625 0.515625q-0.640625 0.5 -1.015625 1.828125q-0.359375 1.328125 -0.359375 5.5625l0 5.125z" fill-rule="nonzero"></path><path fill="#000000" fill-opacity="0.0" d="m207.62733 105.73753l0.6614227 671.937" fill-rule="evenodd"></path><path stroke="#595959" stroke-width="1.0" stroke-linejoin="round" stroke-linecap="butt" d="m207.62733 105.73753l0.6614227 671.937" fill-rule="evenodd"></path><path fill="#3972ce" d="m182.28871 443.93176l51.338593 0l0 103.811035l-51.338593 0z" fill-rule="evenodd"></path><path stroke="#3972ce" stroke-width="1.0" stroke-linejoin="round" stroke-linecap="butt" d="m182.28871 443.93176l51.338593 0l0 103.811035l-51.338593 0z" fill-rule="evenodd"></path><path fill="#000000" fill-opacity="0.0" d="m514.3465 105.73753l0.661438 671.937" fill-rule="evenodd"></path><path stroke="#595959" stroke-width="1.0" stroke-linejoin="round" stroke-linecap="butt" d="m514.3465 105.73753l0.661438 671.937" fill-rule="evenodd"></path><path fill="#86ba0c" d="m489.3386 105.632545l51.338593 0l0 671.937l-51.338593 0z" fill-rule="evenodd"></path><path stroke="#86ba0c" stroke-width="1.0" stroke-linejoin="round" stroke-linecap="butt" d="m489.3386 105.632545l51.338593 0l0 671.937l-51.338593 0z" fill-rule="evenodd"></path><path fill="#3c78d8" d="m182.28871 119.52231l51.338593 0l0 42.110245l-51.338593 0z" fill-rule="evenodd"></path><path stroke="#3c78d8" stroke-width="1.0" stroke-linejoin="round" stroke-linecap="butt" d="m182.28871 119.52231l51.338593 0l0 42.110245l-51.338593 0z" fill-rule="evenodd"></path><path fill="#ffd140" d="m489.00787 185.63255l51.338562 0l0 42.11023l-51.338562 0z" fill-rule="evenodd"></path><path stroke="#ffd140" stroke-width="1.0" stroke-linejoin="round" stroke-linecap="butt" d="m489.00787 185.63255l51.338562 0l0 42.11023l-51.338562 0z" fill-rule="evenodd"></path><path fill="#000000" fill-opacity="0.0" d="m207.95801 161.63255l306.70868 24.0" fill-rule="evenodd"></path><path stroke="#595959" stroke-width="3.0" stroke-linejoin="round" stroke-linecap="butt" d="m207.95801 161.63255l288.76352 22.59578" fill-rule="evenodd"></path><path fill="#595959" stroke="#595959" stroke-width="3.0" stroke-linecap="butt" d="m496.33496 189.16843l13.959351 -3.8780212l-13.186218 -6.0021667z" fill-rule="evenodd"></path><path fill="#3c78d8" d="m181.95801 243.74278l51.338577 0l0 119.14961l-51.338577 0z" fill-rule="evenodd"></path><path stroke="#3c78d8" stroke-width="1.0" stroke-linejoin="round" stroke-linecap="butt" d="m181.95801 243.74278l51.338577 0l0 119.14961l-51.338577 0z" fill-rule="evenodd"></path><path fill="#000000" fill-opacity="0.0" d="m514.6772 227.74278l-307.0551 16.0" fill-rule="evenodd"></path><path stroke="#595959" stroke-width="3.0" stroke-linejoin="round" stroke-linecap="butt" d="m514.6772 227.74278l-289.07953 15.063324" fill-rule="evenodd"></path><path fill="#595959" stroke="#595959" stroke-width="3.0" stroke-linecap="butt" d="m225.3398 237.85762l-13.337982 5.6569366l13.853699 4.240036z" fill-rule="evenodd"></path><path fill="#000000" fill-opacity="0.0" d="m314.93964 183.52231l108.75589 0l0 32.220474l-108.75589 0z" fill-rule="evenodd"></path><path fill="#3c78d8" d="m330.25214 218.12231l0 -16.0625l-5.734375 0l0 -3.265625l15.359375 0l0 3.265625l-5.71875 0l0 16.0625l-3.90625 0zm11.938934 0l0 -19.328125l6.265625 0q3.546875 0 4.640625 0.296875q1.65625 0.421875 2.765625 1.890625q1.125 1.453125 1.125 3.765625q0 1.765625 -0.640625 2.984375q-0.640625 1.21875 -1.640625 1.90625q-1.0 0.6875 -2.03125 0.921875q-1.390625 0.265625 -4.046875 0.265625l-2.546875 0l0 7.296875l-3.890625 0zm3.890625 -16.0625l0 5.484375l2.140625 0q2.3125 0 3.078125 -0.296875q0.78125 -0.3125 1.21875 -0.953125q0.453125 -0.640625 0.453125 -1.5q0 -1.0625 -0.625 -1.734375q-0.609375 -0.6875 -1.5625 -0.859375q-0.703125 -0.140625 -2.8125 -0.140625l-1.890625 0zm29.43576 13.609375q1.4375 1.03125 3.125 1.640625l-1.4375 2.75q-0.875 -0.265625 -1.71875 -0.71875q-0.1875 -0.09375 -2.59375 -1.71875q-1.90625 0.828125 -4.21875 0.828125q-4.453125 0 -6.984375 -2.625q-2.515625 -2.625 -2.515625 -7.359375q0 -4.734375 2.53125 -7.359375q2.53125 -2.640625 6.875 -2.640625q4.296875 0 6.8125 2.640625q2.515625 2.625 2.515625 7.359375q0 2.5 -0.703125 4.390625q-0.515625 1.453125 -1.6875 2.8125zm-3.125 -2.203125q0.75 -0.875 1.125 -2.125q0.375 -1.265625 0.375 -2.875q0 -3.359375 -1.484375 -5.015625q-1.46875 -1.65625 -3.859375 -1.65625q-2.390625 0 -3.875 1.671875q-1.484375 1.65625 -1.484375 5.0q0 3.375 1.484375 5.0625q1.484375 1.6875 3.75 1.6875q0.84375 0 1.609375 -0.28125q-1.1875 -0.78125 -2.421875 -1.21875l1.09375 -2.21875q1.921875 0.65625 3.6875 1.96875zm16.968475 4.65625l-3.703125 0l0 -13.96875q-2.03125 1.90625 -4.78125 2.8125l0 -3.359375q1.453125 -0.46875 3.140625 -1.796875q1.703125 -1.328125 2.34375 -3.09375l3.0 0l0 19.40625z" fill-rule="nonzero"></path><path fill="#ffd140" d="m489.00787 385.63254l51.338562 0l0 42.11023l-51.338562 0z" fill-rule="evenodd"></path><path stroke="#ffd140" stroke-width="1.0" stroke-linejoin="round" stroke-linecap="butt" d="m489.00787 385.63254l51.338562 0l0 42.11023l-51.338562 0z" fill-rule="evenodd"></path><path fill="#000000" fill-opacity="0.0" d="m207.6273 362.8924l307.0551 22.740143" fill-rule="evenodd"></path><path stroke="#595959" stroke-width="3.0" stroke-linejoin="round" stroke-linecap="butt" d="m207.6273 362.8924l289.1043 21.410706" fill-rule="evenodd"></path><path fill="#595959" stroke="#595959" stroke-width="3.0" stroke-linecap="butt" d="m496.3656 389.24478l13.943085 -3.9361572l-13.211121 -5.947174z" fill-rule="evenodd"></path><path fill="#000000" fill-opacity="0.0" d="m306.93964 375.5223l108.75589 0l0 32.22046l-108.75589 0z" fill-rule="evenodd"></path><path fill="#3c78d8" d="m322.25214 410.1223l0 -16.0625l-5.734375 0l0 -3.265625l15.359375 0l0 3.265625l-5.71875 0l0 16.0625l-3.90625 0zm11.938934 0l0 -19.328125l6.265625 0q3.546875 0 4.640625 0.296875q1.65625 0.421875 2.765625 1.890625q1.125 1.453125 1.125 3.765625q0 1.765625 -0.640625 2.984375q-0.640625 1.21875 -1.640625 1.90625q-1.0 0.6875 -2.03125 0.921875q-1.390625 0.265625 -4.046875 0.265625l-2.546875 0l0 7.296875l-3.890625 0zm3.890625 -16.0625l0 5.484375l2.140625 0q2.3125 0 3.078125 -0.296875q0.78125 -0.3125 1.21875 -0.953125q0.453125 -0.640625 0.453125 -1.5q0 -1.0625 -0.625 -1.734375q-0.609375 -0.6875 -1.5625 -0.859375q-0.703125 -0.140625 -2.8125 -0.140625l-1.890625 0zm29.43576 13.609375q1.4375 1.03125 3.125 1.640625l-1.4375 2.75q-0.875 -0.265625 -1.71875 -0.71875q-0.1875 -0.09375 -2.59375 -1.71875q-1.90625 0.828125 -4.21875 0.828125q-4.453125 0 -6.984375 -2.625q-2.515625 -2.625 -2.515625 -7.359375q0 -4.734375 2.53125 -7.359375q2.53125 -2.640625 6.875 -2.640625q4.296875 0 6.8125 2.640625q2.515625 2.625 2.515625 7.359375q0 2.5 -0.703125 4.390625q-0.515625 1.453125 -1.6875 2.8125zm-3.125 -2.203125q0.75 -0.875 1.125 -2.125q0.375 -1.265625 0.375 -2.875q0 -3.359375 -1.484375 -5.015625q-1.46875 -1.65625 -3.859375 -1.65625q-2.390625 0 -3.875 1.671875q-1.484375 1.65625 -1.484375 5.0q0 3.375 1.484375 5.0625q1.484375 1.6875 3.75 1.6875q0.84375 0 1.609375 -0.28125q-1.1875 -0.78125 -2.421875 -1.21875l1.09375 -2.21875q1.921875 0.65625 3.6875 1.96875zm19.999725 1.21875l0 3.4375l-12.984375 0q0.21875 -1.953125 1.265625 -3.6875q1.0625 -1.75 4.171875 -4.640625q2.5 -2.34375 3.0625 -3.171875q0.765625 -1.140625 0.765625 -2.265625q0 -1.234375 -0.671875 -1.890625q-0.65625 -0.671875 -1.828125 -0.671875q-1.15625 0 -1.84375 0.703125q-0.6875 0.6875 -0.796875 2.3125l-3.6875 -0.375q0.328125 -3.0625 2.0625 -4.390625q1.75 -1.328125 4.359375 -1.328125q2.859375 0 4.484375 1.546875q1.640625 1.53125 1.640625 3.828125q0 1.3125 -0.46875 2.5q-0.46875 1.171875 -1.484375 2.453125q-0.671875 0.859375 -2.421875 2.46875q-1.75 1.609375 -2.21875 2.140625q-0.46875 0.53125 -0.765625 1.03125l7.359375 0z" fill-rule="nonzero"></path><path fill="#000000" fill-opacity="0.0" d="m514.6772 427.74277l-306.70868 16.188995" fill-rule="evenodd"></path><path stroke="#595959" stroke-width="3.0" stroke-linejoin="round" stroke-linecap="butt" d="m514.6772 427.74277l-288.7337 15.240204" fill-rule="evenodd"></path><path fill="#595959" stroke="#595959" stroke-width="3.0" stroke-linecap="butt" d="m225.6823 438.03467l-13.334183 5.665924l13.856552 4.230713z" fill-rule="evenodd"></path><path fill="#000000" fill-opacity="0.0" d="m182.28871 140.57742l0 355.2756" fill-rule="evenodd"></path><path stroke="#3972ce" stroke-width="8.0" stroke-linejoin="round" stroke-linecap="butt" d="m182.28871 140.57742l0 355.2756" fill-rule="evenodd"></path><path fill="#000000" fill-opacity="0.0" d="m92.173225 253.97375l71.149605 0l0 63.212585l-71.149605 0z" fill-rule="evenodd"></path><path fill="#3972ce" d="m127.12635 297.73312q2.1406326 1.53125 4.6406326 2.421875l-2.140625 4.09375q-1.296875 -0.390625 -2.5468826 -1.078125q-0.28125 -0.140625 -3.859375 -2.546875q-2.8125 1.234375 -6.21875 1.234375q-6.609375 0 -10.359375 -3.875q-3.734375 -3.890625 -3.734375 -10.921875q0 -7.015625 3.75 -10.90625q3.75 -3.90625 10.1875 -3.90625q6.359375 0 10.09375 3.90625q3.7343826 3.890625 3.7343826 10.90625q0 3.703125 -1.046875 6.515625q-0.78125 2.15625 -2.5000076 4.15625zm-4.640625 -3.25q1.109375 -1.3125 1.65625 -3.171875q0.5625 -1.859375 0.5625 -4.25q0 -4.96875 -2.1875 -7.421875q-2.1875 -2.453125 -5.71875 -2.453125q-3.53125 0 -5.734375 2.46875q-2.1875 2.453125 -2.1875 7.40625q0 5.015625 2.1875 7.515625q2.203125 2.484375 5.5625 2.484375q1.25 0 2.359375 -0.421875q-1.75 -1.140625 -3.578125 -1.796875l1.625 -3.296875q2.859375 0.984375 5.453125 2.9375z" fill-rule="nonzero"></path><path fill="#3972ce" d="m142.91151 316.37375l-3.703125 0l0 -13.96875q-2.03125 1.90625 -4.78125 2.8125l0 -3.359375q1.453125 -0.46875 3.140625 -1.796875q1.703125 -1.328125 2.34375 -3.09375l3.0 0l0 19.40625z" fill-rule="nonzero"></path><path fill="#06b1d2" d="m797.958 170.8916l51.338562 0l0 42.110245l-51.338562 0z" fill-rule="evenodd"></path><path stroke="#06b1d2" stroke-width="1.0" stroke-linejoin="round" stroke-linecap="butt" d="m797.958 170.8916l51.338562 0l0 42.110245l-51.338562 0z" fill-rule="evenodd"></path><path fill="#06b1d2" d="m797.958 306.8916l51.338562 0l0 42.11023l-51.338562 0z" fill-rule="evenodd"></path><path stroke="#06b1d2" stroke-width="1.0" stroke-linejoin="round" stroke-linecap="butt" d="m797.958 306.8916l51.338562 0l0 42.11023l-51.338562 0z" fill-rule="evenodd"></path><path fill="#000000" fill-opacity="0.0" d="m849.2966 191.94672l0 136.0" fill-rule="evenodd"></path><path stroke="#06b1d2" stroke-width="8.0" stroke-linejoin="round" stroke-linecap="butt" d="m849.2966 191.94672l0 136.0" fill-rule="evenodd"></path><path fill="#000000" fill-opacity="0.0" d="m882.31494 228.3412l71.1496 0l0 63.2126l-71.1496 0z" fill-rule="evenodd"></path><path fill="#06b1d2" d="m917.26807 272.1006q2.140625 1.53125 4.640625 2.421875l-2.140625 4.09375q-1.296875 -0.390625 -2.546875 -1.078125q-0.28125 -0.140625 -3.859375 -2.546875q-2.8125 1.234375 -6.21875 1.234375q-6.609375 0 -10.359375 -3.875q-3.734375 -3.890625 -3.734375 -10.921875q0 -7.015625 3.75 -10.90625q3.75 -3.90625 10.1875 -3.90625q6.359375 0 10.09375 3.90625q3.734375 3.890625 3.734375 10.90625q0 3.703125 -1.046875 6.515625q-0.78125 2.15625 -2.5 4.15625zm-4.640625 -3.25q1.109375 -1.3125 1.65625 -3.171875q0.5625 -1.859375 0.5625 -4.25q0 -4.96875 -2.1875 -7.421875q-2.1875 -2.453125 -5.71875 -2.453125q-3.53125 0 -5.734375 2.46875q-2.1875 2.453125 -2.1875 7.40625q0 5.015625 2.1875 7.515625q2.203125 2.484375 5.5625 2.484375q1.25 0 2.359375 -0.421875q-1.75 -1.140625 -3.578125 -1.796875l1.625 -3.296875q2.859375 0.984375 5.453125 2.9375z" fill-rule="nonzero"></path><path fill="#06b1d2" d="m936.0845 287.3037l0 3.4375l-12.984375 0q0.21875 -1.953125 1.265625 -3.6875q1.0625 -1.75 4.171875 -4.640625q2.5 -2.34375 3.0625 -3.171875q0.765625 -1.140625 0.765625 -2.265625q0 -1.234375 -0.671875 -1.890625q-0.65625 -0.671875 -1.828125 -0.671875q-1.15625 0 -1.84375 0.703125q-0.6875 0.6875 -0.796875 2.3125l-3.6875 -0.375q0.328125 -3.0625 2.0625 -4.390625q1.75 -1.328125 4.359375 -1.328125q2.859375 0 4.484375 1.546875q1.640625 1.53125 1.640625 3.828125q0 1.3125 -0.46875 2.5q-0.46875 1.171875 -1.484375 2.453125q-0.671875 0.859375 -2.421875 2.46875q-1.75 1.609375 -2.21875 2.140625q-0.46875 0.53125 -0.765625 1.03125l7.359375 0z" fill-rule="nonzero"></path><path fill="#ffd140" d="m489.00787 241.63255l51.338562 0l0 42.110214l-51.338562 0z" fill-rule="evenodd"></path><path stroke="#ffd140" stroke-width="1.0" stroke-linejoin="round" stroke-linecap="butt" d="m489.00787 241.63255l51.338562 0l0 42.110214l-51.338562 0z" fill-rule="evenodd"></path><path fill="#000000" fill-opacity="0.0" d="m823.6273 213.00185l-308.9449 28.629913" fill-rule="evenodd"></path><path stroke="#595959" stroke-width="3.0" stroke-linejoin="round" stroke-linecap="butt" d="m823.6273 213.00185l-291.02173 26.968979" fill-rule="evenodd"></path><path fill="#595959" stroke="#595959" stroke-width="3.0" stroke-linecap="butt" d="m532.1484 235.03677l-13.098938 6.1903076l14.013428 3.6777954z" fill-rule="evenodd"></path><path fill="#000000" fill-opacity="0.0" d="m514.6772 283.74277l308.9449 23.149628" fill-rule="evenodd"></path><path stroke="#595959" stroke-width="3.0" stroke-linejoin="round" stroke-linecap="butt" d="m514.6772 283.74277l290.99524 21.804626" fill-rule="evenodd"></path><path fill="#595959" stroke="#595959" stroke-width="3.0" stroke-linecap="butt" d="m805.3021 310.48874l13.946472 -3.9240723l-13.205994 -5.958618z" fill-rule="evenodd"></path><path fill="#000000" fill-opacity="0.0" d="m640.44354 238.57742l108.75592 0l0 32.22049l-108.75592 0z" fill-rule="evenodd"></path><path fill="#06b1d2" d="m655.75604 273.17743l0 -16.0625l-5.734375 0l0 -3.265625l15.359375 0l0 3.265625l-5.71875 0l0 16.0625l-3.90625 0zm11.938965 0l0 -19.328125l6.265625 0q3.546875 0 4.640625 0.296875q1.65625 0.421875 2.765625 1.890625q1.125 1.453125 1.125 3.765625q0 1.765625 -0.640625 2.984375q-0.640625 1.21875 -1.640625 1.90625q-1.0 0.6875 -2.03125 0.921875q-1.390625 0.265625 -4.046875 0.265625l-2.546875 0l0 7.296875l-3.890625 0zm3.890625 -16.0625l0 5.484375l2.140625 0q2.3125 0 3.078125 -0.296875q0.78125 -0.3125 1.21875 -0.953125q0.453125 -0.640625 0.453125 -1.5q0 -1.0625 -0.625 -1.734375q-0.609375 -0.6875 -1.5625 -0.859375q-0.703125 -0.140625 -2.8125 -0.140625l-1.890625 0zm29.435791 13.609375q1.4375 1.03125 3.125 1.640625l-1.4375 2.75q-0.875 -0.265625 -1.71875 -0.71875q-0.1875 -0.09375 -2.59375 -1.71875q-1.90625 0.828125 -4.21875 0.828125q-4.453125 0 -6.984375 -2.625q-2.515625 -2.625 -2.515625 -7.359375q0 -4.734375 2.53125 -7.359375q2.53125 -2.640625 6.875 -2.640625q4.296875 0 6.8125 2.640625q2.515625 2.625 2.515625 7.359375q0 2.5 -0.703125 4.390625q-0.515625 1.453125 -1.6875 2.8125zm-3.125 -2.203125q0.75 -0.875 1.125 -2.125q0.375 -1.265625 0.375 -2.875q0 -3.359375 -1.484375 -5.015625q-1.46875 -1.65625 -3.859375 -1.65625q-2.390625 0 -3.875 1.671875q-1.484375 1.65625 -1.484375 5.0q0 3.375 1.484375 5.0625q1.484375 1.6875 3.75 1.6875q0.84375 0 1.609375 -0.28125q-1.1875 -0.78125 -2.421875 -1.21875l1.09375 -2.21875q1.921875 0.65625 3.6875 1.96875zm16.968445 4.65625l-3.703125 0l0 -13.96875q-2.03125 1.90625 -4.78125 2.8125l0 -3.359375q1.453125 -0.46875 3.140625 -1.796875q1.703125 -1.328125 2.34375 -3.09375l3.0 0l0 19.40625z" fill-rule="nonzero"></path><path fill="#000000" fill-opacity="0.0" d="m175.19948 776.78217l63.338577 0" fill-rule="evenodd"></path><path stroke="#ef7c00" stroke-width="8.0" stroke-linejoin="round" stroke-linecap="butt" d="m175.19948 776.78217l63.338577 0" fill-rule="evenodd"></path></g></svg>

