<?xml version="1.0" encoding="UTF-8" standalone="no"?>
<svg
   xmlns:dc="http://purl.org/dc/elements/1.1/"
   xmlns:cc="http://creativecommons.org/ns#"
   xmlns:rdf="http://www.w3.org/1999/02/22-rdf-syntax-ns#"
   xmlns:svg="http://www.w3.org/2000/svg"
   xmlns="http://www.w3.org/2000/svg"
   xmlns:sodipodi="http://sodipodi.sourceforge.net/DTD/sodipodi-0.dtd"
   xmlns:inkscape="http://www.inkscape.org/namespaces/inkscape"
   version="1.1"
   viewBox="0 0 431.4286 464.28572"
   stroke-miterlimit="10"
   id="svg183"
   sodipodi:docname="archTPF.svg"
   width="431.42859"
   height="464.28574"
   style="fill:none;stroke:none;stroke-linecap:square;stroke-miterlimit:10"
   inkscape:version="0.92.2 5c3e80d, 2017-08-06">
  <metadata
     id="metadata189">
    <rdf:RDF>
      <cc:Work
         rdf:about="">
        <dc:format>image/svg+xml</dc:format>
        <dc:type
           rdf:resource="http://purl.org/dc/dcmitype/StillImage" />
        <dc:title></dc:title>
      </cc:Work>
    </rdf:RDF>
  </metadata>
  <defs
     id="defs187" />
  <sodipodi:namedview
     pagecolor="#ffffff"
     bordercolor="#666666"
     borderopacity="1"
     objecttolerance="10"
     gridtolerance="10"
     guidetolerance="10"
     inkscape:pageopacity="0"
     inkscape:pageshadow="2"
     inkscape:window-width="1280"
     inkscape:window-height="751"
     id="namedview185"
     showgrid="false"
     fit-margin-top="0"
     fit-margin-left="0"
     fit-margin-right="0"
     fit-margin-bottom="0"
     inkscape:zoom="0.7"
     inkscape:cx="-53.704956"
     inkscape:cy="209.69182"
     inkscape:window-x="0"
     inkscape:window-y="1"
     inkscape:window-maximized="1"
     inkscape:current-layer="svg183" />
  <clipPath
     id="g252dd04c3b_0_79.0">
    <path
       d="M 0,0 H 1058.3044 V 793.6693 H 0 Z"
       id="path2"
       inkscape:connector-curvature="0"
       style="clip-rule:nonzero" />
  </clipPath>
  <g
     clip-path="url(#g252dd04c3b_0_79.0)"
     id="g181"
     transform="translate(-582.85718,-142.24074)">
    <path
       d="M 0,0 H 1058.3044 V 793.6693 H 0 Z"
       id="path5"
       inkscape:connector-curvature="0"
       style="fill:#ffffff;fill-rule:evenodd" />
    <path
       d="m 673.49866,362.6929 v 0 c 0,-0.0145 0.0117,-0.0263 0.0263,-0.0263 h 252.294 c 0.007,0 0.0136,0.003 0.0186,0.008 0.005,0.005 0.008,0.0116 0.008,0.0186 v 60.92392 c 0,0.0145 -0.0117,0.0262 -0.0262,0.0262 h -252.294 c -0.0145,0 -0.0263,-0.0117 -0.0263,-0.0262 z"
       id="path7"
       inkscape:connector-curvature="0"
       style="fill:#dddddd;fill-rule:evenodd" />
    <path
       d="m 673.49866,362.6929 v 0 c 0,-0.0145 0.0117,-0.0263 0.0263,-0.0263 h 252.294 c 0.007,0 0.0136,0.003 0.0186,0.008 0.005,0.005 0.008,0.0116 0.008,0.0186 v 60.92392 c 0,0.0145 -0.0117,0.0262 -0.0262,0.0262 h -252.294 c -0.0145,0 -0.0263,-0.0117 -0.0263,-0.0262 z"
       id="path9"
       inkscape:connector-curvature="0"
       style="fill-rule:evenodd;stroke:#dddddd;stroke-width:1;stroke-linecap:butt;stroke-linejoin:round" />
    <path
       d="m 741.7246,396.38235 3.375,1.0625 q -0.78125,2.8125 -2.57813,4.1875 -1.79687,1.35937 -4.5625,1.35937 -3.42187,0 -5.625,-2.34375 -2.20312,-2.34375 -2.20312,-6.39062 0,-4.29688 2.20312,-6.65625 2.21875,-2.375 5.82813,-2.375 3.15625,0 5.125,1.85937 1.17187,1.09375 1.76562,3.15625 l -3.4375,0.82813 q -0.3125,-1.34375 -1.28125,-2.10938 -0.95312,-0.78125 -2.34375,-0.78125 -1.90625,0 -3.09375,1.375 -1.1875,1.375 -1.1875,4.4375 0,3.26563 1.17188,4.65625 1.17187,1.375 3.04687,1.375 1.375,0 2.375,-0.875 1,-0.89062 1.42188,-2.76562 z m 8.78516,-2.34375 -2.98438,-0.53125 q 0.5,-1.8125 1.71875,-2.67188 1.23438,-0.875 3.67188,-0.875 2.20312,0 3.28125,0.53125 1.07812,0.51563 1.51562,1.32813 0.4375,0.79687 0.4375,2.9375 l -0.0312,3.84375 q 0,1.64062 0.15625,2.42187 0.15625,0.78125 0.59375,1.67188 h -3.26562 q -0.125,-0.32813 -0.3125,-0.96875 -0.0781,-0.29688 -0.125,-0.39063 -0.84375,0.8125 -1.8125,1.23438 -0.95313,0.40625 -2.03125,0.40625 -1.92188,0 -3.03125,-1.04688 -1.10938,-1.04687 -1.10938,-2.64062 0,-1.04688 0.5,-1.875 0.5,-0.82813 1.40625,-1.26563 0.92188,-0.4375 2.625,-0.76562 2.3125,-0.4375 3.20313,-0.8125 v -0.32813 q 0,-0.95312 -0.46875,-1.34375 -0.46875,-0.40625 -1.76563,-0.40625 -0.89062,0 -1.39062,0.34375 -0.48438,0.34375 -0.78125,1.20313 z m 4.40625,2.67187 q -0.64063,0.21875 -2.01563,0.51563 -1.35937,0.28125 -1.78125,0.5625 -0.64062,0.46875 -0.64062,1.17187 0,0.6875 0.51562,1.1875 0.51563,0.5 1.3125,0.5 0.89063,0 1.6875,-0.57812 0.60938,-0.45313 0.79688,-1.09375 0.125,-0.42188 0.125,-1.60938 z m 17.33203,-2.78125 -3.25,0.57813 q -0.15625,-0.96875 -0.75,-1.45313 -0.57813,-0.5 -1.5,-0.5 -1.23438,0 -1.96875,0.85938 -0.71875,0.84375 -0.71875,2.82812 0,2.21875 0.73437,3.14063 0.75,0.90625 2,0.90625 0.9375,0 1.53125,-0.53125 0.60938,-0.53125 0.84375,-1.82813 l 3.23438,0.54688 q -0.5,2.21875 -1.9375,3.35937 -1.42188,1.14063 -3.82813,1.14063 -2.71875,0 -4.34375,-1.71875 -1.625,-1.73438 -1.625,-4.78125 0,-3.07813 1.625,-4.79688 1.625,-1.71875 4.40625,-1.71875 2.28125,0 3.60938,0.98438 1.34375,0.98437 1.9375,2.98437 z m 5.76953,-8.42187 v 6.32812 q 1.59375,-1.875 3.8125,-1.875 1.14062,0 2.04687,0.42188 0.92188,0.42187 1.375,1.07812 0.46875,0.65625 0.64063,1.45313 0.17187,0.79687 0.17187,2.48437 v 7.29688 h -3.29687 v -6.57813 q 0,-1.95312 -0.1875,-2.48437 -0.1875,-0.53125 -0.67188,-0.82813 -0.46875,-0.3125 -1.17187,-0.3125 -0.82813,0 -1.46875,0.40625 -0.64063,0.39063 -0.95313,1.1875 -0.29687,0.79688 -0.29687,2.375 v 6.23438 h -3.28125 v -17.1875 z m 18.59765,13.21875 3.28125,0.5625 q -0.64062,1.79687 -2.01562,2.75 -1.35938,0.9375 -3.40625,0.9375 -3.25,0 -4.79688,-2.125 -1.23437,-1.70313 -1.23437,-4.28125 0,-3.09375 1.60937,-4.84375 1.625,-1.76563 4.09375,-1.76563 2.78125,0 4.375,1.84375 1.60938,1.82813 1.54688,5.60938 h -8.25 q 0.0312,1.46875 0.79687,2.28125 0.76563,0.8125 1.89063,0.8125 0.78125,0 1.29687,-0.42188 0.53125,-0.42187 0.8125,-1.35937 z m 0.1875,-3.32813 q -0.0469,-1.42187 -0.75,-2.15625 -0.70312,-0.75 -1.70312,-0.75 -1.07813,0 -1.78125,0.78125 -0.70313,0.78125 -0.6875,2.125 z m 12.65625,7.29688 v -17.1875 h 3.46875 v 6.76562 h 6.79688 v -6.76562 h 3.46875 v 17.1875 h -3.46875 v -7.51563 h -6.79688 v 7.51563 z m 21.17579,0 V 388.4136 h -5.09375 v -2.90625 h 13.65625 v 2.90625 h -5.09375 v 14.28125 z m 14.66015,0 V 388.4136 h -5.09375 v -2.90625 h 13.65625 v 2.90625 h -5.09375 v 14.28125 z m 10.80078,0 v -17.1875 h 5.5625 q 3.17188,0 4.125,0.26562 1.48438,0.39063 2.46875,1.6875 1,1.28125 1,3.34375 0,1.57813 -0.57812,2.65625 -0.5625,1.07813 -1.45313,1.70313 -0.89062,0.60937 -1.79687,0.79687 -1.25,0.25 -3.59375,0.25 h -2.26563 v 6.48438 z m 3.46875,-14.28125 v 4.875 h 1.89063 q 2.0625,0 2.75,-0.26563 0.6875,-0.26562 1.07812,-0.84375 0.39063,-0.57812 0.39063,-1.32812 0,-0.9375 -0.54688,-1.54688 -0.54687,-0.60937 -1.39062,-0.76562 -0.625,-0.125 -2.5,-0.125 z"
       id="path11"
       inkscape:connector-curvature="0"
       style="fill:#000000;fill-rule:nonzero" />
    <path
       d="m 800.61676,320.99738 -0.94489,41.66928"
       id="path13"
       inkscape:connector-curvature="0"
       style="fill:#000000;fill-opacity:0;fill-rule:evenodd" />
    <path
       d="m 800.48083,326.99585 -0.67291,29.67236"
       id="path15"
       inkscape:connector-curvature="0"
       style="fill-rule:evenodd;stroke:#000000;stroke-width:1;stroke-linecap:butt;stroke-linejoin:round" />
    <path
       d="m 802.1321,327.03326 -1.5484,-4.57437 -1.75421,4.49948 z"
       id="path17"
       inkscape:connector-curvature="0"
       style="fill:#000000;fill-rule:evenodd;stroke:#000000;stroke-width:1;stroke-linecap:butt" />
    <path
       d="m 798.1566,356.63077 1.54846,4.57437 1.75415,-4.49948 z"
       id="path19"
       inkscape:connector-curvature="0"
       style="fill:#000000;fill-rule:evenodd;stroke:#000000;stroke-width:1;stroke-linecap:butt" />
    <path
       d="m 812.7349,177.19438 v 0 c 0,-4.285 3.47369,-7.75868 7.75867,-7.75868 h 120.95508 c 2.05774,0 4.03119,0.81743 5.4862,2.27246 1.45502,1.45503 2.27246,3.42848 2.27246,5.48622 v 31.03381 c 0,4.28501 -3.47369,7.75869 -7.75866,7.75869 H 820.49357 c -4.28498,0 -7.75867,-3.47368 -7.75867,-7.75869 z"
       id="path21"
       inkscape:connector-curvature="0"
       style="fill:#b6d7a8;fill-rule:evenodd" />
    <path
       d="m 812.7349,177.19438 v 0 c 0,-4.285 3.47369,-7.75868 7.75867,-7.75868 h 120.95508 c 2.05774,0 4.03119,0.81743 5.4862,2.27246 1.45502,1.45503 2.27246,3.42848 2.27246,5.48622 v 31.03381 c 0,4.28501 -3.47369,7.75869 -7.75866,7.75869 H 820.49357 c -4.28498,0 -7.75867,-3.47368 -7.75867,-7.75869 z"
       id="path23"
       inkscape:connector-curvature="0"
       style="fill-rule:evenodd;stroke:#b6d7a8;stroke-width:1;stroke-linecap:butt;stroke-linejoin:round" />
    <path
       d="m 837.7734,186.03754 h 5.01563 q 1.70312,0 2.59375,0.25 1.1875,0.35937 2.04687,1.26562 0.85938,0.89063 1.29688,2.20313 0.45312,1.29687 0.45312,3.20312 0,1.6875 -0.42187,2.89063 -0.51563,1.48437 -1.45313,2.40625 -0.71875,0.70312 -1.9375,1.09375 -0.90625,0.28125 -2.42187,0.28125 h -5.17188 z m 2.75,2.29687 v 9 h 2.04688 q 1.14062,0 1.65625,-0.125 0.67187,-0.17187 1.10937,-0.5625 0.4375,-0.40625 0.71875,-1.3125 0.28125,-0.92187 0.28125,-2.5 0,-1.57812 -0.28125,-2.42187 -0.28125,-0.84375 -0.78125,-1.3125 -0.5,-0.46875 -1.26562,-0.64063 -0.57813,-0.125 -2.25,-0.125 z m 13.20728,11.29688 h -2.60938 v -9.85938 h 2.42188 v 1.40625 q 0.625,-0.98437 1.10937,-1.29687 0.5,-0.32813 1.14063,-0.32813 0.89062,0 1.71875,0.5 l -0.8125,2.26563 q -0.65625,-0.42188 -1.21875,-0.42188 -0.54688,0 -0.9375,0.29688 -0.375,0.29687 -0.59375,1.09375 -0.21875,0.78125 -0.21875,3.29687 z m 11.24468,0 v -1.46875 q -0.53125,0.78125 -1.40625,1.23437 -0.875,0.45313 -1.85937,0.45313 -0.98438,0 -1.78125,-0.4375 -0.78125,-0.4375 -1.14063,-1.21875 -0.34375,-0.79688 -0.34375,-2.1875 v -6.23438 h 2.60938 v 4.53125 q 0,2.07813 0.14062,2.54688 0.14063,0.46875 0.51563,0.75 0.39062,0.26562 0.96875,0.26562 0.67187,0 1.20312,-0.35937 0.53125,-0.375 0.71875,-0.90625 0.1875,-0.54688 0.1875,-2.67188 v -4.15625 h 2.60938 v 9.85938 z m 4.67719,0.65625 2.96875,0.35937 q 0.0781,0.51563 0.34375,0.70313 0.375,0.28125 1.17188,0.28125 1.03125,0 1.53125,-0.29688 0.34375,-0.20312 0.51562,-0.65625 0.125,-0.32812 0.125,-1.20312 v -1.4375 q -1.17187,1.59375 -2.95312,1.59375 -1.98438,0 -3.14063,-1.67188 -0.90625,-1.32812 -0.90625,-3.3125 0,-2.46875 1.1875,-3.78125 1.1875,-1.3125 2.96875,-1.3125 1.82813,0 3.01563,1.60938 v -1.39063 h 2.4375 v 8.84375 q 0,1.75 -0.29688,2.60938 -0.28125,0.85937 -0.79687,1.34375 -0.51563,0.5 -1.39063,0.78125 -0.85937,0.28125 -2.1875,0.28125 -2.51562,0 -3.5625,-0.85938 -1.04687,-0.85937 -1.04687,-2.17187 0,-0.14063 0.0156,-0.3125 z m 2.32813,-5.78125 q 0,1.5625 0.60937,2.29687 0.60938,0.71875 1.5,0.71875 0.95313,0 1.60938,-0.73437 0.65625,-0.75 0.65625,-2.21875 0,-1.53125 -0.64063,-2.26563 -0.625,-0.75 -1.57812,-0.75 -0.9375,0 -1.54688,0.73438 -0.60937,0.71875 -0.60937,2.21875 z m 9.33349,-8.46875 h 5.4375 q 1.60938,0 2.40625,0.14062 0.79688,0.125 1.42188,0.54688 0.625,0.42187 1.03125,1.14062 0.42187,0.70313 0.42187,1.59375 0,0.95313 -0.51562,1.75 -0.5,0.79688 -1.39063,1.1875 1.25,0.375 1.90625,1.25 0.67188,0.85938 0.67188,2.04688 0,0.92187 -0.4375,1.79687 -0.42188,0.875 -1.17188,1.40625 -0.75,0.51563 -1.84375,0.64063 -0.6875,0.0781 -3.3125,0.0937 h -4.625 z m 2.75,2.25 v 3.15625 h 1.79688 q 1.60937,0 2,-0.0469 0.70312,-0.0937 1.09375,-0.48437 0.40625,-0.40625 0.40625,-1.0625 0,-0.64063 -0.34375,-1.03125 -0.34375,-0.39063 -1.03125,-0.48438 -0.40625,-0.0469 -2.34375,-0.0469 z m 0,5.42187 v 3.625 h 2.54688 q 1.48437,0 1.875,-0.0781 0.60937,-0.10938 1,-0.53125 0.39062,-0.4375 0.39062,-1.17188 0,-0.60937 -0.29687,-1.03125 -0.29688,-0.42187 -0.85938,-0.60937 -0.5625,-0.20313 -2.4375,-0.20313 z m 12.64484,-0.92187 -2.35938,-0.4375 q 0.39063,-1.42188 1.35938,-2.10938 0.98437,-0.6875 2.90625,-0.6875 1.73437,0 2.59375,0.42188 0.85937,0.40625 1.20312,1.04687 0.34375,0.625 0.34375,2.32813 l -0.0312,3.04687 q 0,1.29688 0.125,1.92188 0.125,0.60937 0.46875,1.3125 h -2.57812 q -0.0937,-0.26563 -0.25,-0.76563 -0.0625,-0.23437 -0.0937,-0.3125 -0.65625,0.65625 -1.42188,0.98438 -0.76562,0.3125 -1.625,0.3125 -1.51562,0 -2.40625,-0.8125 -0.875,-0.82813 -0.875,-2.09375 0,-0.84375 0.39063,-1.48438 0.40625,-0.65625 1.125,-1 0.71875,-0.35937 2.07812,-0.625 1.82813,-0.32812 2.53125,-0.625 v -0.26562 q 0,-0.75 -0.375,-1.0625 -0.35937,-0.32813 -1.39062,-0.32813 -0.70313,0 -1.09375,0.28125 -0.39063,0.26563 -0.625,0.95313 z m 3.48437,2.10937 q -0.5,0.17188 -1.59375,0.40625 -1.07812,0.23438 -1.40625,0.45313 -0.51562,0.35937 -0.51562,0.92187 0,0.54688 0.40625,0.95313 0.40625,0.39062 1.04687,0.39062 0.70313,0 1.34375,-0.46875 0.46875,-0.35937 0.625,-0.85937 0.0937,-0.34375 0.0937,-1.28125 z m 13.90698,4.73438 h -2.60937 v -5.03125 q 0,-1.59375 -0.17188,-2.0625 -0.15625,-0.46875 -0.53125,-0.71875 -0.375,-0.26563 -0.90625,-0.26563 -0.6875,0 -1.23437,0.375 -0.53125,0.35938 -0.73438,0.98438 -0.1875,0.60937 -0.1875,2.25 v 4.46875 h -2.60937 v -9.85938 h 2.42187 v 1.45313 q 1.29688,-1.67188 3.25,-1.67188 0.85938,0 1.57813,0.3125 0.71875,0.3125 1.07812,0.79688 0.35938,0.48437 0.5,1.09375 0.15625,0.60937 0.15625,1.75 z m 2.33344,0 v -13.59375 h 2.60937 v 7.20312 l 3.0625,-3.46875 h 3.20313 l -3.375,3.60938 3.60937,6.25 h -2.79687 l -2.48438,-4.42188 -1.21875,1.26563 v 3.15625 z"
       id="path25"
       inkscape:connector-curvature="0"
       style="fill:#000000;fill-rule:nonzero" />
    <path
       d="m 644.7349,177.19438 v 0 c 0,-4.285 3.47369,-7.75868 7.75867,-7.75868 h 120.95508 c 2.05774,0 4.03119,0.81743 5.4862,2.27246 1.45502,1.45503 2.27246,3.42848 2.27246,5.48622 v 31.03381 c 0,4.28501 -3.47369,7.75869 -7.75866,7.75869 H 652.49357 c -4.28498,0 -7.75867,-3.47368 -7.75867,-7.75869 z"
       id="path27"
       inkscape:connector-curvature="0"
       style="fill:#9fc5e8;fill-rule:evenodd" />
    <path
       d="m 644.7349,177.19438 v 0 c 0,-4.285 3.47369,-7.75868 7.75867,-7.75868 h 120.95508 c 2.05774,0 4.03119,0.81743 5.4862,2.27246 1.45502,1.45503 2.27246,3.42848 2.27246,5.48622 v 31.03381 c 0,4.28501 -3.47369,7.75869 -7.75866,7.75869 H 652.49357 c -4.28498,0 -7.75867,-3.47368 -7.75867,-7.75869 z"
       id="path29"
       inkscape:connector-curvature="0"
       style="fill-rule:evenodd;stroke:#9fc5e8;stroke-width:1;stroke-linecap:butt;stroke-linejoin:round" />
    <path
       d="m 676.5098,186.03754 h 5.01563 q 1.70312,0 2.59375,0.25 1.1875,0.35937 2.04687,1.26562 0.85938,0.89063 1.29688,2.20313 0.45312,1.29687 0.45312,3.20312 0,1.6875 -0.42187,2.89063 -0.51563,1.48437 -1.45313,2.40625 -0.71875,0.70312 -1.9375,1.09375 -0.90625,0.28125 -2.42187,0.28125 h -5.17188 z m 2.75,2.29687 v 9 h 2.04688 q 1.14062,0 1.65625,-0.125 0.67187,-0.17187 1.10937,-0.5625 0.4375,-0.40625 0.71875,-1.3125 0.28125,-0.92187 0.28125,-2.5 0,-1.57812 -0.28125,-2.42187 -0.28125,-0.84375 -0.78125,-1.3125 -0.5,-0.46875 -1.26562,-0.64063 -0.57813,-0.125 -2.25,-0.125 z m 10.73859,-2.29687 h 5.4375 q 1.60937,0 2.40625,0.14062 0.79687,0.125 1.42187,0.54688 0.625,0.42187 1.03125,1.14062 0.42188,0.70313 0.42188,1.59375 0,0.95313 -0.51563,1.75 -0.5,0.79688 -1.39062,1.1875 1.25,0.375 1.90625,1.25 0.67187,0.85938 0.67187,2.04688 0,0.92187 -0.4375,1.79687 -0.42187,0.875 -1.17187,1.40625 -0.75,0.51563 -1.84375,0.64063 -0.6875,0.0781 -3.3125,0.0937 h -4.625 z m 2.75,2.25 v 3.15625 h 1.79687 q 1.60938,0 2,-0.0469 0.70313,-0.0937 1.09375,-0.48437 0.40625,-0.40625 0.40625,-1.0625 0,-0.64063 -0.34375,-1.03125 -0.34375,-0.39063 -1.03125,-0.48438 -0.40625,-0.0469 -2.34375,-0.0469 z m 0,5.42187 v 3.625 h 2.54687 q 1.48438,0 1.875,-0.0781 0.60938,-0.10938 1,-0.53125 0.39063,-0.4375 0.39063,-1.17188 0,-0.60937 -0.29688,-1.03125 -0.29687,-0.42187 -0.85937,-0.60937 -0.5625,-0.20313 -2.4375,-0.20313 z m 10.62921,-3.9375 h 2.42187 v 1.45313 q 0.46875,-0.73438 1.28125,-1.20313 0.8125,-0.46875 1.79688,-0.46875 1.70312,0 2.90625,1.34375 1.20312,1.34375 1.20312,3.75 0,2.46875 -1.21875,3.84375 -1.20312,1.35938 -2.92187,1.35938 -0.8125,0 -1.48438,-0.3125 -0.65625,-0.32813 -1.39062,-1.125 v 4.96875 h -2.59375 z m 2.57812,4.76563 q 0,1.65625 0.65625,2.45312 0.65625,0.79688 1.59375,0.79688 0.92188,0 1.51563,-0.71875 0.60937,-0.73438 0.60937,-2.40625 0,-1.54688 -0.625,-2.29688 -0.625,-0.75 -1.53125,-0.75 -0.96875,0 -1.59375,0.73438 -0.625,0.73437 -0.625,2.1875 z m 14.58344,1.95312 2.60937,0.4375 q -0.5,1.4375 -1.59375,2.1875 -1.07812,0.73438 -2.70312,0.73438 -2.5625,0 -3.79688,-1.67188 -0.96875,-1.34375 -0.96875,-3.40625 0,-2.4375 1.26563,-3.82812 1.28125,-1.39063 3.25,-1.39063 2.1875,0 3.45312,1.45313 1.28125,1.45312 1.23438,4.45312 h -6.53125 q 0.0156,1.15625 0.625,1.8125 0.60937,0.64063 1.5,0.64063 0.60937,0 1.03125,-0.32813 0.42187,-0.34375 0.625,-1.09375 z m 0.15625,-2.625 q -0.0312,-1.14062 -0.59375,-1.71875 -0.54688,-0.59375 -1.34375,-0.59375 -0.85938,0 -1.40625,0.625 -0.5625,0.60938 -0.54688,1.6875 z m 13.56323,5.76563 h -2.42188 v -1.45313 q -0.60937,0.84375 -1.4375,1.26563 -0.8125,0.40625 -1.64062,0.40625 -1.70313,0 -2.92188,-1.35938 -1.20312,-1.375 -1.20312,-3.82812 0,-2.5 1.17187,-3.79688 1.1875,-1.3125 2.98438,-1.3125 1.65625,0 2.85937,1.375 v -4.89062 h 2.60938 z m -6.96875,-5.14063 q 0,1.57813 0.4375,2.28125 0.64062,1.01563 1.76562,1.01563 0.90625,0 1.53125,-0.76563 0.625,-0.76562 0.625,-2.28125 0,-1.70312 -0.60937,-2.4375 -0.60938,-0.75 -1.5625,-0.75 -0.9375,0 -1.5625,0.73438 -0.625,0.73437 -0.625,2.20312 z m 9.31787,-6.04687 v -2.40625 h 2.60938 v 2.40625 z m 0,11.1875 v -9.85938 h 2.60938 v 9.85938 z m 7.13641,-6.84375 -2.35937,-0.4375 q 0.39062,-1.42188 1.35937,-2.10938 0.98438,-0.6875 2.90625,-0.6875 1.73438,0 2.59375,0.42188 0.85938,0.40625 1.20313,1.04687 0.34375,0.625 0.34375,2.32813 l -0.0312,3.04687 q 0,1.29688 0.125,1.92188 0.125,0.60937 0.46875,1.3125 h -2.57813 q -0.0937,-0.26563 -0.25,-0.76563 -0.0625,-0.23437 -0.0937,-0.3125 -0.65625,0.65625 -1.42187,0.98438 -0.76563,0.3125 -1.625,0.3125 -1.51563,0 -2.40625,-0.8125 -0.875,-0.82813 -0.875,-2.09375 0,-0.84375 0.39062,-1.48438 0.40625,-0.65625 1.125,-1 0.71875,-0.35937 2.07813,-0.625 1.82812,-0.32812 2.53125,-0.625 v -0.26562 q 0,-0.75 -0.375,-1.0625 -0.35938,-0.32813 -1.39063,-0.32813 -0.70312,0 -1.09375,0.28125 -0.39062,0.26563 -0.625,0.95313 z m 3.48438,2.10937 q -0.5,0.17188 -1.59375,0.40625 -1.07813,0.23438 -1.40625,0.45313 -0.51563,0.35937 -0.51563,0.92187 0,0.54688 0.40625,0.95313 0.40625,0.39062 1.04688,0.39062 0.70312,0 1.34375,-0.46875 0.46875,-0.35937 0.625,-0.85937 0.0937,-0.34375 0.0937,-1.28125 z"
       id="path31"
       inkscape:connector-curvature="0"
       style="fill:#000000;fill-rule:nonzero" />
    <path
       d="m 712.9711,215.98688 86.70868,42.67715"
       id="path33"
       inkscape:connector-curvature="0"
       style="fill:#000000;fill-opacity:0;fill-rule:evenodd" />
    <path
       d="m 718.35443,218.63646 75.94208,37.37801"
       id="path35"
       inkscape:connector-curvature="0"
       style="fill-rule:evenodd;stroke:#000000;stroke-width:1;stroke-linecap:butt;stroke-linejoin:round" />
    <path
       d="m 719.0838,217.15451 -4.80103,-0.52206 3.34223,3.48597 z"
       id="path37"
       inkscape:connector-curvature="0"
       style="fill:#000000;fill-rule:evenodd;stroke:#000000;stroke-width:1;stroke-linecap:butt" />
    <path
       d="m 793.56714,257.4964 4.80103,0.52206 -3.34223,-3.48597 z"
       id="path39"
       inkscape:connector-curvature="0"
       style="fill:#000000;fill-rule:evenodd;stroke:#000000;stroke-width:1;stroke-linecap:butt" />
    <path
       d="m 880.9711,215.98688 -81.29132,42.67715"
       id="path41"
       inkscape:connector-curvature="0"
       style="fill:#000000;fill-opacity:0;fill-rule:evenodd" />
    <path
       d="m 875.6587,218.77583 -70.6665,37.09924"
       id="path43"
       inkscape:connector-curvature="0"
       style="fill-rule:evenodd;stroke:#000000;stroke-width:1;stroke-linecap:butt;stroke-linejoin:round" />
    <path
       d="m 876.4265,220.23828 3.25024,-3.57187 -4.78582,0.64699 z"
       id="path45"
       inkscape:connector-curvature="0"
       style="fill:#000000;fill-rule:evenodd;stroke:#000000;stroke-width:1;stroke-linecap:butt" />
    <path
       d="m 804.2244,254.41263 -3.25024,3.57187 4.78576,-0.64697 z"
       id="path47"
       inkscape:connector-curvature="0"
       style="fill:#000000;fill-rule:evenodd;stroke:#000000;stroke-width:1;stroke-linecap:butt" />
    <path
       d="m 673.49866,258.6929 v 0 c 0,-0.0145 0.0117,-0.0263 0.0263,-0.0263 h 252.294 c 0.007,0 0.0136,0.003 0.0186,0.008 0.005,0.005 0.008,0.0116 0.008,0.0186 v 60.92392 c 0,0.0145 -0.0117,0.0262 -0.0262,0.0262 h -252.294 c -0.0145,0 -0.0263,-0.0117 -0.0263,-0.0262 z"
       id="path49"
       inkscape:connector-curvature="0"
       style="fill:#434343;fill-rule:evenodd" />
    <path
       d="m 673.49866,258.6929 v 0 c 0,-0.0145 0.0117,-0.0263 0.0263,-0.0263 h 252.294 c 0.007,0 0.0136,0.003 0.0186,0.008 0.005,0.005 0.008,0.0116 0.008,0.0186 v 60.92392 c 0,0.0145 -0.0117,0.0262 -0.0262,0.0262 h -252.294 c -0.0145,0 -0.0263,-0.0117 -0.0263,-0.0262 z"
       id="path51"
       inkscape:connector-curvature="0"
       style="fill-rule:evenodd;stroke:#434343;stroke-width:1;stroke-linecap:butt;stroke-linejoin:round" />
    <path
       d="m 729.8535,293.1011 3.375,-0.32813 q 0.29688,1.70313 1.21875,2.5 0.9375,0.79688 2.53125,0.79688 1.67188,0 2.51563,-0.70313 0.85937,-0.71875 0.85937,-1.67187 0,-0.60938 -0.35937,-1.03125 -0.35938,-0.42188 -1.25,-0.75 -0.60938,-0.20313 -2.78125,-0.75 -2.78125,-0.6875 -3.90625,-1.6875 -1.59375,-1.42188 -1.59375,-3.46875 0,-1.3125 0.75,-2.45313 0.75,-1.14062 2.14062,-1.73437 1.40625,-0.59375 3.39063,-0.59375 3.23437,0 4.85937,1.42187 1.64063,1.40625 1.71875,3.78125 l -3.46875,0.14063 q -0.21875,-1.3125 -0.95312,-1.89063 -0.73438,-0.59375 -2.20313,-0.59375 -1.5,0 -2.35937,0.625 -0.54688,0.40625 -0.54688,1.0625 0,0.60938 0.51563,1.04688 0.65625,0.54687 3.1875,1.15625 2.53125,0.59375 3.73437,1.23437 1.21875,0.64063 1.90625,1.75 0.6875,1.09375 0.6875,2.73438 0,1.46875 -0.82812,2.76562 -0.8125,1.28125 -2.3125,1.92188 -1.5,0.625 -3.75,0.625 -3.25,0 -5,-1.5 -1.75,-1.51563 -2.07813,-4.40625 z m 24.07031,1.625 3.28125,0.5625 q -0.64062,1.79687 -2.01562,2.75 -1.35938,0.9375 -3.40625,0.9375 -3.25,0 -4.79688,-2.125 -1.23437,-1.70313 -1.23437,-4.28125 0,-3.09375 1.60937,-4.84375 1.625,-1.76563 4.09375,-1.76563 2.78125,0 4.375,1.84375 1.60938,1.82813 1.54688,5.60938 h -8.25 q 0.0312,1.46875 0.79687,2.28125 0.76563,0.8125 1.89063,0.8125 0.78125,0 1.29687,-0.42188 0.53125,-0.42187 0.8125,-1.35937 z m 0.1875,-3.32813 q -0.0469,-1.42187 -0.75,-2.15625 -0.70312,-0.75 -1.70312,-0.75 -1.07813,0 -1.78125,0.78125 -0.70313,0.78125 -0.6875,2.125 z m 9.09766,7.29688 h -3.29688 v -12.45313 h 3.0625 v 1.78125 q 0.78125,-1.26562 1.40625,-1.65625 0.64063,-0.40625 1.4375,-0.40625 1.125,0 2.15625,0.625 l -1.01562,2.875 q -0.82813,-0.54687 -1.54688,-0.54687 -0.6875,0 -1.17187,0.39062 -0.48438,0.375 -0.76563,1.375 -0.26562,1 -0.26562,4.17188 z m 9.60547,0 -5.01563,-12.45313 h 3.46875 l 2.34375,6.35938 0.67188,2.125 q 0.26562,-0.8125 0.34375,-1.07813 0.15625,-0.51562 0.34375,-1.04687 l 2.375,-6.35938 h 3.39062 l -4.95312,12.45313 z m 17.14453,-3.96875 3.28125,0.5625 q -0.64063,1.79687 -2.01563,2.75 -1.35937,0.9375 -3.40625,0.9375 -3.25,0 -4.79687,-2.125 -1.23438,-1.70313 -1.23438,-4.28125 0,-3.09375 1.60938,-4.84375 1.625,-1.76563 4.09375,-1.76563 2.78125,0 4.375,1.84375 1.60937,1.82813 1.54687,5.60938 h -8.25 q 0.0312,1.46875 0.79688,2.28125 0.76562,0.8125 1.89062,0.8125 0.78125,0 1.29688,-0.42188 0.53125,-0.42187 0.8125,-1.35937 z m 0.1875,-3.32813 q -0.0469,-1.42187 -0.75,-2.15625 -0.70313,-0.75 -1.70313,-0.75 -1.07812,0 -1.78125,0.78125 -0.70312,0.78125 -0.6875,2.125 z m 14.14453,7.29688 v -1.85938 q -0.6875,0.98438 -1.79688,1.5625 -1.10937,0.57813 -2.32812,0.57813 -1.26563,0 -2.26563,-0.54688 -0.98437,-0.5625 -1.4375,-1.54687 -0.4375,-1 -0.4375,-2.76563 v -7.875 h 3.29688 v 5.71875 q 0,2.625 0.17187,3.21875 0.1875,0.59375 0.65625,0.9375 0.48438,0.34375 1.23438,0.34375 0.84375,0 1.5,-0.45312 0.67187,-0.46875 0.92187,-1.15625 0.25,-0.6875 0.25,-3.35938 v -5.25 h 3.28125 v 12.45313 z m 9.61328,0 h -3.29687 v -12.45313 h 3.0625 v 1.78125 q 0.78125,-1.26562 1.40625,-1.65625 0.64062,-0.40625 1.4375,-0.40625 1.125,0 2.15625,0.625 l -1.01563,2.875 q -0.82812,-0.54687 -1.54687,-0.54687 -0.6875,0 -1.17188,0.39062 -0.48437,0.375 -0.76562,1.375 -0.26563,1 -0.26563,4.17188 z m 16.74219,0 V 284.4136 h -5.09375 v -2.90625 h 13.65625 v 2.90625 h -5.09375 v 14.28125 z m 10.80078,0 v -17.1875 h 5.5625 q 3.17187,0 4.125,0.26562 1.48437,0.39063 2.46875,1.6875 1,1.28125 1,3.34375 0,1.57813 -0.57813,2.65625 -0.5625,1.07813 -1.45312,1.70313 -0.89063,0.60937 -1.79688,0.79687 -1.25,0.25 -3.59375,0.25 H 844.916 v 6.48438 z M 844.916,284.4136 v 4.875 h 1.89062 q 2.0625,0 2.75,-0.26563 0.6875,-0.26562 1.07813,-0.84375 0.39062,-0.57812 0.39062,-1.32812 0,-0.9375 -0.54687,-1.54688 -0.54688,-0.60937 -1.39063,-0.76562 -0.625,-0.125 -2.5,-0.125 z m 12.55469,14.28125 v -17.1875 h 11.78125 v 2.90625 h -8.3125 v 4.07812 h 7.17187 v 2.90625 h -7.17187 v 7.29688 z"
       id="path53"
       inkscape:connector-curvature="0"
       style="fill:#ffffff;fill-rule:nonzero" />
    <path
       d="m 594.0315,475.26785 v 0 c 0,-3.34567 2.71222,-6.05789 6.05786,-6.05789 h 35.34882 c 1.60669,0 3.14752,0.63824 4.28357,1.77432 1.1361,1.13608 1.77429,2.67691 1.77429,4.28357 v 24.23071 c 0,3.34568 -2.71216,6.05786 -6.05786,6.05786 h -35.34882 v 0 c -3.34564,0 -6.05786,-2.71218 -6.05786,-6.05786 z"
       id="path55"
       inkscape:connector-curvature="0"
       style="fill:#eeeeee;fill-rule:evenodd" />
    <path
       d="m 594.0315,475.26785 v 0 c 0,-3.34567 2.71222,-6.05789 6.05786,-6.05789 h 35.34882 c 1.60669,0 3.14752,0.63824 4.28357,1.77432 1.1361,1.13608 1.77429,2.67691 1.77429,4.28357 v 24.23071 c 0,3.34568 -2.71216,6.05786 -6.05786,6.05786 h -35.34882 v 0 c -3.34564,0 -6.05786,-2.71218 -6.05786,-6.05786 z"
       id="path57"
       inkscape:connector-curvature="0"
       style="fill-rule:evenodd;stroke:#595959;stroke-width:1;stroke-linecap:butt;stroke-linejoin:round" />
    <path
       d="m 614.7589,487.3657 -2.5625,0.46875 q -0.14062,-0.78125 -0.59375,-1.17188 -0.45312,-0.39062 -1.1875,-0.39062 -0.98437,0 -1.5625,0.67187 -0.57812,0.67188 -0.57812,2.25 0,1.76563 0.57812,2.48438 0.59375,0.71875 1.59375,0.71875 0.75,0 1.21875,-0.42188 0.46875,-0.42187 0.67188,-1.45312 l 2.54687,0.4375 q -0.39062,1.76562 -1.53125,2.67187 -1.125,0.89063 -3.03125,0.89063 -2.15625,0 -3.45312,-1.35938 -1.28125,-1.35937 -1.28125,-3.78125 0,-2.4375 1.29687,-3.79687 1.29688,-1.35938 3.48438,-1.35938 1.79687,0 2.85937,0.78125 1.0625,0.76563 1.53125,2.35938 z m 7.90698,6.9375 h -2.60937 v -9.82813 q -1.4375,1.34375 -3.375,1.98438 v -2.375 q 1.03125,-0.32813 2.21875,-1.25 1.20312,-0.9375 1.64062,-2.1875 h 2.125 z"
       id="path59"
       inkscape:connector-curvature="0"
       style="fill:#000000;fill-rule:nonzero" />
    <path
       d="m 666.0315,539.2678 v 0 c 0,-3.34564 2.71222,-6.05786 6.05786,-6.05786 h 35.34882 c 1.60669,0 3.14752,0.63824 4.28357,1.77429 1.1361,1.13611 1.77429,2.67694 1.77429,4.28357 v 24.23077 c 0,3.34565 -2.71216,6.05787 -6.05786,6.05787 h -35.34882 v 0 c -3.34564,0 -6.05786,-2.71222 -6.05786,-6.05787 z"
       id="path61"
       inkscape:connector-curvature="0"
       style="fill:#eeeeee;fill-rule:evenodd" />
    <path
       d="m 666.0315,539.2678 v 0 c 0,-3.34564 2.71222,-6.05786 6.05786,-6.05786 h 35.34882 c 1.60669,0 3.14752,0.63824 4.28357,1.77429 1.1361,1.13611 1.77429,2.67694 1.77429,4.28357 v 24.23077 c 0,3.34565 -2.71216,6.05787 -6.05786,6.05787 h -35.34882 v 0 c -3.34564,0 -6.05786,-2.71222 -6.05786,-6.05787 z"
       id="path63"
       inkscape:connector-curvature="0"
       style="fill-rule:evenodd;stroke:#595959;stroke-width:1;stroke-linecap:butt;stroke-linejoin:round" />
    <path
       d="m 686.7589,551.3657 -2.5625,0.46875 q -0.14062,-0.78125 -0.59375,-1.17188 -0.45312,-0.39062 -1.1875,-0.39062 -0.98437,0 -1.5625,0.67187 -0.57812,0.67188 -0.57812,2.25 0,1.76563 0.57812,2.48438 0.59375,0.71875 1.59375,0.71875 0.75,0 1.21875,-0.42188 0.46875,-0.42187 0.67188,-1.45312 l 2.54687,0.4375 q -0.39062,1.76562 -1.53125,2.67187 -1.125,0.89063 -3.03125,0.89063 -2.15625,0 -3.45312,-1.35938 -1.28125,-1.35937 -1.28125,-3.78125 0,-2.4375 1.29687,-3.79687 1.29688,-1.35938 3.48438,-1.35938 1.79687,0 2.85937,0.78125 1.0625,0.76563 1.53125,2.35938 z m 10.03198,4.51562 v 2.42188 h -9.14062 q 0.15625,-1.375 0.89062,-2.59375 0.75,-1.23438 2.9375,-3.26563 1.76563,-1.64062 2.15625,-2.23437 0.54688,-0.79688 0.54688,-1.59375 0,-0.875 -0.46875,-1.34375 -0.46875,-0.46875 -1.29688,-0.46875 -0.8125,0 -1.29687,0.5 -0.48438,0.48437 -0.5625,1.625 l -2.59375,-0.25 q 0.23437,-2.15625 1.45312,-3.09375 1.21875,-0.9375 3.0625,-0.9375 2.01563,0 3.15625,1.09375 1.15625,1.07812 1.15625,2.6875 0,0.92187 -0.32812,1.75 -0.32813,0.82812 -1.04688,1.73437 -0.46875,0.60938 -1.70312,1.75 -1.23438,1.125 -1.5625,1.5 -0.32813,0.35938 -0.53125,0.71875 z"
       id="path65"
       inkscape:connector-curvature="0"
       style="fill:#000000;fill-rule:nonzero" />
    <path
       d="m 746.0315,555.2678 v 0 c 0,-3.34564 2.71222,-6.05786 6.05786,-6.05786 h 35.34882 c 1.60669,0 3.14752,0.63824 4.28357,1.77429 1.1361,1.13611 1.77429,2.67694 1.77429,4.28357 v 24.23077 c 0,3.34565 -2.71216,6.05787 -6.05786,6.05787 h -35.34882 v 0 c -3.34564,0 -6.05786,-2.71222 -6.05786,-6.05787 z"
       id="path67"
       inkscape:connector-curvature="0"
       style="fill:#eeeeee;fill-rule:evenodd" />
    <path
       d="m 746.0315,555.2678 v 0 c 0,-3.34564 2.71222,-6.05786 6.05786,-6.05786 h 35.34882 c 1.60669,0 3.14752,0.63824 4.28357,1.77429 1.1361,1.13611 1.77429,2.67694 1.77429,4.28357 v 24.23077 c 0,3.34565 -2.71216,6.05787 -6.05786,6.05787 h -35.34882 v 0 c -3.34564,0 -6.05786,-2.71222 -6.05786,-6.05787 z"
       id="path69"
       inkscape:connector-curvature="0"
       style="fill-rule:evenodd;stroke:#595959;stroke-width:1;stroke-linecap:butt;stroke-linejoin:round" />
    <path
       d="m 766.7589,567.3657 -2.5625,0.46875 q -0.14062,-0.78125 -0.59375,-1.17188 -0.45312,-0.39062 -1.1875,-0.39062 -0.98437,0 -1.5625,0.67187 -0.57812,0.67188 -0.57812,2.25 0,1.76563 0.57812,2.48438 0.59375,0.71875 1.59375,0.71875 0.75,0 1.21875,-0.42188 0.46875,-0.42187 0.67188,-1.45312 l 2.54687,0.4375 q -0.39062,1.76562 -1.53125,2.67187 -1.125,0.89063 -3.03125,0.89063 -2.15625,0 -3.45312,-1.35938 -1.28125,-1.35937 -1.28125,-3.78125 0,-2.4375 1.29687,-3.79687 1.29688,-1.35938 3.48438,-1.35938 1.79687,0 2.85937,0.78125 1.0625,0.76563 1.53125,2.35938 z m 6.34448,6.9375 v -2.73438 h -5.5625 v -2.28125 l 5.89063,-8.64062 h 2.1875 v 8.625 h 1.6875 v 2.29687 h -1.6875 v 2.73438 z m 0,-5.03125 v -4.64063 l -3.125,4.64063 z"
       id="path71"
       inkscape:connector-curvature="0"
       style="fill:#000000;fill-rule:nonzero" />
    <path
       d="m 866.0315,531.2678 v 0 c 0,-3.34564 2.71222,-6.05786 6.05786,-6.05786 h 35.34882 c 1.60669,0 3.14752,0.63824 4.28357,1.77429 1.1361,1.13611 1.77429,2.67694 1.77429,4.28357 v 24.23077 c 0,3.34565 -2.71216,6.05787 -6.05786,6.05787 h -35.34882 v 0 c -3.34564,0 -6.05786,-2.71222 -6.05786,-6.05787 z"
       id="path73"
       inkscape:connector-curvature="0"
       style="fill:#eeeeee;fill-rule:evenodd" />
    <path
       d="m 866.0315,531.2678 v 0 c 0,-3.34564 2.71222,-6.05786 6.05786,-6.05786 h 35.34882 c 1.60669,0 3.14752,0.63824 4.28357,1.77429 1.1361,1.13611 1.77429,2.67694 1.77429,4.28357 v 24.23077 c 0,3.34565 -2.71216,6.05787 -6.05786,6.05787 h -35.34882 v 0 c -3.34564,0 -6.05786,-2.71222 -6.05786,-6.05787 z"
       id="path75"
       inkscape:connector-curvature="0"
       style="fill-rule:evenodd;stroke:#595959;stroke-width:1;stroke-linecap:butt;stroke-linejoin:round" />
    <path
       d="m 886.7589,543.3657 -2.5625,0.46875 q -0.14062,-0.78125 -0.59375,-1.17188 -0.45312,-0.39062 -1.1875,-0.39062 -0.98437,0 -1.5625,0.67187 -0.57812,0.67188 -0.57812,2.25 0,1.76563 0.57812,2.48438 0.59375,0.71875 1.59375,0.71875 0.75,0 1.21875,-0.42188 0.46875,-0.42187 0.67188,-1.45312 l 2.54687,0.4375 q -0.39062,1.76562 -1.53125,2.67187 -1.125,0.89063 -3.03125,0.89063 -2.15625,0 -3.45312,-1.35938 -1.28125,-1.35937 -1.28125,-3.78125 0,-2.4375 1.29687,-3.79687 1.29688,-1.35938 3.48438,-1.35938 1.79687,0 2.85937,0.78125 1.0625,0.76563 1.53125,2.35938 z m 1.23511,-4.0625 v -2.42188 h 8.90625 v 1.90625 q -1.09375,1.07813 -2.23438,3.10938 -1.14062,2.03125 -1.75,4.32812 -0.59375,2.28125 -0.57812,4.07813 h -2.51563 q 0.0625,-2.82813 1.15625,-5.75 1.10938,-2.9375 2.9375,-5.25 z"
       id="path77"
       inkscape:connector-curvature="0"
       style="fill:#000000;fill-rule:nonzero" />
    <path
       d="m 930.0315,531.2678 v 0 c 0,-3.34564 2.71222,-6.05786 6.05786,-6.05786 h 35.34882 c 1.60669,0 3.14752,0.63824 4.28357,1.77429 1.1361,1.13611 1.77429,2.67694 1.77429,4.28357 v 24.23077 c 0,3.34565 -2.71216,6.05787 -6.05786,6.05787 h -35.34882 v 0 c -3.34564,0 -6.05786,-2.71222 -6.05786,-6.05787 z"
       id="path79"
       inkscape:connector-curvature="0"
       style="fill:#eeeeee;fill-rule:evenodd" />
    <path
       d="m 930.0315,531.2678 v 0 c 0,-3.34564 2.71222,-6.05786 6.05786,-6.05786 h 35.34882 c 1.60669,0 3.14752,0.63824 4.28357,1.77429 1.1361,1.13611 1.77429,2.67694 1.77429,4.28357 v 24.23077 c 0,3.34565 -2.71216,6.05787 -6.05786,6.05787 h -35.34882 v 0 c -3.34564,0 -6.05786,-2.71222 -6.05786,-6.05787 z"
       id="path81"
       inkscape:connector-curvature="0"
       style="fill-rule:evenodd;stroke:#595959;stroke-width:1;stroke-linecap:butt;stroke-linejoin:round" />
    <path
       d="m 950.7589,543.3657 -2.5625,0.46875 q -0.14062,-0.78125 -0.59375,-1.17188 -0.45312,-0.39062 -1.1875,-0.39062 -0.98437,0 -1.5625,0.67187 -0.57812,0.67188 -0.57812,2.25 0,1.76563 0.57812,2.48438 0.59375,0.71875 1.59375,0.71875 0.75,0 1.21875,-0.42188 0.46875,-0.42187 0.67188,-1.45312 l 2.54687,0.4375 q -0.39062,1.76562 -1.53125,2.67187 -1.125,0.89063 -3.03125,0.89063 -2.15625,0 -3.45312,-1.35938 -1.28125,-1.35937 -1.28125,-3.78125 0,-2.4375 1.29687,-3.79687 1.29688,-1.35938 3.48438,-1.35938 1.79687,0 2.85937,0.78125 1.0625,0.76563 1.53125,2.35938 z m 3.46948,-0.40625 q -1.01562,-0.42188 -1.48437,-1.17188 -0.45313,-0.75 -0.45313,-1.64062 0,-1.51563 1.0625,-2.5 1.0625,-1 3.03125,-1 1.9375,0 3,1 1.07813,0.98437 1.07813,2.5 0,0.95312 -0.5,1.6875 -0.48438,0.73437 -1.375,1.125 1.125,0.45312 1.71875,1.32812 0.59375,0.875 0.59375,2.01563 0,1.89062 -1.20313,3.0625 -1.20312,1.17187 -3.20312,1.17187 -1.85938,0 -3.07813,-0.96875 -1.46875,-1.15625 -1.46875,-3.15625 0,-1.09375 0.54688,-2.01562 0.54687,-0.9375 1.73437,-1.4375 z m 0.53125,-2.625 q 0,0.78125 0.4375,1.21875 0.45313,0.4375 1.1875,0.4375 0.73438,0 1.17188,-0.4375 0.45312,-0.4375 0.45312,-1.21875 0,-0.73438 -0.4375,-1.17188 -0.4375,-0.45312 -1.17187,-0.45312 -0.75,0 -1.20313,0.45312 -0.4375,0.4375 -0.4375,1.17188 z m -0.23437,5.82812 q 0,1.07813 0.54687,1.6875 0.54688,0.59375 1.375,0.59375 0.8125,0 1.34375,-0.57812 0.53125,-0.57813 0.53125,-1.67188 0,-0.95312 -0.54687,-1.53125 -0.53125,-0.57812 -1.35938,-0.57812 -0.95312,0 -1.42187,0.65625 -0.46875,0.65625 -0.46875,1.42187 z"
       id="path83"
       inkscape:connector-curvature="0"
       style="fill:#000000;fill-rule:nonzero" />
    <path
       d="m 954.0315,467.26785 v 0 c 0,-3.34567 2.71222,-6.05789 6.05786,-6.05789 h 35.34882 c 1.60669,0 3.14752,0.63824 4.28357,1.77432 1.13615,1.13608 1.77425,2.67691 1.77425,4.28357 v 24.23071 c 0,3.34568 -2.71212,6.05786 -6.05782,6.05786 h -35.34882 v 0 c -3.34564,0 -6.05786,-2.71218 -6.05786,-6.05786 z"
       id="path85"
       inkscape:connector-curvature="0"
       style="fill:#eeeeee;fill-rule:evenodd" />
    <path
       d="m 954.0315,467.26785 v 0 c 0,-3.34567 2.71222,-6.05789 6.05786,-6.05789 h 35.34882 c 1.60669,0 3.14752,0.63824 4.28357,1.77432 1.13615,1.13608 1.77425,2.67691 1.77425,4.28357 v 24.23071 c 0,3.34568 -2.71212,6.05786 -6.05782,6.05786 h -35.34882 v 0 c -3.34564,0 -6.05786,-2.71218 -6.05786,-6.05786 z"
       id="path87"
       inkscape:connector-curvature="0"
       style="fill-rule:evenodd;stroke:#595959;stroke-width:1;stroke-linecap:butt;stroke-linejoin:round" />
    <path
       d="m 974.7589,479.3657 -2.5625,0.46875 q -0.14062,-0.78125 -0.59375,-1.17188 -0.45312,-0.39062 -1.1875,-0.39062 -0.98437,0 -1.5625,0.67187 -0.57812,0.67188 -0.57812,2.25 0,1.76563 0.57812,2.48438 0.59375,0.71875 1.59375,0.71875 0.75,0 1.21875,-0.42188 0.46875,-0.42187 0.67188,-1.45312 l 2.54687,0.4375 q -0.39062,1.76562 -1.53125,2.67187 -1.125,0.89063 -3.03125,0.89063 -2.15625,0 -3.45312,-1.35938 -1.28125,-1.35937 -1.28125,-3.78125 0,-2.4375 1.29687,-3.79687 1.29688,-1.35938 3.48438,-1.35938 1.79687,0 2.85937,0.78125 1.0625,0.76563 1.53125,2.35938 z m 1.28198,3.79687 2.53125,-0.28125 q 0.0937,0.76563 0.48438,1.14063 0.39062,0.375 1.03125,0.375 0.79687,0 1.35937,-0.73438 0.57813,-0.75 0.73438,-3.09375 -0.98438,1.14063 -2.46875,1.14063 -1.59375,0 -2.76563,-1.23438 -1.15625,-1.23437 -1.15625,-3.23437 0,-2.0625 1.21875,-3.32813 1.23438,-1.26562 3.14063,-1.26562 2.0625,0 3.39062,1.60937 1.32813,1.59375 1.32813,5.25 0,3.73438 -1.39063,5.39063 -1.375,1.64062 -3.59375,1.64062 -1.59375,0 -2.57812,-0.84375 -0.98438,-0.84375 -1.26563,-2.53125 z m 5.90625,-5.70312 q 0,-1.26563 -0.57812,-1.95313 -0.57813,-0.70312 -1.34375,-0.70312 -0.71875,0 -1.20313,0.57812 -0.48437,0.5625 -0.48437,1.85938 0,1.32812 0.51562,1.95312 0.53125,0.60938 1.3125,0.60938 0.75,0 1.26563,-0.59375 0.51562,-0.59375 0.51562,-1.75 z"
       id="path89"
       inkscape:connector-curvature="0"
       style="fill:#000000;fill-rule:nonzero" />
    <path
       d="m 617.7638,469.20996 181.92126,-45.5748"
       id="path91"
       inkscape:connector-curvature="0"
       style="fill:#000000;fill-opacity:0;fill-rule:evenodd" />
    <path
       d="m 623.5839,467.75192 170.281,-42.65869"
       id="path93"
       inkscape:connector-curvature="0"
       style="fill-rule:evenodd;stroke:#000000;stroke-width:1;stroke-linecap:butt;stroke-linejoin:round" />
    <path
       d="m 623.18256,466.1497 -4.00067,2.70502 4.8034,0.49942 z"
       id="path95"
       inkscape:connector-curvature="0"
       style="fill:#000000;fill-rule:evenodd;stroke:#000000;stroke-width:1;stroke-linecap:butt" />
    <path
       d="m 794.2663,426.69543 4.00067,-2.70502 -4.80347,-0.49942 z"
       id="path97"
       inkscape:connector-curvature="0"
       style="fill:#000000;fill-rule:evenodd;stroke:#000000;stroke-width:1;stroke-linecap:butt" />
    <path
       d="m 721.7638,453.20996 77.92126,-29.5748"
       id="path99"
       inkscape:connector-curvature="0"
       style="fill:#000000;fill-opacity:0;fill-rule:evenodd" />
    <path
       d="m 727.37335,451.08087 66.70209,-25.31659"
       id="path101"
       inkscape:connector-curvature="0"
       style="fill-rule:evenodd;stroke:#000000;stroke-width:1;stroke-linecap:butt;stroke-linejoin:round" />
    <path
       d="m 726.78723,449.53665 -3.65668,3.15457 4.82886,-0.0661 z"
       id="path103"
       inkscape:connector-curvature="0"
       style="fill:#000000;fill-rule:evenodd;stroke:#000000;stroke-width:1;stroke-linecap:butt" />
    <path
       d="m 794.6616,427.3085 3.65668,-3.15457 -4.82892,0.0661 z"
       id="path105"
       inkscape:connector-curvature="0"
       style="fill:#000000;fill-rule:evenodd;stroke:#000000;stroke-width:1;stroke-linecap:butt" />
    <path
       d="m 801.7638,493.20996 -2.07874,-69.5748"
       id="path107"
       inkscape:connector-curvature="0"
       style="fill:#000000;fill-opacity:0;fill-rule:evenodd" />
    <path
       d="m 801.58453,487.21265 -1.72028,-57.58014"
       id="path109"
       inkscape:connector-curvature="0"
       style="fill-rule:evenodd;stroke:#000000;stroke-width:1;stroke-linecap:butt;stroke-linejoin:round" />
    <path
       d="m 799.9336,487.262 1.7865,4.48672 1.5155,-4.58538 z"
       id="path111"
       inkscape:connector-curvature="0"
       style="fill:#000000;fill-rule:evenodd;stroke:#000000;stroke-width:1;stroke-linecap:butt" />
    <path
       d="m 801.5152,429.58316 -1.7865,-4.48672 -1.51544,4.58538 z"
       id="path113"
       inkscape:connector-curvature="0"
       style="fill:#000000;fill-rule:evenodd;stroke:#000000;stroke-width:1;stroke-linecap:butt" />
    <path
       d="m 865.7638,445.20996 -66.07874,-21.5748"
       id="path115"
       inkscape:connector-curvature="0"
       style="fill:#000000;fill-opacity:0;fill-rule:evenodd" />
    <path
       d="M 860.0601,443.34772 805.38865,425.49741"
       id="path117"
       inkscape:connector-curvature="0"
       style="fill-rule:evenodd;stroke:#000000;stroke-width:1;stroke-linecap:butt;stroke-linejoin:round" />
    <path
       d="m 859.5474,444.91788 4.82666,-0.16165 -3.80133,-2.97867 z"
       id="path119"
       inkscape:connector-curvature="0"
       style="fill:#000000;fill-rule:evenodd;stroke:#000000;stroke-width:1;stroke-linecap:butt" />
    <path
       d="m 805.90137,423.92728 -4.8266,0.16162 3.80127,2.9787 z"
       id="path121"
       inkscape:connector-curvature="0"
       style="fill:#000000;fill-rule:evenodd;stroke:#000000;stroke-width:1;stroke-linecap:butt" />
    <path
       d="M 977.7638,461.20996 799.68506,423.63516"
       id="path123"
       inkscape:connector-curvature="0"
       style="fill:#000000;fill-opacity:0;fill-rule:evenodd" />
    <path
       d="M 971.89307,459.97125 805.55579,424.8739"
       id="path125"
       inkscape:connector-curvature="0"
       style="fill-rule:evenodd;stroke:#000000;stroke-width:1;stroke-linecap:butt;stroke-linejoin:round" />
    <path
       d="m 971.55206,461.5874 4.78131,-0.67926 -4.0993,-2.55304 z"
       id="path127"
       inkscape:connector-curvature="0"
       style="fill:#000000;fill-rule:evenodd;stroke:#000000;stroke-width:1;stroke-linecap:butt" />
    <path
       d="m 805.8968,423.25775 -4.78137,0.67923 4.09936,2.55307 z"
       id="path129"
       inkscape:connector-curvature="0"
       style="fill:#000000;fill-rule:evenodd;stroke:#000000;stroke-width:1;stroke-linecap:butt" />
    <path
       d="M 689.7638,533.20996 799.68506,423.63516"
       id="path131"
       inkscape:connector-curvature="0"
       style="fill:#000000;fill-opacity:0;fill-rule:evenodd" />
    <path
       d="M 694.0131,528.97406 795.43565,427.87109"
       id="path133"
       inkscape:connector-curvature="0"
       style="fill-rule:evenodd;stroke:#000000;stroke-width:1;stroke-linecap:butt;stroke-linejoin:round" />
    <path
       d="m 692.847,527.80426 -2.04785,4.3736 4.38006,-2.03406 z"
       id="path135"
       inkscape:connector-curvature="0"
       style="fill:#000000;fill-rule:evenodd;stroke:#000000;stroke-width:1;stroke-linecap:butt" />
    <path
       d="m 796.6018,429.0409 2.04785,-4.37363 -4.38006,2.03406 z"
       id="path137"
       inkscape:connector-curvature="0"
       style="fill:#000000;fill-rule:evenodd;stroke:#000000;stroke-width:1;stroke-linecap:butt" />
    <path
       d="m 769.7506,549.21783 29.92126,-125.5748"
       id="path139"
       inkscape:connector-curvature="0"
       style="fill:#000000;fill-opacity:0;fill-rule:evenodd" />
    <path
       d="M 771.1414,543.3812 798.28117,429.47962"
       id="path141"
       inkscape:connector-curvature="0"
       style="fill-rule:evenodd;stroke:#000000;stroke-width:1;stroke-linecap:butt;stroke-linejoin:round" />
    <path
       d="m 769.5346,542.9984 0.55487,4.79736 2.65863,-4.03167 z"
       id="path143"
       inkscape:connector-curvature="0"
       style="fill:#000000;fill-rule:evenodd;stroke:#000000;stroke-width:1;stroke-linecap:butt" />
    <path
       d="m 799.88794,429.8625 -0.55487,-4.79736 -2.65863,4.03167 z"
       id="path145"
       inkscape:connector-curvature="0"
       style="fill:#000000;fill-rule:evenodd;stroke:#000000;stroke-width:1;stroke-linecap:butt" />
    <path
       d="M 889.7638,525.20996 799.68506,423.63516"
       id="path147"
       inkscape:connector-curvature="0"
       style="fill:#000000;fill-opacity:0;fill-rule:evenodd" />
    <path
       d="M 885.78284,520.72095 803.66602,428.12421"
       id="path149"
       inkscape:connector-curvature="0"
       style="fill-rule:evenodd;stroke:#000000;stroke-width:1;stroke-linecap:butt;stroke-linejoin:round" />
    <path
       d="m 884.547,521.81683 4.24683,2.29938 -1.77527,-4.49121 z"
       id="path151"
       inkscape:connector-curvature="0"
       style="fill:#000000;fill-rule:evenodd;stroke:#000000;stroke-width:1;stroke-linecap:butt" />
    <path
       d="m 804.9018,427.02832 -4.24677,-2.29938 1.77521,4.49121 z"
       id="path153"
       inkscape:connector-curvature="0"
       style="fill:#000000;fill-rule:evenodd;stroke:#000000;stroke-width:1;stroke-linecap:butt" />
    <path
       d="M 953.7638,525.20996 799.68506,423.63516"
       id="path155"
       inkscape:connector-curvature="0"
       style="fill:#000000;fill-opacity:0;fill-rule:evenodd" />
    <path
       d="m 948.75433,521.9076 -144.05988,-94.97"
       id="path157"
       inkscape:connector-curvature="0"
       style="fill-rule:evenodd;stroke:#000000;stroke-width:1;stroke-linecap:butt;stroke-linejoin:round" />
    <path
       d="m 947.8453,523.2866 4.69794,1.11871 -2.8797,-3.87677 z"
       id="path159"
       inkscape:connector-curvature="0"
       style="fill:#000000;fill-rule:evenodd;stroke:#000000;stroke-width:1;stroke-linecap:butt" />
    <path
       d="m 805.6036,425.55853 -4.698,-1.11874 2.87976,3.8768 z"
       id="path161"
       inkscape:connector-curvature="0"
       style="fill:#000000;fill-rule:evenodd;stroke:#000000;stroke-width:1;stroke-linecap:butt" />
    <path
       d="m 778.0315,499.26785 v 0 c 0,-3.34567 2.71222,-6.05789 6.05786,-6.05789 h 35.34882 c 1.60669,0 3.14752,0.63824 4.28357,1.77432 1.1361,1.13608 1.77429,2.67691 1.77429,4.28357 v 24.23074 c 0,3.34564 -2.71216,6.05786 -6.05786,6.05786 h -35.34882 v 0 c -3.34564,0 -6.05786,-2.71222 -6.05786,-6.05786 z"
       id="path163"
       inkscape:connector-curvature="0"
       style="fill:#eeeeee;fill-rule:evenodd" />
    <path
       d="m 778.0315,499.26785 v 0 c 0,-3.34567 2.71222,-6.05789 6.05786,-6.05789 h 35.34882 c 1.60669,0 3.14752,0.63824 4.28357,1.77432 1.1361,1.13608 1.77429,2.67691 1.77429,4.28357 v 24.23074 c 0,3.34564 -2.71216,6.05786 -6.05786,6.05786 h -35.34882 v 0 c -3.34564,0 -6.05786,-2.71222 -6.05786,-6.05786 z"
       id="path165"
       inkscape:connector-curvature="0"
       style="fill-rule:evenodd;stroke:#595959;stroke-width:1;stroke-linecap:butt;stroke-linejoin:round" />
    <path
       d="m 798.7589,511.3657 -2.5625,0.46875 q -0.14062,-0.78125 -0.59375,-1.17188 -0.45312,-0.39062 -1.1875,-0.39062 -0.98437,0 -1.5625,0.67187 -0.57812,0.67188 -0.57812,2.25004 0,1.76562 0.57812,2.48437 0.59375,0.71875 1.59375,0.71875 0.75,0 1.21875,-0.42187 0.46875,-0.42188 0.67188,-1.45313 l 2.54687,0.4375 q -0.39062,1.76563 -1.53125,2.67188 -1.125,0.89062 -3.03125,0.89062 -2.15625,0 -3.45312,-1.35937 -1.28125,-1.35938 -1.28125,-3.78125 0,-2.43753 1.29687,-3.79691 1.29688,-1.35937 3.48438,-1.35937 1.79687,0 2.85937,0.78125 1.0625,0.76562 1.53125,2.35937 z m 1.26636,3.43753 2.59375,-0.26562 q 0.10937,0.875 0.65625,1.39062 0.54687,0.51563 1.26562,0.51563 0.8125,0 1.375,-0.65625 0.57813,-0.67188 0.57813,-2 0,-1.25 -0.5625,-1.87503 -0.5625,-0.625 -1.46875,-0.625 -1.10938,0 -2,0.9844 l -2.125,-0.31253 1.34375,-7.07813 h 6.89062 v 2.45313 h -4.92187 l -0.40625,2.29687 q 0.875,-0.42187 1.78125,-0.42187 1.73437,0 2.9375,1.26562 1.20312,1.25 1.20312,3.26566 0,1.67188 -0.96875,3 -1.32812,1.79688 -3.6875,1.79688 -1.875,0 -3.0625,-1.01563 -1.1875,-1.01562 -1.42187,-2.71875 z"
       id="path167"
       inkscape:connector-curvature="0"
       style="fill:#000000;fill-rule:nonzero" />
    <path
       d="m 842.0315,451.26785 v 0 c 0,-3.34567 2.71222,-6.05789 6.05786,-6.05789 h 35.34882 c 1.60669,0 3.14752,0.63824 4.28357,1.77432 1.1361,1.13608 1.77429,2.67691 1.77429,4.28357 v 24.23071 c 0,3.34568 -2.71216,6.05786 -6.05786,6.05786 h -35.34882 v 0 c -3.34564,0 -6.05786,-2.71218 -6.05786,-6.05786 z"
       id="path169"
       inkscape:connector-curvature="0"
       style="fill:#eeeeee;fill-rule:evenodd" />
    <path
       d="m 842.0315,451.26785 v 0 c 0,-3.34567 2.71222,-6.05789 6.05786,-6.05789 h 35.34882 c 1.60669,0 3.14752,0.63824 4.28357,1.77432 1.1361,1.13608 1.77429,2.67691 1.77429,4.28357 v 24.23071 c 0,3.34568 -2.71216,6.05786 -6.05786,6.05786 h -35.34882 v 0 c -3.34564,0 -6.05786,-2.71218 -6.05786,-6.05786 z"
       id="path171"
       inkscape:connector-curvature="0"
       style="fill-rule:evenodd;stroke:#595959;stroke-width:1;stroke-linecap:butt;stroke-linejoin:round" />
    <path
       d="m 862.7589,463.3657 -2.5625,0.46875 q -0.14062,-0.78125 -0.59375,-1.17188 -0.45312,-0.39062 -1.1875,-0.39062 -0.98437,0 -1.5625,0.67187 -0.57812,0.67188 -0.57812,2.25 0,1.76563 0.57812,2.48438 0.59375,0.71875 1.59375,0.71875 0.75,0 1.21875,-0.42188 0.46875,-0.42187 0.67188,-1.45312 l 2.54687,0.4375 q -0.39062,1.76562 -1.53125,2.67187 -1.125,0.89063 -3.03125,0.89063 -2.15625,0 -3.45312,-1.35938 -1.28125,-1.35937 -1.28125,-3.78125 0,-2.4375 1.29687,-3.79687 1.29688,-1.35938 3.48438,-1.35938 1.79687,0 2.85937,0.78125 1.0625,0.76563 1.53125,2.35938 z m 10.06323,-3.32813 -2.53125,0.28125 q -0.0937,-0.78125 -0.48437,-1.15625 -0.375,-0.375 -1,-0.375 -0.82813,0 -1.40625,0.75 -0.5625,0.73438 -0.71875,3.07813 0.98437,-1.14063 2.42187,-1.14063 1.64063,0 2.79688,1.25 1.17187,1.23438 1.17187,3.20313 0,2.07812 -1.23437,3.34375 -1.21875,1.26562 -3.14063,1.26562 -2.0625,0 -3.39062,-1.59375 -1.3125,-1.60937 -1.3125,-5.25 0,-3.75 1.375,-5.39062 1.39062,-1.65625 3.59375,-1.65625 1.54687,0 2.5625,0.875 1.01562,0.85937 1.29687,2.51562 z m -5.90625,5.6875 q 0,1.26563 0.57813,1.95313 0.59375,0.6875 1.34375,0.6875 0.71875,0 1.20312,-0.5625 0.48438,-0.5625 0.48438,-1.84375 0,-1.32813 -0.53125,-1.9375 -0.51563,-0.625 -1.29688,-0.625 -0.75,0 -1.26562,0.59375 -0.51563,0.57812 -0.51563,1.73437 z"
       id="path173"
       inkscape:connector-curvature="0"
       style="fill:#000000;fill-rule:nonzero" />
    <path
       d="m 698.0315,459.26785 v 0 c 0,-3.34567 2.71222,-6.05789 6.05786,-6.05789 h 35.34882 c 1.60669,0 3.14752,0.63824 4.28357,1.77432 1.1361,1.13608 1.77429,2.67691 1.77429,4.28357 v 24.23071 c 0,3.34568 -2.71216,6.05786 -6.05786,6.05786 h -35.34882 v 0 c -3.34564,0 -6.05786,-2.71218 -6.05786,-6.05786 z"
       id="path175"
       inkscape:connector-curvature="0"
       style="fill:#eeeeee;fill-rule:evenodd" />
    <path
       d="m 698.0315,459.26785 v 0 c 0,-3.34567 2.71222,-6.05789 6.05786,-6.05789 h 35.34882 c 1.60669,0 3.14752,0.63824 4.28357,1.77432 1.1361,1.13608 1.77429,2.67691 1.77429,4.28357 v 24.23071 c 0,3.34568 -2.71216,6.05786 -6.05786,6.05786 h -35.34882 v 0 c -3.34564,0 -6.05786,-2.71218 -6.05786,-6.05786 z"
       id="path177"
       inkscape:connector-curvature="0"
       style="fill-rule:evenodd;stroke:#595959;stroke-width:1;stroke-linecap:butt;stroke-linejoin:round" />
    <path
       d="m 718.7589,471.3657 -2.5625,0.46875 q -0.14062,-0.78125 -0.59375,-1.17188 -0.45312,-0.39062 -1.1875,-0.39062 -0.98437,0 -1.5625,0.67187 -0.57812,0.67188 -0.57812,2.25 0,1.76563 0.57812,2.48438 0.59375,0.71875 1.59375,0.71875 0.75,0 1.21875,-0.42188 0.46875,-0.42187 0.67188,-1.45312 l 2.54687,0.4375 q -0.39062,1.76562 -1.53125,2.67187 -1.125,0.89063 -3.03125,0.89063 -2.15625,0 -3.45312,-1.35938 -1.28125,-1.35937 -1.28125,-3.78125 0,-2.4375 1.29687,-3.79687 1.29688,-1.35938 3.48438,-1.35938 1.79687,0 2.85937,0.78125 1.0625,0.76563 1.53125,2.35938 z m 1.14136,3.32812 2.51562,-0.3125 q 0.125,0.96875 0.65625,1.48438 0.53125,0.5 1.28125,0.5 0.79688,0 1.34375,-0.60938 0.5625,-0.60937 0.5625,-1.64062 0,-0.98438 -0.53125,-1.5625 -0.53125,-0.57813 -1.28125,-0.57813 -0.5,0 -1.20312,0.20313 l 0.28125,-2.125 q 1.0625,0.0156 1.60937,-0.46875 0.5625,-0.48438 0.5625,-1.29688 0,-0.6875 -0.40625,-1.09375 -0.40625,-0.40625 -1.07812,-0.40625 -0.67188,0 -1.14063,0.46875 -0.46875,0.46875 -0.57812,1.35938 l -2.40625,-0.42188 q 0.25,-1.23437 0.75,-1.96875 0.51562,-0.73437 1.42187,-1.15625 0.90625,-0.42187 2.03125,-0.42187 1.90625,0 3.07813,1.21875 0.95312,1 0.95312,2.26562 0,1.79688 -1.95312,2.85938 1.15625,0.25 1.85937,1.125 0.70313,0.875 0.70313,2.10937 0,1.78125 -1.3125,3.04688 -1.29688,1.26562 -3.25,1.26562 -1.84375,0 -3.0625,-1.0625 -1.21875,-1.0625 -1.40625,-2.78125 z"
       id="path179"
       inkscape:connector-curvature="0"
       style="fill:#000000;fill-rule:nonzero" />
  </g>
  <rect
     style="fill:none"
     id="rect193"
     width="431.42859"
     height="464.28574"
     x="0"
     y="0" />
</svg>
