<?xml version="1.0" standalone="yes"?>

<svg version="1.1" viewBox="0.0 0.0 1058.3044619422571 793.6692913385826" fill="none" stroke="none" stroke-linecap="square" stroke-miterlimit="10" xmlns="http://www.w3.org/2000/svg" xmlns:xlink="http://www.w3.org/1999/xlink"><clipPath id="g252dd04c3b_0_534.0"><path d="m0 0l1058.3044 0l0 793.6693l-1058.3044 0l0 -793.6693z" clip-rule="nonzero"></path></clipPath><g clip-path="url(#g252dd04c3b_0_534.0)"><path fill="#ffffff" d="m0 0l1058.3044 0l0 793.6693l-1058.3044 0z" fill-rule="evenodd"></path><path fill="#000000" fill-opacity="0.0" d="m416.76117 266.92914l75.433044 0l0 72.44095l-75.433044 0z" fill-rule="evenodd"></path><path stroke="#000000" stroke-width="1.0" stroke-linejoin="round" stroke-linecap="butt" d="m416.76117 266.92914l75.433044 0l0 72.44095l-75.433044 0z" fill-rule="evenodd"></path><path fill="#000000" d="m441.54996 311.6896l0 -17.1875l5.5625 0q3.171875 0 4.125 0.265625q1.484375 0.390625 2.46875 1.6875q1.0 1.28125 1.0 3.34375q0 1.578125 -0.578125 2.65625q-0.5625 1.078125 -1.453125 1.703125q-0.890625 0.609375 -1.796875 0.796875q-1.25 0.25 -3.59375 0.25l-2.265625 0l0 6.484375l-3.46875 0zm3.46875 -14.28125l0 4.875l1.890625 0q2.0625 0 2.75 -0.265625q0.6875 -0.265625 1.078125 -0.84375q0.390625 -0.578125 0.390625 -1.328125q0 -0.9375 -0.546875 -1.546875q-0.546875 -0.609375 -1.390625 -0.765625q-0.625 -0.125 -2.5 -0.125l-1.671875 0zm20.242188 14.28125l-3.296875 0l0 -12.40625q-1.8125 1.6875 -4.25 2.484375l0 -2.984375q1.28125 -0.421875 2.796875 -1.59375q1.515625 -1.1875 2.078125 -2.75l2.671875 0l0 17.25z" fill-rule="nonzero"></path><path fill="#000000" fill-opacity="0.0" d="m492.95013 266.92914l75.433044 0l0 72.44095l-75.433044 0z" fill-rule="evenodd"></path><path stroke="#000000" stroke-width="1.0" stroke-linejoin="round" stroke-linecap="butt" d="m492.95013 266.92914l75.433044 0l0 72.44095l-75.433044 0z" fill-rule="evenodd"></path><path fill="#000000" fill-opacity="0.0" d="m569.1365 266.92914l75.433105 0l0 72.44095l-75.433105 0z" fill-rule="evenodd"></path><path stroke="#000000" stroke-width="1.0" stroke-linejoin="round" stroke-linecap="butt" d="m569.1365 266.92914l75.433105 0l0 72.44095l-75.433105 0z" fill-rule="evenodd"></path><path fill="#000000" fill-opacity="0.0" d="m416.76117 338.92914l75.433044 0l0 72.44095l-75.433044 0z" fill-rule="evenodd"></path><path stroke="#000000" stroke-width="1.0" stroke-linejoin="round" stroke-linecap="butt" d="m416.76117 338.92914l75.433044 0l0 72.44095l-75.433044 0z" fill-rule="evenodd"></path><path fill="#000000" d="m456.74136 383.6896l-2.109375 0l0 -13.4375q-0.75 0.71875 -2.0 1.453125q-1.234375 0.71875 -2.21875 1.078125l0 -2.03125q1.78125 -0.828125 3.09375 -2.015625q1.328125 -1.1875 1.875 -2.296875l1.359375 0l0 17.25z" fill-rule="nonzero"></path><path fill="#000000" fill-opacity="0.0" d="m492.95013 338.92914l75.433044 0l0 72.44095l-75.433044 0z" fill-rule="evenodd"></path><path stroke="#000000" stroke-width="1.0" stroke-linejoin="round" stroke-linecap="butt" d="m492.95013 338.92914l75.433044 0l0 72.44095l-75.433044 0z" fill-rule="evenodd"></path><path fill="#000000" fill-opacity="0.0" d="m569.1365 338.92914l75.433105 0l0 72.44095l-75.433105 0z" fill-rule="evenodd"></path><path stroke="#000000" stroke-width="1.0" stroke-linejoin="round" stroke-linecap="butt" d="m569.1365 338.92914l75.433105 0l0 72.44095l-75.433105 0z" fill-rule="evenodd"></path><path fill="#000000" fill-opacity="0.0" d="m416.76117 410.92914l75.433044 0l0 72.44095l-75.433044 0z" fill-rule="evenodd"></path><path stroke="#000000" stroke-width="1.0" stroke-linejoin="round" stroke-linecap="butt" d="m416.76117 410.92914l75.433044 0l0 72.44095l-75.433044 0z" fill-rule="evenodd"></path><path fill="#000000" d="m456.74136 455.6896l-2.109375 0l0 -13.4375q-0.75 0.71875 -2.0 1.453125q-1.234375 0.71875 -2.21875 1.078125l0 -2.03125q1.78125 -0.828125 3.09375 -2.015625q1.328125 -1.1875 1.875 -2.296875l1.359375 0l0 17.25z" fill-rule="nonzero"></path><path fill="#000000" fill-opacity="0.0" d="m492.95013 410.92914l75.433044 0l0 72.44095l-75.433044 0z" fill-rule="evenodd"></path><path stroke="#000000" stroke-width="1.0" stroke-linejoin="round" stroke-linecap="butt" d="m492.95013 410.92914l75.433044 0l0 72.44095l-75.433044 0z" fill-rule="evenodd"></path><path fill="#000000" fill-opacity="0.0" d="m569.1365 410.92914l75.433105 0l0 72.44095l-75.433105 0z" fill-rule="evenodd"></path><path stroke="#000000" stroke-width="1.0" stroke-linejoin="round" stroke-linecap="butt" d="m569.1365 410.92914l75.433105 0l0 72.44095l-75.433105 0z" fill-rule="evenodd"></path><path fill="#000000" fill-opacity="0.0" d="m228.15224 264.76117l188.59843 0l0 72.44092l-188.59843 0z" fill-rule="evenodd"></path><path fill="#000000" d="m238.90224 309.52164l0 -17.1875l5.5625 0q3.171875 0 4.125 0.265625q1.484375 0.390625 2.46875 1.6875q1.0 1.28125 1.0 3.34375q0 1.578125 -0.578125 2.65625q-0.5625 1.078125 -1.453125 1.703125q-0.890625 0.609375 -1.796875 0.796875q-1.25 0.25 -3.59375 0.25l-2.265625 0l0 6.484375l-3.46875 0zm3.46875 -14.28125l0 4.875l1.890625 0q2.0625 0 2.75 -0.265625q0.6875 -0.265625 1.078125 -0.84375q0.390625 -0.578125 0.390625 -1.328125q0 -0.9375 -0.546875 -1.546875q-0.546875 -0.609375 -1.390625 -0.765625q-0.625 -0.125 -2.5 -0.125l-1.671875 0zm15.664047 14.28125l-3.2968597 0l0 -12.453125l3.0624847 0l0 1.78125q0.78125 -1.265625 1.40625 -1.65625q0.640625 -0.40625 1.4375 -0.40625q1.125 0 2.15625 0.625l-1.015625 2.875q-0.828125 -0.546875 -1.546875 -0.546875q-0.6875 0 -1.171875 0.390625q-0.484375 0.375 -0.765625 1.375q-0.265625 1.0 -0.265625 4.171875l0 3.84375zm13.402344 -3.96875l3.28125 0.5625q-0.640625 1.796875 -2.015625 2.75q-1.359375 0.9375 -3.40625 0.9375q-3.25 0 -4.796875 -2.125q-1.234375 -1.703125 -1.234375 -4.28125q0 -3.09375 1.609375 -4.84375q1.625 -1.765625 4.09375 -1.765625q2.78125 0 4.375 1.84375q1.609375 1.828125 1.546875 5.609375l-8.25 0q0.03125 1.46875 0.796875 2.28125q0.765625 0.8125 1.890625 0.8125q0.78125 0 1.296875 -0.421875q0.53125 -0.421875 0.8125 -1.359375zm0.1875 -3.328125q-0.046875 -1.421875 -0.75 -2.15625q-0.703125 -0.75 -1.703125 -0.75q-1.078125 0 -1.78125 0.78125q-0.703125 0.78125 -0.6875 2.125l4.921875 0zm-3.9375 -6.671875l1.625 -3.5l3.6875 0l-3.21875 3.5l-2.09375 0zm21.300781 13.96875l-3.0625 0l0 -1.828125q-0.765625 1.0625 -1.796875 1.59375q-1.03125 0.515625 -2.09375 0.515625q-2.140625 0 -3.671875 -1.71875q-1.53125 -1.734375 -1.53125 -4.828125q0 -3.171875 1.484375 -4.8125q1.5 -1.65625 3.765625 -1.65625q2.09375 0 3.609375 1.734375l0 -6.1875l3.296875 0l0 17.1875zm-8.796875 -6.5q0 2.0 0.5625 2.890625q0.796875 1.28125 2.21875 1.28125q1.140625 0 1.9375 -0.953125q0.796875 -0.96875 0.796875 -2.890625q0 -2.15625 -0.78125 -3.09375q-0.765625 -0.9375 -1.96875 -0.9375q-1.171875 0 -1.96875 0.9375q-0.796875 0.921875 -0.796875 2.765625zm12.035156 -7.640625l0 -3.046875l3.296875 0l0 3.046875l-3.296875 0zm0 14.140625l0 -12.453125l3.296875 0l0 12.453125l-3.296875 0zm17.527344 -8.765625l-3.25 0.578125q-0.15625 -0.96875 -0.75 -1.453125q-0.578125 -0.5 -1.5 -0.5q-1.234375 0 -1.96875 0.859375q-0.71875 0.84375 -0.71875 2.828125q0 2.21875 0.734375 3.140625q0.75 0.90625 2.0 0.90625q0.9375 0 1.53125 -0.53125q0.609375 -0.53125 0.84375 -1.828125l3.234375 0.546875q-0.5 2.21875 -1.9375 3.359375q-1.421875 1.140625 -3.828125 1.140625q-2.71875 0 -4.34375 -1.71875q-1.625 -1.734375 -1.625 -4.78125q0 -3.078125 1.625 -4.796875q1.625 -1.71875 4.40625 -1.71875q2.28125 0 3.609375 0.984375q1.34375 0.984375 1.9375 2.984375zm4.9570312 0.109375l-2.984375 -0.53125q0.5 -1.8125 1.71875 -2.671875q1.234375 -0.875 3.671875 -0.875q2.203125 0 3.28125 0.53125q1.078125 0.515625 1.515625 1.328125q0.4375 0.796875 0.4375 2.9375l-0.03125 3.84375q0 1.640625 0.15625 2.421875q0.15625 0.78125 0.59375 1.671875l-3.265625 0q-0.125 -0.328125 -0.3125 -0.96875q-0.078125 -0.296875 -0.125 -0.390625q-0.84375 0.8125 -1.8125 1.234375q-0.953125 0.40625 -2.03125 0.40625q-1.921875 0 -3.03125 -1.046875q-1.109375 -1.046875 -1.109375 -2.640625q0 -1.046875 0.5 -1.875q0.5 -0.828125 1.40625 -1.265625q0.921875 -0.4375 2.625 -0.765625q2.3125 -0.4375 3.203125 -0.8125l0 -0.328125q0 -0.953125 -0.46875 -1.34375q-0.46875 -0.40625 -1.765625 -0.40625q-0.890625 0 -1.390625 0.34375q-0.484375 0.34375 -0.78125 1.203125zm4.40625 2.671875q-0.640625 0.21875 -2.015625 0.515625q-1.359375 0.28125 -1.78125 0.5625q-0.640625 0.46875 -0.640625 1.171875q0 0.6875 0.515625 1.1875q0.515625 0.5 1.3125 0.5q0.890625 0 1.6875 -0.578125q0.609375 -0.453125 0.796875 -1.09375q0.125 -0.421875 0.125 -1.609375l0 -0.65625zm12.191406 -6.46875l0 2.625l-2.25 0l0 5.015625q0 1.53125 0.0625 1.78125q0.0625 0.25 0.28125 0.421875q0.234375 0.15625 0.5625 0.15625q0.453125 0 1.328125 -0.3125l0.28125 2.546875q-1.15625 0.5 -2.609375 0.5q-0.890625 0 -1.609375 -0.296875q-0.703125 -0.296875 -1.046875 -0.765625q-0.328125 -0.484375 -0.453125 -1.296875q-0.109375 -0.578125 -0.109375 -2.3125l0 -5.4375l-1.515625 0l0 -2.625l1.515625 0l0 -2.46875l3.3125 -1.921875l0 4.390625l2.25 0z" fill-rule="nonzero"></path><path fill="#000000" fill-opacity="0.0" d="m228.15224 336.76117l188.59843 0l0 72.44092l-188.59843 0z" fill-rule="evenodd"></path><path fill="#000000" d="m238.91786 381.52164l0 -17.1875l11.78125 0l0 2.90625l-8.3125 0l0 4.078125l7.171875 0l0 2.90625l-7.171875 0l0 7.296875l-3.46875 0zm17.769516 0l-3.2968597 0l0 -12.453125l3.0624847 0l0 1.78125q0.78125 -1.265625 1.40625 -1.65625q0.640625 -0.40625 1.4375 -0.40625q1.125 0 2.15625 0.625l-1.015625 2.875q-0.828125 -0.546875 -1.546875 -0.546875q-0.6875 0 -1.171875 0.390625q-0.484375 0.375 -0.765625 1.375q-0.265625 1.0 -0.265625 4.171875l0 3.84375zm13.402344 -3.96875l3.28125 0.5625q-0.640625 1.796875 -2.015625 2.75q-1.359375 0.9375 -3.40625 0.9375q-3.25 0 -4.796875 -2.125q-1.234375 -1.703125 -1.234375 -4.28125q0 -3.09375 1.609375 -4.84375q1.625 -1.765625 4.09375 -1.765625q2.78125 0 4.375 1.84375q1.609375 1.828125 1.546875 5.609375l-8.25 0q0.03125 1.46875 0.796875 2.28125q0.765625 0.8125 1.890625 0.8125q0.78125 0 1.296875 -0.421875q0.53125 -0.421875 0.8125 -1.359375zm0.1875 -3.328125q-0.046875 -1.421875 -0.75 -2.15625q-0.703125 -0.75 -1.703125 -0.75q-1.078125 0 -1.78125 0.78125q-0.703125 0.78125 -0.6875 2.125l4.921875 0zm-3.9375 -6.671875l1.625 -3.5l3.6875 0l-3.21875 3.5l-2.09375 0zm18.019531 18.703125l0 -6.265625q-0.640625 0.84375 -1.609375 1.328125q-0.953125 0.484375 -2.078125 0.484375q-2.109375 0 -3.484375 -1.59375q-1.625 -1.859375 -1.625 -5.046875q0 -3.0 1.515625 -4.6875q1.53125 -1.6875 3.78125 -1.6875q1.234375 0 2.140625 0.53125q0.90625 0.53125 1.609375 1.59375l0 -1.84375l3.046875 0l0 17.1875l-3.296875 0zm0.109375 -11.109375q0 -1.90625 -0.78125 -2.84375q-0.78125 -0.9375 -1.953125 -0.9375q-1.203125 0 -2.0 0.953125q-0.796875 0.953125 -0.796875 3.015625q0 2.046875 0.765625 2.953125q0.78125 0.90625 1.90625 0.90625q1.140625 0 2.0 -1.015625q0.859375 -1.015625 0.859375 -3.03125zm14.613281 6.375l0 -1.859375q-0.6875 0.984375 -1.796875 1.5625q-1.109375 0.578125 -2.328125 0.578125q-1.265625 0 -2.265625 -0.546875q-0.984375 -0.5625 -1.4375 -1.546875q-0.4375 -1.0 -0.4375 -2.765625l0 -7.875l3.296875 0l0 5.71875q0 2.625 0.171875 3.21875q0.1875 0.59375 0.65625 0.9375q0.484375 0.34375 1.234375 0.34375q0.84375 0 1.5 -0.453125q0.671875 -0.46875 0.921875 -1.15625q0.25 -0.6875 0.25 -3.359375l0 -5.25l3.28125 0l0 12.453125l-3.046875 0zm13.675781 -3.96875l3.28125 0.5625q-0.640625 1.796875 -2.015625 2.75q-1.359375 0.9375 -3.40625 0.9375q-3.25 0 -4.796875 -2.125q-1.234375 -1.703125 -1.234375 -4.28125q0 -3.09375 1.609375 -4.84375q1.625 -1.765625 4.09375 -1.765625q2.78125 0 4.375 1.84375q1.609375 1.828125 1.546875 5.609375l-8.25 0q0.03125 1.46875 0.796875 2.28125q0.765625 0.8125 1.890625 0.8125q0.78125 0 1.296875 -0.421875q0.53125 -0.421875 0.8125 -1.359375zm0.1875 -3.328125q-0.046875 -1.421875 -0.75 -2.15625q-0.703125 -0.75 -1.703125 -0.75q-1.078125 0 -1.78125 0.78125q-0.703125 0.78125 -0.6875 2.125l4.921875 0zm17.269531 7.296875l-3.296875 0l0 -6.359375q0 -2.015625 -0.21875 -2.59375q-0.203125 -0.59375 -0.6875 -0.921875q-0.46875 -0.328125 -1.125 -0.328125q-0.859375 0 -1.546875 0.46875q-0.671875 0.46875 -0.921875 1.25q-0.25 0.765625 -0.25 2.84375l0 5.640625l-3.296875 0l0 -12.453125l3.0625 0l0 1.828125q1.625 -2.109375 4.09375 -2.109375q1.09375 0 1.984375 0.40625q0.90625 0.390625 1.375 1.0q0.46875 0.609375 0.640625 1.390625q0.1875 0.765625 0.1875 2.203125l0 7.734375zm14.191406 -8.765625l-3.25 0.578125q-0.15625 -0.96875 -0.75 -1.453125q-0.578125 -0.5 -1.5 -0.5q-1.234375 0 -1.96875 0.859375q-0.71875 0.84375 -0.71875 2.828125q0 2.21875 0.734375 3.140625q0.75 0.90625 2.0 0.90625q0.9375 0 1.53125 -0.53125q0.609375 -0.53125 0.84375 -1.828125l3.234375 0.546875q-0.5 2.21875 -1.9375 3.359375q-1.421875 1.140625 -3.828125 1.140625q-2.71875 0 -4.34375 -1.71875q-1.625 -1.734375 -1.625 -4.78125q0 -3.078125 1.625 -4.796875q1.625 -1.71875 4.40625 -1.71875q2.28125 0 3.609375 0.984375q1.34375 0.984375 1.9375 2.984375zm9.707031 4.796875l3.28125 0.5625q-0.640625 1.796875 -2.015625 2.75q-1.359375 0.9375 -3.40625 0.9375q-3.25 0 -4.796875 -2.125q-1.234375 -1.703125 -1.234375 -4.28125q0 -3.09375 1.609375 -4.84375q1.625 -1.765625 4.09375 -1.765625q2.78125 0 4.375 1.84375q1.609375 1.828125 1.546875 5.609375l-8.25 0q0.03125 1.46875 0.796875 2.28125q0.765625 0.8125 1.890625 0.8125q0.78125 0 1.296875 -0.421875q0.53125 -0.421875 0.8125 -1.359375zm0.1875 -3.328125q-0.046875 -1.421875 -0.75 -2.15625q-0.703125 -0.75 -1.703125 -0.75q-1.078125 0 -1.78125 0.78125q-0.703125 0.78125 -0.6875 2.125l4.921875 0z" fill-rule="nonzero"></path><path fill="#000000" fill-opacity="0.0" d="m228.15224 408.76117l188.59843 0l0 72.44092l-188.59843 0z" fill-rule="evenodd"></path><path fill="#000000" d="m238.90224 453.52164l0 -17.1875l12.734375 0l0 2.90625l-9.265625 0l0 3.8125l8.625 0l0 2.890625l-8.625 0l0 4.6875l9.59375 0l0 2.890625l-13.0625 0zm14.8203125 -3.546875l3.3124847 -0.515625q0.203125 0.96875 0.84375 1.46875q0.65625 0.5 1.8125 0.5q1.28125 0 1.921875 -0.46875q0.4375 -0.328125 0.4375 -0.890625q0 -0.375 -0.234375 -0.609375q-0.25 -0.234375 -1.109375 -0.4375q-3.984375 -0.875 -5.0468597 -1.609375q-1.484375 -1.0 -1.484375 -2.796875q0 -1.625 1.28125 -2.71875q1.2812347 -1.109375 3.9687347 -1.109375q2.546875 0 3.78125 0.84375q1.25 0.828125 1.71875 2.453125l-3.109375 0.578125q-0.1875 -0.734375 -0.75 -1.109375q-0.5625 -0.390625 -1.59375 -0.390625q-1.296875 0 -1.859375 0.359375q-0.375 0.265625 -0.375 0.671875q0 0.34375 0.328125 0.59375q0.453125 0.328125 3.078125 0.9375q2.625 0.59375 3.671875 1.453125q1.03125 0.875 1.03125 2.453125q0 1.703125 -1.4375 2.9375q-1.421875 1.234375 -4.21875 1.234375q-2.546875 0 -4.0312347 -1.03125q-1.484375 -1.03125 -1.9375 -2.796875zm20.222641 -8.90625l0 2.625l-2.25 0l0 5.015625q0 1.53125 0.0625 1.78125q0.0625 0.25 0.28125 0.421875q0.234375 0.15625 0.5625 0.15625q0.453125 0 1.328125 -0.3125l0.28125 2.546875q-1.15625 0.5 -2.609375 0.5q-0.890625 0 -1.609375 -0.296875q-0.703125 -0.296875 -1.046875 -0.765625q-0.328125 -0.484375 -0.453125 -1.296875q-0.109375 -0.578125 -0.109375 -2.3125l0 -5.4375l-1.515625 0l0 -2.625l1.515625 0l0 -2.46875l3.3125 -1.921875l0 4.390625l2.25 0zm4.7421875 3.796875l-2.984375 -0.53125q0.5 -1.8125 1.71875 -2.671875q1.234375 -0.875 3.671875 -0.875q2.203125 0 3.28125 0.53125q1.078125 0.515625 1.515625 1.328125q0.4375 0.796875 0.4375 2.9375l-0.03125 3.84375q0 1.640625 0.15625 2.421875q0.15625 0.78125 0.59375 1.671875l-3.265625 0q-0.125 -0.328125 -0.3125 -0.96875q-0.078125 -0.296875 -0.125 -0.390625q-0.84375 0.8125 -1.8125 1.234375q-0.953125 0.40625 -2.03125 0.40625q-1.921875 0 -3.03125 -1.046875q-1.109375 -1.046875 -1.109375 -2.640625q0 -1.046875 0.5 -1.875q0.5 -0.828125 1.40625 -1.265625q0.921875 -0.4375 2.625 -0.765625q2.3125 -0.4375 3.203125 -0.8125l0 -0.328125q0 -0.953125 -0.46875 -1.34375q-0.46875 -0.40625 -1.765625 -0.40625q-0.890625 0 -1.390625 0.34375q-0.484375 0.34375 -0.78125 1.203125zm4.40625 2.671875q-0.640625 0.21875 -2.015625 0.515625q-1.359375 0.28125 -1.78125 0.5625q-0.640625 0.46875 -0.640625 1.171875q0 0.6875 0.515625 1.1875q0.515625 0.5 1.3125 0.5q0.890625 0 1.6875 -0.578125q0.609375 -0.453125 0.796875 -1.09375q0.125 -0.421875 0.125 -1.609375l0 -0.65625zm6.2382812 -6.46875l3.03125 0l0 1.703125q1.625 -1.984375 3.875 -1.984375q1.203125 0 2.078125 0.5q0.875 0.484375 1.4375 1.484375q0.828125 -1.0 1.765625 -1.484375q0.953125 -0.5 2.03125 -0.5q1.375 0 2.3125 0.5625q0.953125 0.5625 1.421875 1.640625q0.34375 0.796875 0.34375 2.578125l0 7.953125l-3.296875 0l0 -7.109375q0 -1.859375 -0.328125 -2.390625q-0.46875 -0.703125 -1.40625 -0.703125q-0.703125 0 -1.3125 0.421875q-0.609375 0.421875 -0.875 1.234375q-0.265625 0.8125 -0.265625 2.5625l0 5.984375l-3.296875 0l0 -6.828125q0 -1.8125 -0.171875 -2.328125q-0.171875 -0.53125 -0.546875 -0.78125q-0.375 -0.265625 -1.0 -0.265625q-0.765625 0 -1.375 0.40625q-0.609375 0.40625 -0.875 1.1875q-0.265625 0.765625 -0.265625 2.5625l0 6.046875l-3.28125 0l0 -12.453125zm21.480469 0l3.078125 0l0 1.828125q0.59375 -0.9375 1.609375 -1.515625q1.03125 -0.59375 2.265625 -0.59375q2.171875 0 3.671875 1.703125q1.515625 1.703125 1.515625 4.734375q0 3.125 -1.53125 4.859375q-1.515625 1.71875 -3.671875 1.71875q-1.03125 0 -1.875 -0.40625q-0.84375 -0.421875 -1.765625 -1.40625l0 6.265625l-3.296875 0l0 -17.1875zm3.265625 6.015625q0 2.09375 0.828125 3.109375q0.828125 1.0 2.03125 1.0q1.140625 0 1.90625 -0.921875q0.765625 -0.921875 0.765625 -3.015625q0 -1.96875 -0.796875 -2.90625q-0.78125 -0.953125 -1.9375 -0.953125q-1.203125 0 -2.0 0.9375q-0.796875 0.921875 -0.796875 2.75zm11.488281 -7.703125l0 -3.046875l3.296875 0l0 3.046875l-3.296875 0zm0 14.140625l0 -12.453125l3.296875 0l0 12.453125l-3.296875 0zm6.6679688 0l0 -17.1875l3.296875 0l0 17.1875l-3.296875 0zm6.6679688 0l0 -17.1875l3.296875 0l0 17.1875l-3.296875 0zm13.886719 -3.96875l3.28125 0.5625q-0.640625 1.796875 -2.015625 2.75q-1.359375 0.9375 -3.40625 0.9375q-3.25 0 -4.796875 -2.125q-1.234375 -1.703125 -1.234375 -4.28125q0 -3.09375 1.609375 -4.84375q1.625 -1.765625 4.09375 -1.765625q2.78125 0 4.375 1.84375q1.609375 1.828125 1.546875 5.609375l-8.25 0q0.03125 1.46875 0.796875 2.28125q0.765625 0.8125 1.890625 0.8125q0.78125 0 1.296875 -0.421875q0.53125 -0.421875 0.8125 -1.359375zm0.1875 -3.328125q-0.046875 -1.421875 -0.75 -2.15625q-0.703125 -0.75 -1.703125 -0.75q-1.078125 0 -1.78125 0.78125q-0.703125 0.78125 -0.6875 2.125l4.921875 0z" fill-rule="nonzero"></path><path fill="#000000" fill-opacity="0.0" d="m669.2493 270.7533l0 0c3.6002808 0 7.0531006 2.128662 9.598877 5.9177246c2.5457153 3.789093 3.9759521 8.928162 3.9759521 14.286713l0 64.81943c0 11.15863 6.0776367 20.204468 13.574768 20.204468l0 0c-7.4971313 0 -13.574768 9.045837 -13.574768 20.204468l0 64.8194c0 11.15863 -6.0776367 20.204468 -13.574829 20.204468z" fill-rule="evenodd"></path><path fill="#000000" fill-opacity="0.0" d="m669.2493 270.7533l0 0c3.6002808 0 7.0531006 2.128662 9.598877 5.9177246c2.5457153 3.789093 3.9759521 8.928162 3.9759521 14.286713l0 64.81943c0 11.15863 6.0776367 20.204468 13.574768 20.204468l0 0c-7.4971313 0 -13.574768 9.045837 -13.574768 20.204468l0 64.8194c0 11.15863 -6.0776367 20.204468 -13.574829 20.204468" fill-rule="evenodd"></path><path stroke="#000000" stroke-width="4.0" stroke-linejoin="round" stroke-linecap="butt" d="m669.2493 270.7533l0 0c3.6002808 0 7.0531006 2.128662 9.598877 5.9177246c2.5457153 3.789093 3.9759521 8.928162 3.9759521 14.286713l0 64.81943c0 11.15863 6.0776367 20.204468 13.574768 20.204468l0 0c-7.4971313 0 -13.574768 9.045837 -13.574768 20.204468l0 64.8194c0 11.15863 -6.0776367 20.204468 -13.574829 20.204468" fill-rule="evenodd"></path><path fill="#000000" fill-opacity="0.0" d="m664.3989 345.25198l303.27563 0l0 34.519684l-303.27563 0z" fill-rule="evenodd"></path><path fill="#000000" d="m704.61487 384.972l0 -22.90625l7.421875 0q4.21875 0 5.5 0.34375q1.96875 0.515625 3.296875 2.25q1.328125 1.71875 1.328125 4.453125q0 2.109375 -0.765625 3.546875q-0.765625 1.4375 -1.953125 2.265625q-1.171875 0.8125 -2.390625 1.078125q-1.65625 0.328125 -4.796875 0.328125l-3.015625 0l0 8.640625l-4.625 0zm4.625 -19.03125l0 6.5l2.53125 0q2.734375 0 3.65625 -0.359375q0.921875 -0.359375 1.4375 -1.125q0.53125 -0.765625 0.53125 -1.78125q0 -1.25 -0.734375 -2.0625q-0.734375 -0.8125 -1.859375 -1.015625q-0.828125 -0.15625 -3.328125 -0.15625l-2.234375 0zm20.890625 19.03125l-4.390625 0l0 -16.59375l4.078125 0l0 2.359375q1.046875 -1.671875 1.875 -2.203125q0.84375 -0.53125 1.90625 -0.53125q1.5 0 2.890625 0.828125l-1.359375 3.828125q-1.109375 -0.71875 -2.0625 -0.71875q-0.921875 0 -1.5625 0.515625q-0.640625 0.5 -1.015625 1.828125q-0.359375 1.328125 -0.359375 5.5625l0 5.125zm7.234375 -8.53125q0 -2.1875 1.078125 -4.234375q1.078125 -2.046875 3.046875 -3.125q1.984375 -1.078125 4.421875 -1.078125q3.765625 0 6.171875 2.453125q2.40625 2.4375 2.40625 6.171875q0 3.765625 -2.4375 6.25q-2.421875 2.46875 -6.109375 2.46875q-2.28125 0 -4.359375 -1.03125q-2.0625 -1.03125 -3.140625 -3.015625q-1.078125 -2.0 -1.078125 -4.859375zm4.5 0.234375q0 2.46875 1.171875 3.78125q1.171875 1.3125 2.890625 1.3125q1.71875 0 2.875 -1.3125q1.171875 -1.3125 1.171875 -3.8125q0 -2.4375 -1.171875 -3.75q-1.15625 -1.3125 -2.875 -1.3125q-1.71875 0 -2.890625 1.3125q-1.171875 1.3125 -1.171875 3.78125zm14.140625 -8.296875l2.4375 0l0 -1.25q0 -2.09375 0.4375 -3.125q0.453125 -1.03125 1.640625 -1.671875q1.203125 -0.65625 3.03125 -0.65625q1.875 0 3.671875 0.5625l-0.59375 3.0625q-1.046875 -0.25 -2.015625 -0.25q-0.953125 0 -1.375 0.453125q-0.40625 0.4375 -0.40625 1.703125l0 1.171875l3.28125 0l0 3.453125l-3.28125 0l0 13.140625l-4.390625 0l0 -13.140625l-2.4375 0l0 -3.453125zm12.578125 -2.25l0 -4.0625l4.390625 0l0 4.0625l-4.390625 0zm0 18.84375l0 -16.59375l4.390625 0l0 16.59375l-4.390625 0zm8.890625 0l0 -22.90625l4.390625 0l0 22.90625l-4.390625 0zm33.0 0l-4.078125 0l0 -2.4375q-1.015625 1.421875 -2.40625 2.125q-1.375 0.6875 -2.78125 0.6875q-2.859375 0 -4.90625 -2.296875q-2.03125 -2.3125 -2.03125 -6.4375q0 -4.21875 1.984375 -6.40625q1.984375 -2.203125 5.015625 -2.203125q2.78125 0 4.8125 2.3125l0 -8.25l4.390625 0l0 22.90625zm-11.71875 -8.65625q0 2.65625 0.734375 3.84375q1.0625 1.71875 2.96875 1.71875q1.515625 0 2.578125 -1.28125q1.0625 -1.296875 1.0625 -3.859375q0 -2.859375 -1.03125 -4.109375q-1.03125 -1.265625 -2.640625 -1.265625q-1.5625 0 -2.625 1.25q-1.046875 1.234375 -1.046875 3.703125zm26.96875 8.65625l0 -2.484375q-0.90625 1.328125 -2.390625 2.09375q-1.46875 0.765625 -3.109375 0.765625q-1.671875 0 -3.0 -0.734375q-1.328125 -0.734375 -1.921875 -2.0625q-0.59375 -1.328125 -0.59375 -3.671875l0 -10.5l4.390625 0l0 7.625q0 3.5 0.234375 4.296875q0.25 0.78125 0.890625 1.25q0.640625 0.453125 1.625 0.453125q1.125 0 2.015625 -0.609375q0.890625 -0.625 1.21875 -1.53125q0.328125 -0.921875 0.328125 -4.484375l0 -7.0l4.390625 0l0 16.59375l-4.078125 0zm32.609375 0l-4.390625 0l0 -8.46875q0 -2.6875 -0.28125 -3.46875q-0.28125 -0.796875 -0.921875 -1.234375q-0.625 -0.4375 -1.515625 -0.4375q-1.140625 0 -2.046875 0.625q-0.90625 0.625 -1.25 1.65625q-0.328125 1.03125 -0.328125 3.8125l0 7.515625l-4.390625 0l0 -16.59375l4.078125 0l0 2.4375q2.171875 -2.8125 5.46875 -2.8125q1.453125 0 2.65625 0.53125q1.203125 0.515625 1.8125 1.328125q0.625 0.8125 0.859375 1.84375q0.25 1.03125 0.25 2.953125l0 10.3125zm26.5625 -5.328125l4.28125 0.6875q-0.765625 2.359375 -2.65625 3.6875q-1.875 1.328125 -4.578125 1.328125q-1.578125 0 -3.125 -0.5625q-1.546875 -0.5625 -2.71875 -1.75q-1.234375 1.15625 -2.6875 1.734375q-1.453125 0.578125 -3.140625 0.578125q-3.640625 0 -6.03125 -2.421875q-2.375 -2.4375 -2.375 -6.21875q0 -2.328125 1.015625 -4.4375q1.03125 -2.109375 3.015625 -3.1875q1.984375 -1.078125 4.453125 -1.078125q1.734375 0 3.171875 0.578125q1.453125 0.578125 2.625 1.734375q1.078125 -1.15625 2.453125 -1.734375q1.390625 -0.578125 3.078125 -0.578125q1.578125 0 2.90625 0.53125q1.34375 0.53125 2.203125 1.34375q0.875 0.796875 1.46875 2.0q0.609375 1.1875 0.875 2.703125q0.265625 1.5 0.25 3.390625l-10.921875 0q0.15625 2.015625 1.109375 3.03125q0.953125 1.0 2.390625 1.0q1.03125 0 1.75 -0.546875q0.734375 -0.546875 1.1875 -1.8125zm0.265625 -4.421875q-0.125 -2.03125 -1.0625 -3.0q-0.9375 -0.984375 -2.34375 -0.984375q-1.546875 0 -2.453125 1.25q-0.640625 0.875 -0.796875 2.734375l6.65625 0zm-18.78125 1.703125q0 1.671875 0.984375 3.234375q1.0 1.546875 2.9375 1.546875q1.625 0 2.71875 -1.28125q1.109375 -1.296875 1.109375 -3.890625q0 -2.359375 -1.109375 -3.625q-1.09375 -1.265625 -2.71875 -1.265625q-1.71875 0 -2.828125 1.296875q-1.09375 1.296875 -1.09375 3.984375zm37.53125 8.046875l0 -2.484375q-0.90625 1.328125 -2.390625 2.09375q-1.46875 0.765625 -3.109375 0.765625q-1.671875 0 -3.0 -0.734375q-1.328125 -0.734375 -1.921875 -2.0625q-0.59375 -1.328125 -0.59375 -3.671875l0 -10.5l4.390625 0l0 7.625q0 3.5 0.234375 4.296875q0.25 0.78125 0.890625 1.25q0.640625 0.453125 1.625 0.453125q1.125 0 2.015625 -0.609375q0.890625 -0.625 1.21875 -1.53125q0.328125 -0.921875 0.328125 -4.484375l0 -7.0l4.390625 0l0 16.59375l-4.078125 0zm23.84375 0l-4.078125 0l0 -2.4375q-1.015625 1.421875 -2.40625 2.125q-1.375 0.6875 -2.78125 0.6875q-2.859375 0 -4.90625 -2.296875q-2.03125 -2.3125 -2.03125 -6.4375q0 -4.21875 1.984375 -6.40625q1.984375 -2.203125 5.015625 -2.203125q2.78125 0 4.8125 2.3125l0 -8.25l4.390625 0l0 22.90625zm-11.71875 -8.65625q0 2.65625 0.734375 3.84375q1.0625 1.71875 2.96875 1.71875q1.515625 0 2.578125 -1.28125q1.0625 -1.296875 1.0625 -3.859375q0 -2.859375 -1.03125 -4.109375q-1.03125 -1.265625 -2.640625 -1.265625q-1.5625 0 -2.625 1.25q-1.046875 1.234375 -1.046875 3.703125z" fill-rule="nonzero"></path><path fill="#eeeeee" d="m10.56168 118.95276l240.80766 0c17.942734 0 32.488174 0.4449768 32.488174 0.9938965c0 0.54891205 -14.545441 0.99388885 -32.488174 0.99388885l-64.97638 0l0 0c-17.942734 0 -32.48819 0.44498444 -32.48819 0.9938965c0 0.5489197 14.545456 0.9938965 32.48819 0.9938965l687.95953 0c17.942688 0 32.48816 -0.4449768 32.48816 -0.9938965c0 -0.54891205 -14.545471 -0.9938965 -32.48816 -0.9938965l-64.97638 0c-17.942749 0 -32.48822 -0.4449768 -32.48822 -0.99388885c0 -0.5489197 14.545471 -0.9938965 32.48822 -0.9938965l240.80762 0l-129.95276 36.216934l129.95276 36.216934l-143.34308 0l0 2.9816742c0 0.5489197 -14.545471 0.9938965 -32.48816 0.9938965l-687.95953 0c-17.942734 0 -32.48819 -0.4449768 -32.48819 -0.9938965l0 -2.9816742l-143.3431 0l129.95276 -36.216934z" fill-rule="evenodd"></path><path fill="#bebebe" d="m283.8575 122.92834l-97.464554 0c-17.942734 0 -32.48819 -0.4449768 -32.48819 -0.9938965c0 -0.54891205 14.545456 -0.9938965 32.48819 -0.9938965l64.97638 0c17.942734 0 32.488174 -0.4449768 32.488174 -0.99388885zm493.03036 -2.9816818l0 0c0 0.54891205 14.545471 0.99388885 32.48822 0.99388885l64.97638 0l0 0c17.942688 0 32.48816 0.44498444 32.48816 0.9938965c0 0.5489197 -14.545471 0.9938965 -32.48816 0.9938965l-97.4646 0z" fill-rule="evenodd"></path><path fill="#000000" fill-opacity="0.0" d="m10.56168 118.95276l240.80766 0c17.942734 0 32.488174 0.4449768 32.488174 0.9938965c0 0.54891205 -14.545441 0.99388885 -32.488174 0.99388885l-64.97638 0l0 0c-17.942734 0 -32.48819 0.44498444 -32.48819 0.9938965c0 0.5489197 14.545456 0.9938965 32.48819 0.9938965l687.95953 0c17.942688 0 32.48816 -0.4449768 32.48816 -0.9938965c0 -0.54891205 -14.545471 -0.9938965 -32.48816 -0.9938965l-64.97638 0c-17.942749 0 -32.48822 -0.4449768 -32.48822 -0.99388885c0 -0.5489197 14.545471 -0.9938965 32.48822 -0.9938965l240.80762 0l-129.95276 36.216934l129.95276 36.216934l-143.34308 0l0 2.9816742c0 0.5489197 -14.545471 0.9938965 -32.48816 0.9938965l-687.95953 0c-17.942734 0 -32.48819 -0.4449768 -32.48819 -0.9938965l0 -2.9816742l-143.3431 0l129.95276 -36.216934zm273.29584 0.9938965l0 2.9816818m493.03036 0l0 -2.9816818m-622.9831 71.43997l0 -69.45219m752.93585 0l0 69.45219" fill-rule="evenodd"></path><path stroke="#595959" stroke-width="1.0" stroke-linejoin="round" stroke-linecap="butt" d="m10.56168 118.95276l240.80766 0c17.942734 0 32.488174 0.4449768 32.488174 0.9938965c0 0.54891205 -14.545441 0.99388885 -32.488174 0.99388885l-64.97638 0l0 0c-17.942734 0 -32.48819 0.44498444 -32.48819 0.9938965c0 0.5489197 14.545456 0.9938965 32.48819 0.9938965l687.95953 0c17.942688 0 32.48816 -0.4449768 32.48816 -0.9938965c0 -0.54891205 -14.545471 -0.9938965 -32.48816 -0.9938965l-64.97638 0c-17.942749 0 -32.48822 -0.4449768 -32.48822 -0.99388885c0 -0.5489197 14.545471 -0.9938965 32.48822 -0.9938965l240.80762 0l-129.95276 36.216934l129.95276 36.216934l-143.34308 0l0 2.9816742c0 0.5489197 -14.545471 0.9938965 -32.48816 0.9938965l-687.95953 0c-17.942734 0 -32.48819 -0.4449768 -32.48819 -0.9938965l0 -2.9816742l-143.3431 0l129.95276 -36.216934zm273.29584 0.9938965l0 2.9816818m493.03036 0l0 -2.9816818m-622.9831 71.43997l0 -69.45219m752.93585 0l0 69.45219" fill-rule="evenodd"></path><path fill="#000000" fill-opacity="0.0" d="m417.51706 122.92913l75.433075 0l0 72.44094l-75.433075 0z" fill-rule="evenodd"></path><path stroke="#000000" stroke-width="1.0" stroke-linejoin="round" stroke-linecap="butt" d="m417.51706 122.92913l75.433075 0l0 72.44094l-75.433075 0z" fill-rule="evenodd"></path><path fill="#000000" d="m442.30585 167.6896l0 -17.1875l5.5625 0q3.1719055 0 4.1250305 0.265625q1.484375 0.390625 2.46875 1.6875q1.0 1.28125 1.0 3.34375q0 1.578125 -0.578125 2.65625q-0.5625 1.078125 -1.453125 1.703125q-0.890625 0.609375 -1.796875 0.796875q-1.25 0.25 -3.5937805 0.25l-2.265625 0l0 6.484375l-3.46875 0zm3.46875 -14.28125l0 4.875l1.890625 0q2.0625305 0 2.7500305 -0.265625q0.6875 -0.265625 1.078125 -0.84375q0.390625 -0.578125 0.390625 -1.328125q0 -0.9375 -0.546875 -1.546875q-0.546875 -0.609375 -1.390625 -0.765625q-0.6250305 -0.125 -2.5000305 -0.125l-1.671875 0zm22.929718 11.21875l0 3.0625l-11.546875 0q0.1875 -1.734375 1.125 -3.28125q0.9375 -1.5625 3.703125 -4.125q2.234375 -2.078125 2.734375 -2.8125q0.6875 -1.015625 0.6875 -2.015625q0 -1.109375 -0.59375 -1.6875q-0.59375 -0.59375 -1.640625 -0.59375q-1.03125 0 -1.640625 0.625q-0.609375 0.609375 -0.703125 2.046875l-3.28125 -0.328125q0.296875 -2.71875 1.84375 -3.890625q1.546875 -1.1875 3.859375 -1.1875q2.546875 0 4.0 1.375q1.453125 1.359375 1.453125 3.40625q0 1.15625 -0.421875 2.203125q-0.40625 1.046875 -1.3125 2.203125q-0.59375 0.765625 -2.15625 2.203125q-1.5625 1.421875 -1.984375 1.890625q-0.40625 0.46875 -0.65625 0.90625l6.53125 0z" fill-rule="nonzero"></path><path fill="#000000" fill-opacity="0.0" d="m189.71129 122.92913l75.43306 0l0 72.44094l-75.43306 0z" fill-rule="evenodd"></path><path stroke="#000000" stroke-width="1.0" stroke-linejoin="round" stroke-linecap="butt" d="m189.71129 122.92913l75.43306 0l0 72.44094l-75.43306 0z" fill-rule="evenodd"></path><path fill="#000000" d="m214.50009 167.6896l0 -17.1875l5.5625 0q3.171875 0 4.125 0.265625q1.484375 0.390625 2.46875 1.6875q1.0 1.28125 1.0 3.34375q0 1.578125 -0.578125 2.65625q-0.5625 1.078125 -1.453125 1.703125q-0.890625 0.609375 -1.796875 0.796875q-1.25 0.25 -3.59375 0.25l-2.265625 0l0 6.484375l-3.46875 0zm3.46875 -14.28125l0 4.875l1.890625 0q2.0625 0 2.75 -0.265625q0.6875 -0.265625 1.078125 -0.84375q0.390625 -0.578125 0.390625 -1.328125q0 -0.9375 -0.546875 -1.546875q-0.546875 -0.609375 -1.390625 -0.765625q-0.625 -0.125 -2.5 -0.125l-1.671875 0zm20.242188 14.28125l-3.296875 0l0 -12.40625q-1.8125 1.6875 -4.25 2.484375l0 -2.984375q1.28125 -0.421875 2.796875 -1.59375q1.515625 -1.1875 2.078125 -2.75l2.671875 0l0 17.25z" fill-rule="nonzero"></path><path fill="#000000" fill-opacity="0.0" d="m265.89764 122.92782l75.433075 0l0 72.44094l-75.433075 0z" fill-rule="evenodd"></path><path stroke="#000000" stroke-width="1.0" stroke-linejoin="round" stroke-linecap="butt" d="m265.89764 122.92782l75.433075 0l0 72.44094l-75.433075 0z" fill-rule="evenodd"></path><path fill="#000000" d="m290.68643 167.6883l0 -17.1875l5.5625 0q3.171875 0 4.125 0.265625q1.484375 0.390625 2.46875 1.6875q1.0 1.28125 1.0 3.34375q0 1.578125 -0.578125 2.65625q-0.5625 1.078125 -1.453125 1.703125q-0.890625 0.609375 -1.796875 0.796875q-1.25 0.25 -3.59375 0.25l-2.265625 0l0 6.484375l-3.46875 0zm3.46875 -14.28125l0 4.875l1.890625 0q2.0625 0 2.75 -0.265625q0.6875 -0.265625 1.078125 -0.84375q0.390625 -0.578125 0.390625 -1.328125q0 -0.9375 -0.546875 -1.546875q-0.546875 -0.609375 -1.390625 -0.765625q-0.625 -0.125 -2.5 -0.125l-1.671875 0zm22.929688 11.21875l0 3.0625l-11.546875 0q0.1875 -1.734375 1.125 -3.28125q0.9375 -1.5625 3.703125 -4.125q2.234375 -2.078125 2.734375 -2.8125q0.6875 -1.015625 0.6875 -2.015625q0 -1.109375 -0.59375 -1.6875q-0.59375 -0.59375 -1.640625 -0.59375q-1.03125 0 -1.640625 0.625q-0.609375 0.609375 -0.703125 2.046875l-3.28125 -0.328125q0.296875 -2.71875 1.84375 -3.890625q1.546875 -1.1875 3.859375 -1.1875q2.546875 0 4.0 1.375q1.453125 1.359375 1.453125 3.40625q0 1.15625 -0.421875 2.203125q-0.40625 1.046875 -1.3125 2.203125q-0.59375 0.765625 -2.15625 2.203125q-1.5625 1.421875 -1.984375 1.890625q-0.40625 0.46875 -0.65625 0.90625l6.53125 0z" fill-rule="nonzero"></path><path fill="#000000" fill-opacity="0.0" d="m342.08398 122.92913l75.433075 0l0 72.44094l-75.433075 0z" fill-rule="evenodd"></path><path stroke="#000000" stroke-width="1.0" stroke-linejoin="round" stroke-linecap="butt" d="m342.08398 122.92913l75.433075 0l0 72.44094l-75.433075 0z" fill-rule="evenodd"></path><path fill="#000000" d="m366.8728 167.6896l0 -17.1875l5.5625 0q3.171875 0 4.125 0.265625q1.484375 0.390625 2.46875 1.6875q1.0 1.28125 1.0 3.34375q0 1.578125 -0.578125 2.65625q-0.5625 1.078125 -1.453125 1.703125q-0.890625 0.609375 -1.796875 0.796875q-1.25 0.25 -3.59375 0.25l-2.265625 0l0 6.484375l-3.46875 0zm3.46875 -14.28125l0 4.875l1.890625 0q2.0625 0 2.75 -0.265625q0.6875 -0.265625 1.078125 -0.84375q0.390625 -0.578125 0.390625 -1.328125q0 -0.9375 -0.546875 -1.546875q-0.546875 -0.609375 -1.390625 -0.765625q-0.625 -0.125 -2.5 -0.125l-1.671875 0zm11.6953125 9.71875l3.1875 -0.390625q0.15625 1.21875 0.8125 1.875q0.671875 0.640625 1.625 0.640625q1.015625 0 1.703125 -0.765625q0.703125 -0.78125 0.703125 -2.09375q0 -1.25 -0.671875 -1.96875q-0.65625 -0.734375 -1.625 -0.734375q-0.625 0 -1.5 0.25l0.359375 -2.6875q1.328125 0.046875 2.03125 -0.5625q0.703125 -0.625 0.703125 -1.640625q0 -0.875 -0.515625 -1.390625q-0.515625 -0.515625 -1.359375 -0.515625q-0.84375 0 -1.453125 0.59375q-0.59375 0.578125 -0.71875 1.703125l-3.03125 -0.515625q0.3125 -1.5625 0.953125 -2.484375q0.640625 -0.9375 1.78125 -1.46875q1.140625 -0.53125 2.5625 -0.53125q2.421875 0 3.890625 1.546875q1.203125 1.265625 1.203125 2.859375q0 2.265625 -2.46875 3.609375q1.46875 0.3125 2.34375 1.421875q0.890625 1.09375 0.890625 2.65625q0 2.265625 -1.65625 3.859375q-1.640625 1.59375 -4.109375 1.59375q-2.328125 0 -3.859375 -1.34375q-1.53125 -1.34375 -1.78125 -3.515625z" fill-rule="nonzero"></path><path fill="#c9daf8" d="m492.95013 122.92913l75.433044 0l0 72.44094l-75.433044 0z" fill-rule="evenodd"></path><path stroke="#000000" stroke-width="1.0" stroke-linejoin="round" stroke-linecap="butt" d="m492.95013 122.92913l75.433044 0l0 72.44094l-75.433044 0z" fill-rule="evenodd"></path><path fill="#ff6600" d="m517.73895 167.6896l0 -17.1875l5.5625 0q3.171875 0 4.125 0.265625q1.484375 0.390625 2.46875 1.6875q1.0 1.28125 1.0 3.34375q0 1.578125 -0.578125 2.65625q-0.5625 1.078125 -1.453125 1.703125q-0.890625 0.609375 -1.796875 0.796875q-1.25 0.25 -3.59375 0.25l-2.265625 0l0 6.484375l-3.46875 0zm3.46875 -14.28125l0 4.875l1.890625 0q2.0625 0 2.75 -0.265625q0.6875 -0.265625 1.078125 -0.84375q0.390625 -0.578125 0.390625 -1.328125q0 -0.9375 -0.546875 -1.546875q-0.546875 -0.609375 -1.390625 -0.765625q-0.625 -0.125 -2.5 -0.125l-1.671875 0zm22.929688 11.21875l0 3.0625l-11.546875 0q0.1875 -1.734375 1.125 -3.28125q0.9375 -1.5625 3.703125 -4.125q2.234375 -2.078125 2.734375 -2.8125q0.6875 -1.015625 0.6875 -2.015625q0 -1.109375 -0.59375 -1.6875q-0.59375 -0.59375 -1.640625 -0.59375q-1.03125 0 -1.640625 0.625q-0.609375 0.609375 -0.703125 2.046875l-3.28125 -0.328125q0.296875 -2.71875 1.84375 -3.890625q1.546875 -1.1875 3.859375 -1.1875q2.546875 0 4.0 1.375q1.453125 1.359375 1.453125 3.40625q0 1.15625 -0.421875 2.203125q-0.40625 1.046875 -1.3125 2.203125q-0.59375 0.765625 -2.15625 2.203125q-1.5625 1.421875 -1.984375 1.890625q-0.40625 0.46875 -0.65625 0.90625l6.53125 0z" fill-rule="nonzero"></path><path fill="#000000" fill-opacity="0.0" d="m569.1365 122.92913l75.433105 0l0 72.44094l-75.433105 0z" fill-rule="evenodd"></path><path stroke="#000000" stroke-width="1.0" stroke-linejoin="round" stroke-linecap="butt" d="m569.1365 122.92913l75.433105 0l0 72.44094l-75.433105 0z" fill-rule="evenodd"></path><path fill="#000000" d="m593.9253 167.6896l0 -17.1875l5.5625 0q3.171875 0 4.125 0.265625q1.484375 0.390625 2.46875 1.6875q1.0 1.28125 1.0 3.34375q0 1.578125 -0.578125 2.65625q-0.5625 1.078125 -1.453125 1.703125q-0.890625 0.609375 -1.796875 0.796875q-1.25 0.25 -3.59375 0.25l-2.265625 0l0 6.484375l-3.46875 0zm3.46875 -14.28125l0 4.875l1.890625 0q2.0625 0 2.75 -0.265625q0.6875 -0.265625 1.078125 -0.84375q0.390625 -0.578125 0.390625 -1.328125q0 -0.9375 -0.546875 -1.546875q-0.546875 -0.609375 -1.390625 -0.765625q-0.625 -0.125 -2.5 -0.125l-1.671875 0zm22.929688 11.21875l0 3.0625l-11.546875 0q0.1875 -1.734375 1.125 -3.28125q0.9375 -1.5625 3.703125 -4.125q2.234375 -2.078125 2.734375 -2.8125q0.6875 -1.015625 0.6875 -2.015625q0 -1.109375 -0.59375 -1.6875q-0.59375 -0.59375 -1.640625 -0.59375q-1.03125 0 -1.640625 0.625q-0.609375 0.609375 -0.703125 2.046875l-3.28125 -0.328125q0.296875 -2.71875 1.84375 -3.890625q1.546875 -1.1875 3.859375 -1.1875q2.546875 0 4.0 1.375q1.453125 1.359375 1.453125 3.40625q0 1.15625 -0.421875 2.203125q-0.40625 1.046875 -1.3125 2.203125q-0.59375 0.765625 -2.15625 2.203125q-1.5625 1.421875 -1.984375 1.890625q-0.40625 0.46875 -0.65625 0.90625l6.53125 0z" fill-rule="nonzero"></path><path fill="#000000" fill-opacity="0.0" d="m643.8163 122.92913l75.433044 0l0 72.44094l-75.433044 0z" fill-rule="evenodd"></path><path stroke="#000000" stroke-width="1.0" stroke-linejoin="round" stroke-linecap="butt" d="m643.8163 122.92913l75.433044 0l0 72.44094l-75.433044 0z" fill-rule="evenodd"></path><path fill="#000000" d="m668.6051 167.6896l0 -17.1875l5.5625 0q3.171875 0 4.125 0.265625q1.484375 0.390625 2.46875 1.6875q1.0 1.28125 1.0 3.34375q0 1.578125 -0.578125 2.65625q-0.5625 1.078125 -1.453125 1.703125q-0.890625 0.609375 -1.796875 0.796875q-1.25 0.25 -3.59375 0.25l-2.265625 0l0 6.484375l-3.46875 0zm3.46875 -14.28125l0 4.875l1.890625 0q2.0625 0 2.75 -0.265625q0.6875 -0.265625 1.078125 -0.84375q0.390625 -0.578125 0.390625 -1.328125q0 -0.9375 -0.546875 -1.546875q-0.546875 -0.609375 -1.390625 -0.765625q-0.625 -0.125 -2.5 -0.125l-1.671875 0zm11.6953125 9.71875l3.1875 -0.390625q0.15625 1.21875 0.8125 1.875q0.671875 0.640625 1.625 0.640625q1.015625 0 1.703125 -0.765625q0.703125 -0.78125 0.703125 -2.09375q0 -1.25 -0.671875 -1.96875q-0.65625 -0.734375 -1.625 -0.734375q-0.625 0 -1.5 0.25l0.359375 -2.6875q1.328125 0.046875 2.03125 -0.5625q0.703125 -0.625 0.703125 -1.640625q0 -0.875 -0.515625 -1.390625q-0.515625 -0.515625 -1.359375 -0.515625q-0.84375 0 -1.453125 0.59375q-0.59375 0.578125 -0.71875 1.703125l-3.03125 -0.515625q0.3125 -1.5625 0.953125 -2.484375q0.640625 -0.9375 1.78125 -1.46875q1.140625 -0.53125 2.5625 -0.53125q2.421875 0 3.890625 1.546875q1.203125 1.265625 1.203125 2.859375q0 2.265625 -2.46875 3.609375q1.46875 0.3125 2.34375 1.421875q0.890625 1.09375 0.890625 2.65625q0 2.265625 -1.65625 3.859375q-1.640625 1.59375 -4.109375 1.59375q-2.328125 0 -3.859375 -1.34375q-1.53125 -1.34375 -1.78125 -3.515625z" fill-rule="nonzero"></path><path fill="#000000" fill-opacity="0.0" d="m720.0026 122.92913l75.433044 0l0 72.44094l-75.433044 0z" fill-rule="evenodd"></path><path stroke="#000000" stroke-width="1.0" stroke-linejoin="round" stroke-linecap="butt" d="m720.0026 122.92913l75.433044 0l0 72.44094l-75.433044 0z" fill-rule="evenodd"></path><path fill="#000000" d="m744.79144 167.6896l0 -17.1875l5.5625 0q3.171875 0 4.125 0.265625q1.484375 0.390625 2.46875 1.6875q1.0 1.28125 1.0 3.34375q0 1.578125 -0.578125 2.65625q-0.5625 1.078125 -1.453125 1.703125q-0.890625 0.609375 -1.796875 0.796875q-1.25 0.25 -3.59375 0.25l-2.265625 0l0 6.484375l-3.46875 0zm3.46875 -14.28125l0 4.875l1.890625 0q2.0625 0 2.75 -0.265625q0.6875 -0.265625 1.078125 -0.84375q0.390625 -0.578125 0.390625 -1.328125q0 -0.9375 -0.546875 -1.546875q-0.546875 -0.609375 -1.390625 -0.765625q-0.625 -0.125 -2.5 -0.125l-1.671875 0zm11.6953125 9.71875l3.1875 -0.390625q0.15625 1.21875 0.8125 1.875q0.671875 0.640625 1.625 0.640625q1.015625 0 1.703125 -0.765625q0.703125 -0.78125 0.703125 -2.09375q0 -1.25 -0.671875 -1.96875q-0.65625 -0.734375 -1.625 -0.734375q-0.625 0 -1.5 0.25l0.359375 -2.6875q1.328125 0.046875 2.03125 -0.5625q0.703125 -0.625 0.703125 -1.640625q0 -0.875 -0.515625 -1.390625q-0.515625 -0.515625 -1.359375 -0.515625q-0.84375 0 -1.453125 0.59375q-0.59375 0.578125 -0.71875 1.703125l-3.03125 -0.515625q0.3125 -1.5625 0.953125 -2.484375q0.640625 -0.9375 1.78125 -1.46875q1.140625 -0.53125 2.5625 -0.53125q2.421875 0 3.890625 1.546875q1.203125 1.265625 1.203125 2.859375q0 2.265625 -2.46875 3.609375q1.46875 0.3125 2.34375 1.421875q0.890625 1.09375 0.890625 2.65625q0 2.265625 -1.65625 3.859375q-1.640625 1.59375 -4.109375 1.59375q-2.328125 0 -3.859375 -1.34375q-1.53125 -1.34375 -1.78125 -3.515625z" fill-rule="nonzero"></path><path fill="#000000" fill-opacity="0.0" d="m794.68243 122.92913l75.433044 0l0 72.44094l-75.433044 0z" fill-rule="evenodd"></path><path stroke="#000000" stroke-width="1.0" stroke-linejoin="round" stroke-linecap="butt" d="m794.68243 122.92913l75.433044 0l0 72.44094l-75.433044 0z" fill-rule="evenodd"></path><path fill="#000000" d="m819.4712 167.6896l0 -17.1875l5.5625 0q3.171875 0 4.125 0.265625q1.484375 0.390625 2.46875 1.6875q1.0 1.28125 1.0 3.34375q0 1.578125 -0.578125 2.65625q-0.5625 1.078125 -1.453125 1.703125q-0.890625 0.609375 -1.796875 0.796875q-1.25 0.25 -3.59375 0.25l-2.265625 0l0 6.484375l-3.46875 0zm3.46875 -14.28125l0 4.875l1.890625 0q2.0625 0 2.75 -0.265625q0.6875 -0.265625 1.078125 -0.84375q0.390625 -0.578125 0.390625 -1.328125q0 -0.9375 -0.546875 -1.546875q-0.546875 -0.609375 -1.390625 -0.765625q-0.625 -0.125 -2.5 -0.125l-1.671875 0zm18.273438 14.28125l0 -3.453125l-7.03125 0l0 -2.890625l7.453125 -10.90625l2.765625 0l0 10.890625l2.125 0l0 2.90625l-2.125 0l0 3.453125l-3.1875 0zm0 -6.359375l0 -5.859375l-3.953125 5.859375l3.953125 0z" fill-rule="nonzero"></path><path fill="#000000" fill-opacity="0.0" d="m530.6667 195.37007l0 35.77954l0.06298828 0l0 35.779526" fill-rule="evenodd"></path><path stroke="#000000" stroke-width="3.0" stroke-linejoin="round" stroke-linecap="butt" d="m530.6667 195.37007l0 35.77954l0.06298828 0l0 17.779526" fill-rule="evenodd"></path><path fill="#000000" stroke="#000000" stroke-width="3.0" stroke-linecap="butt" d="m525.7745 248.92914l4.9552 13.614288l4.9552 -13.614288z" fill-rule="evenodd"></path><path fill="#000000" fill-opacity="0.0" d="m492.95013 266.92914l75.433044 0l0 72.44095l-75.433044 0z" fill-rule="evenodd"></path><path stroke="#000000" stroke-width="1.0" stroke-linejoin="round" stroke-linecap="butt" d="m492.95013 266.92914l75.433044 0l0 72.44095l-75.433044 0z" fill-rule="evenodd"></path><path fill="#ff6600" d="m517.73895 311.6896l0 -17.1875l5.5625 0q3.171875 0 4.125 0.265625q1.484375 0.390625 2.46875 1.6875q1.0 1.28125 1.0 3.34375q0 1.578125 -0.578125 2.65625q-0.5625 1.078125 -1.453125 1.703125q-0.890625 0.609375 -1.796875 0.796875q-1.25 0.25 -3.59375 0.25l-2.265625 0l0 6.484375l-3.46875 0zm3.46875 -14.28125l0 4.875l1.890625 0q2.0625 0 2.75 -0.265625q0.6875 -0.265625 1.078125 -0.84375q0.390625 -0.578125 0.390625 -1.328125q0 -0.9375 -0.546875 -1.546875q-0.546875 -0.609375 -1.390625 -0.765625q-0.625 -0.125 -2.5 -0.125l-1.671875 0zm22.929688 11.21875l0 3.0625l-11.546875 0q0.1875 -1.734375 1.125 -3.28125q0.9375 -1.5625 3.703125 -4.125q2.234375 -2.078125 2.734375 -2.8125q0.6875 -1.015625 0.6875 -2.015625q0 -1.109375 -0.59375 -1.6875q-0.59375 -0.59375 -1.640625 -0.59375q-1.03125 0 -1.640625 0.625q-0.609375 0.609375 -0.703125 2.046875l-3.28125 -0.328125q0.296875 -2.71875 1.84375 -3.890625q1.546875 -1.1875 3.859375 -1.1875q2.546875 0 4.0 1.375q1.453125 1.359375 1.453125 3.40625q0 1.15625 -0.421875 2.203125q-0.40625 1.046875 -1.3125 2.203125q-0.59375 0.765625 -2.15625 2.203125q-1.5625 1.421875 -1.984375 1.890625q-0.40625 0.46875 -0.65625 0.90625l6.53125 0z" fill-rule="nonzero"></path><path fill="#000000" fill-opacity="0.0" d="m492.95013 338.92914l75.433044 0l0 72.44095l-75.433044 0z" fill-rule="evenodd"></path><path stroke="#000000" stroke-width="1.0" stroke-linejoin="round" stroke-linecap="butt" d="m492.95013 338.92914l75.433044 0l0 72.44095l-75.433044 0z" fill-rule="evenodd"></path><path fill="#ff6600" d="m525.0085 379.15836l2.109375 -0.28125q0.359375 1.78125 1.234375 2.578125q0.875 0.796875 2.125 0.796875q1.484375 0 2.5 -1.03125q1.03125 -1.03125 1.03125 -2.5625q0 -1.453125 -0.953125 -2.390625q-0.9375 -0.953125 -2.40625 -0.953125q-0.59375 0 -1.484375 0.234375l0.234375 -1.84375q0.203125 0.015625 0.34375 0.015625q1.34375 0 2.421875 -0.703125q1.078125 -0.703125 1.078125 -2.15625q0 -1.171875 -0.796875 -1.921875q-0.78125 -0.765625 -2.015625 -0.765625q-1.234375 0 -2.0625 0.78125q-0.8125 0.765625 -1.046875 2.3125l-2.109375 -0.375q0.390625 -2.125 1.75 -3.28125q1.375 -1.171875 3.421875 -1.171875q1.40625 0 2.578125 0.609375q1.1875 0.59375 1.8125 1.640625q0.640625 1.046875 0.640625 2.21875q0 1.109375 -0.609375 2.03125q-0.59375 0.90625 -1.765625 1.4375q1.53125 0.359375 2.375 1.46875q0.84375 1.109375 0.84375 2.765625q0 2.25 -1.640625 3.828125q-1.640625 1.5625 -4.15625 1.5625q-2.265625 0 -3.765625 -1.34375q-1.484375 -1.359375 -1.6875 -3.5z" fill-rule="nonzero"></path><path fill="#000000" fill-opacity="0.0" d="m492.95013 410.92914l75.433044 0l0 72.44095l-75.433044 0z" fill-rule="evenodd"></path><path stroke="#000000" stroke-width="1.0" stroke-linejoin="round" stroke-linecap="butt" d="m492.95013 410.92914l75.433044 0l0 72.44095l-75.433044 0z" fill-rule="evenodd"></path><path fill="#ff6600" d="m524.99286 451.1896l2.21875 -0.1875q0.234375 1.609375 1.125 2.4375q0.90625 0.8125 2.171875 0.8125q1.53125 0 2.578125 -1.140625q1.0625 -1.15625 1.0625 -3.0625q0 -1.796875 -1.015625 -2.84375q-1.015625 -1.046875 -2.65625 -1.046875q-1.015625 0 -1.84375 0.46875q-0.8125 0.453125 -1.28125 1.203125l-1.984375 -0.265625l1.65625 -8.828125l8.546875 0l0 2.015625l-6.859375 0l-0.921875 4.625q1.546875 -1.078125 3.25 -1.078125q2.25 0 3.796875 1.5625q1.546875 1.546875 1.546875 4.0q0 2.328125 -1.359375 4.03125q-1.65625 2.09375 -4.515625 2.09375q-2.34375 0 -3.828125 -1.3125q-1.484375 -1.3125 -1.6875 -3.484375z" fill-rule="nonzero"></path><path fill="#000000" fill-opacity="0.0" d="m569.1365 266.92914l75.433105 0l0 72.44095l-75.433105 0z" fill-rule="evenodd"></path><path stroke="#000000" stroke-width="1.0" stroke-linejoin="round" stroke-linecap="butt" d="m569.1365 266.92914l75.433105 0l0 72.44095l-75.433105 0z" fill-rule="evenodd"></path><path fill="#000000" d="m593.9253 311.6896l0 -17.1875l5.5625 0q3.171875 0 4.125 0.265625q1.484375 0.390625 2.46875 1.6875q1.0 1.28125 1.0 3.34375q0 1.578125 -0.578125 2.65625q-0.5625 1.078125 -1.453125 1.703125q-0.890625 0.609375 -1.796875 0.796875q-1.25 0.25 -3.59375 0.25l-2.265625 0l0 6.484375l-3.46875 0zm3.46875 -14.28125l0 4.875l1.890625 0q2.0625 0 2.75 -0.265625q0.6875 -0.265625 1.078125 -0.84375q0.390625 -0.578125 0.390625 -1.328125q0 -0.9375 -0.546875 -1.546875q-0.546875 -0.609375 -1.390625 -0.765625q-0.625 -0.125 -2.5 -0.125l-1.671875 0zm11.6953125 9.71875l3.1875 -0.390625q0.15625 1.21875 0.8125 1.875q0.671875 0.640625 1.625 0.640625q1.015625 0 1.703125 -0.765625q0.703125 -0.78125 0.703125 -2.09375q0 -1.25 -0.671875 -1.96875q-0.65625 -0.734375 -1.625 -0.734375q-0.625 0 -1.5 0.25l0.359375 -2.6875q1.328125 0.046875 2.03125 -0.5625q0.703125 -0.625 0.703125 -1.640625q0 -0.875 -0.515625 -1.390625q-0.515625 -0.515625 -1.359375 -0.515625q-0.84375 0 -1.453125 0.59375q-0.59375 0.578125 -0.71875 1.703125l-3.03125 -0.515625q0.3125 -1.5625 0.953125 -2.484375q0.640625 -0.9375 1.78125 -1.46875q1.140625 -0.53125 2.5625 -0.53125q2.421875 0 3.890625 1.546875q1.203125 1.265625 1.203125 2.859375q0 2.265625 -2.46875 3.609375q1.46875 0.3125 2.34375 1.421875q0.890625 1.09375 0.890625 2.65625q0 2.265625 -1.65625 3.859375q-1.640625 1.59375 -4.109375 1.59375q-2.328125 0 -3.859375 -1.34375q-1.53125 -1.34375 -1.78125 -3.515625z" fill-rule="nonzero"></path><path fill="#000000" fill-opacity="0.0" d="m569.1365 338.92914l75.433105 0l0 72.44095l-75.433105 0z" fill-rule="evenodd"></path><path stroke="#000000" stroke-width="1.0" stroke-linejoin="round" stroke-linecap="butt" d="m569.1365 338.92914l75.433105 0l0 72.44095l-75.433105 0z" fill-rule="evenodd"></path><path fill="#000000" d="m609.1167 383.6896l-2.109375 0l0 -13.4375q-0.75 0.71875 -2.0 1.453125q-1.234375 0.71875 -2.21875 1.078125l0 -2.03125q1.78125 -0.828125 3.09375 -2.015625q1.328125 -1.1875 1.875 -2.296875l1.359375 0l0 17.25z" fill-rule="nonzero"></path><path fill="#000000" fill-opacity="0.0" d="m569.1365 410.92914l75.433105 0l0 72.44095l-75.433105 0z" fill-rule="evenodd"></path><path stroke="#000000" stroke-width="1.0" stroke-linejoin="round" stroke-linecap="butt" d="m569.1365 410.92914l75.433105 0l0 72.44095l-75.433105 0z" fill-rule="evenodd"></path><path fill="#000000" d="m601.1948 451.15836l2.109375 -0.28125q0.359375 1.78125 1.234375 2.578125q0.875 0.796875 2.125 0.796875q1.484375 0 2.5 -1.03125q1.03125 -1.03125 1.03125 -2.5625q0 -1.453125 -0.953125 -2.390625q-0.9375 -0.953125 -2.40625 -0.953125q-0.59375 0 -1.484375 0.234375l0.234375 -1.84375q0.203125 0.015625 0.34375 0.015625q1.34375 0 2.421875 -0.703125q1.078125 -0.703125 1.078125 -2.15625q0 -1.171875 -0.796875 -1.921875q-0.78125 -0.765625 -2.015625 -0.765625q-1.234375 0 -2.0625 0.78125q-0.8125 0.765625 -1.046875 2.3125l-2.109375 -0.375q0.390625 -2.125 1.75 -3.28125q1.375 -1.171875 3.421875 -1.171875q1.40625 0 2.578125 0.609375q1.1875 0.59375 1.8125 1.640625q0.640625 1.046875 0.640625 2.21875q0 1.109375 -0.609375 2.03125q-0.59375 0.90625 -1.765625 1.4375q1.53125 0.359375 2.375 1.46875q0.84375 1.109375 0.84375 2.765625q0 2.25 -1.640625 3.828125q-1.640625 1.5625 -4.15625 1.5625q-2.265625 0 -3.765625 -1.34375q-1.484375 -1.359375 -1.6875 -3.5z" fill-rule="nonzero"></path><path fill="#000000" fill-opacity="0.0" d="m204.95801 70.385826l654.1102 0l0 36.34646l-654.1102 0z" fill-rule="evenodd"></path><path fill="#000000" d="m226.55176 110.10583l-4.390625 0l0 -16.546875q-2.40625 2.25 -5.671875 3.328125l0 -3.984375q1.71875 -0.5625 3.734375 -2.125q2.015625 -1.578125 2.765625 -3.671875l3.5625 0l0 23.0zm74.734375 -4.078125l0 4.078125l-15.390625 0q0.25 -2.3125 1.5 -4.375q1.25 -2.078125 4.9375 -5.5q2.96875 -2.765625 3.640625 -3.75q0.90625 -1.359375 0.90625 -2.6875q0 -1.46875 -0.796875 -2.25q-0.78125 -0.796875 -2.171875 -0.796875q-1.375 0 -2.1875 0.828125q-0.8125 0.828125 -0.9375 2.75l-4.375 -0.4375q0.390625 -3.625 2.453125 -5.203125q2.0625 -1.578125 5.15625 -1.578125q3.390625 0 5.328125 1.828125q1.9375 1.828125 1.9375 4.546875q0 1.546875 -0.5625 2.953125q-0.546875 1.390625 -1.75 2.921875q-0.796875 1.015625 -2.875 2.921875q-2.078125 1.90625 -2.640625 2.53125q-0.546875 0.625 -0.890625 1.21875l8.71875 0zm65.046875 -2.0l4.25 -0.515625q0.203125 1.625 1.09375 2.484375q0.890625 0.859375 2.15625 0.859375q1.359375 0 2.28125 -1.03125q0.9375 -1.03125 0.9375 -2.78125q0 -1.65625 -0.890625 -2.625q-0.890625 -0.96875 -2.171875 -0.96875q-0.84375 0 -2.015625 0.328125l0.484375 -3.578125q1.78125 0.046875 2.71875 -0.765625q0.9375 -0.828125 0.9375 -2.1875q0 -1.15625 -0.6875 -1.84375q-0.6875 -0.6875 -1.828125 -0.6875q-1.125 0 -1.921875 0.78125q-0.796875 0.78125 -0.96875 2.28125l-4.046875 -0.6875q0.421875 -2.078125 1.265625 -3.3125q0.859375 -1.25 2.375 -1.953125q1.53125 -0.71875 3.421875 -0.71875q3.234375 0 5.1875 2.0625q1.609375 1.6875 1.609375 3.8125q0 3.015625 -3.296875 4.8125q1.96875 0.421875 3.140625 1.890625q1.1875 1.46875 1.1875 3.546875q0 3.015625 -2.203125 5.140625q-2.203125 2.125 -5.484375 2.125q-3.109375 0 -5.15625 -1.78125q-2.046875 -1.796875 -2.375 -4.6875zm88.796875 6.078125l0 -4.609375l-9.375 0l0 -3.84375l9.9375 -14.546875l3.6875 0l0 14.53125l2.84375 0l0 3.859375l-2.84375 0l0 4.609375l-4.25 0zm0 -8.46875l0 -7.828125l-5.265625 7.828125l5.265625 0zm71.484375 2.578125l4.375 -0.453125q0.1875 1.484375 1.109375 2.359375q0.921875 0.859375 2.125 0.859375q1.375 0 2.328125 -1.109375q0.953125 -1.125 0.953125 -3.375q0 -2.109375 -0.953125 -3.15625q-0.9375 -1.0625 -2.453125 -1.0625q-1.890625 0 -3.390625 1.671875l-3.5625 -0.515625l2.25 -11.921875l11.609375 0l0 4.109375l-8.28125 0l-0.6875 3.890625q1.46875 -0.734375 3.0 -0.734375q2.921875 0 4.953125 2.125q2.03125 2.125 2.03125 5.515625q0 2.828125 -1.640625 5.046875q-2.234375 3.03125 -6.203125 3.03125q-3.171875 0 -5.171875 -1.703125q-2.0 -1.703125 -2.390625 -4.578125zm85.953125 -11.40625l-4.25 0.46875q-0.15625 -1.3125 -0.8125 -1.9375q-0.65625 -0.625 -1.703125 -0.625q-1.390625 0 -2.359375 1.25q-0.953125 1.25 -1.203125 5.203125q1.640625 -1.9375 4.078125 -1.9375q2.75 0 4.703125 2.09375q1.96875 2.09375 1.96875 5.40625q0 3.515625 -2.0625 5.640625q-2.0625 2.125 -5.296875 2.125q-3.46875 0 -5.703125 -2.6875q-2.234375 -2.703125 -2.234375 -8.84375q0 -6.296875 2.328125 -9.078125q2.328125 -2.78125 6.046875 -2.78125q2.609375 0 4.3125 1.46875q1.71875 1.453125 2.1875 4.234375zm-9.953125 9.578125q0 2.140625 0.984375 3.3125q0.984375 1.15625 2.25 1.15625q1.21875 0 2.03125 -0.953125q0.8125 -0.953125 0.8125 -3.125q0 -2.234375 -0.875 -3.265625q-0.875 -1.046875 -2.1875 -1.046875q-1.265625 0 -2.140625 1.0q-0.875 0.984375 -0.875 2.921875zm66.21875 -10.796875l0 -4.078125l15.015625 0l0 3.1875q-1.859375 1.828125 -3.78125 5.25q-1.921875 3.421875 -2.9375 7.28125q-1.0 3.84375 -0.984375 6.875l-4.234375 0q0.109375 -4.75 1.953125 -9.6875q1.859375 -4.9375 4.953125 -8.828125l-9.984375 0zm74.90625 6.15625q-1.703125 -0.71875 -2.484375 -1.96875q-0.765625 -1.265625 -0.765625 -2.765625q0 -2.5625 1.78125 -4.234375q1.796875 -1.671875 5.09375 -1.671875q3.265625 0 5.0625 1.671875q1.8125 1.671875 1.8125 4.234375q0 1.59375 -0.828125 2.84375q-0.828125 1.234375 -2.328125 1.890625q1.90625 0.765625 2.890625 2.234375q1.0 1.46875 1.0 3.390625q0 3.171875 -2.03125 5.15625q-2.015625 1.984375 -5.375 1.984375q-3.125 0 -5.203125 -1.640625q-2.453125 -1.9375 -2.453125 -5.3125q0 -1.859375 0.921875 -3.40625q0.921875 -1.5625 2.90625 -2.40625zm0.90625 -4.421875q0 1.3125 0.734375 2.046875q0.75 0.734375 1.984375 0.734375q1.25 0 2.0 -0.734375q0.75 -0.75 0.75 -2.0625q0 -1.234375 -0.75 -1.96875q-0.734375 -0.75 -1.953125 -0.75q-1.265625 0 -2.015625 0.75q-0.75 0.75 -0.75 1.984375zm-0.40625 9.8125q0 1.8125 0.921875 2.828125q0.9375 1.015625 2.328125 1.015625q1.359375 0 2.25 -0.96875q0.890625 -0.984375 0.890625 -2.828125q0 -1.609375 -0.90625 -2.578125q-0.90625 -0.984375 -2.296875 -0.984375q-1.609375 0 -2.40625 1.109375q-0.78125 1.109375 -0.78125 2.40625zm66.96875 1.671875l4.25 -0.46875q0.15625 1.296875 0.8125 1.921875q0.65625 0.625 1.734375 0.625q1.359375 0 2.3125 -1.25q0.953125 -1.25 1.21875 -5.1875q-1.65625 1.921875 -4.140625 1.921875q-2.703125 0 -4.671875 -2.078125q-1.953125 -2.09375 -1.953125 -5.4375q0 -3.484375 2.0625 -5.609375q2.078125 -2.140625 5.28125 -2.140625q3.484375 0 5.71875 2.703125q2.234375 2.6875 2.234375 8.859375q0 6.28125 -2.328125 9.0625q-2.328125 2.78125 -6.0625 2.78125q-2.6875 0 -4.34375 -1.421875q-1.65625 -1.4375 -2.125 -4.28125zm9.9375 -9.59375q0 -2.125 -0.984375 -3.296875q-0.96875 -1.171875 -2.25 -1.171875q-1.21875 0 -2.03125 0.96875q-0.796875 0.953125 -0.796875 3.140625q0 2.21875 0.875 3.265625q0.875 1.03125 2.1875 1.03125q1.265625 0 2.125 -1.0q0.875 -1.0 0.875 -2.9375z" fill-rule="nonzero"></path><path fill="#000000" fill-opacity="0.0" d="m639.7533 494.1076l0 0c0 3.6002808 -2.1287231 7.05307 -5.9177856 9.598846c-3.7890625 2.5457764 -8.928162 3.9759521 -14.286682 3.9759521l-68.5202 0c-11.15863 0 -20.204468 6.077667 -20.204468 13.574799l0 0c0 -7.4971313 -9.045837 -13.574799 -20.204468 -13.574799l-68.5202 0c-11.15863 0 -20.204468 -6.0776367 -20.204468 -13.574799z" fill-rule="evenodd"></path><path fill="#000000" fill-opacity="0.0" d="m639.7533 494.1076l0 0c0 3.6002808 -2.1287231 7.05307 -5.9177856 9.598846c-3.7890625 2.5457764 -8.928162 3.9759521 -14.286682 3.9759521l-68.5202 0c-11.15863 0 -20.204468 6.077667 -20.204468 13.574799l0 0c0 -7.4971313 -9.045837 -13.574799 -20.204468 -13.574799l-68.5202 0c-11.15863 0 -20.204468 -6.0776367 -20.204468 -13.574799" fill-rule="evenodd"></path><path stroke="#000000" stroke-width="4.0" stroke-linejoin="round" stroke-linecap="butt" d="m639.7533 494.1076l0 0c0 3.6002808 -2.1287231 7.05307 -5.9177856 9.598846c-3.7890625 2.5457764 -8.928162 3.9759521 -14.286682 3.9759521l-68.5202 0c-11.15863 0 -20.204468 6.077667 -20.204468 13.574799l0 0c0 -7.4971313 -9.045837 -13.574799 -20.204468 -13.574799l-68.5202 0c-11.15863 0 -20.204468 -6.0776367 -20.204468 -13.574799" fill-rule="evenodd"></path><path fill="#000000" fill-opacity="0.0" d="m379.4882 526.5932l303.2756 0l0 34.519653l-303.2756 0z" fill-rule="evenodd"></path><path fill="#000000" d="m493.7041 566.3132l4.78125 -22.90625l4.71875 0l-2.03125 9.734375l10.59375 -9.734375l6.3125 0l-10.28125 8.984375l7.546875 13.921875l-5.328125 0l-5.65625 -10.90625l-4.453125 3.890625l-1.46875 7.015625l-4.734375 0z" fill-rule="nonzero"></path><path fill="#000000" d="m525.7666 553.5632l0 -4.03125l16.015625 0l0 4.03125l-16.015625 0zm0 6.9375l0 -4.046875l16.015625 0l0 4.046875l-16.015625 0zm27.453125 -0.265625l4.25 -0.515625q0.203125 1.625 1.09375 2.484375q0.890625 0.859375 2.15625 0.859375q1.359375 0 2.28125 -1.03125q0.9375 -1.03125 0.9375 -2.78125q0 -1.65625 -0.890625 -2.625q-0.890625 -0.96875 -2.171875 -0.96875q-0.84375 0 -2.015625 0.328125l0.484375 -3.578125q1.78125 0.046875 2.71875 -0.765625q0.9375 -0.828125 0.9375 -2.1875q0 -1.15625 -0.6875 -1.84375q-0.6875 -0.6875 -1.828125 -0.6875q-1.125 0 -1.921875 0.78125q-0.796875 0.78125 -0.96875 2.28125l-4.046875 -0.6875q0.421875 -2.078125 1.265625 -3.3125q0.859375 -1.25 2.375 -1.953125q1.53125 -0.71875 3.421875 -0.71875q3.234375 0 5.1875 2.0625q1.609375 1.6875 1.609375 3.8125q0 3.015625 -3.296875 4.8125q1.96875 0.421875 3.140625 1.890625q1.1875 1.46875 1.1875 3.546875q0 3.015625 -2.203125 5.140625q-2.203125 2.125 -5.484375 2.125q-3.109375 0 -5.15625 -1.78125q-2.046875 -1.796875 -2.375 -4.6875z" fill-rule="nonzero"></path></g></svg>

